<svg width="133" height="130" viewBox="0 0 133 130" fill="none" xmlns="http://www.w3.org/2000/svg">
<path opacity="0.6" d="M104.416 13.1409C119.766 23.6245 128.309 40.8106 130.98 59.4469C133.823 79.285 132.716 100.712 119.032 114.775C105.158 129.035 83.8373 130.629 63.8313 128.457C43.4792 126.247 23.0446 119.927 11.6577 103.093C-0.338789 85.3582 -2.44588 62.1374 5.36613 42.1309C12.8685 22.9173 30.5071 10.075 50.2739 4.28601C68.7412 -1.12235 88.4752 2.25293 104.416 13.1409Z" stroke="#00DB2C" stroke-width="1.5"/>
<path d="M65.1421 46.952V49.64L57.0781 77H52.6621L60.4861 50.552H51.7021V46.952H65.1421ZM71.7188 58.232H76.3748C79.3828 58.232 80.8868 59.64 80.8868 62.456V72.776C80.8868 75.592 79.3828 77 76.3748 77H71.7668C68.7908 77 67.3028 75.592 67.3028 72.776V67.448H71.6708V72.104C71.6708 72.68 71.7668 73.064 71.9588 73.256C72.1508 73.416 72.5348 73.496 73.1108 73.496H75.0788C75.6548 73.496 76.0388 73.416 76.2308 73.256C76.4228 73.064 76.5188 72.68 76.5188 72.104V63.128C76.5188 62.552 76.4228 62.168 76.2308 61.976C76.0388 61.784 75.6548 61.688 75.0788 61.688H67.3988V46.952H80.7908V50.456H71.7188V58.232Z" fill="#00DB2C"/>
</svg>
