<svg width="173" height="172" viewBox="0 0 173 172" fill="none" xmlns="http://www.w3.org/2000/svg">
<path opacity="0.6" d="M99.9758 1.44487C124.683 4.75302 142.416 24.9641 155.317 46.7112C168.284 68.5695 176.764 93.592 168.665 117.289C160.166 142.156 139.17 161.395 113.762 168.55C89.2939 175.441 63.9474 167.042 42.6909 152.687C21.5117 138.384 3.44571 118.166 1.93065 93.072C0.447666 68.5088 16.987 47.8251 35.3527 30.6626C53.7123 13.5058 75.51 -1.83096 99.9758 1.44487Z" stroke="#D51287" stroke-width="2"/>
<path d="M84.1652 71.7527H93.4056C99.3753 71.7527 102.36 74.5471 102.36 80.1358V100.617C102.36 106.206 99.3753 109 93.4056 109H84.2605C78.3543 109 75.4012 106.206 75.4012 100.617V90.043H84.07V99.2833C84.07 100.426 84.2605 101.189 84.6415 101.57C85.0226 101.887 85.7847 102.046 86.9278 102.046H90.8335C91.9767 102.046 92.7388 101.887 93.1198 101.57C93.5009 101.189 93.6914 100.426 93.6914 99.2833V81.4694C93.6914 80.3263 93.5009 79.5642 93.1198 79.1831C92.7388 78.8021 91.9767 78.6116 90.8335 78.6116H75.5917V49.3663H102.17V56.3204H84.1652V71.7527Z" fill="#D51287"/>
</svg>
