<svg width="157" height="150" viewBox="0 0 157 150" fill="none" xmlns="http://www.w3.org/2000/svg">
<path opacity="0.6" d="M151.322 50.311C163.018 81.0607 153.539 115.992 126.661 135.93C100.653 155.222 64.8138 152.468 37.4991 134.674C10.3727 117.002 -5.10998 86.0496 3.44065 55.7023C12.2978 24.2671 41.4921 2.03622 75.2245 0.803873C109.02 -0.430769 139.664 19.6593 151.322 50.311Z" stroke="#FFA929" stroke-width="1.5"/>
<path d="M62.649 59.656V65.368H57.609V58.872C57.609 55.5867 59.345 53.944 62.817 53.944H67.633C71.1423 53.944 72.897 55.5867 72.897 58.872V62.4C72.897 65.0133 72.2437 67.5707 70.937 70.072L63.377 84.912H73.121V89H57.665V85.08L66.233 68.952C67.2783 66.9733 67.801 64.7333 67.801 62.232V59.656C67.801 58.984 67.689 58.5547 67.465 58.368C67.2783 58.144 66.8303 58.032 66.121 58.032H64.329C63.657 58.032 63.209 58.144 62.985 58.368C62.761 58.5547 62.649 58.984 62.649 59.656ZM88.696 83.288V59.656C88.696 58.984 88.584 58.5547 88.36 58.368C88.136 58.144 87.688 58.032 87.016 58.032H83.992C83.32 58.032 82.872 58.144 82.648 58.368C82.4613 58.5547 82.368 58.984 82.368 59.656V83.288C82.368 83.96 82.4613 84.408 82.648 84.632C82.872 84.8187 83.32 84.912 83.992 84.912H87.016C87.688 84.912 88.136 84.8187 88.36 84.632C88.584 84.408 88.696 83.96 88.696 83.288ZM93.792 58.872V84.072C93.792 87.3573 92.056 89 88.584 89H82.48C78.9707 89 77.216 87.3573 77.216 84.072V58.872C77.216 55.5867 78.9707 53.944 82.48 53.944H88.584C92.056 53.944 93.792 55.5867 93.792 58.872Z" fill="#FFA929"/>
</svg>
