<svg width="133" height="129" viewBox="0 0 133 129" fill="none" xmlns="http://www.w3.org/2000/svg">
<g opacity="0.6">
<mask id="path-1-inside-1_150_1297" fill="white">
<path d="M104.839 11.5216C120.406 22.1539 129.03 39.5554 131.723 58.3405C134.572 78.2242 133.512 99.9688 119.57 114.298C105.438 128.824 83.7972 130.379 63.7504 128.203C43.342 125.987 22.616 119.632 11.0365 102.513C-1.10555 84.5632 -3.22929 61.0817 4.66751 40.8581C12.2775 21.3688 30.1421 8.40036 50.0631 2.56624C68.7533 -2.9074 88.719 0.511202 104.839 11.5216Z"/>
</mask>
<path d="M104.839 11.5216L103.993 12.7602L104.839 11.5216ZM131.723 58.3405L130.238 58.5533L131.723 58.3405ZM119.57 114.298L118.495 113.252L119.57 114.298ZM63.7504 128.203L63.9123 126.711L63.7504 128.203ZM11.0365 102.513L12.2789 101.673L11.0365 102.513ZM4.66751 40.8581L3.27025 40.3125L4.66751 40.8581ZM50.0631 2.56624L50.4847 4.00578L50.0631 2.56624ZM103.993 12.7602C119.125 23.0952 127.588 40.0658 130.238 58.5533L133.207 58.1277C130.472 39.045 121.688 21.2127 105.685 10.2829L103.993 12.7602ZM130.238 58.5533C133.075 78.3459 131.92 99.4542 118.495 113.252L120.645 115.344C135.104 100.483 136.07 78.1024 133.207 58.1277L130.238 58.5533ZM118.495 113.252C104.879 127.247 83.8774 128.879 63.9123 126.711L63.5885 129.694C83.717 131.88 105.996 130.4 120.645 115.344L118.495 113.252ZM63.9123 126.711C43.6164 124.508 23.4732 118.222 12.2789 101.673L9.79403 103.354C21.7588 121.042 43.0677 127.466 63.5885 129.694L63.9123 126.711ZM12.2789 101.673C0.427975 84.1531 -1.66247 61.1931 6.06476 41.4037L3.27025 40.3125C-4.7961 60.9704 -2.63908 84.9733 9.79403 103.354L12.2789 101.673ZM6.06476 41.4037C13.4596 22.4657 30.8721 9.74958 50.4847 4.00578L49.6416 1.12671C29.4121 7.05115 11.0955 20.272 3.27025 40.3125L6.06476 41.4037ZM50.4847 4.00578C68.7291 -1.3373 88.2314 1.99465 103.993 12.7602L105.685 10.2829C89.2066 -0.972248 68.7776 -4.47751 49.6416 1.12671L50.4847 4.00578Z" fill="#00DB2C" mask="url(#path-1-inside-1_150_1297)"/>
</g>
</svg>
