<svg width="105" height="102" viewBox="0 0 105 102" fill="none" xmlns="http://www.w3.org/2000/svg">
<path opacity="0.6" d="M82.3008 10.2375C94.3697 18.4807 101.083 31.9905 103.181 46.6304C105.413 62.2011 104.549 79.0501 93.7823 90.1161C82.866 101.336 66.0995 102.582 50.3977 100.877C34.4225 99.1427 18.3548 94.1795 9.39776 80.938C-0.032039 66.9975 -1.68726 48.7474 4.45217 33.0244C10.3514 17.9166 24.2175 7.8254 39.7451 3.27797C54.2611 -0.973219 69.772 1.68019 82.3008 10.2375Z" stroke="white"/>
<path d="M48.7494 38.968V59H45.8374V41.304H43.5334V38.968H48.7494ZM58.4887 55.736V42.232C58.4887 41.848 58.4247 41.6027 58.2967 41.496C58.1687 41.368 57.9127 41.304 57.5287 41.304H55.8007C55.4167 41.304 55.1607 41.368 55.0327 41.496C54.926 41.6027 54.8727 41.848 54.8727 42.232V55.736C54.8727 56.12 54.926 56.376 55.0327 56.504C55.1607 56.6107 55.4167 56.664 55.8007 56.664H57.5287C57.9127 56.664 58.1687 56.6107 58.2967 56.504C58.4247 56.376 58.4887 56.12 58.4887 55.736ZM61.4007 41.784V56.184C61.4007 58.0613 60.4087 59 58.4247 59H54.9367C52.9313 59 51.9287 58.0613 51.9287 56.184V41.784C51.9287 39.9067 52.9313 38.968 54.9367 38.968H58.4247C60.4087 38.968 61.4007 39.9067 61.4007 41.784Z" fill="white"/>
</svg>
