<svg width="56" height="56" viewBox="0 0 56 56" fill="none" xmlns="http://www.w3.org/2000/svg">
<path fill-rule="evenodd" clip-rule="evenodd" d="M4.66669 14.0001C4.66669 11.5247 5.65002 9.15076 7.40036 7.40042C9.1507 5.65008 11.5247 4.66675 14 4.66675H42C44.4754 4.66675 46.8493 5.65008 48.5997 7.40042C50.35 9.15076 51.3334 11.5247 51.3334 14.0001V42.0001C51.3334 44.4754 50.35 46.8494 48.5997 48.5997C46.8493 50.3501 44.4754 51.3334 42 51.3334H14C11.5247 51.3334 9.1507 50.3501 7.40036 48.5997C5.65002 46.8494 4.66669 44.4754 4.66669 42.0001V14.0001ZM14 9.33342C12.7623 9.33342 11.5754 9.82508 10.7002 10.7003C9.82502 11.5754 9.33335 12.7624 9.33335 14.0001V42.0001C9.33335 43.2378 9.82502 44.4247 10.7002 45.2999C11.5754 46.1751 12.7623 46.6668 14 46.6668H42C43.2377 46.6668 44.4247 46.1751 45.2999 45.2999C46.175 44.4247 46.6667 43.2378 46.6667 42.0001V14.0001C46.6667 12.7624 46.175 11.5754 45.2999 10.7003C44.4247 9.82508 43.2377 9.33342 42 9.33342H14ZM28 21.0001C26.1435 21.0001 24.363 21.7376 23.0503 23.0503C21.7375 24.3631 21 26.1436 21 28.0001C21 29.8566 21.7375 31.6371 23.0503 32.9498C24.363 34.2626 26.1435 35.0001 28 35.0001C29.8565 35.0001 31.637 34.2626 32.9498 32.9498C34.2625 31.6371 35 29.8566 35 28.0001C35 26.1436 34.2625 24.3631 32.9498 23.0503C31.637 21.7376 29.8565 21.0001 28 21.0001ZM16.3334 28.0001C16.3334 24.9059 17.5625 21.9384 19.7504 19.7505C21.9384 17.5626 24.9058 16.3334 28 16.3334C31.0942 16.3334 34.0617 17.5626 36.2496 19.7505C38.4375 21.9384 39.6667 24.9059 39.6667 28.0001C39.6667 31.0943 38.4375 34.0617 36.2496 36.2497C34.0617 38.4376 31.0942 39.6668 28 39.6668C24.9058 39.6668 21.9384 38.4376 19.7504 36.2497C17.5625 34.0617 16.3334 31.0943 16.3334 28.0001ZM40.8334 18.6667C41.7616 18.6667 42.6519 18.298 43.3082 17.6416C43.9646 16.9852 44.3334 16.095 44.3334 15.1667C44.3334 14.2385 43.9646 13.3483 43.3082 12.6919C42.6519 12.0355 41.7616 11.6667 40.8334 11.6667C39.9051 11.6667 39.0149 12.0355 38.3585 12.6919C37.7021 13.3483 37.3334 14.2385 37.3334 15.1667C37.3334 16.095 37.7021 16.9852 38.3585 17.6416C39.0149 18.298 39.9051 18.6667 40.8334 18.6667Z" fill="#C2E978"/>
</svg>
