<svg width="278" height="186" viewBox="0 0 278 186" fill="none" xmlns="http://www.w3.org/2000/svg">
<path d="M243.505 87.0782C246.12 86.5913 248.625 86.6386 250.815 88.0781C253.83 90.0535 256.434 92.4479 257.66 96.0247C259.338 100.912 261.09 105.76 262.319 110.773C262.825 112.718 262.719 114.772 262.014 116.652C261.353 118.505 260.54 120.3 259.583 122.019C259.135 122.816 258.703 123.629 258.243 124.463C258.772 124.602 259.322 124.643 259.865 124.582C262.135 124.597 264.41 124.608 266.439 125.89C266.636 125.973 266.845 126.03 267.057 126.058C267.977 126.267 268.835 126.687 269.564 127.286C270.293 127.884 270.873 128.645 271.258 129.507C272.264 131.446 273.007 133.511 273.468 135.646C274.149 139.36 275.069 143.051 274.902 146.857C274.712 151.215 272.993 155.006 270.463 158.472C270.057 159.036 269.375 159.253 268.833 159.826C269.361 159.805 269.89 159.82 270.416 159.871C271.404 160.041 272.343 160.423 273.168 160.992C273.994 161.56 274.687 162.301 275.198 163.164C276.078 164.65 276.652 166.297 276.885 168.007C277.585 172.067 277.913 176.182 277.864 180.3C277.799 187.1 274.96 192.759 270.221 197.531C268.972 198.794 267.701 200.046 266.493 201.343C264.903 203.058 262.879 204.181 261 205.493C255.232 209.507 249.362 213.37 243.614 217.42C239.081 220.576 234.415 223.535 229.634 226.305C220.696 231.502 211.313 235.792 201.998 240.225C197.808 242.217 193.643 244.258 189.398 246.114C186.396 247.451 183.303 248.572 180.142 249.47C178.923 249.779 177.675 249.956 176.418 249.999C171.571 250.342 166.768 251.145 162.073 252.394C157.437 253.549 152.717 254.381 148.234 256.127C142.226 258.414 136.632 261.666 131.672 265.755C130.552 266.685 129.657 267.865 128.304 268.558C127.882 268.779 127.968 269.063 128.195 269.452C128.987 270.628 129.605 271.912 130.029 273.265C130.313 274.358 130.399 275.462 129.627 276.429C129.551 276.523 129.449 276.655 129.466 276.747C129.715 278.101 128.616 278.669 127.889 279.44C126.142 281.301 124.157 282.903 122.296 284.636C121.822 285.071 121.906 285.262 122.239 285.838C123.689 288.352 125.157 290.872 125.389 293.892C125.525 295.251 125.311 296.623 124.766 297.875C124.222 299.127 123.366 300.218 122.279 301.044C116.409 305.83 110.111 310.066 104.412 315.09C97.114 321.468 89.6826 327.681 82.2039 333.848C80.5275 335.234 78.7499 336.501 77.0323 337.838C76.9301 337.941 76.7914 337.999 76.6462 338.001C76.5011 338.002 76.3611 337.947 76.2565 337.846C69.5244 333.004 63.0923 327.857 58.3076 320.941C57.0516 319.233 55.8919 317.456 54.8339 315.619C54.0507 314.054 53.4164 312.419 52.9392 310.736C52.7353 310.108 53.0669 309.833 53.4626 309.517C53.974 309.108 54.154 309.615 54.4183 309.852C55.2687 310.657 56.0644 311.506 56.9603 312.263C57.3567 312.618 57.9696 313.133 58.4026 312.664C58.8355 312.195 58.3016 311.607 57.8806 311.265C54.8832 308.804 52.8022 305.62 50.8186 302.354C50.2372 301.393 50.2163 300.326 49.9299 299.272C49.9161 299.228 49.912 299.181 49.9181 299.135C49.9242 299.09 49.9402 299.046 49.9651 299.006C49.9899 298.967 50.023 298.934 50.062 298.909C50.101 298.884 50.145 298.868 50.1908 298.862C50.3605 298.792 50.546 298.768 50.7281 298.794C50.9102 298.819 51.0822 298.893 51.2263 299.007C52.6861 300.305 54.2071 301.571 55.7005 302.844C55.7456 302.887 55.7878 302.933 55.8268 302.981C56.2511 303.493 56.8862 303.723 57.3481 303.309C57.8099 302.895 57.4092 302.324 57.018 301.92C55.048 299.826 53.1095 297.763 51.1997 295.591C49.1765 293.307 48.3552 290.667 47.4453 287.768C40.6763 266.312 19.098 246.245 18.9121 246.069C16.5472 243.698 14.1944 241.321 11.8295 238.95C9.786 236.895 7.49813 235.148 5.57908 232.973C4.07291 231.224 2.7806 229.302 1.72957 227.247C1.58507 226.971 1.50849 226.69 1.10061 226.701C0.324779 226.709 0.234039 226.178 0.293098 225.561C0.345594 225.022 0.519524 224.502 0.801809 224.04C1.08409 223.579 1.46737 223.187 1.92285 222.895C7.78919 218.861 13.6681 214.837 19.7863 211.195C26.1088 207.407 32.288 203.404 38.384 199.258C40.4892 197.827 42.6391 196.467 44.6766 194.892C45.3577 194.435 46.1794 194.236 46.9946 194.33C47.8098 194.424 48.5654 194.805 49.1262 195.405C49.4676 195.789 49.6874 195.807 50.1068 195.595C53.9522 193.54 57.6697 191.253 61.2388 188.748C61.8573 188.261 62.5258 187.84 63.2331 187.493C63.7793 187.285 64.5443 186.72 65.3106 187.335C65.7847 187.703 67.1628 187.669 68.342 186.942C69.5211 186.215 81.3621 178.787 83.6124 176.709C86.534 174.023 89.9585 171.596 91.7273 167.974C92.8766 165.651 93.5233 163.111 93.6252 160.519C93.8321 153.855 94.4536 147.209 94.5392 140.508C94.7015 129.664 94.5455 118.823 93.9662 107.993C93.7862 105.588 93.8259 103.172 94.0849 100.774C94.2748 99.3387 94.5748 97.92 94.9821 96.5307C96.2898 91.9392 97.8253 87.455 99.5347 83.0048C102.175 75.978 103.958 68.6565 104.844 61.1993C105.283 57.7191 105.555 54.2327 105.92 50.7446C106.561 43.6622 105.89 36.5203 103.941 29.6781C103.004 26.1764 102.1 22.6649 101.062 19.193C100.546 17.4632 99.6671 15.8451 99.1202 14.1159C96.7284 6.57118 100.993 1.90744 104.879 0.629962C108.052 -0.414853 111.217 -0.00190306 114.347 0.835632C118.485 1.84553 122.317 3.84692 125.513 6.66744C130.342 11.1227 134.794 15.8696 137.877 21.7863C139.281 24.4655 139.978 27.4206 141.008 30.249C144.6 40.0867 144.118 50.0356 142.031 60.0506C141.163 64.2009 140.199 68.3312 140.016 72.5835C139.765 76.7505 140.813 80.8947 143.015 84.4435C143.156 84.7316 143.367 84.9797 143.629 85.1648C143.891 85.3498 144.195 85.466 144.513 85.5025C145.086 85.5694 145.655 85.7324 146.251 85.8423C147.564 86.018 148.899 85.8662 150.138 85.4004C156.437 83.5777 162.022 80.1836 167.772 77.1795C172.669 74.6148 177.665 72.4043 182.743 70.2913C185.384 69.1973 187.908 67.8672 190.462 66.5768C197.685 62.8815 205.436 60.3264 213.442 59.0016C215.534 58.6618 217.665 58.6356 219.766 58.9239C222.661 59.3176 225.508 60.0191 228.256 61.0164C232.192 62.4552 235.114 65.1749 237.306 68.6754C238.543 70.6212 239.851 72.5223 241.092 74.5051C243.24 77.9198 244.453 81.6051 243.84 85.7074C243.765 86.1142 243.624 86.5314 243.505 87.0782ZM150.594 234.468C151.962 235.814 153.351 236.977 155.503 236.858C157.332 236.76 159.162 237.41 161.002 237.275C166.096 236.983 171.116 235.933 175.898 234.16C177.093 233.566 178.393 233.215 179.724 233.125C179.583 233.559 179.353 233.959 179.048 234.298C178.744 234.638 178.373 234.91 177.957 235.098C175.326 236.426 172.488 237.297 169.564 237.673C165.568 238.204 161.563 238.778 157.495 238.62C157.368 238.616 157.19 238.545 157.14 238.806C157.443 238.952 157.733 239.12 158.042 239.247C159.12 239.683 160.144 240.49 161.305 240.444C164.132 240.466 166.953 240.186 169.72 239.608C174.207 238.56 178.557 236.997 182.684 234.95C185.939 233.286 189.307 231.854 192.763 230.663C198.024 228.9 202.866 226.216 207.863 223.903C214.769 220.708 220.959 216.145 227.177 211.771C228.144 211.085 229.243 210.564 229.959 209.532C231.065 208.012 232.049 206.407 232.904 204.732C233.061 204.471 233.121 204.163 233.073 203.862C232.712 202.324 233.358 201.697 235.035 201.459L243.033 200.348C243.523 200.292 244.02 200.36 244.478 200.545C244.939 200.71 245.124 200.886 244.782 201.394C244.006 202.514 243.099 203.537 242.081 204.441C240.094 206.263 237.75 207.655 235.552 209.22C232.509 211.392 229.463 213.574 226.322 215.618C221.568 218.727 216.564 221.437 211.362 223.719C204.632 226.611 198.307 230.408 191.31 232.745C186.847 234.231 182.741 236.592 178.35 238.26C174.673 239.654 170.986 240.999 167.016 241.281C166.865 241.29 166.647 241.217 166.559 241.466C167.73 241.751 168.977 241.497 170.087 241.962C170.267 242.044 170.462 242.089 170.66 242.092C170.858 242.096 171.055 242.06 171.238 241.985C174.026 241.04 176.775 239.944 179.62 239.211C187.403 237.213 194.523 233.593 201.799 230.345C203.929 229.393 205.956 228.214 208.057 227.208C215.14 223.86 221.951 219.966 228.429 215.561C230.778 213.955 233.044 212.221 235.435 210.68C239.175 208.276 242.858 205.792 246.354 203.055C247.907 201.835 249.425 200.579 251.129 199.202C248.826 198.944 246.498 199.011 244.214 199.402C240.261 200.074 236.322 200.715 232.338 201.387C231.009 201.643 229.642 201.634 228.316 201.361C224.896 200.635 221.769 198.905 219.333 196.393C217.014 193.975 214.825 191.45 212.743 188.829C210.987 186.624 209.753 184.207 209.679 181.371C209.615 180.308 209.226 179.289 208.565 178.454C206.697 175.737 203.881 174.173 201.279 172.348C201.091 172.212 200.91 172.135 200.703 172.321C200.238 172.608 199.804 172.942 199.409 173.319C199.212 173.579 198.956 173.786 198.661 173.924C198.367 174.062 198.043 174.126 197.718 174.111C197.171 174.109 196.922 173.872 197 173.307C197.032 172.97 197.13 172.643 197.29 172.344C197.45 172.046 197.668 171.783 197.931 171.57C198.189 171.358 198.371 171.068 198.45 170.744C198.575 170.357 198.279 170.255 198.103 170.081C197.764 169.821 197.709 170.178 197.577 170.357L196.204 172.084C195.523 172.993 194.764 173.84 193.934 174.616C193.6 174.917 193.088 175.294 192.706 175.026C192.323 174.757 192.721 174.236 192.878 173.865C193.293 172.664 193.787 171.492 194.355 170.357C194.207 170.409 194.073 170.495 193.964 170.608L188.422 175.855C188.189 176.139 187.898 176.37 187.569 176.532C187.24 176.695 186.881 176.786 186.514 176.8C186.502 176.531 186.546 176.263 186.643 176.012C186.739 175.761 186.887 175.532 187.076 175.341C187.697 174.665 188.327 173.991 188.975 173.339C189.569 172.669 190.018 171.883 190.294 171.031C189.845 171.077 189.411 171.219 189.022 171.447C186.445 172.484 184.987 174.763 183.108 176.537C182.604 177.068 181.958 177.442 181.246 177.613C180.185 177.769 179.114 177.844 178.042 177.839C177.223 177.885 177.3 178.626 177.009 179.083C176.865 179.299 176.687 179.572 177.026 179.801C177.843 180.349 177.44 180.889 176.915 181.257C176.092 181.829 172.894 182.098 172.678 182.102C167.552 182.442 162.436 181.817 157.314 181.687C156.82 181.693 156.332 181.578 155.891 181.354C155.314 181.055 155.234 180.784 155.857 180.411C156.663 180.022 157.564 179.876 158.452 179.989C163.391 180.067 168.334 180.361 173.247 179.616C174.65 179.404 174.7 179.41 174.962 177.991C173.709 177.936 172.458 177.841 171.206 177.833C168.779 177.815 166.353 177.844 163.929 177.863C163.282 177.885 162.642 177.725 162.081 177.401C161.649 177.143 161.703 176.919 162.073 176.671C162.625 176.335 163.263 176.167 163.909 176.186C167.496 176.096 171.086 175.966 174.687 175.916C175.074 175.971 175.466 175.874 175.782 175.645C176.099 175.417 176.315 175.075 176.385 174.691C176.615 173.938 176.61 173.721 175.726 173.715C169.991 173.696 164.254 173.614 158.494 173.576C157.817 173.622 157.14 173.489 156.53 173.191C156.117 172.954 156.175 172.783 156.539 172.554C157.1 172.233 157.744 172.088 158.389 172.139C164.004 172.183 169.618 172.031 175.224 171.744C177.58 171.627 177.58 171.627 177.885 169.17C177.637 169.159 177.396 169.145 177.155 169.146L169.885 169.22C169.423 169.253 168.959 169.193 168.521 169.043C168.138 168.877 167.588 168.751 167.561 168.296C167.533 167.842 168.096 167.711 168.476 167.543C168.879 167.39 169.306 167.312 169.736 167.313L176.715 166.877C178.258 166.771 178.212 166.757 178.346 165.241C178.425 164.348 178.129 164.276 177.342 164.322C171.177 164.644 165.012 164.428 158.848 164.141C158.155 164.113 157.095 163.981 157.137 163.302C157.18 162.624 158.246 162.635 158.961 162.644C160.921 162.664 162.898 162.715 164.836 162.692C168.826 162.764 172.815 162.524 176.767 161.974C178.543 161.685 178.521 161.673 178.448 159.867C178.428 159.307 178.274 159.177 177.693 159.184C175.735 159.288 173.773 159.339 171.808 159.415C167.941 159.581 164.078 159.175 160.199 159.245C157.433 159.311 154.698 159.165 151.918 159.012C151.392 159.006 150.877 158.854 150.432 158.571C150.247 158.442 149.933 158.348 149.982 158.026C150.032 157.703 150.308 157.769 150.527 157.74C150.756 157.661 150.996 157.617 151.239 157.61C154.918 157.784 158.595 157.851 162.278 157.914C165.681 157.93 169.081 157.743 172.46 157.354C172.52 157.36 172.58 157.354 172.637 157.335C172.694 157.317 172.746 157.286 172.79 157.246C172.835 157.206 172.87 157.157 172.894 157.102C172.919 157.047 172.931 156.988 172.931 156.928C173.221 155.143 173.037 154.927 171.267 155.002C170.508 155.041 169.797 155.069 169.055 155.083C165.938 155.218 162.813 155.057 159.725 154.602C159.409 154.586 159.099 154.505 158.814 154.365C158.529 154.226 158.275 154.031 158.068 153.791C158.28 153.637 158.522 153.529 158.778 153.473C159.035 153.416 159.3 153.413 159.557 153.464C163.713 153.951 167.824 153.462 171.945 152.991C172.572 152.921 172.756 152.692 172.599 152.125C172.443 151.558 172.779 150.859 171.692 150.959C166.912 151.408 162.131 151.006 157.345 150.833C156.755 150.844 156.179 150.656 155.708 150.299C155.953 150.099 156.239 149.954 156.546 149.876C156.852 149.798 157.172 149.788 157.483 149.846C162.084 149.997 166.689 149.708 171.233 148.981C171.585 148.922 172.272 149.117 172.025 148.363C171.834 147.775 172.201 146.748 170.944 146.851C169.967 146.926 168.986 146.952 168.006 146.929C167.313 146.917 166.277 146.874 166.241 146.166C166.206 145.458 167.22 145.294 167.925 145.166C168.766 145.015 169.62 144.904 170.461 144.752C170.656 144.721 171.027 144.729 170.982 144.48C170.901 143.876 170.75 143.284 170.533 142.715C170.39 142.352 169.989 142.554 169.68 142.575C164.838 142.728 159.998 143.091 155.148 142.827C154.427 142.879 153.713 142.652 153.154 142.191C153.755 141.858 154.444 141.718 155.128 141.79C157.519 141.918 159.916 141.811 162.285 141.472C164.577 141.053 166.882 140.689 169.185 140.319C169.647 140.249 170.017 140.211 169.853 139.555C169.722 139.022 169.719 138.57 168.924 138.674C167.592 138.856 166.243 138.961 164.896 139.01C164.222 139.035 163.31 138.872 163.265 138.161C163.226 137.596 164.125 137.39 164.726 137.287C165.99 137.033 167.265 136.844 168.549 136.722C169.716 136.642 169.287 135.913 169.285 135.313C169.292 134.434 168.682 134.847 168.274 134.873C163.639 135.431 158.97 135.663 154.302 135.567C153.715 135.572 153.139 135.418 152.633 135.12C152.16 134.829 152.14 134.597 152.619 134.276C153.207 133.953 153.879 133.814 154.547 133.876C159.278 134.093 163.896 133.26 168.503 132.347C169.588 132.139 169.109 131.374 169.139 130.85C169.184 130.131 168.563 130.495 168.261 130.529C164.562 130.794 160.861 131.099 157.163 131.396C156.621 131.482 156.066 131.441 155.541 131.277C155.41 131.22 155.226 131.137 155.19 131.023C155.124 130.808 155.345 130.723 155.498 130.627C156.022 130.362 156.602 130.225 157.19 130.225C160.859 129.927 164.504 129.383 168.099 128.598C169.571 128.295 169.685 128.111 169.611 126.555C167.124 126.96 164.618 127.163 162.115 127.403C161.449 127.471 160.442 127.499 160.349 126.891C160.257 126.283 161.228 126.11 161.868 125.978C164.129 125.529 166.329 124.876 168.53 124.208C169.327 124.064 170.091 123.778 170.786 123.362L169.895 122.735C169.208 122.227 168.56 121.809 167.818 122.729C167.456 123.02 167.011 123.188 166.547 123.207C163.551 123.8 160.504 123.731 157.473 123.827C157.197 123.843 156.92 123.795 156.665 123.686C156.41 123.576 156.184 123.409 156.005 123.197C159.545 122.7 163.032 121.881 166.422 120.749C166.173 120.344 165.804 120.029 165.365 119.847C164.927 119.665 164.442 119.627 163.981 119.738C160.921 120.352 157.811 120.689 154.689 120.745C154.169 120.823 153.639 120.706 153.199 120.417C154.628 119.035 156.627 119.277 158.231 118.468C159.835 117.659 161.827 117.679 163.807 117.306C163.356 116.98 163.419 116.267 162.803 116.386C161.06 116.737 159.263 116.506 157.516 116.851C157.214 116.899 156.904 116.886 156.607 116.811C156.206 116.716 155.599 116.659 155.587 116.205C155.575 115.75 156.149 115.566 156.565 115.497C157.859 115.233 159.113 114.805 160.297 114.222C160.825 113.987 161.403 113.888 161.979 113.935C161.871 113.117 161.789 112.409 160.616 112.821C160.249 112.899 159.871 112.899 159.504 112.822C159.137 112.745 158.791 112.592 158.486 112.373C157.708 111.945 157.572 111.446 158.089 110.722C158.372 110.318 158.756 109.994 159.202 109.784C159.649 109.573 160.143 109.483 160.635 109.521C160.87 109.523 161.236 109.746 161.204 109.223C161.181 108.837 160.928 108.845 160.612 108.838C159.109 108.8 157.606 108.927 156.131 109.216C154.364 109.627 152.542 109.745 150.736 109.565C150.382 109.55 150.035 109.457 149.721 109.292C149.406 109.127 149.132 108.894 148.919 108.611C149.114 108.433 149.345 108.298 149.597 108.216C149.848 108.134 150.115 108.107 150.378 108.136C151.789 108.089 153.184 107.815 154.508 107.324C156.393 106.649 158.281 105.996 160.325 106.145C160.647 106.164 160.914 106.227 160.951 105.746C160.988 105.266 160.703 105.274 160.397 105.255C159.435 105.049 158.445 105.007 157.47 105.132C156.552 105.194 155.631 105.153 154.722 105.008C154.425 104.977 154.03 104.848 153.978 104.555C153.925 104.262 154.235 103.959 154.515 103.765C154.661 103.65 154.827 103.563 155.005 103.509C155.97 103.211 156.897 102.802 157.767 102.289C158.452 101.93 159.457 102.091 159.896 101.603C160.335 101.116 159.962 100.061 160.299 99.3058C160.33 99.2898 160.251 99.2139 160.24 99.1027C159.782 99.2719 159.325 99.4566 158.861 99.5981C157.821 99.9644 156.732 100.174 155.63 100.22C155.385 100.215 155.149 100.124 154.963 99.9625C154.778 99.8014 154.654 99.5804 154.615 99.3379C154.501 98.9284 155.088 98.9022 155.395 98.7574C155.618 98.6706 155.854 98.6183 156.093 98.6024C157.565 98.4271 158.962 97.8575 160.136 96.9538C161.138 96.237 162.278 95.7359 163.483 95.4818C163.779 95.3962 164.094 95.4069 164.383 95.5123C164.673 95.6178 164.921 95.8125 165.093 96.0684C165.34 96.5405 164.67 96.7508 164.329 97.0231C163.366 97.9951 162.802 99.294 162.75 100.663C162.969 100.635 163.026 100.432 163.123 100.288C164.623 98.0321 166.599 96.1329 168.913 94.7241C171.379 93.2214 173.926 91.8558 176.543 90.6337C177.357 90.3008 178.035 89.7029 178.467 88.9364C178.899 88.17 179.06 87.2798 178.925 86.4095C178.866 85.4636 178.841 84.5078 178.86 83.5605C178.888 82.7647 179.171 81.7723 179.966 81.7703C180.76 81.7682 180.716 82.815 180.775 83.4948C180.889 84.8884 180.947 86.2954 181.028 87.7454C181.402 87.5114 181.716 87.1943 181.947 86.8189C183.813 84.6492 186.083 82.8633 188.63 81.5604C188.907 81.3667 189.224 81.2398 189.558 81.1897C189.892 81.1397 190.232 81.1677 190.554 81.2717C190.377 81.7197 190.078 82.109 189.691 82.3952C188.018 83.8314 186.42 85.3541 184.905 86.957C182.225 89.9385 179.026 92.4081 175.464 94.2462C173.522 95.185 171.705 96.3321 169.872 97.4486C169.478 97.6213 169.137 97.8943 168.882 98.2402C168.537 98.777 168.063 99.2186 167.504 99.5247C166.322 100.441 165.132 101.384 164.532 102.785C162.808 106.672 164.11 113.163 167.167 116.14C168.761 117.695 170.445 119.064 172.913 118.49C173.128 118.448 173.351 118.473 173.552 118.562C174.494 119.006 175.471 118.83 176.446 118.772C178.585 118.589 180.711 118.289 182.816 117.873C188.479 116.892 193.961 115.325 198.865 112.225C204.085 108.937 209.215 105.508 214.479 102.289C218.026 100.127 221.47 97.7681 225.019 95.6983C226.612 94.7257 227.962 93.4014 228.965 91.8264C229.131 91.5913 229.352 91.3428 229.311 91.1455C227.793 91.9405 226.186 92.6258 224.72 93.5498C220.612 96.2332 216.503 98.9321 212.337 101.521C211.784 101.865 210.854 102.399 210.525 101.86C210.142 101.217 210.902 100.553 211.546 100.145C212.505 99.5339 213.48 98.953 214.426 98.3169C217.303 96.3645 220.058 94.1792 223.055 92.3515C224.831 91.2733 226.697 90.444 228.403 89.2773C230.533 87.8491 232.077 86.0478 232.152 83.4067C232.286 79.3458 231.125 75.3459 228.838 71.9857C227.815 70.4572 226.501 69.1449 224.972 68.124C223.443 67.1031 221.728 66.3934 219.926 66.0356C219.594 65.9559 219.271 65.8393 218.964 65.6879C218.443 65.4374 218.552 65.1848 218.977 64.9388C219.545 64.621 220.206 64.5095 220.848 64.6232C223.349 64.92 225.789 65.6088 228.078 66.6643C228.708 66.8981 229.254 67.3136 229.648 67.8582C231.353 70.524 232.924 73.2739 234.353 76.0974C235.447 78.3057 236.639 80.4627 236.53 83.0982C237.687 82.4923 238.442 81.7298 238.385 80.4001C238.359 79.695 238.354 78.9864 238.39 78.2801C238.416 77.4823 238.174 76.6985 237.7 76.0552C236.436 74.1626 235.266 72.2125 233.984 70.3295C232.091 67.335 229.182 65.124 225.793 64.1032C223.599 63.4013 221.35 62.8831 219.07 62.5542C217.731 62.3606 216.374 62.3415 215.031 62.4975C207.375 63.6258 199.932 65.8941 192.95 69.2271C190.56 70.3536 188.187 71.5108 185.803 72.6341C182.051 74.4043 178.077 75.6338 174.351 77.4685C168.095 80.5499 161.958 83.8581 155.592 86.7156C154.572 87.0509 153.597 87.5092 152.688 88.0805C151.391 89.1191 149.879 89.5519 148.4 90.1234C147.729 90.368 147.011 90.4588 146.3 90.3893C145.588 90.3197 144.902 90.0915 144.29 89.7215C143.23 89.1574 142.283 88.4037 141.495 87.4977C139.537 85.1506 138.136 82.3899 137.398 79.4238C136.446 75.6265 136.362 71.6642 137.153 67.8325C137.785 64.3767 138.598 60.9114 139.288 57.4483C140.635 50.6094 141.21 43.7691 139.486 36.89C138.947 34.7428 138.287 32.6349 137.597 30.5276C136.631 27.6114 135.751 24.6658 134.138 22.0027C131.24 17.3564 127.69 13.1508 123.596 9.51532C119.715 5.97741 115.024 4.19961 109.868 3.57219C108.522 3.40189 107.157 3.52059 105.862 3.92035C103.363 4.68987 99.3494 7.33131 102.362 14.2303C103.603 17.2078 104.622 20.2728 105.41 23.4001C107.038 29.4856 108.742 35.5543 109.209 41.8651C109.55 46.374 109.103 50.8354 108.745 55.3044C107.973 64.8963 106.334 74.3494 103.111 83.4288C101.442 88.2095 99.7282 92.9197 98.3513 97.7662C97.3506 100.99 96.8613 104.352 96.9011 107.729C97.1791 117.061 97.4539 126.386 97.4046 135.733C97.3539 144.065 96.7619 152.376 96.426 160.669C96.1923 165.479 94.7413 170.021 91.2853 173.683C89.4153 175.754 87.4329 177.721 85.3471 179.574C81.7846 182.491 78.0332 185.168 74.1173 187.589C71.9252 189.003 69.5322 190.108 67.4965 191.776C67.323 191.933 67.1124 192.043 66.8845 192.097C66.0393 192.195 66.0895 192.708 66.317 193.277C66.6415 194.06 67.0364 193.384 67.3182 193.252C70.8788 191.622 73.7123 188.856 77.1036 186.947C79.4827 185.607 81.7275 184.041 84.0427 182.594C84.7115 182.173 85.7022 181.771 86.1321 182.414C86.562 183.056 85.7911 183.788 85.1855 184.284C83.4783 185.644 81.6085 186.787 79.6191 187.684C78.3334 188.2 77.1031 188.845 75.9467 189.608C73.1962 191.732 70.2735 193.624 67.2091 195.263C66.9031 195.423 66.7822 195.564 66.8658 195.888C67.3542 197.788 67.5731 199.814 68.3834 201.57C70.118 205.377 72.0774 209.079 74.2512 212.654C77.735 218.337 81.4724 223.864 85.3197 229.319C91.6365 238.222 98.2362 246.891 106.044 254.575C106.495 255.019 106.757 255.132 107.302 254.698C107.797 254.308 108.364 254.019 108.97 253.848C112.677 252.638 116.258 251.071 119.662 249.169C120.152 248.913 120.641 248.656 121.131 248.4C121.492 248.211 121.99 248.059 122.202 248.464C122.414 248.869 121.991 249.238 121.623 249.369C120.37 249.822 119.402 250.743 118.223 251.321C115.043 252.787 111.99 254.512 109.092 256.479C108.878 256.591 108.182 256.557 108.619 257.063C108.925 257.41 109.118 258.286 109.995 257.592C111.492 256.468 113.057 255.437 114.681 254.505C115.147 254.203 115.686 254.029 116.241 254C116.773 253.988 117.427 254.075 117.623 254.48C117.82 254.885 117.255 255.266 116.924 255.572C116.684 255.809 116.411 256.01 116.114 256.169C114.885 256.82 113.716 257.578 112.621 258.436C110.966 259.654 110.959 259.611 112.535 260.981C112.596 261.058 112.673 261.12 112.76 261.165C112.847 261.209 112.942 261.235 113.04 261.24C113.138 261.245 113.235 261.229 113.326 261.194C113.418 261.158 113.5 261.103 113.568 261.033C114.646 260.336 115.746 259.682 116.837 259.025L127.617 252.488C128.512 251.949 129.372 251.373 130.255 250.809C132.669 249.223 135.196 247.816 137.815 246.599C139.018 246.063 140.177 245.432 141.281 244.713C141.458 244.62 141.893 244.393 141.531 244.223C140.885 243.913 140.277 243.317 139.395 243.779C138.121 244.517 136.811 245.203 135.526 245.923C131.618 248.11 127.695 250.329 123.789 252.492C122.97 253.036 122.052 253.413 121.087 253.603C120.579 253.674 119.924 253.72 119.736 253.123C119.548 252.526 120.167 252.382 120.508 252.094C120.684 251.97 120.875 251.87 121.077 251.796C125.332 249.942 129.461 247.834 133.539 245.628C134.951 244.869 136.3 243.998 137.572 243.023C137.389 242.674 136.839 242.696 136.928 242.345C137.017 241.993 137.447 241.979 137.779 241.899C138.112 241.826 138.456 241.824 138.79 241.893C139.055 241.976 139.342 241.952 139.589 241.826C140.337 241.348 141.101 240.886 141.852 240.414C142.042 240.314 142.232 240.215 142.068 239.918C141.979 239.758 141.858 239.617 141.713 239.504C141.568 239.391 141.403 239.308 141.226 239.259C141.048 239.211 140.864 239.198 140.682 239.222C140.5 239.246 140.325 239.306 140.166 239.399C137.992 240.608 136.009 242.138 133.751 243.204C133.449 243.389 133.112 243.509 132.761 243.559C132.41 243.608 132.052 243.586 131.71 243.492C131.819 243.246 131.977 243.026 132.175 242.846C132.374 242.665 132.607 242.528 132.862 242.443C135.144 241.381 136.949 239.63 139.012 238.253C139.357 238.018 139.388 237.853 139.07 237.558C138.859 237.364 138.522 237.064 138.675 236.804C138.828 236.545 139.294 236.707 139.617 236.741C139.939 236.775 140.359 237.25 140.813 236.896C141.267 236.541 141.875 236.168 142.402 235.805C142.562 235.722 142.715 235.642 142.607 235.378C142.54 235.207 142.436 235.053 142.303 234.927C142.17 234.8 142.011 234.705 141.837 234.647C141.663 234.589 141.479 234.57 141.297 234.591C141.115 234.613 140.94 234.674 140.784 234.77C140.539 234.898 140.329 235.079 140.094 235.225C138.481 236.226 137.038 237.506 135.262 238.256C134.978 238.422 134.662 238.527 134.335 238.564C134.008 238.601 133.676 238.569 133.362 238.47C133.379 238.354 133.429 238.246 133.506 238.158C133.584 238.07 133.685 238.007 133.798 237.976C136.118 236.956 137.822 235.087 139.828 233.63C140.005 233.537 140.264 233.48 140.262 233.207C140.252 232.682 138.699 231.846 138.256 232.133C137.566 232.588 136.899 233.086 136.206 233.535C135.897 233.768 135.533 233.917 135.149 233.968C134.766 234.018 134.375 233.968 134.016 233.822C134.135 233.433 134.399 233.105 134.753 232.905C135.277 232.521 135.824 232.18 136.336 231.787C137.45 230.937 137.402 230.963 136.507 229.955C136.181 229.587 135.935 229.622 135.564 229.793C134.755 230.154 133.943 230.525 133.111 230.827C132.313 231.183 131.419 231.267 130.568 231.066C130.768 230.656 131.066 230.303 131.436 230.037C131.806 229.771 132.235 229.601 132.687 229.542C134.924 229.018 136.567 227.509 138.578 226.315C137.555 225.672 136.842 224.639 135.503 225.254C135.208 225.338 134.897 225.351 134.595 225.292C134.05 225.249 133.691 225.055 134.256 224.54C134.657 224.174 134.642 223.923 134.24 223.587C134.134 223.521 134.051 223.422 134.006 223.305C133.96 223.188 133.953 223.06 133.986 222.939C134.434 222.799 134.916 222.823 135.348 223.007C136.104 223.392 136.589 223.068 137.092 222.539C137.87 221.632 138.756 220.824 139.731 220.133C140.354 219.744 141.248 219.26 141.715 219.93C142.183 220.599 141.403 221.21 140.849 221.657C140.295 222.103 139.618 222.567 139.006 223.036C137.781 223.975 137.808 223.937 139.136 224.773C139.249 224.885 139.384 224.971 139.533 225.027C139.681 225.083 139.84 225.107 139.998 225.098C140.156 225.088 140.311 225.046 140.452 224.973C140.593 224.9 140.716 224.799 140.816 224.675C141.323 224.134 141.95 223.72 142.647 223.465C143.086 223.321 143.704 223.146 143.952 223.485C144.2 223.824 143.789 224.351 143.458 224.658C142.814 225.214 142.119 225.703 141.442 226.214C141.554 226.43 141.709 226.621 141.897 226.776C142.084 226.931 142.302 227.046 142.535 227.114C142.768 227.183 143.013 227.203 143.255 227.174C143.496 227.145 143.729 227.067 143.939 226.945C144.586 226.652 145.29 226.506 146 226.516C146.71 226.526 147.41 226.692 148.049 227.004C148.461 227.21 148.969 227.584 148.854 228.02C148.739 228.455 148.1 228.336 147.715 228.257C146.5 228.046 145.25 228.222 144.141 228.761C145.079 229.419 145.551 230.515 146.769 230.651C146.832 230.648 146.895 230.663 146.95 230.695C147.004 230.726 147.049 230.773 147.078 230.829C147.108 230.885 147.12 230.948 147.115 231.011C147.11 231.074 147.087 231.134 147.048 231.184C147.01 231.268 147.004 231.363 147.031 231.451C147.059 231.539 147.118 231.614 147.197 231.661C148.237 232.703 149.374 233.643 150.594 234.468ZM255.377 112.604C256.703 111.8 256.904 111.632 257.021 110.962C257.493 109.108 257.489 107.164 257.01 105.311C256.509 103.73 255.95 102.171 255.471 100.586C254.458 97.1629 253 94.0669 249.868 91.9884C249.163 91.4707 248.362 91.0983 247.513 90.8927C246.663 90.6871 245.782 90.6525 244.919 90.7909C243.924 90.9606 242.957 91.3031 241.965 91.4635C240.972 91.6239 239.767 91.9428 238.758 91.4474C238.622 91.3505 238.458 91.2989 238.291 91.2997C238.123 91.3005 237.96 91.3538 237.825 91.452C231.09 95.5107 224.048 99.0117 217.416 103.251C212.316 106.5 207.038 109.468 201.958 112.738C197.82 115.396 193.361 117.516 188.688 119.048C186.938 119.585 185.37 120.596 184.157 121.968C183.761 122.418 183.628 123.027 183.215 123.43C180.719 125.886 180.793 129.23 180.207 132.296C180.202 132.511 180.23 132.725 180.291 132.932C180.979 136.801 182.846 140.364 185.634 143.134C185.891 143.398 186.203 143.603 186.549 143.733C191.792 145.94 197.329 146.133 202.843 145.715C207.442 145.368 211.707 143.533 215.784 141.429C219.861 139.325 223.865 137.008 227.906 134.79C232.022 132.592 236.247 130.604 240.564 128.832C240.938 128.637 241.521 128.62 241.678 128.249C242.1 127.043 243.071 126.144 243.493 124.954C243.723 124.353 244.071 123.803 244.516 123.338C244.96 122.873 245.494 122.502 246.084 122.246C246.732 122.033 247.301 121.629 247.715 121.086C248.503 119.611 249.585 118.357 250.469 116.948C250.723 116.566 250.846 116.113 250.821 115.655C250.455 108.76 249.089 102.147 245.377 96.192C245.106 95.813 244.909 95.3861 244.796 94.9338C244.689 94.357 244.559 93.691 245.07 93.2979C245.582 92.9049 246.137 93.1609 246.67 93.3741C246.957 93.5501 247.264 93.6911 247.584 93.7938C248.145 93.9001 248.678 94.1209 249.149 94.4425C249.621 94.764 250.022 95.1794 250.326 95.6627C252.71 99.0071 254.259 102.874 254.843 106.938C255.05 108.807 255.179 110.677 255.377 112.604ZM47.477 200.402C47.1881 200.491 47.1604 200.498 47.2935 201.139C47.9386 203.95 48.8908 206.682 50.133 209.285C51.8318 213.005 53.5644 216.715 55.3856 220.371C57.9273 225.462 60.3344 230.623 63.601 235.311C67.8855 241.466 72.3285 247.507 76.7897 253.522C83.457 262.579 90.8918 271.044 99.0112 278.823C103.015 282.609 107.332 285.997 111.627 289.403C111.809 289.543 112.097 290.032 112.319 289.502C112.738 288.501 113.603 287.963 114.369 287.311C117.951 284.232 121.602 281.241 124.641 277.587C124.87 277.31 125.257 277.139 124.759 276.666C121.136 273.219 117.617 269.656 113.933 266.272C103.609 256.841 94.3609 246.293 86.3608 234.821C83.1605 230.2 79.9601 225.579 76.8787 220.872C74.2879 216.908 71.6819 212.96 69.4087 208.799C67.8904 206.019 66.5498 203.147 65.3948 200.198C64.3796 197.604 63.1624 195.116 62.5594 192.416C62.4173 191.788 62.2104 191.959 61.838 192.201C59.8629 193.493 57.9107 194.844 55.8718 196.029C53.157 197.642 50.3509 199.096 47.4674 200.384L47.477 200.402ZM260.887 142.244C261.144 142.109 261.159 141.929 261.249 141.773C262.266 139.873 261.681 137.937 261.356 136.021C261.193 134.794 260.662 133.645 259.833 132.725C258.981 131.662 258.042 130.672 257.026 129.765C256.273 129.191 255.448 128.404 254.373 128.467C250.908 128.672 247.519 129.096 244.264 130.551C240.348 132.305 236.24 133.652 232.378 135.526C226.575 138.339 220.829 141.263 215.157 144.343C209.981 147.148 204.545 148.995 198.576 148.692C197.295 148.628 196.55 148.815 196.081 150.139C195.261 152.444 194.427 154.724 194.776 157.222C195.322 160.739 196.716 164.072 198.839 166.93C200.184 168.843 202.248 169.879 204.098 171.207C206.744 173.087 209.673 173.498 212.782 173.104C216.014 172.708 219.13 171.733 222.297 171.019C227.451 169.883 232.457 168.198 237.64 167.163C240.618 166.564 243.673 166.456 246.548 165.154C249.055 164.079 251.476 162.811 253.788 161.361C254.778 160.74 255.671 159.975 256.437 159.091C257.458 157.854 258.607 156.729 259.865 155.733C260.926 154.988 261.735 153.937 262.186 152.72C261.421 152.93 260.63 153.028 259.836 153.014C259.75 152.979 259.657 152.963 259.564 152.965C259.471 152.967 259.379 152.988 259.295 153.026C259.21 153.065 259.134 153.12 259.071 153.189C259.008 153.258 258.96 153.338 258.929 153.426C257.702 155.342 256.456 157.237 255.235 159.15C255.038 159.517 254.759 159.833 254.42 160.074C254.081 160.315 253.691 160.475 253.281 160.541C253.011 160.597 252.755 160.707 252.529 160.864C252.162 161.057 251.697 161.3 251.443 160.934C251.188 160.567 251.446 160.002 251.82 159.822C252.821 159.352 253.143 158.402 253.553 157.531C254.487 155.534 255.656 153.609 255.999 151.391C256.516 147.417 256.143 143.377 254.905 139.564C254.353 137.834 253.642 136.158 252.783 134.558C252.284 133.804 252.105 132.884 252.284 131.999C252.412 131.557 252.662 131.231 253.139 131.457C253.825 131.772 254.566 131.947 255.32 131.971C255.537 131.991 255.747 132.056 255.937 132.163C256.127 132.269 256.293 132.414 256.423 132.589C257.249 133.719 258.271 134.629 258.746 135.982C259.571 138.029 260.286 140.12 260.887 142.244ZM215.896 175.028C215.807 175.046 215.724 175.087 215.655 175.146C215.586 175.205 215.534 175.281 215.504 175.367C214.59 176.898 213.893 178.549 213.432 180.272C213.24 180.894 213.236 181.56 213.42 182.185C214.154 184.273 215.092 186.283 216.221 188.187C217.607 190.492 219.63 192.285 221.434 194.254C224.647 197.782 228.692 198.789 233.237 198.174C237.002 197.663 240.748 196.998 244.509 196.466C246.691 196.105 248.912 196.06 251.107 196.33C252.31 196.482 253.703 196.729 254.758 195.856C256.763 194.188 258.705 192.445 260.608 190.643C261.867 189.547 262.837 188.159 263.435 186.6C264.41 183.943 264.982 181.155 265.132 178.328C265.253 173.893 264.419 169.483 262.687 165.396C262.029 163.827 261.412 163.572 259.831 164.173C257.137 165.194 254.482 166.334 251.693 167.1C246.812 168.312 241.868 169.253 236.884 169.919C232.424 170.622 228.113 171.997 223.691 172.86C221.034 173.371 218.425 174.103 215.89 175.047L215.896 175.028ZM263.273 198.888C262.584 199.062 236.041 216.23 235.399 216.613C232.488 218.381 229.598 220.191 226.664 221.915C221.294 225.064 215.985 228.227 210.441 231.029C206.054 233.241 192.229 239.905 189.613 240.822C177.223 245.46 162.775 247.48 161.309 247.763C155.802 248.835 146.217 250.98 137.163 256.418C131.369 259.89 128.499 261.737 124.028 265.993C123.195 266.562 121.754 269.528 122.309 269.769C122.471 269.84 123.015 269.047 123.388 268.657C123.461 268.618 123.547 268.574 123.604 268.489C126.421 266.169 129.211 263.826 132.133 261.631C136.909 258.06 142.168 255.185 147.751 253.091C152.033 251.583 156.403 250.338 160.836 249.362C164.731 248.4 168.546 247.106 172.59 246.8C174.768 246.725 176.935 246.451 179.063 245.98C184.409 244.571 189.351 242.154 194.323 239.823C200.18 237.052 206.008 234.226 211.856 231.422C221.76 226.713 231.284 221.243 240.343 215.063C246.636 210.696 252.98 206.428 259.319 202.046C260.709 201.052 262.168 200.248 263.28 198.901L263.273 198.888ZM44.0274 206.608C43.9045 206.88 43.8399 207.174 43.8378 207.473C43.8356 207.771 43.8959 208.067 44.0149 208.341C44.3298 209.27 44.6785 210.189 44.9136 211.144C46.1737 216.472 48.2023 221.59 50.9358 226.335C52.5797 229.146 54.3764 231.861 56.1028 234.621C58.3304 238.189 61.0642 241.398 63.3826 244.871C64.4076 246.252 65.5015 247.58 66.6601 248.85C68.2752 250.817 69.869 252.803 71.4935 254.773C71.8165 255.166 72.3997 255.743 72.7561 255.471C73.2159 255.113 72.5902 254.573 72.377 254.107C72.3434 254.02 72.3003 253.938 72.2486 253.861C70.3159 251.303 68.1343 248.985 66.4289 246.19C65.1455 244.112 63.4465 242.283 61.9585 240.336C59.3812 236.904 56.6208 233.6 54.8 229.647C53.2802 226.388 51.4602 223.271 50.011 219.983C48.3688 216.311 46.6712 212.653 45.3018 208.862C45.0197 208.039 44.5876 207.274 44.0274 206.608ZM152.236 243.202C152.68 244.423 152.471 244.783 151.359 245.029C150.847 245.144 150.312 245.106 149.821 244.92C149.273 244.723 148.734 244.498 148.186 244.3C147.638 244.103 145.873 244.472 145.88 244.797C145.908 245.939 145.126 245.458 144.656 245.438C144.325 245.387 143.987 245.416 143.671 245.524C140.739 246.793 137.943 248.354 135.325 250.185C132.203 252.601 128.955 254.849 125.595 256.922C124.614 257.506 123.447 257.781 122.634 258.566C121.167 259.838 119.534 260.903 117.78 261.734C117.132 262.074 116.477 262.417 115.86 262.818C115.646 262.93 115.074 263.12 115.53 263.514C115.886 263.82 116.216 264.718 116.822 264.119C118.949 262.223 121.498 261.044 123.789 259.446C126.08 257.848 128.367 256.587 130.722 255.26C136.211 252.174 141.932 249.545 147.604 246.824C148.843 246.211 150.157 245.766 151.514 245.502C153.07 245.227 154.612 244.895 156.367 244.523L152.236 243.202ZM62.9846 251.244C63.0166 251.079 63.033 250.911 63.0335 250.742C62.8325 249.74 62.3489 248.817 61.6398 248.081C58.0319 243.65 54.8116 238.917 52.0147 233.934C48.8894 228.25 45.5806 222.662 43.3402 216.539C43.2588 216.242 43.1089 215.968 42.9025 215.739C42.6961 215.511 42.4391 215.334 42.1521 215.223C42.0209 215.49 41.9455 215.78 41.9305 216.077C41.9156 216.373 41.9614 216.67 42.0652 216.949C42.6152 218.772 43.258 220.566 43.9911 222.323C46.8997 229.738 51.0647 236.424 55.7343 242.822C57.7038 245.525 60.3034 247.719 62.124 250.554C62.3127 250.886 62.6205 251.133 62.9846 251.244ZM50.1645 250.013C50.0617 249.521 49.8238 249.066 49.4773 248.701C47.024 245.869 44.85 242.805 42.9857 239.554C39.3648 233.731 36.3018 227.579 33.8377 221.18C33.6235 220.599 33.2181 220.109 32.6883 219.79C32.0906 219.423 31.8225 219.626 31.6588 220.266C31.5583 221.127 31.76 221.996 32.2293 222.725C35.2476 229.39 38.8623 235.768 43.0292 241.781C44.7689 244.269 46.3928 246.848 48.4831 249.082C48.6803 249.348 48.9325 249.57 49.2226 249.731C49.5128 249.892 49.834 249.988 50.1645 250.013ZM23.5281 223.595C23.0528 222.688 22.1485 221.974 21.8326 222.264C21.2484 222.742 21.262 223.438 21.4269 224.125C21.4338 224.187 21.4475 224.248 21.4675 224.307C21.9172 225.741 22.4789 227.137 23.1474 228.482C24.4475 230.786 25.72 233.096 27.0446 235.387C27.979 237.007 28.9623 238.602 29.9701 240.183C30.3178 240.728 30.851 241.597 31.4502 241.252C31.9521 240.989 31.3996 240.083 31.098 239.522C29.2134 236.103 27.3749 232.667 25.7228 229.126C24.875 227.33 24.1419 225.483 23.5281 223.595ZM33.167 236.235C33.7703 237.379 34.4434 238.485 35.1825 239.547C36.4199 241.38 37.8568 243.069 39.4668 244.585C39.8131 244.903 40.3508 245.364 40.7301 245.001C41.1095 244.638 40.7027 244.07 40.4106 243.676C39.9154 243.014 39.347 242.405 38.8456 241.746C36.4947 238.475 34.3574 235.056 32.4472 231.51C32.1935 231.026 31.7682 230.303 31.3337 230.531C30.8991 230.759 31.1337 231.534 31.3414 232.035C31.9126 233.423 32.5521 234.823 33.1638 236.229L33.167 236.235ZM61.6787 317.683C61.6542 318.195 61.8132 318.699 62.1269 319.104C65.5783 323.817 69.7898 327.922 74.5881 331.25C75.0397 331.582 75.5977 331.735 76.1547 331.68C76.6482 331.625 76.8636 331.41 76.609 330.88C76.2658 330.295 75.7673 329.818 75.1692 329.501C70.4479 326.309 65.9958 322.813 62.4815 318.262C62.2983 317.973 62.0108 317.765 61.6787 317.683ZM48.074 240.006C48.1585 239.514 48.0723 239.008 47.8296 238.572C45.8781 234.468 43.9214 230.365 41.9595 226.262C41.6384 225.649 41.1728 224.76 40.5997 225.021C40.0267 225.282 40.179 226.273 40.4643 226.952C40.9304 228.02 41.4363 229.076 41.8863 230.113C43.2524 233.258 45.2021 236.057 46.9809 238.961C47.2013 239.435 47.5916 239.808 48.074 240.006ZM63.4199 256.439C63.2418 256.099 63.0091 255.79 62.7312 255.526C59.6351 252.458 56.7331 249.2 54.042 245.771C53.6833 245.267 53.1844 244.879 52.6074 244.656C52.0749 244.458 51.8767 244.601 51.9001 245.167C52.0081 245.902 52.3625 246.578 52.9053 247.086C55.6817 250.421 58.9622 253.289 61.9478 256.413C62.1925 256.647 62.4643 256.851 62.7573 257.02C62.9918 257.155 63.3048 257.351 63.5268 257.164C63.7489 256.977 63.4518 256.649 63.4199 256.439ZM26.5627 216.404C26.205 215.974 25.9739 215.384 25.5028 215.482C25.0317 215.581 24.908 216.208 24.8681 216.698C24.8492 217.034 24.8787 217.371 24.9556 217.699C25.7001 220.996 26.6012 224.236 28.7842 226.944C29.1676 227.423 29.6183 228.179 30.1627 227.878C30.6034 227.648 30.1979 226.829 29.9494 226.295C28.89 224.184 28.0451 221.972 27.4276 219.693C27.1583 218.569 26.8334 217.442 26.5627 216.404ZM101.551 287.798C101.656 288.351 101.924 288.861 102.319 289.263C106 292.984 109.846 296.485 114.761 298.544C115.146 298.736 115.574 298.825 116.003 298.8C116.731 298.7 116.858 298.407 116.506 297.81C116.173 297.323 115.672 296.976 115.099 296.836C110.33 295.177 106.501 292.081 102.94 288.617C102.598 288.177 102.102 287.884 101.551 287.798ZM19.542 231.621C20.0383 232.618 20.5983 233.583 21.2184 234.509C21.5385 234.911 22.0072 235.478 22.4527 235.183C22.8983 234.887 22.4597 234.273 22.2317 233.837C21.5895 232.611 20.9027 231.479 20.3499 230.245C18.8483 227.125 17.2182 224.072 16.7595 220.531C16.7159 220.097 16.5208 219.693 16.2086 219.389C15.862 219.055 15.643 219.084 15.5066 219.538C15.324 220.131 15.3321 220.766 15.5297 221.354C16.6353 224.863 17.9758 228.292 19.542 231.621ZM271.606 182.632C273.047 181.052 273.876 179.008 273.945 176.868C273.94 174.626 273.759 172.388 273.403 170.175C273.241 168.822 272.319 168.18 271.265 167.388C271.291 167.872 271.381 168.35 271.534 168.81C272.63 170.783 272.353 172.92 272.332 175.025C272.281 177.576 272.038 180.119 271.606 182.632ZM269.893 142.269C270.454 141.03 270.911 139.939 270.69 138.727C270.221 136.193 269.296 133.766 267.959 131.562C267.663 130.959 267.207 130.449 266.641 130.089C266.581 131.105 266.296 132.035 266.798 132.874C267.778 134.644 268.509 136.541 268.97 138.51C269.281 139.699 269.321 140.952 269.893 142.269ZM112.049 300.886C111.762 300.368 111.301 299.967 110.747 299.756C108.041 298.4 105.274 297.153 103.076 294.937C102.888 294.776 102.669 294.657 102.432 294.587C102.276 294.528 102.012 294.455 101.921 294.534C101.733 294.695 101.879 294.931 101.967 295.128C102.197 295.526 102.49 295.884 102.834 296.189C105.047 298.522 107.951 299.853 110.615 301.544C110.891 301.689 111.199 301.764 111.51 301.763C112.204 301.821 112.377 301.527 112.049 300.886ZM265.806 153.942C269.594 153.52 271.128 150.42 271.208 147.206C270.62 148.431 269.741 149.493 268.647 150.297C267.267 151.208 266.603 152.532 265.815 153.96L265.806 153.942ZM107.364 303.989C105.916 302.741 104.26 301.757 102.472 301.082C102.164 300.97 101.667 300.855 101.487 301.254C101.306 301.654 101.587 301.983 101.861 302.222C103.247 303.429 104.823 304.396 106.526 305.084C106.703 305.132 106.886 305.149 107.068 305.136C107.764 305.154 107.844 304.815 107.374 304.007L107.364 303.989ZM80.1706 326.928C79.9819 326.524 79.6771 326.186 79.2953 325.957C78.3493 325.327 77.4185 324.682 76.4516 324.087C75.9476 323.765 75.2326 323.248 74.8131 323.773C74.3936 324.297 74.902 325 75.3991 325.443C76.3907 326.324 77.5047 327.056 78.7063 327.617C79.0194 327.742 79.3563 327.795 79.6924 327.772C80.2735 327.765 80.5156 327.497 80.1706 326.928ZM8.61492 227.109C8.5201 227.314 8.4739 227.538 8.47992 227.764C8.48594 227.99 8.54401 228.212 8.64961 228.411C9.51106 231.009 10.6578 233.503 12.0688 235.848C12.4042 236.399 12.9671 237.205 13.4803 236.89C13.9936 236.574 13.4793 235.726 13.1104 235.201C11.9326 233.517 10.9221 231.723 10.0935 229.843C9.67652 228.913 9.4831 227.873 8.61492 227.109ZM115.221 290.889C115.244 291.275 113.99 291.159 114.707 291.783C116.6 293.432 118.603 294.977 121.242 295.251C121.456 295.272 121.77 295.514 121.858 295.147C121.927 294.99 121.942 294.815 121.901 294.649C121.86 294.482 121.766 294.334 121.633 294.226C121.561 294.178 121.453 294.18 121.372 294.144C119.388 293.245 117.183 292.713 115.743 290.842C115.584 290.659 115.441 290.742 115.221 290.889ZM75.146 318.496C75.1592 318.688 75.212 318.874 75.301 319.044C75.39 319.214 75.5133 319.364 75.663 319.484C77.8256 321.529 80.3189 323.193 83.0367 324.403C83.4794 324.593 84.1924 324.853 84.36 324.413C84.5277 323.974 83.8053 323.712 83.3693 323.549C80.7782 322.507 78.3887 321.019 76.3089 319.153C76.007 318.808 75.5968 318.577 75.146 318.496ZM184.272 166.145C184.552 165.538 184.723 164.885 184.775 164.218C184.866 163.811 184.727 163.665 184.295 163.688C183.659 163.755 183.013 163.742 182.381 163.815C182.084 163.846 181.617 163.668 181.552 164.155C181.393 164.867 181.334 165.597 181.378 166.325C181.398 166.362 181.535 166.43 181.609 166.423L184.272 166.145ZM185.204 158.766C185.125 158.362 184.91 158.459 184.744 158.484C184.009 158.571 183.23 158.706 182.477 158.788C182.085 158.829 182 159.038 181.954 159.382C181.786 161.087 181.771 161.088 183.44 160.893L184.713 160.734C184.898 160.715 185.121 160.724 185.148 160.506C185.182 159.871 185.179 159.24 185.204 158.766ZM175.073 154.837C175.013 154.931 174.907 155.026 174.906 155.128C174.865 155.736 174.671 156.423 174.894 156.923C175.077 157.273 175.775 156.923 176.245 156.927C176.641 156.921 177.035 156.882 177.424 156.809C177.692 156.77 178.152 156.904 178.084 156.417C178.001 155.812 178.27 154.866 177.636 154.698C176.862 154.486 175.956 154.766 175.073 154.837ZM184.743 155.937C184.837 155.833 184.981 155.75 184.982 155.663C185.023 155.054 184.898 154.444 184.62 153.9C184.37 153.421 183.905 153.86 183.543 153.854C183.422 153.864 183.302 153.892 183.189 153.938C181.635 154.276 181.608 154.313 181.867 155.881C181.902 156.097 181.883 156.357 182.197 156.317C183.06 156.193 183.905 156.063 184.743 155.937ZM136.664 229.287C137.976 230.6 139.081 229.911 140.171 229.013L140.25 228.971C140.505 228.744 140.991 228.583 140.515 228.137C140.2 227.849 140.014 227.18 139.355 227.619C138.423 228.178 137.51 228.742 136.664 229.287ZM183.568 168.882C180.858 168.785 180.672 168.922 180.44 171.129C182.918 171.081 183.138 170.935 183.543 168.894L183.568 168.882ZM72.3199 321.485C71.7863 320.674 71.0355 320.03 70.1536 319.627C69.9415 319.535 69.6758 319.385 69.4663 319.581C69.2568 319.776 69.3675 320.062 69.4368 320.284C69.6032 320.796 69.887 321.263 70.2654 321.647C70.6437 322.031 71.1063 322.321 71.6162 322.494C71.9061 322.616 72.3176 322.791 72.5495 322.474C72.7813 322.157 72.4948 321.893 72.3199 321.485ZM142.249 232.073C143.339 231.502 143.339 231.502 142.551 230.579C142.412 230.417 142.266 230.259 142.139 230.091C141.92 229.807 141.686 229.836 141.424 230.005C140.839 230.308 140.31 230.707 139.857 231.185C139.857 231.185 139.883 231.234 139.899 231.264C140.125 231.889 141.659 232.405 142.249 232.073ZM65.2943 310.32C64.8675 309.531 64.2113 308.891 63.4128 308.485C62.9392 308.295 62.722 308.417 62.779 308.957C62.8448 309.411 63.0019 309.848 63.2407 310.24C63.4795 310.631 63.7951 310.971 64.1683 311.238C64.5359 311.537 65.0734 311.834 65.4205 311.559C65.7676 311.283 65.4077 310.745 65.2943 310.32ZM174.9 150.725C174.541 151.186 174.844 151.793 174.852 152.36C174.859 152.582 176.684 152.611 177.15 152.281C177.769 151.839 177.226 151.233 177.193 150.695C177.197 150.42 175.679 150.395 174.906 150.737L174.9 150.725ZM75.9604 259.504C75.9968 260.735 78.0106 263.329 79.2617 263.751C79.3327 262.636 77.2584 259.957 75.9604 259.504ZM163.358 243.455C161.33 243.307 159.462 241.973 157.149 242.621C158.005 242.865 158.803 243.279 159.495 243.838C159.546 243.936 159.784 243.898 159.932 243.883L163.358 243.455ZM271.578 189.116C269.945 190.644 267.988 191.778 266.424 193.378C267.403 192.983 268.26 192.417 269.245 192.049C270.683 191.577 270.976 190.26 271.625 189.131L271.578 189.116ZM181.688 173.468C179.333 173.514 178.973 173.765 178.735 175.499C181.057 175.376 180.817 175.588 181.688 173.468ZM176.375 146.944C176.171 146.465 175.407 146.272 174.749 146.639C174.092 147.007 174.417 147.837 174.63 148.155C175.013 148.736 175.758 148.267 176.261 148.082C177.073 147.86 176.218 147.284 176.393 146.934L176.375 146.944ZM145.21 238.663C145.775 238.492 145.761 238.226 145.254 237.914C145.003 237.748 144.782 237.52 144.535 237.345C144.287 237.17 142.74 237.582 142.608 237.955C142.555 238.092 142.646 238.162 142.756 238.237C143.076 238.552 143.485 238.761 143.927 238.836C144.369 238.91 144.824 238.847 145.228 238.654L145.21 238.663ZM144.928 242.592C143.914 241.326 143.157 241.356 141.794 242.671C142.899 243.53 143.929 243.35 144.952 242.58L144.928 242.592ZM175.436 143.975C175.585 143.695 175.66 143.382 175.655 143.065C175.65 142.748 175.564 142.437 175.407 142.162C175.134 141.641 174.394 142.044 174.085 142.229C173.422 142.631 173.9 143.365 174.082 143.832C174.323 144.425 174.932 143.817 175.436 143.975ZM150.537 239.17C151.632 240.323 152.801 241.273 154.799 240.68C153.125 240.432 152.173 238.899 150.549 239.164L150.537 239.17ZM41.0042 209.637C40.9207 209.477 40.834 209.312 40.7199 209.168C40.6058 209.025 40.3849 208.633 40.1111 208.706C39.8374 208.779 39.873 209.174 39.8749 209.431C39.8764 209.843 39.9638 210.25 40.1314 210.626C40.299 211.003 40.5431 211.34 40.8481 211.617C41.1758 211.93 41.3812 211.846 41.4095 211.393C41.4359 210.782 41.2958 210.175 41.0042 209.637ZM96.6695 291.417L96.7433 291.558C97.0195 292.086 98.3522 292.575 98.6482 292.217C99.1254 291.639 98.2023 291.544 98.1227 291.109C98.0618 290.936 97.95 290.785 97.802 290.676C97.5062 290.409 97.1319 290.081 96.7594 290.323C96.387 290.565 96.5917 291.075 96.6695 291.417ZM174.769 129.448C174.355 129.391 173.934 129.457 173.558 129.637C172.725 129.909 172.961 130.731 173.063 131.194C173.164 131.656 173.772 131.283 174.142 131.245C174.513 131.208 174.944 129.872 174.781 129.442L174.769 129.448ZM143.674 233.17C142.866 233.593 142.866 233.593 143.521 234.173C143.699 234.349 143.892 234.509 144.099 234.651C144.562 234.924 144.877 234.47 145.278 234.385C145.315 234.381 145.352 234.369 145.384 234.35C145.417 234.33 145.445 234.304 145.466 234.273C145.487 234.241 145.502 234.206 145.508 234.168C145.515 234.131 145.513 234.093 145.503 234.056C145.442 233.877 145.347 233.712 145.221 233.57C145.096 233.428 144.944 233.312 144.774 233.23C144.603 233.147 144.418 233.1 144.23 233.089C144.041 233.079 143.852 233.107 143.674 233.17ZM30.6502 214.841C30.3931 214.499 30.1267 213.842 29.7076 214.069C29.1568 214.358 29.2231 215.065 29.506 215.62C29.734 216.055 30.1315 216.621 30.5806 216.346C31.0297 216.072 30.8616 215.379 30.6502 214.841ZM11.9712 222.617C11.8438 222.896 11.7763 223.199 11.773 223.506C11.7698 223.813 11.8308 224.118 11.9522 224.4C12.0737 224.683 12.2528 224.936 12.478 225.145C12.7033 225.354 12.9697 225.514 13.2602 225.614C13.2962 225.048 13.1982 224.482 12.9742 223.961C12.7502 223.44 12.4066 222.98 11.9712 222.617ZM146.374 236.241C147.595 237.5 148.159 237.728 149.001 237.31C147.033 235.474 147.362 235.669 146.384 236.259L146.374 236.241ZM182.631 151.308C182.876 151.18 183.215 151.143 182.921 150.805C182.627 150.467 182.182 149.989 181.791 149.6C181.624 149.43 181.298 149.389 181.291 149.659C181.227 150.234 181.302 150.816 181.51 151.357C181.751 151.817 182.258 151.222 182.631 151.308ZM149.616 241.566C148.29 240.003 147.767 239.793 146.669 240.407C147.612 240.866 148.412 241.471 149.616 241.566ZM174.467 138.506C174.3 137.874 173.888 138.027 173.589 138.184C172.941 138.437 173.249 139.026 173.413 139.339C173.619 139.895 174.175 139.541 174.475 139.415C175.002 139.17 174.391 138.764 174.467 138.506ZM173.888 134.527C173.742 134.143 173.443 134.213 173.26 134.325C172.703 134.617 173.035 135.177 173.044 135.61C173.052 136.043 173.434 135.835 173.594 135.767C174.262 135.48 173.682 134.893 173.888 134.527Z" fill="#634DBC"/>
</svg>
