<svg width="56" height="56" viewBox="0 0 56 56" fill="none" xmlns="http://www.w3.org/2000/svg">
<path fill-rule="evenodd" clip-rule="evenodd" d="M4.66663 14.0001C4.66663 11.5247 5.64996 9.15076 7.4003 7.40042C9.15064 5.65008 11.5246 4.66675 14 4.66675H42C44.4753 4.66675 46.8493 5.65008 48.5996 7.40042C50.35 9.15076 51.3333 11.5247 51.3333 14.0001V42.0001C51.3333 44.4754 50.35 46.8494 48.5996 48.5997C46.8493 50.3501 44.4753 51.3334 42 51.3334H14C11.5246 51.3334 9.15064 50.3501 7.4003 48.5997C5.64996 46.8494 4.66663 44.4754 4.66663 42.0001V14.0001ZM14 9.33342C12.7623 9.33342 11.5753 9.82508 10.7001 10.7003C9.82496 11.5754 9.33329 12.7624 9.33329 14.0001V42.0001C9.33329 43.2378 9.82496 44.4247 10.7001 45.2999C11.5753 46.1751 12.7623 46.6668 14 46.6668H28V30.3334H25.6666C25.0478 30.3334 24.4543 30.0876 24.0167 29.65C23.5791 29.2124 23.3333 28.6189 23.3333 28.0001C23.3333 27.3812 23.5791 26.7878 24.0167 26.3502C24.4543 25.9126 25.0478 25.6667 25.6666 25.6667H28V22.1667C28 20.0008 28.8604 17.9236 30.3919 16.392C31.9235 14.8605 34.0007 14.0001 36.1666 14.0001H37.5666C38.1855 14.0001 38.779 14.2459 39.2165 14.6835C39.6541 15.1211 39.9 15.7146 39.9 16.3334C39.9 16.9523 39.6541 17.5457 39.2165 17.9833C38.779 18.4209 38.1855 18.6667 37.5666 18.6667H36.1666C35.707 18.6667 35.2519 18.7573 34.8272 18.9332C34.4026 19.1091 34.0168 19.3669 33.6918 19.6919C33.3667 20.0169 33.1089 20.4027 32.9331 20.8274C32.7572 21.252 32.6666 21.7071 32.6666 22.1667V25.6667H37.5666C38.1855 25.6667 38.779 25.9126 39.2165 26.3502C39.6541 26.7878 39.9 27.3812 39.9 28.0001C39.9 28.6189 39.6541 29.2124 39.2165 29.65C38.779 30.0876 38.1855 30.3334 37.5666 30.3334H32.6666V46.6668H42C43.2376 46.6668 44.4246 46.1751 45.2998 45.2999C46.175 44.4247 46.6666 43.2378 46.6666 42.0001V14.0001C46.6666 12.7624 46.175 11.5754 45.2998 10.7003C44.4246 9.82508 43.2376 9.33342 42 9.33342H14Z" fill="#C2E978"/>
</svg>
