<svg width="56" height="56" viewBox="0 0 56 56" fill="none" xmlns="http://www.w3.org/2000/svg">
<path fill-rule="evenodd" clip-rule="evenodd" d="M34.6476 13.2019C33.5816 13.2015 32.5288 13.4377 31.5653 13.8936C30.6017 14.3494 29.7513 15.0135 29.0756 15.8379C28.3998 16.6624 27.9156 17.6265 27.6577 18.6608C27.3999 19.6951 27.3749 20.7738 27.5846 21.8189C27.6568 22.1811 27.642 22.5552 27.5414 22.9105C27.4409 23.2658 27.2575 23.5921 27.0062 23.8627C26.755 24.1333 26.4431 24.3404 26.0962 24.467C25.7493 24.5936 25.3774 24.6361 25.0109 24.5909C19.9936 23.9746 15.2639 21.9122 11.3982 18.6549C11.4706 20.0596 11.9582 21.5529 13.0152 23.1163L14.5996 25.4589L11.9979 26.5673L11.4962 26.7819C11.8696 27.2089 12.3176 27.6453 12.8192 28.0769C13.4899 28.651 14.1993 29.178 14.9426 29.6543L14.9682 29.6706H14.9706L18.5826 31.8616L14.8026 33.7516C14.6159 33.8449 14.4292 33.9289 14.2426 34.0036C15.0554 34.679 15.9508 35.2482 16.9072 35.6976L20.1506 37.2306L17.4346 39.5733C15.9529 40.8519 14.4619 41.8063 12.5276 42.3103C15.4942 43.8905 18.8053 44.7136 22.1666 44.7066C33.3806 44.7066 42.4106 35.7583 42.4106 24.7939V23.5806L43.4022 22.8829C44.9516 21.7956 46.0459 20.3256 46.8299 18.6433H41.7899L41.1552 17.3133C40.5708 16.0828 39.6494 15.0434 38.4979 14.3157C37.3464 13.5879 36.0121 13.2017 34.6499 13.2019H34.6476ZM8.32756 30.2353C8.10738 30.4874 7.94403 30.784 7.84861 31.1049C7.75319 31.4258 7.72794 31.7634 7.77456 32.0949C8.03823 33.9639 9.1559 35.5739 10.3926 36.8036C10.7286 37.1373 11.0879 37.4569 11.4659 37.7626L11.2909 37.8093C10.1686 38.0893 8.65423 38.1476 6.1319 37.9026C5.65557 37.8559 5.17639 37.9567 4.75932 38.1915C4.34226 38.4263 4.00749 38.7837 3.8004 39.2152C3.59331 39.6467 3.52393 40.1314 3.60165 40.6037C3.67938 41.076 3.90045 41.5129 4.2349 41.8553C6.57003 44.2421 9.35958 46.137 12.4389 47.4282C15.5183 48.7194 18.8251 49.3808 22.1642 49.3733C35.4946 49.3733 46.4286 39.0226 47.0469 25.9606C50.0569 23.4336 51.5619 20.0106 52.3739 16.9003C52.4642 16.5551 52.4741 16.1937 52.4028 15.8441C52.3316 15.4945 52.1811 15.1658 51.963 14.8834C51.7448 14.6011 51.4648 14.3725 51.1445 14.2153C50.8242 14.0581 50.4721 13.9764 50.1152 13.9766H44.6249C43.2819 11.8914 41.3194 10.2793 39.013 9.36695C36.7066 8.4546 34.1723 8.28782 31.7662 8.89004C29.3602 9.49227 27.2033 10.8332 25.5986 12.7245C23.994 14.6157 23.0222 16.9623 22.8199 19.4343C18.5188 18.3146 14.6703 15.8895 11.8042 12.4926C11.5504 12.1925 11.2249 11.9614 10.8579 11.8207C10.4909 11.68 10.0943 11.6343 9.70487 11.6878C9.31547 11.7413 8.94592 11.8924 8.63049 12.1269C8.31506 12.3614 8.06398 12.6718 7.90056 13.0293C6.48656 16.1139 6.2159 19.6699 7.79323 23.2866L7.24723 23.5199C6.72474 23.7426 6.30138 24.1481 6.05654 24.6606C5.81169 25.1731 5.76216 25.7572 5.91723 26.3036C6.35123 27.8249 7.32656 29.1689 8.32523 30.2353H8.32756Z" fill="#C2E978"/>
</svg>
