<svg width="554" height="94" viewBox="0 0 554 94" fill="none" xmlns="http://www.w3.org/2000/svg">
<path d="M218.145 46.5218C218.145 49.147 217.919 51.8471 217.468 54.6223C216.978 57.3975 216.244 60.0789 215.266 62.6666C214.287 65.2918 213.064 67.7669 211.596 70.0921C210.128 72.4548 208.397 74.4986 206.402 76.2238C204.407 77.9864 202.149 79.374 199.628 80.3865C197.068 81.3991 194.264 81.9054 191.216 81.9054C188.129 81.9054 185.325 81.3991 182.804 80.3865C180.244 79.374 177.967 78.0051 175.973 76.28C173.978 74.5549 172.247 72.5298 170.779 70.2046C169.273 67.8795 168.031 65.4043 167.053 62.7791C166.074 60.1539 165.359 57.4538 164.907 54.6786C164.418 51.9034 164.173 49.1845 164.173 46.5218C164.173 43.8966 164.418 41.1964 164.907 38.4212C165.397 35.6461 166.149 32.9459 167.165 30.3207C168.144 27.6955 169.386 25.2204 170.892 22.8952C172.359 20.5701 174.091 18.5262 176.086 16.7636C178.08 15.0384 180.338 13.6696 182.86 12.657C185.382 11.6445 188.167 11.1382 191.216 11.1382C194.189 11.1382 196.936 11.6445 199.458 12.657C201.942 13.7071 204.182 15.1134 206.176 16.8761C208.171 18.6387 209.921 20.6826 211.427 23.0077C212.932 25.3704 214.193 27.8643 215.209 30.4895C216.188 33.1146 216.922 35.7961 217.411 38.5338L218.145 46.5218ZM209.169 46.5218C209.169 44.7592 209.037 42.884 208.773 40.8964C208.472 38.9088 208.021 36.9211 207.418 34.9335C206.779 32.9834 205.988 31.1083 205.047 29.3081C204.106 27.5455 202.977 25.9704 201.66 24.5828C200.305 23.2327 198.762 22.1452 197.031 21.3201C195.299 20.5326 193.361 20.1388 191.216 20.1388C189.033 20.1388 187.076 20.5326 185.344 21.3201C183.613 22.1452 182.089 23.2327 180.771 24.5828C179.416 25.9329 178.268 27.4893 177.328 29.2519C176.387 31.052 175.615 32.9271 175.013 34.8773C174.373 36.8649 173.921 38.8525 173.658 40.8402C173.357 42.8278 173.206 44.7217 173.206 46.5218C173.206 48.2844 173.357 50.1595 173.658 52.1472C173.921 54.1723 174.373 56.1599 175.013 58.1101C175.615 60.0977 176.387 61.9916 177.328 63.7917C178.268 65.5918 179.416 67.1669 180.771 68.517C182.089 69.9046 183.613 70.9922 185.344 71.7797C187.076 72.6048 189.033 73.0173 191.216 73.0173C193.361 73.0173 195.299 72.6048 197.031 71.7797C198.762 70.9547 200.305 69.8483 201.66 68.4607C202.977 67.1107 204.106 65.5355 205.047 63.7354C205.988 61.9353 206.779 60.0414 207.418 58.0538C208.021 56.1037 208.472 54.1348 208.773 52.1472L209.169 46.5218Z" fill="white"/>
<mask id="mask0_150_1181" style="mask-type:alpha" maskUnits="userSpaceOnUse" x="164" y="11" width="55" height="71">
<path fill-rule="evenodd" clip-rule="evenodd" d="M217.468 54.6223C217.919 51.8471 218.145 49.147 218.145 46.5218L217.411 38.5338C216.922 35.7961 216.188 33.1146 215.209 30.4895C214.193 27.8643 212.932 25.3704 211.427 23.0077C209.921 20.6826 208.171 18.6387 206.176 16.8761C204.182 15.1134 201.942 13.7071 199.458 12.657C196.936 11.6445 194.189 11.1382 191.216 11.1382C188.167 11.1382 185.382 11.6445 182.86 12.657C180.338 13.6696 178.08 15.0384 176.086 16.7636C174.091 18.5262 172.359 20.5701 170.892 22.8952C169.386 25.2204 168.144 27.6955 167.165 30.3207C166.149 32.9459 165.397 35.6461 164.907 38.4212C164.418 41.1964 164.173 43.8966 164.173 46.5218C164.173 49.1845 164.418 51.9034 164.907 54.6786C165.359 57.4538 166.074 60.1539 167.053 62.7791C168.031 65.4043 169.273 67.8795 170.779 70.2046C172.247 72.5298 173.978 74.5549 175.973 76.28C177.967 78.0051 180.244 79.374 182.804 80.3865C185.325 81.3991 188.129 81.9054 191.216 81.9054C194.264 81.9054 197.068 81.3991 199.628 80.3865C202.149 79.374 204.407 77.9864 206.402 76.2238C208.397 74.4986 210.128 72.4548 211.596 70.0921C213.064 67.7669 214.287 65.2918 215.266 62.6666C216.244 60.0789 216.978 57.3975 217.468 54.6223Z" fill="#C4C4C4"/>
</mask>
<g mask="url(#mask0_150_1181)">
<path fill-rule="evenodd" clip-rule="evenodd" d="M239 3H142V91H239V3ZM216.537 56.2932C217.136 54.917 217.686 53.6533 217.738 51.9641C217.77 51.332 217.77 50.7019 217.808 50.0828L217.947 49.9402V49.8591H217.892L217.84 49.9402V49.689H217.867L218 49.5569V49.4207L217.84 49.5825V48.2332V47.9927V46.1047L217.89 46.0771V45.6833C218.024 42.0649 216.922 39.2659 215.678 36.1033L215.451 35.5249C215.216 33.571 213.87 30.2998 212.452 28.9397C212.431 28.9197 212.41 28.8999 212.388 28.8801C212.343 28.8391 212.297 28.7983 212.251 28.7568V28.7354L212.201 28.7185C212.053 28.5894 211.899 28.4617 211.738 28.3354L211.787 28.2693L211.713 28.3184C210.791 27.6021 209.698 26.99 208.649 26.4031C208.049 26.0671 207.464 25.7393 206.933 25.4045C206.435 25.1033 205.983 24.74 205.535 24.3792C205.017 23.9624 204.504 23.5493 203.928 23.24C203.513 23.0078 203.074 22.8215 202.619 22.6846L202.703 22.6633L202.625 22.6377L202.611 22.6824C201.952 22.4739 201.268 22.3271 200.635 22.1567C199.665 21.8831 198.757 21.5872 197.856 21.2935C197.096 21.0459 196.341 20.7998 195.555 20.5691C194.352 20.2202 193.108 20.0327 191.856 20.0115V20.0007H191.776C189.189 19.979 186.618 20.4111 184.178 21.2778L184.106 21.2053L183.746 21.3008C181.331 21.9419 178.069 22.8076 176.297 24.5256L176.369 24.6704C175.749 25.532 174.839 26.2009 173.922 26.8752C173.779 26.9805 173.635 27.0859 173.493 27.1924L173.545 27.1414L173.573 27.0859L173.706 26.9243V26.7646L173.784 26.7114L173.944 26.7922L174.077 26.6838L173.972 26.4963H173.839L173.784 26.605H173.678L173.626 26.7114L173.545 26.7371L173.412 26.605V26.8179L173.36 26.9243V27.1372L173.307 27.2434V27.3245H173.322C173.125 27.4734 172.931 27.6267 172.745 27.7842L172.642 27.8054V27.8691C172.511 27.9827 172.384 28.1006 172.26 28.2224C172.099 28.3816 171.945 28.5479 171.798 28.7205C171.484 29.0784 171.234 29.5042 170.989 29.9214C170.788 30.2634 170.591 30.5996 170.365 30.8872C170.153 31.1726 169.924 31.4426 169.698 31.71C169.239 32.2524 168.788 32.7842 168.506 33.4114C167.949 34.5334 167.571 35.6599 167.188 36.8022C166.932 37.5645 166.674 38.3337 166.359 39.1133C165.787 40.4839 165.357 42.8677 165.285 44.4531V44.7427L165 44.6704C165.593 45.3494 165.728 46.9988 165.728 48.6418L165.697 48.6099L165.644 48.7971L165.728 48.7312C165.727 49.4614 165.701 50.1868 165.678 50.8223C165.67 51.0425 165.662 51.252 165.656 51.447L165.564 51.3745L165.431 51.6428V51.8066H165.509V51.8875H165.614V51.5662L165.642 51.5916V52.1067C165.63 52.8687 165.714 53.6289 165.893 54.3691L165.868 54.4648L165.916 54.4458C166.027 54.8601 166.179 55.2625 166.37 55.6462C166.44 55.7944 166.517 55.939 166.602 56.0791C166.64 56.1406 166.678 56.2014 166.718 56.2612C167.311 57.2722 168.563 59.3813 169.787 61.2842L169.812 61.3757H169.848L169.959 61.5469C170.018 61.6387 170.077 61.73 170.137 61.8206L170.023 61.8586L169.812 62.0715H169.863L169.966 61.9971H170.072L170.179 61.8906H170.219C170.591 62.4463 170.945 62.9697 171.275 63.4231L171.471 63.7146C171.581 63.853 171.692 63.9915 171.806 64.1277C171.985 64.3608 172.18 64.5813 172.389 64.7874C172.516 64.9214 172.646 65.0513 172.779 65.1812C172.847 65.2002 176.952 66.3708 177.557 67.135C177.893 67.5605 178.762 67.9585 179.539 68.2205C179.569 68.2288 184.29 69.3101 185.659 66.7986V66.7859C187.327 63.7529 189.313 59.9836 189.859 58.9365L189.667 58.9004L187.428 59.7112L187.126 59.4558L189.572 58.5706L190.009 58.6536L190.032 58.2576L189.087 58.0916L187.341 58.5706L186.795 58.9514L186.48 58.8047L185.533 59.0642L183.211 59.3027L183.064 59.009L185.311 58.7769L187.012 58.3108L187.907 57.6829L190.081 57.4189L190.115 56.8062L187.449 57.6255L183.557 57.5894L182.352 58.2065L181.918 59.3132L181.346 59.2366L181.599 58.5981L180.558 59.1345L180.136 58.9216L182.122 57.9001L179.864 58.0405L179.761 57.7427L182.798 57.5552L183.298 57.2979L187.263 57.3359L187.928 57.1233L185.524 57.0188L182.511 57.0999L182.445 56.7998L185.518 56.7188L188.783 56.8594L190.136 56.4443V56.374L188.568 56.8103L186.497 56.2974L186.689 56.0229L188.53 56.4783L190.155 56.0271V55.8271L189.473 56.0398L185.803 55.6143L183.595 56.0505L183.431 55.8525L181.078 56.9763L180.656 56.7507L183.313 55.4736L185.229 55.1162L183.591 55.1501L178.995 56.3782L178.718 56.2932L177.072 56.9316L176.707 56.689L178.157 56.1357L176.679 55.6865L176.947 55.4355L178.982 56.0505L180.185 55.7292L178.074 55.3291L178.245 55.0481L180.881 55.5376L183.414 54.8608L190.208 54.7161V54.6755L183.207 54.7778L180.725 55.1418L178.923 54.9949L178.98 54.699L180.653 54.8352L183.112 54.4778L190.218 54.3755L190.235 54.0564L187.268 53.7817L184.659 54.4202L178.539 54.0691L178.568 53.771L184.537 54.1074L185.803 53.7988L183.868 53.6135L183.893 53.6328L182.724 53.9839L179.894 53.2729L180.075 53.0007L182.627 53.6392L183.481 53.3838L183.509 53.2751L186.51 53.5625L186.493 53.6306L187.168 53.4668L189.201 53.6562L188.504 53.2539L188.736 53.1262L188.447 53.0986L188.506 52.8154L187.289 53.2156L187.004 52.9539L188.977 52.3152H189.045L190.347 52.2939L190.37 51.8684L188.378 52.2024L187.647 52.0215L187.825 52.1301L186.746 52.592L182.948 52.9197L179.782 51.9578L180.075 51.7002L183.051 52.6025L186.485 52.3047L187.329 51.9385L186.856 51.8215V51.8342L185.436 52.2366L183.431 51.3257L181.66 51.564L181.544 51.2703L183.517 51.0042L185.463 51.9023L186.236 51.6895L185.18 51.4299L185.332 51.1511L188.374 51.8982L190.374 51.5618L190.391 51.2937L188.969 51.4172L186.225 51.0789L186.278 50.8999L185.334 51.0361L185.214 50.7446L186.014 50.6296L185.079 50.353L183.663 50.7786L183.355 50.6978L182.181 51.1511L180.383 50.2488L180.664 50.0146L182.203 50.7849L182.804 50.553L181.519 50.2168L181.681 49.9402L183.64 50.4531L184.522 50.1826L182.46 49.5718L182.644 49.3015L185.056 50.021L185.159 49.989L185.227 50.072L186.056 50.3169L188.458 49.9827L189.46 50.1443L189.281 49.9316L190.482 49.6313L190.499 49.3442L189.059 49.855L187.194 49.3994L185.294 49.6719L185.174 49.3804L187.221 49.0886L189.015 49.5144L190.537 48.9739V48.8779L187.16 48.4822L185.119 48.9717L184.847 48.697L187.023 48.1736L184.946 47.999L183.536 48.4822L183.19 48.4141L183.205 48.429L181.865 48.8547L179.664 48.6738L179.716 48.3757L181.725 48.5417L182.525 48.2905L179.415 47.699L179.577 47.4158L183.422 48.1609L184.055 47.948H183.844L183.792 47.6479L185.691 47.5989L186.789 47.3096H186.738L186.814 47.0967L186.337 47.218L184.982 46.9094L185.043 47.0286L181.006 47.4883L180.856 47.1946L184.655 46.7688L184.784 46.5559L186.299 46.9028L187.407 46.6199L184.969 46.2112L181.576 46.6113L177.23 45.0215L177.583 44.7852L181.681 46.2856L183.876 46.0176L182.983 45.8687L181.55 45.8962L178.342 44.3533L178.765 44.1404L181.776 45.6047L183.042 45.5813L188.152 46.4326L188.348 46.3835L188.407 46.4561L190.687 46.2432L190.697 46.0303L189.372 46.1453L185.674 45.9878L182.126 45.1257L182.375 44.8577L185.809 45.6919L189.302 45.843L190.716 45.7195L190.733 45.396L185.172 45.5046L181.842 44.4214L182.165 44.1765L185.315 45.2002L190.75 45.0938V44.9641L187.918 45.0874L184.752 44.6619L180.784 43.3955L181.101 43.1484L184.98 44.385L187.934 44.7852L190.767 44.6619L190.779 44.4363L188.162 44.5044L182.985 43.0974L183.262 42.8379L188.27 44.2L190.803 44.134L190.817 43.9084L188.652 43.9573L184.606 42.9995L184.847 42.7314L188.751 43.655L189.908 43.6296L189.847 43.3572L190.86 43.3103V43.155L189.982 43.3337L189.79 43.0505L190.879 42.8271V42.7036L188.711 43.1719L188.511 42.8911L190.906 42.3738L190.925 42.0525L186.586 42.6611L184.847 42.2483L185.088 41.9717L186.601 42.3313L190.938 41.7227L190.955 41.4438H190.841L188.928 41.8269L188.741 41.5417L188.317 41.7183L185.83 41.697V41.397L188.196 41.416L188.869 41.1394L187.234 41.1267L186.647 40.8733L185.17 41.4458L184.944 41.1841L186.21 40.6882L184.995 40.1604L185.085 40.0603L184.914 40.0115L185.197 39.7539L187.367 40.3604L188.511 40.3264L185.744 39.5942L183.498 39.8752L183.304 39.5835L184.936 39.3708L184.45 39.241L183.013 39.3665L182.865 39.0706L184.516 38.928L188.633 40.0178L188.859 39.9966L187.31 39.4558L187.559 39.2004L187.62 39.2217L187.726 38.9429L189.625 39.26L189.701 39.2302L188.724 38.9387L188.827 38.7983L187.823 38.9216L186.953 38.5513L185.63 38.6003L185.586 38.3003L186.303 38.2747L186.048 38.166L186.077 38.1343L183.313 38.4746L183.011 38.3469V38.3767L181.607 38.428L181.563 38.1279L182.422 38.0979L181.531 37.717L181.778 37.4702L183.389 38.1577L186.17 37.8149L187.759 38.1768L187.62 38.4597L187.489 38.4299L187.899 38.6045L188.92 38.479L187.785 38.2661L187.916 37.981L189.895 38.3704L190.682 38.2747L191.119 38.3726L191.147 37.8723L189.329 38.0852L186.622 37.353L184.366 37.6277L181.966 36.5635L182.24 36.323L184.461 37.3127L186.66 37.0466L189.363 37.7788L191.166 37.5659L191.178 37.3318L188.992 37.532L186.898 37.0125L187.061 36.7358L187.483 36.8381L186.835 36.5273L185.607 37.0146L184.011 35.8313L184.378 35.6462L185.691 36.6189L186.413 36.3379L185.29 35.8015L185.579 35.5674L187.835 36.6465L191.223 36.5315L191.235 36.3188L189.053 36.4868L187.168 35.8164L187.379 35.5588L189.127 36.1782L190.026 36.106L188.92 36.01L188.967 35.7144L190.473 35.842L191.121 35.7483L191.024 35.7185L188.395 35.6738L187.958 35.4609L186.179 35.3865L186.191 35.0864L187.246 35.1333L186.871 34.9565L184.56 35.1694L184.469 34.8735L186.324 34.7075L185.225 34.1904L185.512 33.9626L188.122 35.1802H188.135L188.557 35.3738L190.011 35.3972L186.845 34.0479L187.109 33.803L190.153 35.1035L190.737 35.063L189.216 34.4692L189.279 34.4033L188.036 34.0117L188.247 33.7456L189.45 34.1245L190.321 34.0159L189.815 33.803L190.005 33.552L190.849 33.9138L191.379 33.8625L191.415 33.1965L190.205 33.0391V33.0093L185.984 33.2944L183.916 32.6069L184.127 32.3452L186.058 32.9836L187.325 32.8984L185.514 32.4067L185.691 32.1345L188.276 32.8452L191.442 32.6326L191.453 32.4197H187.816L185.691 31.4705L185.997 31.2151L187.987 32.1067H189.097L188.853 32.0132L189 31.8557L187.633 31.9023L185.862 30.9531L186.17 30.7405L187.787 31.6067L189.424 31.5513L189.154 31.3811L189.492 31.1682L190.056 31.5215L191.322 31.479L190.689 31.3596L190.813 31.0723L191.533 31.2107L191.548 30.9214L188.091 31.2598L185.769 30.4722L185.98 30.2126L188.143 30.9468L188.405 30.9214L187.937 30.8042L188.103 30.5276L189.321 30.8318L191.548 30.6191V30.4766L189.26 30.6467L187.382 30.2104L187.481 29.9209L189.287 30.3467L191.564 30.1785V30.0657L191.37 30.0295L191.351 30.0549L189.701 29.7188L189.178 29.8677V29.8806L188.627 30.0359L188.547 29.7485L188.819 29.6699L187.894 29.1272L188.042 28.8696L189.218 29.5549L189.722 29.4124L189.745 29.3804H189.798L190.106 29.293L190.151 29.4526L191.128 29.6528L191.6 29.74L191.621 29.3826L190.689 29.1079L190.883 28.8398L191.641 29.0525L191.651 28.8398L191.313 28.7952L191.364 28.6143L190.395 29.0142L188.983 28.231L189.298 28.0183L190.423 28.6418L191.689 28.114V28.0884L188.498 27.9502L186.022 26.918L186.284 26.6709L188.646 27.6584L191.729 27.7861V27.6799L189.047 27.4861L186.896 26.6094L187.151 26.3623L189.201 27.1968L191.733 27.3796L191.744 27.2136H191.729H190.995L188.481 26.8455L187.149 25.6409L187.546 25.479L187.846 25.7495L188.095 25.575L189.73 26.4709L191.729 26.3794L189.298 26.1028L188.511 25.5791L188.857 25.3792L189.532 25.8176L191.733 26.0686H191.811V25.9856H191.729L190.058 25.7727L188.553 25.0386L188.844 24.8257L190.258 25.5088L191.735 25.6919L191.835 25.6792V25.5918L191.729 25.6025L190.971 25.5281L189.433 24.8257L189.714 24.5811L191.149 25.2366L191.524 25.2749L190.062 24.5427L190.355 24.3127L190.748 24.5085L190.91 24.3489L191.543 24.6064H191.729H191.887V24.4575H191.719L191.204 24.4363L188.971 23.2615L189.277 23.0359L191.387 24.1445L191.725 24.1594H191.908L191.927 23.8508L191.847 23.885L191.725 23.9084L191.6 23.885L189.91 23.1699L190.174 22.925L191.74 23.585L191.951 23.4912L191.961 23.2932L191.729 23.4019L190.712 22.9358L190.993 22.6973L191.733 23.0359L192.048 22.8911L192.225 22.7229V22.8081L192.466 22.6973L192.738 22.9336L192.236 23.1636L192.246 23.3613L193.289 22.9231L193.561 23.1763L192.274 23.7168L192.291 24.0447L194.173 23.0527L194.479 23.2783L192.307 24.4192V24.4575L192.55 24.3596L192.713 24.5193L193.105 24.3235L193.401 24.5532L192.345 25.0833V25.2322L193.745 24.5938L194.023 24.832L192.487 25.5344L192.36 25.5471V25.6196L193.204 25.5154L194.612 24.8257L194.903 25.0386L193.396 25.7812L192.377 25.9111V25.9985L193.922 25.8218L194.614 25.3792L194.96 25.5791L194.165 26.0984L192.404 26.2986V26.407L193.726 26.4666L195.361 25.5706L195.61 25.7451L195.912 25.4749L196.311 25.6367L194.977 26.8413L192.474 27.2117H192.455V27.333L194.274 27.2009L196.324 26.3667L196.579 26.6135L194.431 27.4905L192.47 27.6309V27.7585L194.806 27.6584L197.168 26.6709L197.427 26.918L194.952 27.9502L192.485 28.0586L192.504 28.4204L193.036 28.6333L194.158 28.0117L194.475 28.2246L193.061 29.0078L192.523 28.7952V28.844L192.573 28.8291L192.767 29.0972L192.54 29.1653L192.561 29.6082L193.306 29.4548L193.35 29.2952L193.658 29.376H193.711L193.734 29.408L194.238 29.5505L195.414 28.8696L195.555 29.1292L194.629 29.6719L194.901 29.7507L194.821 30.0381L194.272 29.8826H194.26V29.8699L193.734 29.7209L192.58 29.9678L192.592 30.2444L194.156 30.3594L195.963 29.9338L196.072 30.2146L194.194 30.6509L192.618 30.5339V30.6936L194.133 30.8425L195.368 30.5339L195.532 30.8105L195.066 30.9277L195.325 30.9531L197.489 30.219L197.7 30.4785L195.378 31.2661L192.635 30.9978V31.083H192.656L192.789 31.3704L192.656 31.3938V31.5066L193.428 31.532L193.992 31.1787L194.329 31.3916L194.059 31.562L195.699 31.6172L197.313 30.751L197.621 30.9639L195.851 31.9131L194.481 31.8662L194.631 32.0237L194.386 32.1174H195.498L197.489 31.2256L197.763 31.4683L195.64 32.4175H192.702L192.715 32.6665L195.188 32.8347L197.763 32.1345L197.942 32.4067L196.129 32.8984L197.396 32.9836L199.327 32.3452L199.538 32.6069L197.47 33.2944L193.249 33.0093L193.259 33.0391L192.734 33.1072L192.772 33.8457L193.453 33.552L193.643 33.8074L193.137 34.02L194.006 34.1287L195.209 33.7498L195.42 34.0159L194.188 34.4053L194.253 34.4714L192.831 35.0269V35.0715L193.314 35.1055L196.357 33.7944L196.623 34.0393L193.458 35.3887L194.912 35.3652L195.323 35.1716H195.338L197.949 33.9541L198.231 34.1904L197.142 34.7139L198.998 34.8799L198.909 35.1758L196.587 34.9629L196.212 35.1396L197.267 35.0928L197.28 35.3928L195.5 35.4673L195.064 35.6802L192.869 35.7122V35.825L192.985 35.842L194.492 35.7144L194.538 36.01L193.432 36.106L194.344 36.176L196.068 35.5674L196.296 35.825L194.411 36.4954L192.892 36.3718L192.902 36.5549L195.619 36.6465L197.875 35.5674L198.164 35.8015L197.041 36.3379L197.769 36.6274L199.082 35.6548L199.449 35.8398L197.854 37.0232L196.625 36.5359L195.977 36.8464L196.4 36.7444L196.564 37.021L194.466 37.5403L192.949 37.4021L192.964 37.6553L194.097 37.7937L196.803 37.0615L199.002 37.3276L201.22 36.3379L201.494 36.5784L199.097 37.6426L196.839 37.3679L194.131 38.1001L192.979 37.9597L192.995 38.3044L193.565 38.3748L195.545 37.9851L195.676 38.2705L194.54 38.4832L195.562 38.6089L195.971 38.4343L195.84 38.4641L195.701 38.1809L197.29 37.8191L200.072 38.1619L201.684 37.4744L201.931 37.7212L201.04 38.1023L201.897 38.1321L201.853 38.4321L200.452 38.3811V38.3513L200.152 38.479L197.385 38.1384L197.415 38.1704L197.159 38.2788L197.875 38.3044L197.833 38.6045L196.509 38.5557L195.642 38.926L194.635 38.8025L194.739 38.9429L193.764 39.2346L193.84 39.2644L195.739 38.9473L195.844 39.2261L195.908 39.2048L196.155 39.4602L194.606 40.0007L194.832 40.022L198.949 38.9324L200.601 39.075L200.452 39.3708L199.016 39.2451L198.529 39.375L200.16 39.5879L199.966 39.8794L197.721 39.5984L194.948 40.3286L196.094 40.3625L198.28 39.7644L198.561 40.022L198.39 40.071L198.48 40.1709L197.267 40.6987L198.533 41.1948L198.307 41.4565L196.83 40.884L196.243 41.1372L194.61 41.1501L195.281 41.4268L197.647 41.4075V41.7078L195.161 41.729L194.728 41.5544L193.776 41.1584H193.143V41.2373L194.728 41.5544L194.54 41.8396L193.16 41.563V41.8225L196.858 42.3398L198.371 41.98L198.613 42.2483L196.876 42.6611L193.19 42.1418L193.206 42.5122L194.964 42.8911L194.766 43.1719L193.232 42.8335V42.9507L193.681 43.0422L193.491 43.3252L193.249 43.2764V43.3315L193.631 43.3486L193.572 43.6211L194.73 43.6465L198.624 42.7251L198.865 42.9932L194.819 43.9509L193.278 43.9148L193.289 44.1445L195.188 44.1936L200.19 42.8379L200.464 43.0974L195.283 44.5063L193.285 44.4531L193.295 44.6895L195.509 44.7874L198.474 44.3872L202.353 43.1506L202.67 43.3975L198.702 44.6638L195.536 45.0896L193.32 44.9939V45.1086L198.143 45.2024L201.308 44.1787L201.627 44.4233L198.299 45.5068L193.35 45.4089L193.369 45.7749L194.169 45.8452L197.662 45.6941L201.097 44.8596L201.338 45.1257L197.79 45.9878L194.093 46.1453L193.377 46.0835L193.388 46.2964L195.057 46.4497L195.116 46.3772L195.313 46.4263L200.422 45.575L201.688 45.5984L204.704 44.1382L205.126 44.3511L201.906 45.9175L200.475 45.8899L199.582 46.0388L201.773 46.2986L205.871 44.7981L206.226 45.0342L201.878 46.624L198.485 46.2241L196.045 46.6326L197.157 46.9158L198.67 46.5688L198.799 46.7817L202.598 47.2073L202.448 47.501L198.411 47.0413L198.472 46.9221L197.119 47.2307L196.64 47.1094L196.716 47.3223H196.666L197.761 47.5884L199.66 47.6372L199.607 47.9373H199.396L200.03 48.1501L203.875 47.4053L204.037 47.6882L200.945 48.2864L201.743 48.5376L203.752 48.3716L203.807 48.6694L201.604 48.8503L200.264 48.4248L200.281 48.4099L199.932 48.478L198.525 47.9949L196.446 48.1692L198.624 48.6887L198.352 48.9631L196.311 48.4736L193.517 48.8015L193.534 49.176L194.449 49.4995L196.243 49.0737L198.271 49.3569L198.151 49.6484L196.252 49.376L194.386 49.8315L193.542 49.5315L193.552 49.7571L194.165 49.9082L193.981 50.1211L194.988 49.9592L197.389 50.2935L198.217 50.0486L198.282 49.9656L198.388 49.9976L200.808 49.2825L200.994 49.5527L198.93 50.1636L199.812 50.4338L201.764 49.9231L201.927 50.1997L200.642 50.5361L201.245 50.7681L202.782 49.9976L203.064 50.2317L201.262 51.134L200.093 50.6807L199.783 50.7617L198.369 50.3359L197.432 50.6125L198.234 50.7275L198.111 51.019L197.17 50.8828L197.223 51.0618L194.479 51.4001L193.635 51.3276L193.65 51.6428L195.07 51.8875L198.111 51.1404L198.265 51.4192L197.21 51.679L197.982 51.8918L199.939 51.0042L201.937 51.2788L201.821 51.5725L200.053 51.3342L198.048 52.2451L196.625 51.8428V51.8301L196.153 51.947L196.997 52.3132L200.431 52.6111L203.406 51.7087L203.679 51.9641L200.513 52.9241L196.714 52.5962L195.636 52.1343L195.813 52.0259L195.083 52.2068L193.667 51.9683L193.681 52.2983L194.416 52.311H194.481L196.457 52.9495L196.172 53.2114L194.956 52.8113L195.013 53.0942L194.724 53.1218L194.956 53.2498L194.26 53.6519L196.292 53.4624L196.965 53.6265L196.95 53.5583L199.96 53.2922L199.987 53.4006L200.844 53.6562L203.394 53.0176L203.575 53.29L200.743 53.9902L199.572 53.6392L199.599 53.6199L197.662 53.8052L198.928 54.1138L204.896 53.771L204.915 54.0796L198.795 54.4309L196.184 53.7925L193.77 54.0051L193.789 54.384L200.331 54.4778L202.798 54.8352L204.472 54.699L204.529 54.9949L202.727 55.1418L200.245 54.7778L193.797 54.6841V54.7288L200.042 54.8608L202.575 55.5376L205.213 55.0396L205.382 55.3206L203.271 55.7207L204.474 56.042L206.504 55.4207L206.775 55.676L205.297 56.125L206.747 56.6785L206.384 56.9209L204.736 56.2825L204.459 56.3677L199.863 55.1396L198.225 55.1055L200.146 55.4609L202.801 56.738L202.389 56.9636L200.025 55.876L199.859 56.074L197.651 55.6377L193.981 56.0632L193.852 56.0249L193.863 56.2102L194.935 56.5081L196.777 56.0527L196.967 56.3271L194.897 56.8401L193.88 56.5571V56.6421L194.684 56.8892L197.949 56.7485L201.021 56.8296L200.958 57.1296L197.942 57.0488L195.538 57.1531L196.203 57.3657L200.169 57.3276L200.669 57.585L203.706 57.7725L203.603 58.0703L201.344 57.9299L203.33 58.9514L202.908 59.1643L201.868 58.6279L202.121 59.2664L201.549 59.343L201.112 58.2363L199.909 57.6191L196.018 57.6553L193.907 57.0039L193.932 57.5127L195.568 57.7126L196.465 58.3406L198.166 58.8066L200.414 59.0388L200.266 59.3325L197.944 59.094L196.997 58.8345L196.684 58.9812L196.136 58.6003L194.392 58.1213L193.97 58.1958L193.992 58.6216L196.353 59.4729L196.049 59.7283L194.01 58.9897C194.01 58.9897 196.319 63.502 198.461 66.7368L198.465 66.7397C198.588 66.8513 201.959 69.8921 204.639 68.7397C205.711 68.2795 206.09 67.8691 206.452 67.4758C206.649 67.2617 206.842 67.0525 207.14 66.8433C207.703 66.4495 209.067 65.792 210.141 65.2959C210.434 64.9011 210.775 64.5437 211.154 64.2319C211.38 64.0466 211.591 63.8572 211.802 63.6636L211.827 63.6892L211.871 63.6018C213.56 62.0588 215.056 60.2263 215.881 58.1108L215.906 58.1384V58.1641L215.934 58.1108L215.987 58.0554L216.092 57.8958H216.2V57.8425H216.092L215.919 58.0171C215.98 57.8533 216.04 57.6873 216.092 57.5212V57.7617L216.2 57.7341L216.145 57.6809V57.5212H216.092L215.881 57.8809C215.949 57.6958 216.021 57.5149 216.092 57.3359V57.3594L216.145 57.4126L216.225 57.2786L216.149 57.2C216.278 56.8889 216.409 56.5884 216.537 56.2932ZM189.701 41.1479L188.749 41.54L190.71 41.1479H189.701Z" fill="white"/>
</g>
<path d="M24.6147 14.626C23.2974 14.626 22.1306 14.7572 21.1144 15.0197C20.0606 15.2823 19.1573 15.6948 18.4046 16.2573C17.6518 16.8574 17.0873 17.6449 16.7109 18.62C16.2969 19.5951 16.0899 20.7951 16.0899 22.2202V23.1765C16.0899 23.4766 16.1275 23.7766 16.2028 24.0766L21.1709 59.1789C21.3967 60.829 21.5096 62.4417 21.5096 64.0168C21.5096 66.7169 21.0768 69.2484 20.2111 71.611C19.3455 73.9737 18.1223 76.0363 16.5415 77.7989C14.9231 79.5615 12.9848 80.9491 10.7266 81.9617C8.46836 82.9743 5.92785 83.4806 3.10506 83.4806C2.57814 83.4806 2.07004 83.4618 1.58076 83.4243C1.05384 83.3868 0.52692 83.3305 0 83.2555L1.46785 74.5362C1.76895 74.5362 2.05122 74.555 2.31468 74.5925C2.54051 74.63 2.80397 74.6487 3.10506 74.6487C4.68582 74.6487 6.0784 74.3674 7.28279 73.8049C8.44954 73.2424 9.42811 72.4736 10.2185 71.4985C11.0089 70.5234 11.6111 69.3796 12.0251 68.067C12.4014 66.7544 12.5896 65.3668 12.5896 63.9042C12.5896 63.3417 12.5708 62.7417 12.5332 62.1041C12.4955 61.5041 12.4391 60.9228 12.3638 60.3603L7.3957 25.3142C7.32043 24.7516 7.26397 24.1891 7.22633 23.6266C7.1887 23.1015 7.16988 22.5578 7.16988 21.9952C7.16988 19.2575 7.6027 16.8574 8.46836 14.7947C9.33401 12.7696 10.5572 11.0632 12.138 9.67564C13.6811 8.32555 15.5441 7.31299 17.7271 6.63794C19.8724 5.9629 22.2436 5.62537 24.8405 5.62537L24.6147 14.626Z" fill="white"/>
<path d="M38.2205 31.0521L36.0187 79.4865L47.818 79.0928L48.0438 87.9809L26.6471 88.5434L30.4296 3.769L50.4714 4.33154L50.1327 13.2196L39.0109 12.9946L38.5593 22.2202L54.3669 21.7702L54.5927 30.602L38.2205 31.0521Z" fill="white"/>
<path d="M125.162 43.9904C125.162 47.2531 124.88 50.5534 124.315 53.8911C123.751 57.2288 122.885 60.454 121.719 63.5667C120.514 66.7169 119.027 69.6984 117.259 72.5111C115.452 75.3238 113.307 77.8739 110.823 80.1616C111.312 82.0742 111.707 84.0056 112.008 85.9557C112.309 87.9433 112.422 89.931 112.347 91.9186V93.0437H103.427C103.427 90.4935 103.201 87.9996 102.749 85.5619C101.056 86.387 99.2868 86.987 97.4426 87.3621C95.5984 87.7746 93.7541 87.9809 91.9099 87.9809C88.2215 87.9809 84.853 87.3246 81.8043 86.012C78.7181 84.7369 75.9518 82.993 73.5053 80.7804C71.0589 78.5677 68.9136 75.9988 67.0694 73.0736C65.2252 70.1484 63.7009 67.0545 62.4965 63.7917C61.2545 60.529 60.3323 57.1913 59.7302 53.7786C59.128 50.4034 58.8269 47.1406 58.8269 43.9904C58.8269 40.8777 59.1468 37.6338 59.7866 34.2585C60.3888 30.8833 61.3109 27.5643 62.5529 24.3016C63.795 21.0389 65.3569 17.9262 67.2388 14.9635C69.083 12.0383 71.2283 9.46938 73.6747 7.25673C76.1211 5.04409 78.8686 3.28147 81.9173 1.96888C84.9659 0.656294 88.2967 0 91.9099 0C95.5607 0 98.9292 0.637542 102.015 1.91263C105.064 3.22521 107.83 4.98783 110.314 7.20048C112.761 9.41313 114.925 11.982 116.807 14.9072C118.651 17.8324 120.194 20.9264 121.436 24.1891C122.678 27.4518 123.619 30.7708 124.259 34.146L125.162 43.9904ZM116.186 43.9904C116.186 41.7028 115.979 39.2276 115.565 36.5649C115.113 33.9398 114.455 31.3333 113.589 28.7457C112.723 26.158 111.632 23.6641 110.314 21.2639C108.96 18.9013 107.398 16.8011 105.629 14.9635C103.822 13.1259 101.79 11.6633 99.5314 10.5757C97.2356 9.48813 94.6951 8.94434 91.9099 8.94434C89.1624 8.94434 86.6595 9.48813 84.4013 10.5757C82.1054 11.6633 80.073 13.1259 78.3041 14.9635C76.4975 16.8011 74.9356 18.92 73.6183 21.3202C72.301 23.7203 71.2095 26.2142 70.3438 28.8019C69.4782 31.3896 68.8383 33.996 68.4243 36.6212C67.9727 39.2464 67.7469 41.7028 67.7469 43.9904C67.7469 46.2781 67.9727 48.7345 68.4243 51.3597C68.8383 53.9848 69.4782 56.5913 70.3438 59.1789C71.2095 61.7666 72.301 64.2418 73.6183 66.6044C74.9356 69.0046 76.4975 71.1235 78.3041 72.9611C80.073 74.7987 82.1054 76.2613 84.4013 77.3489C86.6595 78.4365 89.1624 78.9802 91.9099 78.9802C93.3401 78.9802 94.7892 78.7927 96.257 78.4177C97.6872 78.0427 99.0422 77.5176 100.322 76.8426C99.6443 75.2675 98.854 73.7674 97.9507 72.3423C97.0474 70.9172 95.9935 69.6046 94.7892 68.4045L100.999 62.0479C102.279 63.323 103.446 64.7105 104.5 66.2106C105.553 67.7483 106.513 69.3234 107.379 70.936C108.922 69.0983 110.258 67.092 111.387 64.9168C112.479 62.7792 113.382 60.5478 114.097 58.2226C114.812 55.935 115.339 53.5723 115.678 51.1346L116.186 43.9904Z" fill="white"/>
<path d="M156.552 72.5673C156.476 74.3674 156.081 76.0363 155.366 77.5739C154.613 79.149 153.635 80.4991 152.43 81.6242C151.188 82.7868 149.777 83.6868 148.196 84.3244C146.578 84.9994 144.865 85.3369 143.059 85.3369C141.252 85.3369 139.54 84.9807 137.921 84.2681C136.265 83.5931 134.816 82.6555 133.574 81.4554C132.332 80.2553 131.354 78.849 130.639 77.2364C129.886 75.6238 129.509 73.8799 129.509 72.0048V71.2735L133.066 2.41891L141.986 2.86894L138.542 71.7235C138.618 73.1861 139.088 74.3112 139.954 75.0987C140.819 75.9238 141.892 76.3363 143.172 76.3363C144.376 76.3363 145.411 75.9426 146.277 75.155C147.105 74.4049 147.556 73.3924 147.632 72.1173L151.132 3.31897L160.052 3.769L156.552 72.5673Z" fill="white"/>
<path d="M224.637 88.8247L222.323 4.33154L231.356 4.10652L233.67 88.5434L224.637 88.8247Z" fill="white"/>
<path d="M264.947 89.6122L261.955 53.6661L254.559 53.216L246.429 87.3058L237.792 85.2244L256.761 4.44405L266.923 4.33154L273.867 88.9372L264.947 89.6122ZM259.979 29.702L256.648 44.3279L261.277 44.553L259.979 29.702Z" fill="white"/>
<path d="M328.742 87.0808L310.281 29.702V87.3058H301.248V3.65649H311.184L329.476 60.0227V3.09396H338.339V87.0808H328.742Z" fill="white"/>
<path d="M368.712 33.471L353.639 32.5709L351.606 89.1622L342.573 88.8247L345.791 3.99402L365.664 4.44405L365.551 13.4446L354.485 13.1071L354.034 23.5703L369.164 24.5266L368.712 33.471Z" fill="white"/>
<path d="M391.408 15.6385L384.576 15.1885L380.003 88.2059L370.971 87.6433L375.6 14.626L368.769 14.1197L369.333 5.28785L392.029 6.75045L391.408 15.6385Z" fill="white"/>
<path d="M428.386 89.4997L419.353 89.2747L421.442 4.21903C422.872 3.65649 424.321 3.11271 425.789 2.58767C427.219 2.06264 428.725 1.80012 430.306 1.80012C432.451 1.80012 434.464 2.21265 436.346 3.0377C438.228 3.86276 439.884 4.98783 441.314 6.41293C442.707 7.87552 443.817 9.54438 444.645 11.4195C445.436 13.3321 445.831 15.3573 445.831 17.4949C445.831 19.6701 445.436 21.6952 444.645 23.5703C443.855 25.4829 442.745 27.1331 441.314 28.5206C439.884 29.9082 438.19 30.9958 436.233 31.7834C434.239 32.6084 432.074 33.0209 429.741 33.0209L428.386 89.4997ZM436.911 17.6074C436.911 16.6699 436.76 15.7885 436.459 14.9635C436.12 14.1384 435.65 13.4071 435.048 12.7696C434.446 12.1696 433.749 11.682 432.959 11.307C432.131 10.9695 431.246 10.8007 430.306 10.8007L429.967 24.0766C430.908 24.0766 431.792 23.9078 432.62 23.5703C433.448 23.2703 434.182 22.8203 434.822 22.2202C435.462 21.6577 435.97 20.9826 436.346 20.1951L436.911 17.6074Z" fill="white"/>
<path d="M465.59 89.6122L462.598 53.6661L455.202 53.216L447.073 87.3058L438.435 85.2244L457.404 4.44405L467.566 4.33154L474.51 88.9372L465.59 89.6122ZM460.622 29.702L457.291 44.3279L461.921 44.553L460.622 29.702Z" fill="white"/>
<path d="M514.481 75.2113C514.481 77.7614 514.406 80.2928 514.255 82.8055C514.067 85.3182 513.785 87.8496 513.408 90.3998L504.545 89.1622C505.222 84.3244 505.561 79.4115 505.561 74.4237C505.561 70.711 505.335 66.9607 504.884 63.173C504.432 59.4227 503.736 55.6912 502.795 51.9785C501.854 48.3032 500.649 44.7217 499.181 41.234C497.714 37.7838 495.945 34.521 493.875 31.4458H491.108L487.777 87.7558L478.745 87.1933L483.938 2.25015C485.218 1.72511 486.517 1.25633 487.834 0.843806C489.151 0.431279 490.506 0.225015 491.899 0.225015C494.044 0.225015 496.076 0.618791 497.996 1.40634C499.915 2.1939 501.609 3.28147 503.077 4.66906C504.507 6.05665 505.655 7.68801 506.521 9.56314C507.349 11.4383 507.763 13.4634 507.763 15.6385C507.763 17.9637 507.292 20.1763 506.351 22.2765C505.41 24.4141 504.037 26.233 502.23 27.7331C504.375 31.2208 506.238 34.8961 507.819 38.7588C509.362 42.6216 510.623 46.5781 511.602 50.6284C512.58 54.6786 513.314 58.7664 513.804 62.8917L514.481 75.2113ZM498.843 15.526C498.843 14.701 498.673 13.9134 498.335 13.1634C497.996 12.4133 497.544 11.7383 496.98 11.1382C496.378 10.5757 495.7 10.1069 494.947 9.7319C494.157 9.39437 493.348 9.20686 492.52 9.16936L491.673 22.4452C493.781 22.4452 495.512 21.8265 496.867 20.5889L498.843 15.526Z" fill="white"/>
<path d="M545.306 94L533.507 36.0586L530.401 41.1215L527.748 87.0808L518.715 86.6308L523.57 2.13764L532.603 2.64393L531.418 22.2202L544.007 1.5751L551.516 6.18791L540.338 24.7516L554 92.2561L545.306 94Z" fill="white"/>
</svg>
