<svg width="181" height="20" viewBox="0 0 181 20" fill="none" xmlns="http://www.w3.org/2000/svg">
<path fill-rule="evenodd" clip-rule="evenodd" d="M169.029 2.02687C155.273 1.05463 139.684 0.43967 124.185 0.257687C97.4452 -0.0561751 81.0924 0.133891 57.2546 1.03565C52.0526 1.2325 43.9159 1.52474 39.1729 1.68522C28.4274 2.04867 24.0352 2.25279 16.757 2.72702C8.05365 3.29414 4.52283 3.77875 1.27594 4.85191C0.110459 5.23703 -0.165298 5.39228 0.805761 5.11652C5.05404 3.91014 16.5681 3.08465 38.6415 2.40403C43.3545 2.25871 50.1327 2.04248 53.704 1.92362C76.1883 1.17536 89.177 1.06953 113.358 1.43733C131.285 1.71001 139.497 1.96284 153.176 2.66342C162.075 3.11918 173.229 3.84951 172.893 3.95444C172.575 4.05405 159.917 3.86683 146.154 3.55895C142.487 3.47696 136.626 3.3501 133.129 3.27707C129.632 3.20414 125.213 3.10693 123.309 3.06126C113.695 2.83035 98.3429 2.56705 84.7342 2.39971C54.7132 2.03056 38.9044 2.57656 23.4824 4.51549C16.9228 5.34013 15.7695 5.61322 15.7018 6.3575C15.605 7.42265 16.2164 7.4471 29.6859 6.91673C57.4472 5.82367 84.5432 6.20106 112.34 8.06803C127.893 9.11255 151.291 11.3317 150.765 11.7123C150.637 11.8048 128.929 12.122 116.676 12.2105C107.869 12.274 97.3802 12.5155 85.382 12.9309C76.5555 13.2365 64.1527 14.0724 61.441 14.5444C60.3144 14.7405 59.8336 15.3407 60.3429 15.9152C60.8903 16.5327 63.0287 16.6056 73.3659 16.3594C96.0876 15.818 108.363 16.0535 126.357 17.3762C129.272 17.5905 132.933 17.8183 134.494 17.8825C137.794 18.018 142.404 18.4203 145.015 18.8006C146.021 18.947 146.86 19.055 146.88 19.0406C146.913 19.017 144.35 18.5115 138.17 17.3226C134.22 16.5625 133.565 16.4768 126.399 15.7815C113.822 14.5614 106.051 14.2362 92.7836 14.3749C86.3819 14.4418 87.1715 14.3673 95.2674 14.1404C102.009 13.9515 110.592 13.7959 116.744 13.7512C124.426 13.6952 135.763 13.5719 138.465 13.5149C139.777 13.4872 143.233 13.4148 146.144 13.3541C155.069 13.1677 155.77 13.0983 156.126 12.3644C156.609 11.3728 155.363 10.8688 150.531 10.1006C144.055 9.07087 121.859 7.1427 106.496 6.27533C78.5176 4.69564 55.4208 4.56562 25.4354 5.81914C24.4631 5.85976 25.3016 5.71776 27.2353 5.51437C46.362 3.50203 63.6196 3.35957 123.21 4.72231C144.895 5.21821 167.6 5.51921 174.471 5.40191C179.612 5.3142 180.963 4.96483 180.501 3.84267C180.157 3.00852 177.929 2.65581 169.029 2.02687ZM88.2243 14.4224C88.1515 14.4408 88.0359 14.4303 87.9675 14.399C87.8992 14.3678 87.9587 14.3527 88.1 14.3655C88.2413 14.3784 88.2972 14.404 88.2243 14.4224Z" fill="#C2E978"/>
</svg>
