<svg width="120" height="16" viewBox="0 0 120 16" fill="none" xmlns="http://www.w3.org/2000/svg">
<path id="Line-1" fill-rule="evenodd" clip-rule="evenodd" d="M90.4702 0.0640596C73.5993 0.245949 68.7756 0.364271 59.4149 0.826155C49.7143 1.30481 42.772 1.78462 31.7569 2.73771C29.2033 2.95866 26.4691 3.16835 23.2638 3.38899C11.489 4.19949 9.19775 4.41546 5.39128 5.07332C3.50529 5.39934 1.87425 5.62496 0.960092 5.68646C0.147337 5.74107 0 5.77545 0 5.91047C0 6.02979 1.29989 6.13433 2.01087 6.07214C2.26567 6.04993 2.95597 5.99548 3.54495 5.95129C4.13393 5.90703 5.43006 5.78824 6.42523 5.6873C8.76867 5.44951 9.89382 5.37453 13.9213 5.18774C20.692 4.87374 25.8067 4.572 32.0892 4.11593C34.4045 3.94783 37.4787 3.72467 38.9206 3.61997C49.8571 2.82587 63.2161 2.11776 71.3791 1.89957C81.2851 1.63466 112.038 1.40047 111.518 1.59377C111.313 1.67043 107.794 2.2406 105.684 2.53913C103.746 2.81338 100.509 3.20894 96.5261 3.65803C94.6374 3.87109 92.0451 4.16595 90.7656 4.31329C85.9589 4.86693 84.3757 5.03863 81.6447 5.30277C69.0637 6.51947 60.7533 7.57971 49.1862 9.44363C42.3109 10.5515 36.6755 11.8234 30.3866 13.6866C26.8111 14.7459 26.4627 14.9341 26.8146 15.6161C27.0436 16.0598 28.8477 16.1173 32.4865 15.7968C39.1363 15.2112 45.3852 14.7569 51.4388 14.4192C55.2359 14.2074 55.7388 14.1718 59.5995 13.843C61.0415 13.7202 63.5341 13.5407 65.1385 13.4442L68.0557 13.2687L64.1784 13.1996C58.303 13.0947 52.0004 13.1011 49.9248 13.214C43.0529 13.5877 39.3152 13.8754 33.2099 14.5002C31.7547 14.6492 30.5271 14.7582 30.4817 14.7426C30.0445 14.5914 39.8306 12.3072 44.4991 11.4708C55.0376 9.58241 65.8901 8.17348 82.5679 6.52828C84.0911 6.37802 87.1486 6.04932 89.3624 5.79789C91.5761 5.54639 95.0657 5.15044 97.117 4.91785C105.012 4.02281 107.365 3.68943 114.953 2.39017C119.812 1.558 119.838 1.55088 119.971 1.0036C120.116 0.401876 119.727 0.128852 118.612 0.0508124C117.552 -0.0233983 97.7137 -0.014057 90.4702 0.0640596ZM68.3705 13.208C68.4624 13.2263 68.5953 13.2256 68.6659 13.2065C68.7365 13.1873 68.6613 13.1723 68.4989 13.1732C68.3364 13.174 68.2786 13.1897 68.3705 13.208Z" fill="#C2E978"/>
</svg>
