<svg width="57" height="56" viewBox="0 0 57 56" fill="none" xmlns="http://www.w3.org/2000/svg">
<path fill-rule="evenodd" clip-rule="evenodd" d="M21.2009 7.58322C21.3051 7.58327 21.4106 7.58331 21.5176 7.58331H35.1491C35.2561 7.58331 35.3616 7.58327 35.4657 7.58322C37.8618 7.58215 39.5236 7.5814 41.0434 8.16519C41.5027 8.34164 41.9464 8.55654 42.3697 8.80759C43.7699 9.63815 44.7995 10.9425 46.2842 12.8232C46.3487 12.9049 46.4141 12.9878 46.4804 13.0717L46.5374 13.1438C47.8895 14.855 48.9857 16.2423 49.7599 17.456C50.5635 18.7156 51.1154 19.9287 51.2595 21.3139C51.338 22.0686 51.318 22.8303 51.2 23.5798C50.9834 24.9556 50.3687 26.138 49.5002 27.3537C48.6633 28.5252 47.4959 29.8531 46.056 31.491L40.0716 38.2982C37.6993 40.9968 35.7956 43.1623 34.0819 44.6355C32.3086 46.1599 30.5106 47.148 28.3333 47.148C26.1561 47.148 24.358 46.1599 22.5848 44.6355C20.871 43.1623 18.9674 40.9968 16.595 38.2981L10.6107 31.491C9.17073 29.8531 8.00331 28.5252 7.16646 27.3537C6.29796 26.138 5.68321 24.9556 5.46666 23.5798C5.34867 22.8303 5.32868 22.0686 5.4072 21.3139C5.5513 19.9287 6.1032 18.7156 6.90674 17.456C7.68101 16.2423 8.7772 14.855 10.1293 13.1438L10.1862 13.0717C10.2526 12.9878 10.318 12.9049 10.3825 12.8232C11.8671 10.9425 12.8967 9.63815 14.297 8.80759C14.7203 8.55654 15.1639 8.34164 15.6233 8.16519C17.1431 7.5814 18.8048 7.58215 21.2009 7.58322ZM21.5176 11.0833C18.6791 11.0833 17.7162 11.1106 16.8783 11.4324C16.6027 11.5383 16.3365 11.6672 16.0825 11.8179C15.3106 12.2758 14.6922 13.0144 12.9325 15.2416C11.5099 17.042 10.5253 18.2914 9.85746 19.3384C9.20801 20.3564 8.95456 21.0401 8.88841 21.676C8.8413 22.1288 8.8533 22.5859 8.92409 23.0356C9.0235 23.6671 9.31245 24.3366 10.0144 25.3192C10.7363 26.3297 11.785 27.5258 13.3 29.2491L19.1331 35.8842C21.6172 38.7099 23.3609 40.6872 24.8664 41.9814C26.3341 43.2431 27.344 43.648 28.3333 43.648C29.3226 43.648 30.3325 43.2431 31.8003 41.9814C33.3057 40.6872 35.0495 38.7099 37.5336 35.8842L43.3666 29.2491C44.8817 27.5257 45.9304 26.3297 46.6523 25.3192C47.3542 24.3366 47.6432 23.6671 47.7426 23.0356C47.8134 22.5859 47.8254 22.1288 47.7782 21.676C47.7121 21.0401 47.4586 20.3564 46.8092 19.3384C46.1413 18.2914 45.1568 17.042 43.7342 15.2416C41.9744 13.0144 41.3561 12.2758 40.5841 11.8179C40.3302 11.6672 40.064 11.5383 39.7883 11.4324C38.9505 11.1106 37.9876 11.0833 35.1491 11.0833H21.5176Z" fill="#C2E978"/>
<path fill-rule="evenodd" clip-rule="evenodd" d="M5.58337 22.1666C5.58337 21.2001 6.36688 20.4166 7.33337 20.4166H49.3334C50.2999 20.4166 51.0834 21.2001 51.0834 22.1666C51.0834 23.1331 50.2999 23.9166 49.3334 23.9166H7.33337C6.36688 23.9166 5.58337 23.1331 5.58337 22.1666Z" fill="#C2E978"/>
<path fill-rule="evenodd" clip-rule="evenodd" d="M28.2229 8.01185C29.0383 8.53074 29.2787 9.61239 28.7598 10.4278L21.0466 22.5485L28.6754 44.6285C28.991 45.542 28.5063 46.5384 27.5928 46.8541C26.6793 47.1697 25.6829 46.685 25.3673 45.7715L17.4626 22.8931C17.2884 22.3887 17.3538 21.8323 17.6403 21.3821L25.807 8.54873C26.3259 7.73333 27.4075 7.49296 28.2229 8.01185Z" fill="#C2E978"/>
<path fill-rule="evenodd" clip-rule="evenodd" d="M28.4546 8.01185C27.6392 8.53074 27.3988 9.61239 27.9177 10.4278L35.6309 22.5485L28.0021 44.6285C27.6865 45.542 28.1712 46.5384 29.0847 46.8541C29.9982 47.1697 30.9946 46.685 31.3102 45.7715L39.2148 22.8931C39.3891 22.3887 39.3237 21.8323 39.0372 21.3821L30.8705 8.54873C30.3516 7.73333 29.27 7.49296 28.4546 8.01185Z" fill="#C2E978"/>
</svg>
