<svg width="57" height="56" viewBox="0 0 57 56" fill="none" xmlns="http://www.w3.org/2000/svg">
<path d="M51.9408 24.8524C51.6257 22.1594 50.3269 20.1922 47.7581 19.1799C48.8372 16.105 48.3215 13.2783 46.106 10.7095C43.3557 8.15972 40.3572 7.74909 37.1103 9.32477C35.9166 6.93737 33.6247 5.2471 31.0368 4.75052C27.4748 4.33034 24.8869 5.50494 23.0724 7.93053C21.6782 7.03287 19.8829 6.53629 17.9921 6.44079C16.3973 6.3453 15.089 6.62224 14.0099 7.33846C10.2187 9.84999 11.6225 14.2046 11.823 14.9017C10.4288 14.9972 8.63348 15.1023 7.24879 16.296C5.95005 17.3942 2.7032 23.3531 9.93223 28.0419C9.73168 30.1333 10.4288 32.2247 11.823 33.9149C13.3032 35.8821 15.6238 37.1809 19.3863 37.2955C20.4845 37.2 21.2771 36.3023 21.1816 35.2041C21.0861 34.1059 20.1885 33.3133 19.0903 33.4088C15.2609 33.4852 12.9594 30.7254 13.8189 27.4403C14.1913 26.323 13.5897 24.7378 12.0236 24.7569C10.0086 24.776 8.14646 21.0803 9.43565 19.4855C10.4002 18.8743 13.0549 19.2181 15.0126 18.5879C15.5092 18.3873 16.7411 17.5279 16.1108 15.9044C14.898 13.6316 14.5542 11.8172 15.8148 10.824C18.5077 10.0505 20.4272 11.0246 22.0888 12.6194C23.5308 14.1664 25.4121 13.4884 25.6699 11.6262C25.7941 10.7381 26.367 10.0314 26.7681 9.7354C29.7667 7.4244 33.8062 9.659 34.0354 13.4215C33.9399 15.045 36.7283 16.3055 37.817 14.0232C39.0775 12.0464 41.293 11.9413 43.1648 13.5457C44.9696 15.5988 44.6354 17.8334 42.8878 20.1922C41.6082 22.1403 43.795 23.9834 45.3803 23.0762C45.7813 22.7801 46.574 22.8756 47.0705 23.2767C49.4006 25.8646 47.4048 30.3625 42.8878 29.3502C41.8947 28.9491 40.7965 29.5508 40.3954 30.5439C39.9943 31.5371 40.5959 32.6353 41.5891 33.0364C46.8031 34.4688 52.1032 31.5084 51.9408 24.8524Z" fill="#C2E978"/>
<path d="M38.7049 20.8703C37.9123 20.1731 36.6135 20.3737 36.0215 21.2713L30.7501 28.529V20.7748C30.7501 19.6766 29.8524 18.7885 28.7638 18.7885C27.6751 18.7885 26.7775 19.6861 26.7775 20.7748V23.6778L22.9767 19.476C22.1841 18.6834 20.9904 18.6834 20.1883 19.3805C19.3957 20.1731 19.3957 21.3668 20.0928 22.169L26.7584 29.5795V49.3471C26.7584 50.4453 27.656 51.3334 28.7447 51.3334C29.8333 51.3334 30.731 50.4357 30.731 49.3471V35.1182L39.0964 23.5728C39.7936 22.7611 39.6026 21.4623 38.7049 20.8703Z" fill="#C2E978"/>
</svg>
