<svg width="56" height="56" viewBox="0 0 56 56" fill="none" xmlns="http://www.w3.org/2000/svg">
<path d="M48.5945 20.5848C48.5945 11.8336 39.3375 4.66663 28.0001 4.66663C16.6626 4.66663 7.40564 11.8336 7.40564 20.5848C7.40564 28.8207 15.5938 35.6537 26.015 36.4267V49.3387C26.015 50.4362 26.9121 51.3333 28.0096 51.3333C29.1071 51.3333 30.0041 50.4362 30.0041 49.3387V36.4362C40.4063 35.6537 48.5945 28.8207 48.5945 20.5848ZM29.9946 32.5426V29.4792L37.9537 23.5814C38.8508 22.9802 38.9462 21.7873 38.3545 20.8998C37.7533 20.0027 36.5604 19.9073 35.6729 20.4989L30.0041 24.7075V20.4989C30.0041 19.4015 29.1071 18.5044 28.0096 18.5044C26.9121 18.5044 26.015 19.4015 26.015 20.4989V26.6925L20.3368 22.0831C19.4397 21.3865 18.2468 21.5869 17.5502 22.379C16.8535 23.276 17.0539 24.4689 17.846 25.1656L26.0055 31.7791V32.533C17.6933 31.8173 11.2802 26.6639 11.2802 20.4798C11.2898 13.8186 18.7431 8.44577 28.0001 8.44577C37.257 8.44577 44.7103 13.9141 44.7103 20.5848C44.7103 26.7689 38.2973 31.8364 29.9946 32.5426Z" fill="#C2E978"/>
</svg>
