<svg width="318" height="38" viewBox="0 0 318 38" fill="none" xmlns="http://www.w3.org/2000/svg">
<path d="M5.88382 34.6584L5.11406 9.52038L3.55256 11.3678L0.847412 9.10251L5.02609 4.19806L8.41302 4.06611L9.4027 34.5485L5.88382 34.6584Z" fill="white"/>
<path d="M17.6281 34.2845C17.6281 34.7391 17.5401 35.1643 17.3642 35.5601C17.1882 35.956 16.9536 36.3079 16.6604 36.6158C16.3525 36.909 16.0006 37.1436 15.6047 37.3196C15.2089 37.4955 14.7837 37.5835 14.3291 37.5835C13.8746 37.5835 13.4494 37.4955 13.0535 37.3196C12.6577 37.1436 12.3131 36.909 12.0199 36.6158C11.712 36.3079 11.4774 35.956 11.3161 35.5601C11.1402 35.1643 11.0522 34.7391 11.0522 34.2845C11.0522 33.83 11.1402 33.4048 11.3161 33.0089C11.492 32.6277 11.734 32.2905 12.0419 31.9973C12.3351 31.704 12.6797 31.4694 13.0755 31.2935C13.4714 31.1322 13.8893 31.0516 14.3291 31.0516C14.7837 31.0516 15.2089 31.1322 15.6047 31.2935C16.0006 31.4694 16.3525 31.704 16.6604 31.9973C16.9536 32.2905 17.1882 32.6277 17.3642 33.0089L17.6281 34.2845Z" fill="white"/>
<path d="M22.2466 32.899C23.273 32.7817 24.2333 32.4884 25.1277 32.0193C26.0221 31.5647 26.7992 30.9709 27.459 30.2378C28.1188 29.5194 28.6393 28.6983 29.0205 27.7746C29.4017 26.8509 29.5923 25.8685 29.5923 24.8275C29.5923 23.8012 29.4017 22.7968 29.0205 21.8145C28.6246 20.8468 28.0894 19.9817 27.415 19.2193C26.7259 18.4569 25.9268 17.8411 25.0178 17.3719C24.094 16.9027 23.097 16.6681 22.0267 16.6681H19.2776L22.5545 2.8125H30.538V6.26541H25.3037L23.6542 13.3912C25.0031 13.6551 26.2567 14.1389 27.415 14.8427C28.5586 15.5465 29.5557 16.4042 30.406 17.4159C31.2564 18.4276 31.9236 19.5639 32.4074 20.8248C32.8766 22.0857 33.1112 23.4053 33.1112 24.7835C33.1112 26.2644 32.8399 27.672 32.2974 29.0062C31.755 30.3551 31.0072 31.5427 30.0542 32.5691C29.1011 33.6101 27.9868 34.4605 26.7112 35.1203C25.421 35.7947 24.0354 36.2053 22.5545 36.3519L22.2466 32.899Z" fill="white"/>
<path d="M54.2245 10.686L55.2142 17.4819L50.9475 12.0936L44.7675 15.1946L48.5943 9.43241L43.7338 4.50597L50.3977 6.35338L53.5867 0.239319L53.8726 7.16712L60.7124 8.24478L54.2245 10.686Z" fill="white"/>
<path d="M74.3261 32.899C75.3525 32.7817 76.3128 32.4884 77.2072 32.0193C78.1016 31.5647 78.8787 30.9709 79.5385 30.2378C80.1983 29.5194 80.7188 28.6983 81.1 27.7746C81.4812 26.8509 81.6718 25.8685 81.6718 24.8275C81.6718 23.8012 81.4812 22.7968 81.1 21.8145C80.7041 20.8468 80.169 19.9817 79.4945 19.2193C78.8054 18.4569 78.0063 17.8411 77.0973 17.3719C76.1736 16.9027 75.1765 16.6681 74.1062 16.6681H71.3571L74.634 2.8125H82.6175V6.26541H77.3832L75.7337 13.3912C77.0826 13.6551 78.3362 14.1389 79.4945 14.8427C80.6381 15.5465 81.6352 16.4042 82.4855 17.4159C83.3359 18.4276 84.0031 19.5639 84.4869 20.8248C84.9561 22.0857 85.1907 23.4053 85.1907 24.7835C85.1907 26.2644 84.9194 27.672 84.377 29.0062C83.8345 30.3551 83.0867 31.5427 82.1337 32.5691C81.1806 33.6101 80.0663 34.4605 78.7907 35.1203C77.5005 35.7947 76.1149 36.2053 74.634 36.3519L74.3261 32.899Z" fill="white"/>
<path d="M107.822 19.9671C107.822 20.9934 107.734 22.0491 107.558 23.1341C107.367 24.2191 107.081 25.2674 106.7 26.2791C106.319 27.3054 105.842 28.2731 105.27 29.1822C104.699 30.1059 104.024 30.9049 103.247 31.5794C102.47 32.2685 101.59 32.811 100.608 33.2069C99.6108 33.6028 98.5185 33.8007 97.3308 33.8007C96.1286 33.8007 95.0362 33.6028 94.0539 33.2069C93.0569 32.811 92.1698 32.2758 91.3927 31.6014C90.6156 30.9269 89.9412 30.1352 89.3694 29.2261C88.7829 28.3171 88.299 27.3494 87.9178 26.3231C87.5366 25.2967 87.258 24.241 87.0821 23.1561C86.8915 22.0711 86.7962 21.0081 86.7962 19.9671C86.7962 18.9847 86.8988 17.9584 87.1041 16.888C87.3094 15.8177 87.6173 14.7694 88.0278 13.743C88.4237 12.7167 88.9222 11.7417 89.5233 10.818C90.1098 9.89426 90.7989 9.08785 91.5907 8.39873C92.3678 7.70962 93.2401 7.15979 94.2078 6.74926C95.1609 6.33872 96.2019 6.13345 97.3308 6.13345C98.4598 6.13345 99.5082 6.33872 100.476 6.74926C101.429 7.15979 102.294 7.70962 103.071 8.39873C103.848 9.10251 104.537 9.91625 105.138 10.84C105.725 11.7637 106.216 12.7387 106.612 13.765C107.008 14.7914 107.308 15.8324 107.514 16.888L107.822 19.9671ZM104.325 19.9671C104.325 19.278 104.273 18.5449 104.171 17.7678C104.053 16.9907 103.877 16.2136 103.643 15.4365C103.394 14.6741 103.086 13.941 102.719 13.2372C102.353 12.5481 101.913 11.9323 101.4 11.3898C100.872 10.862 100.271 10.4368 99.5961 10.1142C98.9217 9.80629 98.1666 9.65234 97.3308 9.65234C96.4805 9.65234 95.718 9.80629 95.0436 10.1142C94.3691 10.4368 93.7753 10.862 93.2621 11.3898C92.7343 11.9176 92.2871 12.5261 91.9206 13.2152C91.554 13.919 91.2534 14.6521 91.0189 15.4145C90.7696 16.1916 90.5937 16.9687 90.491 17.7458C90.3737 18.5229 90.3151 19.2633 90.3151 19.9671C90.3151 20.6562 90.3737 21.3893 90.491 22.1664C90.5937 22.9581 90.7696 23.7352 91.0189 24.4976C91.2534 25.2747 91.554 26.0152 91.9206 26.7189C92.2871 27.4227 92.7343 28.0385 93.2621 28.5663C93.7753 29.1088 94.3691 29.534 95.0436 29.8419C95.718 30.1645 96.4805 30.3258 97.3308 30.3258C98.1666 30.3258 98.9217 30.1645 99.5961 29.8419C100.271 29.5194 100.872 29.0868 101.4 28.5444C101.913 28.0165 102.353 27.4007 102.719 26.6969C103.086 25.9932 103.394 25.2527 103.643 24.4756C103.877 23.7132 104.053 22.9435 104.171 22.1664L104.325 19.9671Z" fill="white"/>
<path d="M130.474 19.9671C130.474 20.9934 130.386 22.0491 130.21 23.1341C130.02 24.2191 129.734 25.2674 129.353 26.2791C128.971 27.3054 128.495 28.2731 127.923 29.1822C127.351 30.1059 126.677 30.9049 125.9 31.5794C125.123 32.2685 124.243 32.811 123.261 33.2069C122.264 33.6028 121.171 33.8007 119.984 33.8007C118.781 33.8007 117.689 33.6028 116.707 33.2069C115.71 32.811 114.823 32.2758 114.046 31.6014C113.268 30.9269 112.594 30.1352 112.022 29.2261C111.436 28.3171 110.952 27.3494 110.571 26.3231C110.189 25.2967 109.911 24.241 109.735 23.1561C109.544 22.0711 109.449 21.0081 109.449 19.9671C109.449 18.9847 109.552 17.9584 109.757 16.888C109.962 15.8177 110.27 14.7694 110.681 13.743C111.076 12.7167 111.575 11.7417 112.176 10.818C112.763 9.89426 113.452 9.08785 114.243 8.39873C115.021 7.70962 115.893 7.15979 116.861 6.74926C117.814 6.33872 118.855 6.13345 119.984 6.13345C121.113 6.13345 122.161 6.33872 123.129 6.74926C124.082 7.15979 124.947 7.70962 125.724 8.39873C126.501 9.10251 127.19 9.91625 127.791 10.84C128.378 11.7637 128.869 12.7387 129.265 13.765C129.661 14.7914 129.961 15.8324 130.166 16.888L130.474 19.9671ZM126.977 19.9671C126.977 19.278 126.926 18.5449 126.824 17.7678C126.706 16.9907 126.53 16.2136 126.296 15.4365C126.046 14.6741 125.739 13.941 125.372 13.2372C125.005 12.5481 124.566 11.9323 124.052 11.3898C123.525 10.862 122.923 10.4368 122.249 10.1142C121.575 9.80629 120.819 9.65234 119.984 9.65234C119.133 9.65234 118.371 9.80629 117.696 10.1142C117.022 10.4368 116.428 10.862 115.915 11.3898C115.387 11.9176 114.94 12.5261 114.573 13.2152C114.207 13.919 113.906 14.6521 113.672 15.4145C113.422 16.1916 113.246 16.9687 113.144 17.7458C113.027 18.5229 112.968 19.2633 112.968 19.9671C112.968 20.6562 113.027 21.3893 113.144 22.1664C113.246 22.9581 113.422 23.7352 113.672 24.4976C113.906 25.2747 114.207 26.0152 114.573 26.7189C114.94 27.4227 115.387 28.0385 115.915 28.5663C116.428 29.1088 117.022 29.534 117.696 29.8419C118.371 30.1645 119.133 30.3258 119.984 30.3258C120.819 30.3258 121.575 30.1645 122.249 29.8419C122.923 29.5194 123.525 29.0868 124.052 28.5444C124.566 28.0165 125.005 27.4007 125.372 26.6969C125.739 25.9932 126.046 25.2527 126.296 24.4756C126.53 23.7132 126.706 22.9435 126.824 22.1664L126.977 19.9671Z" fill="white"/>
<path d="M153.127 19.9671C153.127 20.9934 153.039 22.0491 152.863 23.1341C152.673 24.2191 152.387 25.2674 152.006 26.2791C151.624 27.3054 151.148 28.2731 150.576 29.1822C150.004 30.1059 149.33 30.9049 148.553 31.5794C147.776 32.2685 146.896 32.811 145.913 33.2069C144.916 33.6028 143.824 33.8007 142.637 33.8007C141.434 33.8007 140.342 33.6028 139.36 33.2069C138.363 32.811 137.475 32.2758 136.698 31.6014C135.921 30.9269 135.247 30.1352 134.675 29.2261C134.089 28.3171 133.605 27.3494 133.223 26.3231C132.842 25.2967 132.564 24.241 132.388 23.1561C132.197 22.0711 132.102 21.0081 132.102 19.9671C132.102 18.9847 132.204 17.9584 132.41 16.888C132.615 15.8177 132.923 14.7694 133.333 13.743C133.729 12.7167 134.228 11.7417 134.829 10.818C135.415 9.89426 136.105 9.08785 136.896 8.39873C137.673 7.70962 138.546 7.15979 139.513 6.74926C140.467 6.33872 141.508 6.13345 142.637 6.13345C143.765 6.13345 144.814 6.33872 145.782 6.74926C146.735 7.15979 147.6 7.70962 148.377 8.39873C149.154 9.10251 149.843 9.91625 150.444 10.84C151.031 11.7637 151.522 12.7387 151.918 13.765C152.313 14.7914 152.614 15.8324 152.819 16.888L153.127 19.9671ZM149.63 19.9671C149.63 19.278 149.579 18.5449 149.476 17.7678C149.359 16.9907 149.183 16.2136 148.949 15.4365C148.699 14.6741 148.391 13.941 148.025 13.2372C147.658 12.5481 147.218 11.9323 146.705 11.3898C146.177 10.862 145.576 10.4368 144.902 10.1142C144.227 9.80629 143.472 9.65234 142.637 9.65234C141.786 9.65234 141.024 9.80629 140.349 10.1142C139.675 10.4368 139.081 10.862 138.568 11.3898C138.04 11.9176 137.593 12.5261 137.226 13.2152C136.86 13.919 136.559 14.6521 136.325 15.4145C136.075 16.1916 135.899 16.9687 135.797 17.7458C135.679 18.5229 135.621 19.2633 135.621 19.9671C135.621 20.6562 135.679 21.3893 135.797 22.1664C135.899 22.9581 136.075 23.7352 136.325 24.4976C136.559 25.2747 136.86 26.0152 137.226 26.7189C137.593 27.4227 138.04 28.0385 138.568 28.5663C139.081 29.1088 139.675 29.534 140.349 29.8419C141.024 30.1645 141.786 30.3258 142.637 30.3258C143.472 30.3258 144.227 30.1645 144.902 29.8419C145.576 29.5194 146.177 29.0868 146.705 28.5444C147.218 28.0165 147.658 27.4007 148.025 26.6969C148.391 25.9932 148.699 25.2527 148.949 24.4756C149.183 23.7132 149.359 22.9435 149.476 22.1664L149.63 19.9671Z" fill="white"/>
<path d="M167.599 37.2096L163.772 4.28604L171.469 3.25236L171.931 6.68328L167.643 7.2551L168.038 10.862L174.087 9.69632L174.724 13.1712L168.456 14.3369L170.612 33.1189L175.164 32.2612L175.758 35.7361L167.599 37.2096Z" fill="white"/>
<path d="M186.974 30.3258C186.974 31.0442 186.835 31.7187 186.557 32.3491C186.278 32.9943 185.904 33.5588 185.435 34.0426C184.951 34.5265 184.387 34.9077 183.741 35.1862C183.096 35.4648 182.415 35.6041 181.696 35.6041C180.963 35.6041 180.281 35.4648 179.651 35.1862C179.006 34.9077 178.448 34.5265 177.979 34.0426C177.495 33.5734 177.122 33.0163 176.858 32.3711C176.579 31.7407 176.44 31.0589 176.44 30.3258V3.38432H179.915V30.3258C179.915 30.8243 180.091 31.2422 180.443 31.5794C180.78 31.9166 181.198 32.0852 181.696 32.0852C181.931 32.0852 182.158 32.0339 182.378 31.9313C182.583 31.8433 182.766 31.7187 182.928 31.5574C183.089 31.3961 183.221 31.2055 183.324 30.9856C183.412 30.7803 183.456 30.5604 183.456 30.3258V3.38432H186.974V30.3258Z" fill="white"/>
<path d="M201.138 36.5058C201.138 34.5704 201.013 32.6204 200.764 30.6557C200.5 28.691 200.09 26.7702 199.532 24.8935C198.961 23.0168 198.22 21.2133 197.311 19.4832C196.402 17.7531 195.295 16.1403 193.99 14.6448L192.935 14.8207L194.606 36.8137L191.109 37.0777L188.624 3.93415C189.269 3.59692 189.892 3.29635 190.493 3.03243C191.08 2.78318 191.747 2.65855 192.495 2.65855C193.33 2.65855 194.115 2.8125 194.848 3.12041C195.581 3.44297 196.226 3.8755 196.783 4.41799C197.326 4.97515 197.758 5.62028 198.081 6.35338C198.404 7.08648 198.565 7.8709 198.565 8.70664C198.565 9.48372 198.433 10.2168 198.169 10.9059C197.905 11.6097 197.516 12.2402 197.003 12.7973C198.382 14.4542 199.554 16.2209 200.522 18.0977C201.49 19.9891 202.282 21.9391 202.897 23.9478C203.513 25.9712 203.96 28.0385 204.239 30.1498C204.518 32.2758 204.657 34.3945 204.657 36.5058H201.138ZM192.275 6.17744L192.671 11.3678C193.36 11.2945 193.939 11.0159 194.408 10.5321C194.877 10.0482 195.112 9.4544 195.112 8.75062C195.112 8.01752 194.885 7.40172 194.43 6.90321C193.961 6.41936 193.33 6.17744 192.539 6.17744H192.275Z" fill="white"/>
<path d="M225.814 10.686L226.804 17.4819L222.537 12.0936L216.357 15.1946L220.184 9.43241L215.323 4.50597L221.987 6.35338L225.176 0.239319L225.462 7.16712L232.302 8.24478L225.814 10.686Z" fill="white"/>
<path d="M245.916 32.899C246.942 32.7817 247.903 32.4884 248.797 32.0193C249.691 31.5647 250.468 30.9709 251.128 30.2378C251.788 29.5194 252.308 28.6983 252.69 27.7746C253.071 26.8509 253.261 25.8685 253.261 24.8275C253.261 23.8012 253.071 22.7968 252.69 21.8145C252.294 20.8468 251.759 19.9817 251.084 19.2193C250.395 18.4569 249.596 17.8411 248.687 17.3719C247.763 16.9027 246.766 16.6681 245.696 16.6681H242.947L246.224 2.8125H254.207V6.26541H248.973L247.323 13.3912C248.672 13.6551 249.926 14.1389 251.084 14.8427C252.228 15.5465 253.225 16.4042 254.075 17.4159C254.926 18.4276 255.593 19.5639 256.077 20.8248C256.546 22.0857 256.78 23.4053 256.78 24.7835C256.78 26.2644 256.509 27.672 255.967 29.0062C255.424 30.3551 254.676 31.5427 253.723 32.5691C252.77 33.6101 251.656 34.4605 250.38 35.1203C249.09 35.7947 247.705 36.2053 246.224 36.3519L245.916 32.899Z" fill="white"/>
<path d="M279.411 19.9671C279.411 20.9934 279.323 22.0491 279.147 23.1341C278.957 24.2191 278.671 25.2674 278.29 26.2791C277.908 27.3054 277.432 28.2731 276.86 29.1822C276.288 30.1059 275.614 30.9049 274.837 31.5794C274.06 32.2685 273.18 32.811 272.197 33.2069C271.2 33.6028 270.108 33.8007 268.921 33.8007C267.718 33.8007 266.626 33.6028 265.644 33.2069C264.647 32.811 263.759 32.2758 262.982 31.6014C262.205 30.9269 261.531 30.1352 260.959 29.2261C260.373 28.3171 259.889 27.3494 259.507 26.3231C259.126 25.2967 258.848 24.241 258.672 23.1561C258.481 22.0711 258.386 21.0081 258.386 19.9671C258.386 18.9847 258.488 17.9584 258.694 16.888C258.899 15.8177 259.207 14.7694 259.617 13.743C260.013 12.7167 260.512 11.7417 261.113 10.818C261.699 9.89426 262.389 9.08785 263.18 8.39873C263.957 7.70962 264.83 7.15979 265.797 6.74926C266.751 6.33872 267.792 6.13345 268.921 6.13345C270.049 6.13345 271.098 6.33872 272.065 6.74926C273.019 7.15979 273.884 7.70962 274.661 8.39873C275.438 9.10251 276.127 9.91625 276.728 10.84C277.315 11.7637 277.806 12.7387 278.202 13.765C278.597 14.7914 278.898 15.8324 279.103 16.888L279.411 19.9671ZM275.914 19.9671C275.914 19.278 275.863 18.5449 275.76 17.7678C275.643 16.9907 275.467 16.2136 275.232 15.4365C274.983 14.6741 274.675 13.941 274.309 13.2372C273.942 12.5481 273.502 11.9323 272.989 11.3898C272.461 10.862 271.86 10.4368 271.186 10.1142C270.511 9.80629 269.756 9.65234 268.921 9.65234C268.07 9.65234 267.308 9.80629 266.633 10.1142C265.959 10.4368 265.365 10.862 264.852 11.3898C264.324 11.9176 263.877 12.5261 263.51 13.2152C263.144 13.919 262.843 14.6521 262.608 15.4145C262.359 16.1916 262.183 16.9687 262.081 17.7458C261.963 18.5229 261.905 19.2633 261.905 19.9671C261.905 20.6562 261.963 21.3893 262.081 22.1664C262.183 22.9581 262.359 23.7352 262.608 24.4976C262.843 25.2747 263.144 26.0152 263.51 26.7189C263.877 27.4227 264.324 28.0385 264.852 28.5663C265.365 29.1088 265.959 29.534 266.633 29.8419C267.308 30.1645 268.07 30.3258 268.921 30.3258C269.756 30.3258 270.511 30.1645 271.186 29.8419C271.86 29.5194 272.461 29.0868 272.989 28.5444C273.502 28.0165 273.942 27.4007 274.309 26.6969C274.675 25.9932 274.983 25.2527 275.232 24.4756C275.467 23.7132 275.643 22.9435 275.76 22.1664L275.914 19.9671Z" fill="white"/>
<path d="M298.743 37.0337L297.072 13.6991L294.19 13.875L295.818 37.2536L292.343 37.4955L290.056 4.50597L293.531 4.28604L293.971 10.4221L296.852 10.1802L296.412 4.06611L299.909 3.84618L302.218 36.8137L298.743 37.0337Z" fill="white"/>
<path d="M314.534 36.9017L311.389 23.1121L308.508 23.354L307.342 37.0337L303.867 36.7258L306.573 4.41799L310.531 3.80219L317.965 36.088L314.534 36.9017ZM309.278 13.985L308.816 19.8351L310.575 19.6592L309.278 13.985Z" fill="white"/>
</svg>
