<svg width="77" height="31" viewBox="0 0 77 31" fill="none" xmlns="http://www.w3.org/2000/svg">
<path d="M5.34915 30.6491L4.57939 5.51103L3.01789 7.35845L0.312744 5.09317L4.49142 0.188721L7.87835 0.0567627L8.86803 30.5391L5.34915 30.6491Z" fill="white"/>
<path d="M31.5429 15.9577C31.5429 16.9841 31.4549 18.0397 31.2789 19.1247C31.0883 20.2097 30.8024 21.258 30.4212 22.2697C30.04 23.2961 29.5635 24.2638 28.9917 25.1728C28.4198 26.0965 27.7454 26.8956 26.9683 27.57C26.1912 28.2592 25.3115 28.8017 24.3291 29.1975C23.3321 29.5934 22.2398 29.7913 21.0522 29.7913C19.8499 29.7913 18.7576 29.5934 17.7752 29.1975C16.7782 28.8017 15.8911 28.2665 15.1141 27.592C14.337 26.9176 13.6625 26.1258 13.0907 25.2168C12.5042 24.3077 12.0204 23.3401 11.6392 22.3137C11.2579 21.2874 10.9794 20.2317 10.8034 19.1467C10.6128 18.0617 10.5175 16.9987 10.5175 15.9577C10.5175 14.9754 10.6201 13.949 10.8254 12.8787C11.0307 11.8084 11.3386 10.76 11.7491 9.7337C12.145 8.70736 12.6435 7.73233 13.2446 6.80862C13.8311 5.88492 14.5202 5.07851 15.312 4.38939C16.0891 3.70027 16.9615 3.15045 17.9292 2.73991C18.8822 2.32938 19.9232 2.12411 21.0522 2.12411C22.1812 2.12411 23.2295 2.32938 24.1972 2.73991C25.1502 3.15045 26.0153 3.70027 26.7924 4.38939C27.5694 5.09317 28.2586 5.90691 28.8597 6.83062C29.4462 7.75432 29.9374 8.72935 30.3332 9.75569C30.7291 10.782 31.0297 11.823 31.2349 12.8787L31.5429 15.9577ZM28.046 15.9577C28.046 15.2686 27.9946 14.5355 27.892 13.7584C27.7747 12.9813 27.5988 12.2042 27.3642 11.4272C27.1149 10.6647 26.807 9.93163 26.4405 9.22786C26.0739 8.53874 25.6341 7.92294 25.1209 7.38044C24.5931 6.85261 23.9919 6.42741 23.3175 6.10485C22.643 5.79694 21.8879 5.64299 21.0522 5.64299C20.2018 5.64299 19.4394 5.79694 18.7649 6.10485C18.0904 6.42741 17.4966 6.85261 16.9835 7.38044C16.4556 7.90828 16.0084 8.51675 15.6419 9.20586C15.2753 9.90964 14.9748 10.6427 14.7402 11.4052C14.4909 12.1823 14.315 12.9593 14.2123 13.7364C14.095 14.5135 14.0364 15.2539 14.0364 15.9577C14.0364 16.6468 14.095 17.3799 14.2123 18.157C14.315 18.9488 14.4909 19.7259 14.7402 20.4883C14.9748 21.2654 15.2753 22.0058 15.6419 22.7096C16.0084 23.4134 16.4556 24.0292 16.9835 24.557C17.4966 25.0995 18.0904 25.5247 18.7649 25.8326C19.4394 26.1552 20.2018 26.3164 21.0522 26.3164C21.8879 26.3164 22.643 26.1552 23.3175 25.8326C23.9919 25.51 24.5931 25.0775 25.1209 24.535C25.6341 24.0072 26.0739 23.3914 26.4405 22.6876C26.807 21.9838 27.1149 21.2434 27.3642 20.4663C27.5988 19.7039 27.7747 18.9341 27.892 18.157L28.046 15.9577Z" fill="white"/>
<path d="M54.1957 15.9577C54.1957 16.9841 54.1077 18.0397 53.9318 19.1247C53.7411 20.2097 53.4552 21.258 53.074 22.2697C52.6928 23.2961 52.2163 24.2638 51.6445 25.1728C51.0727 26.0965 50.3982 26.8956 49.6211 27.57C48.844 28.2592 47.9643 28.8017 46.982 29.1975C45.9849 29.5934 44.8926 29.7913 43.705 29.7913C42.5027 29.7913 41.4104 29.5934 40.428 29.1975C39.431 28.8017 38.544 28.2665 37.7669 27.592C36.9898 26.9176 36.3153 26.1258 35.7435 25.2168C35.157 24.3077 34.6732 23.3401 34.292 22.3137C33.9108 21.2874 33.6322 20.2317 33.4562 19.1467C33.2656 18.0617 33.1703 16.9987 33.1703 15.9577C33.1703 14.9754 33.273 13.949 33.4782 12.8787C33.6835 11.8084 33.9914 10.76 34.4019 9.7337C34.7978 8.70736 35.2963 7.73233 35.8975 6.80862C36.4839 5.88492 37.1731 5.07851 37.9648 4.38939C38.7419 3.70027 39.6143 3.15045 40.582 2.73991C41.535 2.32938 42.576 2.12411 43.705 2.12411C44.834 2.12411 45.8823 2.32938 46.85 2.73991C47.803 3.15045 48.6681 3.70027 49.4452 4.38939C50.2223 5.09317 50.9114 5.90691 51.5125 6.83062C52.099 7.75432 52.5902 8.72935 52.9861 9.75569C53.3819 10.782 53.6825 11.823 53.8878 12.8787L54.1957 15.9577ZM50.6988 15.9577C50.6988 15.2686 50.6475 14.5355 50.5448 13.7584C50.4275 12.9813 50.2516 12.2042 50.017 11.4272C49.7677 10.6647 49.4598 9.93163 49.0933 9.22786C48.7267 8.53874 48.2869 7.92294 47.7737 7.38044C47.2459 6.85261 46.6447 6.42741 45.9703 6.10485C45.2958 5.79694 44.5407 5.64299 43.705 5.64299C42.8546 5.64299 42.0922 5.79694 41.4177 6.10485C40.7433 6.42741 40.1495 6.85261 39.6363 7.38044C39.1085 7.90828 38.6613 8.51675 38.2947 9.20586C37.9282 9.90964 37.6276 10.6427 37.393 11.4052C37.1437 12.1823 36.9678 12.9593 36.8652 13.7364C36.7479 14.5135 36.6892 15.2539 36.6892 15.9577C36.6892 16.6468 36.7479 17.3799 36.8652 18.157C36.9678 18.9488 37.1437 19.7259 37.393 20.4883C37.6276 21.2654 37.9282 22.0058 38.2947 22.7096C38.6613 23.4134 39.1085 24.0292 39.6363 24.557C40.1495 25.0995 40.7433 25.5247 41.4177 25.8326C42.0922 26.1552 42.8546 26.3164 43.705 26.3164C44.5407 26.3164 45.2958 26.1552 45.9703 25.8326C46.6447 25.51 47.2459 25.0775 47.7737 24.535C48.2869 24.0072 48.7267 23.3914 49.0933 22.6876C49.4598 21.9838 49.7677 21.2434 50.017 20.4663C50.2516 19.7039 50.4275 18.9341 50.5448 18.157L50.6988 15.9577Z" fill="white"/>
<path d="M76.8485 15.9577C76.8485 16.9841 76.7605 18.0397 76.5846 19.1247C76.394 20.2097 76.1081 21.258 75.7269 22.2697C75.3456 23.2961 74.8691 24.2638 74.2973 25.1728C73.7255 26.0965 73.051 26.8956 72.2739 27.57C71.4969 28.2592 70.6171 28.8017 69.6348 29.1975C68.6378 29.5934 67.5454 29.7913 66.3578 29.7913C65.1555 29.7913 64.0632 29.5934 63.0809 29.1975C62.0838 28.8017 61.1968 28.2665 60.4197 27.592C59.6426 26.9176 58.9682 26.1258 58.3963 25.2168C57.8099 24.3077 57.326 23.3401 56.9448 22.3137C56.5636 21.2874 56.285 20.2317 56.1091 19.1467C55.9185 18.0617 55.8232 16.9987 55.8232 15.9577C55.8232 14.9754 55.9258 13.949 56.1311 12.8787C56.3363 11.8084 56.6442 10.76 57.0548 9.7337C57.4506 8.70736 57.9492 7.73233 58.5503 6.80862C59.1368 5.88492 59.8259 5.07851 60.6176 4.38939C61.3947 3.70027 62.2671 3.15045 63.2348 2.73991C64.1878 2.32938 65.2288 2.12411 66.3578 2.12411C67.4868 2.12411 68.5351 2.32938 69.5028 2.73991C70.4559 3.15045 71.3209 3.70027 72.098 4.38939C72.8751 5.09317 73.5642 5.90691 74.1653 6.83062C74.7518 7.75432 75.243 8.72935 75.6389 9.75569C76.0348 10.782 76.3353 11.823 76.5406 12.8787L76.8485 15.9577ZM73.3516 15.9577C73.3516 15.2686 73.3003 14.5355 73.1977 13.7584C73.0804 12.9813 72.9044 12.2042 72.6698 11.4272C72.4206 10.6647 72.1127 9.93163 71.7461 9.22786C71.3796 8.53874 70.9397 7.92294 70.4265 7.38044C69.8987 6.85261 69.2976 6.42741 68.6231 6.10485C67.9486 5.79694 67.1936 5.64299 66.3578 5.64299C65.5074 5.64299 64.745 5.79694 64.0705 6.10485C63.3961 6.42741 62.8023 6.85261 62.2891 7.38044C61.7613 7.90828 61.3141 8.51675 60.9475 9.20586C60.581 9.90964 60.2804 10.6427 60.0458 11.4052C59.7966 12.1823 59.6206 12.9593 59.518 13.7364C59.4007 14.5135 59.342 15.2539 59.342 15.9577C59.342 16.6468 59.4007 17.3799 59.518 18.157C59.6206 18.9488 59.7966 19.7259 60.0458 20.4883C60.2804 21.2654 60.581 22.0058 60.9475 22.7096C61.3141 23.4134 61.7613 24.0292 62.2891 24.557C62.8023 25.0995 63.3961 25.5247 64.0705 25.8326C64.745 26.1552 65.5074 26.3164 66.3578 26.3164C67.1936 26.3164 67.9486 26.1552 68.6231 25.8326C69.2976 25.51 69.8987 25.0775 70.4265 24.535C70.9397 24.0072 71.3796 23.3914 71.7461 22.6876C72.1127 21.9838 72.4206 21.2434 72.6698 20.4663C72.9044 19.7039 73.0804 18.9341 73.1977 18.157L73.3516 15.9577Z" fill="white"/>
</svg>
