<svg width="168" height="49" viewBox="0 0 168 49" fill="none" xmlns="http://www.w3.org/2000/svg">
<path d="M0.605225 23.6059V18.7481H31.1184V23.6059H0.605225ZM0.605225 32.4411V27.644H31.1184V32.4411H0.605225Z" fill="white"/>
<path d="M49.578 42.8854C50.9949 42.7235 52.3308 42.3186 53.5857 41.6709C54.8204 41.0435 55.9033 40.2237 56.8344 39.2117C57.7452 38.2199 58.4638 37.0763 58.99 35.7808C59.5163 34.5057 59.7794 33.1394 59.7794 31.6821C59.7794 30.2247 59.5062 28.8382 58.9597 27.5226C58.4132 26.2271 57.6744 25.0734 56.7433 24.0614C55.792 23.0696 54.6889 22.2498 53.4339 21.6021C52.1587 20.9746 50.7925 20.6002 49.3351 20.4787L49.6995 15.712H50.1245C50.8735 15.712 51.5616 15.6007 52.1891 15.378C52.8166 15.1554 53.3631 14.8315 53.8286 14.4065C54.2739 13.9814 54.6281 13.4754 54.8913 12.8884C55.1544 12.3014 55.286 11.6436 55.286 10.9149C55.286 10.2267 55.1645 9.58914 54.9216 9.00215C54.6787 8.41517 54.3549 7.90914 53.9501 7.48409C53.525 7.05903 53.0291 6.72505 52.4624 6.48216C51.8754 6.23927 51.2479 6.11783 50.58 6.11783C49.7096 6.11783 48.9202 6.31012 48.2118 6.69469L45.8436 2.53519C46.552 2.13037 47.3212 1.81664 48.1511 1.59399C48.9607 1.39158 49.7906 1.29038 50.6407 1.29038C51.9361 1.29038 53.1607 1.54339 54.3144 2.04941C55.4681 2.57567 56.4802 3.27398 57.3505 4.14434C58.2209 5.0147 58.9091 6.03686 59.4151 7.21083C59.9009 8.3848 60.1438 9.6195 60.1438 10.9149C60.1438 12.2913 59.8705 13.5968 59.324 14.8315C58.7775 16.0865 57.9881 17.1693 56.9558 18.0802C58.1298 18.8089 59.1925 19.6691 60.1438 20.6609C61.0749 21.6527 61.8744 22.7356 62.5423 23.9096C63.2103 25.1038 63.7264 26.3587 64.0907 27.6744C64.4348 29.0103 64.6069 30.3664 64.6069 31.7428C64.6069 33.7871 64.2324 35.7201 63.4835 37.5418C62.7144 39.3837 61.672 41.0131 60.3563 42.43C59.0406 43.8671 57.5023 45.041 55.7414 45.9519C53.9804 46.883 52.0879 47.4497 50.0638 47.6521L49.578 42.8854Z" fill="white"/>
<path d="M70.7702 48.229L65.9731 47.4092L72.9259 6.87686H64.364V2.07977H78.7249L70.7702 48.229Z" fill="white"/>
<path d="M83.8256 42.8854C85.2425 42.7235 86.5682 42.3186 87.8029 41.6709C89.0376 41.0435 90.1104 40.2237 91.0212 39.2117C91.9321 38.2199 92.6506 37.0864 93.1769 35.8112C93.7031 34.536 93.9663 33.1799 93.9663 31.7428C93.9663 30.3259 93.7031 28.9394 93.1769 27.5833C92.6304 26.2474 91.8916 25.0532 90.9605 24.0006C90.0092 22.9481 88.9061 22.098 87.6511 21.4503C86.376 20.8026 84.9996 20.4787 83.522 20.4787H79.7268L84.2507 1.3511H95.2718V6.11783H88.0458L85.7687 15.9549C87.6309 16.3192 89.3615 16.9872 90.9605 17.9587C92.5393 18.9303 93.9157 20.1144 95.0897 21.511C96.2636 22.9076 97.1846 24.4763 97.8525 26.217C98.5002 27.9577 98.8241 29.7794 98.8241 31.6821C98.8241 33.7264 98.4496 35.6695 97.7007 37.5114C96.9518 39.3736 95.9195 41.0131 94.6039 42.43C93.2882 43.8671 91.7499 45.041 89.989 45.9519C88.2078 46.883 86.295 47.4497 84.2507 47.6521L83.8256 42.8854Z" fill="white"/>
<path d="M118.771 48.8362L113.489 3.38531L124.115 1.95833L124.753 6.69469L118.832 7.48409L119.379 12.4633L127.728 10.8542L128.609 15.6513L119.956 17.2604L122.931 43.189L129.216 42.0049L130.036 46.802L118.771 48.8362Z" fill="white"/>
<path d="M145.581 39.0902C145.54 40.0618 145.328 40.9625 144.943 41.7924C144.538 42.6425 144.012 43.3712 143.364 43.9784C142.696 44.6059 141.937 45.0916 141.087 45.4357C140.217 45.8001 139.296 45.9822 138.324 45.9822C137.353 45.9822 136.432 45.7899 135.561 45.4054C134.671 45.041 133.891 44.535 133.223 43.8873C132.555 43.2396 132.029 42.4806 131.645 41.6102C131.24 40.7398 131.037 39.7986 131.037 38.7866V38.3919L132.95 1.22965L137.747 1.47254L135.895 38.6348C135.936 39.4242 136.189 40.0314 136.654 40.4565C137.12 40.9018 137.697 41.1244 138.385 41.1244C139.033 41.1244 139.589 40.9119 140.055 40.4868C140.5 40.082 140.743 39.5355 140.783 38.8473L142.666 1.71544L147.463 1.95833L145.581 39.0902Z" fill="white"/>
<path d="M167.016 40.5172C167.016 41.8936 166.975 43.2598 166.894 44.616C166.793 45.9721 166.641 47.3384 166.439 48.7148L161.672 48.0468C162.036 45.4357 162.219 42.7842 162.219 40.0921C162.219 38.0883 162.097 36.0642 161.854 34.0199C161.611 31.9958 161.237 29.9818 160.731 27.978C160.225 25.9944 159.577 24.0614 158.788 22.179C157.998 20.3168 157.047 18.5558 155.934 16.8961H154.446L152.655 47.2878L147.797 46.9842L150.59 1.13857C151.278 0.855198 151.977 0.602187 152.685 0.379537C153.393 0.156887 154.122 0.0455627 154.871 0.0455627C156.025 0.0455627 157.118 0.258092 158.15 0.683151C159.182 1.10821 160.093 1.69519 160.883 2.44411C161.652 3.19302 162.269 4.0735 162.735 5.08554C163.18 6.09759 163.403 7.19059 163.403 8.36456C163.403 9.6195 163.15 10.8137 162.644 11.9472C162.138 13.1009 161.399 14.0826 160.427 14.8922C161.581 16.7747 162.583 18.7583 163.433 20.8431C164.263 22.9279 164.941 25.0633 165.467 27.2493C165.993 29.4353 166.388 31.6416 166.651 33.8681L167.016 40.5172ZM158.606 8.30384C158.606 7.85854 158.514 7.43348 158.332 7.02867C158.15 6.62385 157.907 6.25951 157.604 5.93566C157.28 5.63205 156.915 5.37903 156.511 5.17663C156.086 4.99446 155.65 4.89325 155.205 4.87301L154.75 12.0383C155.883 12.0383 156.814 11.7043 157.543 11.0364L158.606 8.30384Z" fill="white"/>
</svg>
