<svg width="24" height="24" viewBox="0 0 24 24" fill="none" xmlns="http://www.w3.org/2000/svg">
<path opacity="0.1" fill-rule="evenodd" clip-rule="evenodd" d="M2.58337 2.58279C4.5698 0.596612 7.69461 0 12.0006 0C16.3065 0 19.4311 0.596604 21.4173 2.58285C23.4034 4.56908 24 7.69379 24 12C24 16.3132 23.3775 19.4353 21.3795 21.4196C19.3832 23.4021 16.2629 24 12.0006 24C7.73821 24 4.61772 23.4021 2.62111 21.4196C0.622768 19.4354 0 16.3133 0 12C0 7.69371 0.596908 4.569 2.58337 2.58279Z" fill="#C2E978"/>
<path d="M11.1118 7.98V7.38H12.8918V8C12.8918 8.49333 12.8385 8.93333 12.7318 9.32C13.1051 9.08 13.5185 8.89333 13.9718 8.76L14.5318 8.58L15.0918 10.28C14.1985 10.5467 13.5651 10.6933 13.1918 10.72C13.4851 10.9333 13.7918 11.26 14.1118 11.7L14.4718 12.2L13.0318 13.26C12.5385 12.58 12.1985 12.02 12.0118 11.58C11.8385 12.02 11.4985 12.58 10.9918 13.26L9.5318 12.2C10.0785 11.48 10.5051 10.9867 10.8118 10.72C10.3585 10.6933 9.91846 10.6067 9.4918 10.46L8.9118 10.28L9.4718 8.58L10.0518 8.76C10.4918 8.89333 10.8985 9.08667 11.2718 9.34C11.1651 8.86 11.1118 8.40667 11.1118 7.98Z" fill="#C2E978"/>
</svg>
