<svg width="56" height="56" viewBox="0 0 56 56" fill="none" xmlns="http://www.w3.org/2000/svg">
<path fill-rule="evenodd" clip-rule="evenodd" d="M12.6958 12.695C10.0636 15.3268 8.86663 19.8725 8.86663 28C8.86663 36.1141 10.1041 40.6647 12.7585 43.3004C15.4162 45.9393 19.9704 47.1333 28.001 47.1333C36.0317 47.1333 40.5853 45.9393 43.2424 43.3005C45.8964 40.6649 47.1333 36.1143 47.1333 28C47.1333 19.8724 45.9368 15.3267 43.3051 12.6949C40.6735 10.0631 36.1281 8.86663 28.001 8.86663C19.874 8.86663 15.328 10.0631 12.6958 12.695ZM10.0561 10.055C13.8413 6.27018 19.7958 5.1333 28.001 5.1333C36.2063 5.1333 42.1603 6.27016 45.9451 10.0551C49.7298 13.8399 50.8666 19.7942 50.8666 28C50.8666 36.219 49.6805 42.1684 45.8731 45.9495C42.069 49.7273 36.1232 50.8666 28.001 50.8666C19.8789 50.8666 13.9326 49.7273 10.128 45.9496C6.32002 42.1685 5.1333 36.2191 5.1333 28C5.1333 19.7941 6.27074 13.8398 10.0561 10.055Z" fill="#7E839A"/>
<path fill-rule="evenodd" clip-rule="evenodd" d="M36.3199 22.4801C37.0489 23.2091 37.0489 24.391 36.3199 25.1199L26.9866 34.4533C26.2576 35.1823 25.0757 35.1823 24.3467 34.4533L19.68 29.7866C18.9511 29.0576 18.9511 27.8757 19.68 27.1467C20.409 26.4178 21.5909 26.4178 22.3199 27.1467L25.6666 30.4935L33.68 22.4801C34.409 21.7511 35.5909 21.7511 36.3199 22.4801Z" fill="#7E839A"/>
</svg>
