<svg width="56" height="56" viewBox="0 0 56 56" fill="none" xmlns="http://www.w3.org/2000/svg">
<path fill-rule="evenodd" clip-rule="evenodd" d="M28 40.1333C29.0309 40.1333 29.8666 40.969 29.8666 42V51.3333C29.8666 52.3642 29.0309 53.2 28 53.2C26.969 53.2 26.1333 52.3642 26.1333 51.3333V42C26.1333 40.969 26.969 40.1333 28 40.1333Z" fill="#7E839A"/>
<path fill-rule="evenodd" clip-rule="evenodd" d="M20.3 51.3333C20.3 50.3024 21.1358 49.4667 22.1667 49.4667H33.8334C34.8643 49.4667 35.7001 50.3024 35.7001 51.3333C35.7001 52.3643 34.8643 53.2 33.8334 53.2H22.1667C21.1358 53.2 20.3 52.3643 20.3 51.3333Z" fill="#7E839A"/>
<path fill-rule="evenodd" clip-rule="evenodd" d="M12.5708 12.0799C10.0424 14.1866 8.86663 17.7974 8.86663 24.5C8.86663 31.1866 10.0807 34.8039 12.6332 36.916C15.3044 39.1262 19.9292 40.1333 28.001 40.1333C36.073 40.1333 40.697 39.1262 43.3677 36.9161C45.9197 34.8041 47.1333 31.1868 47.1333 24.5C47.1333 17.7972 45.958 14.1865 43.4301 12.0798C40.7853 9.87572 36.1689 8.86663 28.001 8.86663C19.8333 8.86663 15.2162 9.8757 12.5708 12.0799ZM10.181 9.21171C13.9531 6.06867 19.8366 5.1333 28.001 5.1333C36.1655 5.1333 42.0485 6.06866 45.8201 9.21181C49.7086 12.4524 50.8666 17.5917 50.8666 24.5C50.8666 31.4243 49.6572 36.557 45.7479 39.7922C41.9573 42.9293 36.0819 43.8666 28.001 43.8666C19.9201 43.8666 14.0444 42.9293 10.2532 39.7923C6.34336 36.5571 5.1333 31.4245 5.1333 24.5C5.1333 17.5915 6.2919 12.4522 10.181 9.21171Z" fill="#7E839A"/>
</svg>
