<svg width="56" height="56" viewBox="0 0 56 56" fill="none" xmlns="http://www.w3.org/2000/svg">
<path d="M43.7358 29.626L30.8013 6.26666C30.2544 5.27937 29.2147 4.66663 28.0865 4.66663C26.9642 4.66663 25.9292 5.2726 25.3802 6.25135L12.2727 29.6082C11.671 30.6806 11.7593 32.0068 12.4973 32.9898L25.3382 50.0932C25.9246 50.874 26.8439 51.3333 27.8198 51.3333H28.3521C29.3354 51.3333 30.2604 50.8672 30.8454 50.0772L33.2027 46.9583C33.8076 46.1415 33.6282 44.9883 32.8036 44.3941C31.9943 43.8113 30.8668 43.9868 30.2733 44.7879L28.085 47.6793L18.822 35.3418L27.4662 38.5501C27.671 38.6263 27.8857 38.664 28.1007 38.664C28.3154 38.664 28.5308 38.6259 28.7355 38.5497L36.9995 35.4793L35.1043 37.9434C34.482 38.7833 34.692 39.9735 35.5643 40.5496C36.3725 41.0833 37.457 40.8918 38.0338 40.1135L43.5143 32.9763C44.2385 31.9993 44.325 30.6898 43.7358 29.626ZM26.2692 34.2171L18.6379 31.3848L26.2692 28.5525V34.2171ZM29.9151 28.5475L37.551 31.3848L29.9151 34.2221V28.5475ZM38.6056 27.8874L29.9151 24.6582V12.1929L38.6056 27.8874ZM26.2692 12.1164V24.6635L17.3758 27.9644L26.2692 12.1164Z" fill="#7E839A"/>
</svg>
