<svg width="56" height="56" viewBox="0 0 56 56" fill="none" xmlns="http://www.w3.org/2000/svg">
<path d="M21.9298 51.3333H32.5509C33.6102 51.2856 34.5072 50.9898 34.5358 49.3484L33.4193 35.1202C38.6487 36.4943 42.4849 33.3643 43.7732 30.1866C44.6702 27.9059 44.4698 25.4247 43.277 23.3349C46.6647 20.2049 46.1589 16.1874 45.2619 14.2025C44.3648 12.1222 41.1776 8.08557 35.032 9.53607C33.7342 6.59691 30.5851 4.58339 27.2929 4.66927C24.1151 4.66927 21.2332 6.35834 19.7445 9.03985C15.6221 8.37186 11.9004 11.0247 10.6121 14.2025C9.52425 16.9794 10.1159 20.1571 12.1008 22.4379C9.68647 25.377 10.0205 28.7933 10.9079 30.7782C11.805 32.8585 14.9159 36.8951 21.2237 35.3587L20.0404 49.2434C19.964 50.4649 20.6511 51.1234 21.9298 51.3333ZM24.0197 47.4589L25.3461 32.7249C25.871 32.1142 26.3004 31.4271 26.5962 30.6828C26.5962 30.5874 26.5962 30.5874 26.5962 30.5874C27.0925 30.6828 27.6841 30.7878 28.1803 30.7878C28.4762 31.408 28.8579 31.9901 29.3159 32.515L30.4706 47.4685H24.0197V47.4589V47.4589ZM22.6265 11.7214C23.304 9.6983 24.7545 8.56271 27.0925 8.4482C29.5831 8.55317 31.2531 10.1277 31.6634 12.3226C31.9211 13.8303 33.3811 14.5842 34.6408 13.8112C38.7823 11.7404 41.0917 14.6033 41.5879 15.7007C42.0841 16.6931 42.5994 19.3556 39.603 21.1591C38.4293 21.8844 38.3243 23.1154 39.1068 24.2414C40.3951 25.4343 40.6909 27.2188 40.0992 28.7074C39.5076 30.3965 37.1696 32.2096 34.1446 31.1886C32.7513 30.6923 31.7589 29.6045 31.3676 28.2112C31.1672 27.2188 30.1748 26.5222 29.1823 26.7226C28.2853 26.923 27.1497 26.8371 26.1 26.2263C24.8881 25.5774 23.1895 26.4076 23.2181 27.8104C23.2181 28.3066 23.1227 28.7074 22.9223 29.0987C22.3306 30.7878 20.5366 31.8756 18.6567 31.8756C18.065 31.8756 15.6412 31.618 14.3911 29.1941C13.1314 26.379 15.1831 24.5277 15.9752 24.0315C17.3111 23.2013 17.5115 21.579 15.9752 20.7583C14.1907 19.6705 13.3986 17.4852 14.1907 15.5957C14.7823 13.9066 17.2253 12.1031 20.0499 13.1146C21.1473 13.4868 22.2161 13.0287 22.6265 11.7214Z" fill="#7E839A"/>
</svg>
