<svg width="200" height="237" viewBox="0 0 200 237" fill="none" xmlns="http://www.w3.org/2000/svg">
<mask id="mask0_150_1613" style="mask-type:alpha" maskUnits="userSpaceOnUse" x="0" y="0" width="200" height="237">
<path fill-rule="evenodd" clip-rule="evenodd" d="M200 0H0V137V141H0.078538C2.17815 194.374 46.1112 237 100 237C153.889 237 197.822 194.374 199.921 141H200V137V0Z" fill="#C4C4C4"/>
</mask>
<g mask="url(#mask0_150_1613)">
<circle cx="100" cy="137" r="100" fill="url(#paint0_linear_150_1613)"/>
<path d="M194.394 247.394C194.406 247.763 194.394 248.132 194.394 248.54H176.879C177.025 247.802 177.191 247.146 177.272 246.473C177.35 245.76 177.391 245.043 177.395 244.326C177.4 244.047 177.354 243.77 177.261 243.508C176.994 242.746 176.37 242.647 175.966 243.317C175.758 243.689 175.602 244.087 175.5 244.5C175.254 245.424 175.046 246.364 174.808 247.288C174.702 247.701 174.562 248.102 174.432 248.518H36.5408C36.3024 247.626 36.0627 246.739 35.8279 245.851C35.6706 245.252 35.5452 244.644 35.3633 244.056C35.2715 243.738 35.126 243.438 34.9331 243.169C34.5889 242.707 34.0431 242.781 33.8084 243.332C33.6562 243.669 33.5838 244.036 33.5969 244.406C33.683 245.524 33.828 246.633 33.9657 247.744C33.9977 247.983 34.0751 248.218 34.1476 248.53H16.6021C16.6021 248.177 16.5899 247.845 16.6021 247.513C16.773 242.196 16.8947 236.878 17.1405 231.57C17.2499 229.297 17.5535 227.032 17.878 224.784C18.4004 221.242 19.9431 218.317 22.0647 215.784C23.7696 213.743 25.7166 212.041 27.7042 210.413C32.498 206.477 37.4787 202.925 42.5676 199.566C50.0005 194.656 57.281 189.454 64.4791 184.089C65.8226 183.088 67.192 182.136 68.5883 181.137C68.6006 181.425 68.6092 181.713 68.6129 181.992C68.6449 183.442 68.6449 184.804 68.7874 186.15C69.5397 193.362 71.5888 199.965 75.827 205.398C79.7789 210.458 84.6219 213.959 90.1926 216.046C93.9122 217.444 97.816 218.291 101.78 218.558C104.553 218.749 107.323 218.772 110.088 218.493C116.278 217.878 122.23 216.216 127.639 212.472C130.967 210.167 133.971 207.376 136.356 203.762C139.097 199.604 140.781 194.884 141.708 189.764C142.19 187.085 142.469 184.394 142.323 181.656V181.6C142.323 181.498 142.334 181.381 142.346 181.19C142.626 181.36 142.861 181.482 143.083 181.64C145.193 183.163 147.314 184.666 149.403 186.23C156.163 191.295 163.103 196.011 170.068 200.674C174.42 203.587 178.708 206.638 182.796 210.038C184.64 211.573 186.444 213.198 188.157 214.932C191.445 218.253 193.097 222.581 193.554 227.618C193.93 231.762 194.068 235.915 194.19 240.076C194.26 242.515 194.328 244.955 194.394 247.394Z" fill="#40152A"/>
<path d="M140.396 184.423C140.716 184.078 140.465 183.868 140.319 183.698C139.545 182.807 138.769 181.92 137.962 181.068C137.711 180.811 137.409 180.61 137.076 180.477C136.975 180.457 136.871 180.465 136.776 180.501C136.68 180.537 136.595 180.599 136.533 180.68C136.448 180.821 136.488 181.172 136.586 181.332C136.751 181.562 136.955 181.763 137.189 181.923C138.241 182.746 139.301 183.568 140.396 184.423ZM135.265 184.553C135.189 184.65 135.299 184.979 135.359 185.185C135.387 185.29 135.496 185.371 135.578 185.449C136.695 186.502 137.809 187.551 138.93 188.596C138.958 188.625 139.027 188.596 139.157 188.596C139.095 188.382 139.08 188.16 138.982 188.017C138.335 187.111 137.699 186.19 136.999 185.343C136.679 184.951 136.241 184.671 135.821 184.415C135.683 184.334 135.375 184.415 135.265 184.553ZM78.8922 203.649C79.7985 202.266 80.704 200.883 81.6087 199.5C81.6945 199.378 81.7741 199.252 81.8472 199.122C81.9493 198.938 82.0412 198.749 82.1225 198.555C82.2454 198.26 82.195 197.96 81.9566 197.831C81.798 197.744 81.5116 197.749 81.3862 197.863C81.1042 198.118 80.8732 198.425 80.7053 198.767C80.0378 200.213 79.4023 201.689 78.7705 203.165C78.714 203.288 78.7496 203.481 78.7459 203.639C78.7951 203.644 78.843 203.644 78.8922 203.649ZM71.3573 192.401C70.4002 189.003 69.8579 185.501 69.7421 181.973C69.7335 181.727 69.7249 181.498 69.7212 181.259C69.7089 180.627 69.8441 180.238 70.3358 179.906C71.2159 179.294 72.0533 178.622 72.8421 177.896C73.4666 177.32 74.0123 176.628 74.563 175.951C75.0448 175.36 75.5353 174.796 76.2605 174.475C76.0983 175.042 75.8635 175.544 75.8266 176.074C75.7426 177.097 75.7373 178.126 75.8106 179.15C76.1388 182.702 76.9882 186.074 78.4952 189.193C79.3677 190.977 80.4807 192.632 81.8029 194.113C86.2846 199.214 91.5922 202.585 97.6165 204.42C99.2894 204.93 100.973 205.416 102.673 205.748C104.884 206.176 107.162 206.116 109.347 205.571C112.767 204.736 116.128 203.675 119.322 201.981C123.271 199.876 126.777 197.027 129.647 193.591C132.228 190.531 133.826 186.833 134.654 182.663C134.9 181.447 135.051 180.202 135.21 178.972C135.399 177.473 135.371 175.989 134.718 174.604C134.775 174.552 134.841 174.504 134.893 174.451C135.322 174.855 135.828 175.189 136.172 175.681C137.423 177.439 139 178.723 140.633 179.897C141.103 180.234 141.265 180.603 141.248 181.243C141.248 181.356 141.248 181.469 141.24 181.584C141.038 189.241 139.098 196.222 135.227 202.437C133.656 204.961 131.685 207.015 129.515 208.81C126.005 211.703 122.114 213.586 117.961 214.778C115.523 215.475 113.061 216.018 110.567 216.22C107.911 216.435 105.251 216.561 102.577 216.37C100.101 216.211 97.6391 215.867 95.2134 215.342C90.0803 214.183 85.2901 212.067 81.015 208.453C76.2433 204.382 73.2035 198.892 71.3573 192.401ZM70.6603 183.714C70.5374 183.852 70.5153 184.108 70.4145 184.403C70.6296 184.366 70.7181 184.383 70.7746 184.338C71.8317 183.504 72.886 182.665 73.9373 181.822C74.107 181.681 74.3135 181.538 74.4106 181.33C74.5003 181.147 74.5446 180.815 74.4597 180.67C74.3942 180.592 74.3089 180.532 74.2127 180.498C74.1165 180.464 74.013 180.456 73.9128 180.476C73.6471 180.554 73.4079 180.704 73.2207 180.909C72.3537 181.828 71.5003 182.763 70.6603 183.714ZM75.6926 185.101C75.7738 184.978 75.8229 184.691 75.7615 184.609C75.6607 184.471 75.4296 184.337 75.3042 184.386C74.9956 184.5 74.7112 184.672 74.4659 184.891C73.442 185.808 72.6971 187.027 71.9153 188.207C71.8588 188.291 71.8588 188.424 71.7985 188.689C72.0051 188.608 72.0899 188.603 72.1464 188.551C73.1224 187.643 74.0943 186.729 75.062 185.808C75.296 185.594 75.5073 185.357 75.6926 185.101ZM136.917 195.075L137.163 194.929C137.11 194.683 137.107 194.395 137.002 194.191C136.577 193.364 136.159 192.525 135.666 191.759C135.333 191.245 134.892 190.823 134.471 190.406C134.225 190.16 133.884 189.956 133.621 190.325C133.39 190.648 133.608 190.998 133.803 191.24C134.833 192.527 135.877 193.795 136.917 195.075ZM133.662 197.384C134.088 197.946 134.497 198.526 135.015 199.229C134.892 197.261 132.736 194.119 131.262 193.784C131.35 194.755 131.933 195.19 132.358 195.736C132.784 196.282 133.237 196.829 133.662 197.384ZM132.258 203.78C132.27 203.505 132.307 203.399 132.273 203.33C131.557 201.702 130.84 200.073 130.104 198.457C129.997 198.218 129.827 198.013 129.612 197.865C129.459 197.768 129.171 197.735 129.046 197.84C128.92 197.946 128.839 198.282 128.876 198.476C128.954 198.766 129.081 199.041 129.252 199.287C130.143 200.684 131.046 202.071 131.949 203.459C132.042 203.575 132.146 203.683 132.258 203.78ZM127.772 206.207C127.772 205.886 127.82 205.669 127.764 205.498C127.403 204.39 127.051 203.283 126.63 202.221C126.431 201.721 126.104 201.292 125.808 200.855C125.646 200.609 125.432 200.352 125.136 200.567C124.839 200.783 124.982 201.11 125.091 201.389C125.155 201.558 125.229 201.722 125.314 201.881C126.03 203.224 126.751 204.564 127.476 205.901C127.564 206.011 127.663 206.112 127.772 206.201V206.207ZM122.751 210.351C122.844 210.132 122.966 209.982 122.945 209.878C122.646 208.279 122.562 206.6 121.897 205.109C121.769 204.813 121.593 204.54 121.374 204.303C121.265 204.18 120.994 204.104 120.883 204.18C120.795 204.248 120.722 204.333 120.669 204.431C120.615 204.529 120.583 204.636 120.574 204.747C120.612 205.174 120.709 205.594 120.863 205.994C121.355 207.275 121.871 208.536 122.39 209.795C122.461 209.969 122.594 210.11 122.751 210.345V210.351ZM117.974 212.702C118.01 212.284 118.059 212.098 118.035 211.92C117.856 210.595 117.694 209.265 117.452 207.953C117.362 207.487 117.103 207.045 116.864 206.64C116.698 206.365 116.432 206.17 116.14 206.458C116.072 207.426 116.788 210.332 117.556 212.203C117.613 212.334 117.747 212.433 117.974 212.696V212.702ZM112.229 214.371C112.286 214.055 112.402 213.739 112.386 213.427C112.314 212.09 112.22 210.754 112.104 209.42C112.057 209.055 111.956 208.698 111.804 208.362C111.681 208.046 111.391 207.9 111.131 208.05C110.923 208.197 110.777 208.416 110.722 208.665C110.67 208.911 110.752 209.216 110.812 209.483C111.128 210.933 111.453 212.379 111.788 213.823C111.843 214.016 111.911 214.205 111.989 214.39C112.071 214.372 112.148 214.369 112.229 214.365V214.371ZM107.771 214.149C108.006 212.828 108.2 211.503 108.042 210.15C107.945 209.327 107.674 208.92 107.322 209.019C106.985 209.108 106.83 209.558 106.921 210.298C107.022 211.134 107.156 211.964 107.266 212.799C107.338 213.313 107.389 213.828 107.483 214.553C107.682 214.275 107.759 214.215 107.771 214.142V214.149ZM104.091 210.235C104.133 209.989 104.119 209.736 104.05 209.496C103.974 209.298 103.775 209.055 103.617 209.039C103.46 209.023 103.27 209.254 103.12 209.408C103.053 209.511 103.015 209.63 103.01 209.752C102.832 211.24 102.915 212.747 103.256 214.205C103.268 214.253 103.333 214.281 103.431 214.375C103.503 214.265 103.584 214.2 103.596 214.129C103.767 212.821 103.937 211.53 104.091 210.228V210.235ZM100.228 209.334C100.294 209.094 100.305 208.841 100.26 208.596C100.208 208.386 100.042 208.104 99.8917 208.066C99.7776 208.05 99.6616 208.061 99.5521 208.097C99.4427 208.133 99.3428 208.193 99.2599 208.273C99.1051 208.459 99.0146 208.691 99.0018 208.933C98.8641 210.541 98.7453 212.152 98.6453 213.766C98.633 213.965 98.7621 214.176 98.8235 214.381L99.0337 214.34C99.0873 214.239 99.1321 214.133 99.1677 214.024C99.5242 212.461 99.8843 210.896 100.228 209.328V209.334ZM94.8041 207.696C94.9209 207.279 95.0389 206.8 94.8041 206.375C94.3751 206.217 94.1526 206.521 93.999 206.837C93.7553 207.29 93.5742 207.774 93.4606 208.275C93.2492 209.397 93.1041 210.536 92.9689 211.675C92.932 211.954 92.8349 212.299 93.1791 212.55C93.2762 212.427 93.4102 212.323 93.4581 212.181C93.9129 210.686 94.3739 209.199 94.8041 207.696ZM90.4269 204.99C90.5044 204.666 90.4515 204.366 90.1811 204.184C89.8861 203.977 89.6353 204.172 89.4977 204.422C89.2223 204.914 88.9261 205.419 88.7933 205.97C88.5094 207.134 88.3189 208.324 88.1087 209.508C88.0718 209.727 88.1247 209.965 88.1369 210.196C88.2021 210.216 88.2599 210.232 88.3312 210.253C88.4452 210.094 88.5455 209.926 88.6311 209.75C89.1228 208.551 89.6099 207.345 90.0926 206.132C90.2258 205.76 90.3358 205.379 90.422 204.993L90.4269 204.99ZM85.9047 201.379C86.0277 201.1 86.1641 200.788 85.8605 200.558C85.6048 200.367 85.4032 200.565 85.2373 200.777C84.0622 202.262 83.6295 204.147 83.1231 205.991C83.1919 206.039 83.2571 206.083 83.3222 206.132C83.4272 206.011 83.5233 205.882 83.6098 205.747C84.1888 204.702 84.7591 203.656 85.3221 202.6C85.5274 202.21 85.7142 201.796 85.8998 201.383L85.9047 201.379ZM79.6457 194.354C79.7022 194.213 79.6297 193.985 79.6137 193.787C78.1682 194.254 75.9655 197.559 76.0417 199.095C76.1337 199.02 76.2192 198.938 76.2974 198.849C77.2611 197.606 78.2219 196.357 79.1798 195.102C79.3642 194.875 79.5191 194.625 79.6408 194.358L79.6457 194.354ZM77.411 190.809C77.5487 190.355 77.3176 190.036 76.9292 190.173C76.6734 190.281 76.4419 190.439 76.2482 190.638C75.2206 191.622 74.5482 192.927 73.9533 194.293C73.8722 194.484 73.9005 194.739 73.8562 195.154C74.0296 195.017 74.1957 194.87 74.354 194.716C74.7584 194.266 75.1641 193.817 75.5488 193.342C76.0946 192.67 76.6293 191.977 77.164 191.28C77.2712 191.14 77.3532 190.982 77.4061 190.813L77.411 190.809Z" fill="#731530"/>
<path d="M132.89 175.619C133.522 176.111 133.562 176.834 133.505 177.604C133.189 182.207 132.096 186.436 129.678 190.217C126.383 195.384 121.926 198.523 116.961 200.84C114.941 201.78 112.836 202.501 110.747 203.218C109.864 203.522 108.917 203.608 107.994 203.693C107.172 203.769 106.342 203.709 105.516 203.709C103.73 203.717 101.937 203.862 100.2 203.217C98.356 202.535 96.4913 201.871 94.6573 201.125C91.754 199.93 89.062 198.22 86.5189 196.194C83.7544 193.995 81.6365 191.061 79.9083 187.763C78.6975 185.45 78.0903 182.843 77.7375 180.163C77.5925 179.085 77.5556 177.987 77.5113 176.897C77.5027 176.618 77.5875 176.249 77.7461 176.058C78.8954 174.713 79.5518 173.055 79.9882 171.261C80.5843 168.826 81.1141 166.371 81.7299 163.948C82.4646 161.096 83.4133 158.303 84.5681 155.593C85.4602 153.497 86.5689 151.5 87.8759 149.634C90.204 146.295 93.2438 144.344 96.7752 143.439C98.6421 142.963 100.534 142.594 102.443 142.332C103.597 142.17 104.778 142.32 105.957 142.267C109.153 142.122 112.273 142.814 115.334 143.782C118.394 144.75 120.988 146.643 123.038 149.519C125.088 152.395 126.577 155.678 127.791 159.133C129.021 162.643 129.89 166.281 130.682 169.952C131.071 171.747 131.553 173.497 132.497 175.02C132.627 175.234 132.724 175.488 132.89 175.619Z" fill="#F3D7C7"/>
<path d="M142.323 181.656C142.472 184.395 142.193 187.085 141.708 189.764C140.785 194.885 139.097 199.604 136.356 203.762C133.972 207.376 130.968 210.167 127.639 212.472C122.23 216.216 116.279 217.877 110.089 218.493C107.323 218.772 104.557 218.749 101.78 218.558C97.8162 218.291 93.9124 217.444 90.1928 216.047C84.6221 213.956 79.7791 210.458 75.8273 205.398C71.589 199.965 69.54 193.362 68.7877 186.15C68.6451 184.804 68.6451 183.444 68.6132 181.992L69.7391 181.973C69.8549 185.501 70.3972 189.003 71.3543 192.401C73.198 198.892 76.2403 204.382 81.0268 208.437C85.3019 212.055 90.092 214.171 95.2251 215.326C97.6509 215.851 100.112 216.195 102.589 216.354C105.261 216.545 107.921 216.419 110.579 216.204C113.073 216.002 115.535 215.459 117.973 214.762C122.122 213.571 126.013 211.687 129.527 208.794C131.696 207 133.668 204.945 135.239 202.421C139.11 196.206 141.049 189.225 141.252 181.568L142.325 181.596L142.323 181.656Z" fill="black"/>
<path d="M70.3333 179.902C69.8514 180.238 69.7101 180.627 69.7187 181.255C69.7187 181.494 69.731 181.729 69.7396 181.969L68.6136 181.989C68.6136 181.709 68.6013 181.421 68.589 181.134C67.1927 182.139 65.8234 183.091 64.4799 184.086C57.2817 189.45 50.0012 194.652 42.5683 199.562C37.4794 202.922 32.4951 206.479 27.7049 210.409C25.7173 212.038 23.7715 213.739 22.0654 215.781C19.9475 218.323 18.4049 221.247 17.8824 224.79C17.5543 227.038 17.2506 229.303 17.1449 231.576C16.8991 236.884 16.7762 242.203 16.6065 247.519C16.5943 247.851 16.6065 248.183 16.6065 248.536H34.1422C34.0697 248.224 33.9922 247.989 33.9603 247.75C33.8263 246.643 33.6812 245.536 33.5915 244.412C33.5784 244.042 33.6507 243.675 33.8029 243.338C34.0377 242.787 34.5835 242.713 34.9276 243.176C35.1206 243.445 35.2661 243.745 35.3579 244.063C35.5398 244.651 35.6652 245.258 35.8225 245.857C36.0573 246.745 36.297 247.632 36.5354 248.524H174.435C174.558 248.102 174.705 247.701 174.811 247.294C175.049 246.37 175.252 245.43 175.503 244.507C175.605 244.093 175.762 243.695 175.969 243.323C176.373 242.65 176.998 242.753 177.264 243.514C177.357 243.776 177.403 244.054 177.398 244.332C177.394 245.05 177.353 245.766 177.275 246.48C177.194 247.153 177.029 247.808 176.882 248.546H194.394C194.394 248.133 194.407 247.764 194.394 247.4C194.33 244.961 194.261 242.522 194.188 240.082C194.065 235.921 193.928 231.768 193.552 227.624C193.095 222.581 191.443 218.264 188.155 214.938C186.443 213.204 184.641 211.579 182.794 210.044C178.706 206.644 174.419 203.593 170.066 200.681C163.102 196.017 156.163 191.301 149.401 186.236C147.311 184.673 145.191 183.169 143.082 181.647C142.863 181.488 142.628 181.366 142.344 181.196C142.332 181.387 142.321 181.504 142.321 181.606L141.248 181.578C141.248 181.463 141.248 181.35 141.255 181.237C141.267 180.597 141.105 180.228 140.641 179.891C139.001 178.717 137.43 177.431 136.18 175.675C135.836 175.183 135.329 174.855 134.9 174.445C134.844 174.497 134.777 174.545 134.726 174.598C135.377 175.983 135.405 177.467 135.217 178.966C135.059 180.196 134.905 181.441 134.662 182.656C133.836 186.826 132.241 190.529 129.654 193.584C126.784 197.02 123.278 199.869 119.329 201.975C116.133 203.668 112.775 204.73 109.354 205.565C107.167 206.113 104.886 206.176 102.672 205.748C100.972 205.416 99.2881 204.93 97.6152 204.42C91.5921 202.585 86.2832 199.214 81.8016 194.113C80.4794 192.632 79.3664 190.977 78.4939 189.193C76.9869 186.074 76.1375 182.702 75.8093 179.15C75.736 178.126 75.7413 177.097 75.8253 176.074C75.8622 175.547 76.0969 175.045 76.2592 174.475C75.534 174.795 75.0435 175.358 74.5617 175.951C74.0073 176.628 73.4554 177.32 72.8408 177.896C72.0515 178.621 71.2137 179.291 70.3333 179.902ZM197.098 248.208C197.132 249.156 196.835 249.982 196.625 250.841C196.579 251.07 196.467 251.281 196.303 251.447C196.139 251.613 195.93 251.728 195.702 251.778C195.285 251.865 194.861 251.911 194.435 251.915C175.613 251.947 156.792 251.976 137.972 252C98.8935 252 59.8138 251.981 20.7329 251.944C19.2399 251.944 17.7472 251.933 16.255 251.91C15.9108 251.903 15.5347 251.903 15.2385 251.741C14.9189 251.571 14.539 251.274 14.4247 250.926C14.1617 250.124 13.8704 249.317 13.8986 248.406C14.0486 243.528 14.1445 238.65 14.3276 233.768C14.4296 231.212 14.6275 228.651 14.8746 226.106C15.3442 221.208 17.0613 216.995 20.0815 213.542C20.862 212.647 21.6364 211.735 22.4378 210.861C24.0001 209.155 25.6767 207.632 27.539 206.367C32.6844 202.882 37.7941 199.325 42.9284 195.821C46.5681 193.337 50.2397 190.923 53.8682 188.427C56.5122 186.607 59.0874 184.659 61.7351 182.843C64.1492 181.183 66.5977 179.602 69.0512 178.03C70.3317 177.216 71.5326 176.283 72.638 175.243C73.5439 174.382 74.569 173.695 75.5807 173.007C75.8874 172.79 76.2394 172.646 76.61 172.586C76.9806 172.526 77.3601 172.551 77.7195 172.66C78.055 170.844 78.3759 169.106 78.7028 167.37C79.7476 161.812 81.3222 156.483 83.8249 151.578C85.1487 148.985 86.7159 146.614 88.7601 144.733C91.0683 142.581 93.9131 141.091 96.9956 140.418C98.8247 140.014 100.659 139.54 102.51 139.39C104.575 139.219 106.663 139.288 108.732 139.415C110.972 139.556 113.166 140.127 115.331 140.78C119.296 141.974 122.607 144.382 125.174 148.178C127.386 151.447 128.94 155.13 130.213 159.002C131.456 162.779 132.222 166.709 132.91 170.662C133.02 171.299 133.173 171.93 133.315 172.599C135.198 172.331 136.594 173.555 137.854 174.779C139.789 176.664 141.971 177.977 144.141 179.377C146.826 181.108 149.465 182.934 152.068 184.828C157.664 188.895 163.397 192.691 169.11 196.524C172.899 199.068 176.64 201.718 180.406 204.319C181.349 204.967 182.288 205.619 183.248 206.239C186.826 208.562 189.682 211.879 192.354 215.433C194.58 218.398 195.662 221.972 196.094 225.826C196.366 228.24 196.556 230.675 196.654 233.11C196.84 238.14 196.929 243.176 197.098 248.208ZM133.51 177.602C133.563 176.832 133.522 176.111 132.895 175.617C132.729 175.494 132.632 175.232 132.507 175.029C131.563 173.506 131.081 171.756 130.693 169.961C129.9 166.29 129.037 162.652 127.802 159.142C126.587 155.687 125.11 152.418 123.048 149.528C120.987 146.639 118.401 144.756 115.344 143.791C112.287 142.827 109.17 142.131 105.968 142.276C104.794 142.329 103.607 142.179 102.453 142.341C100.545 142.603 98.6524 142.973 96.7855 143.448C93.254 144.356 90.2142 146.304 87.8861 149.643C86.5791 151.509 85.4705 153.506 84.5784 155.602C83.4235 158.312 82.4748 161.105 81.7402 163.957C81.1256 166.38 80.5945 168.835 79.9984 171.27C79.562 173.061 78.9056 174.714 77.7563 176.067C77.5978 176.258 77.5105 176.627 77.5216 176.906C77.5658 177.996 77.6027 179.094 77.7477 180.172C78.1005 182.846 78.7077 185.461 79.9185 187.772C81.6467 191.07 83.7646 194.004 86.5291 196.203C89.0723 198.229 91.7642 199.939 94.6676 201.135C96.5015 201.884 98.3551 202.548 100.21 203.226C101.947 203.865 103.74 203.718 105.526 203.718C106.352 203.718 107.182 203.778 108.004 203.702C108.927 203.617 109.874 203.531 110.758 203.227C112.847 202.51 114.952 201.789 116.971 200.849C121.936 198.532 126.393 195.391 129.688 190.226C132.101 186.436 133.194 182.207 133.51 177.605V177.602Z" fill="black"/>
<path d="M140.397 184.422C139.303 183.561 138.242 182.75 137.19 181.923C136.956 181.762 136.751 181.562 136.586 181.331C136.489 181.17 136.449 180.821 136.533 180.679C136.596 180.598 136.68 180.537 136.776 180.501C136.872 180.465 136.976 180.456 137.077 180.476C137.41 180.61 137.712 180.811 137.963 181.068C138.769 181.919 139.546 182.806 140.319 183.698C140.466 183.868 140.716 184.078 140.397 184.422Z" fill="black"/>
<path d="M135.823 184.419C136.243 184.675 136.684 184.954 137.001 185.346C137.701 186.194 138.337 187.114 138.985 188.02C139.082 188.163 139.098 188.39 139.159 188.6C139.029 188.6 138.96 188.624 138.932 188.6C137.811 187.554 136.697 186.509 135.58 185.452C135.499 185.375 135.389 185.293 135.361 185.189C135.301 184.982 135.191 184.654 135.268 184.557C135.377 184.415 135.685 184.334 135.823 184.419Z" fill="black"/>
<path d="M134.474 190.4C134.895 190.821 135.335 191.242 135.669 191.753C136.161 192.519 136.58 193.352 137.005 194.185C137.11 194.391 137.114 194.677 137.166 194.923L136.921 195.069C135.881 193.789 134.831 192.52 133.807 191.228C133.613 190.982 133.394 190.636 133.625 190.312C133.887 189.95 134.231 190.156 134.474 190.4Z" fill="black"/>
<path d="M135.013 199.236C134.499 198.53 134.09 197.951 133.661 197.391C133.232 196.831 132.787 196.296 132.353 195.745C131.919 195.194 131.345 194.761 131.256 193.793C132.734 194.127 134.884 197.261 135.013 199.236Z" fill="black"/>
<path d="M132.276 203.324C132.31 203.393 132.276 203.498 132.26 203.774C132.148 203.676 132.043 203.569 131.949 203.453C131.046 202.064 130.144 200.678 129.253 199.281C129.081 199.034 128.954 198.76 128.876 198.47C128.84 198.276 128.921 197.943 129.046 197.834C129.171 197.724 129.459 197.761 129.613 197.859C129.828 198.007 129.998 198.212 130.104 198.45C130.843 200.067 131.56 201.695 132.276 203.324Z" fill="black"/>
<path d="M125.807 200.849C126.103 201.286 126.43 201.71 126.63 202.214C127.05 203.283 127.403 204.389 127.763 205.491C127.819 205.662 127.771 205.88 127.771 206.201C127.662 206.112 127.563 206.011 127.475 205.901C126.752 204.563 126.031 203.223 125.313 201.881C125.229 201.722 125.154 201.557 125.091 201.389C124.981 201.11 124.824 200.794 125.135 200.567C125.446 200.341 125.645 200.609 125.807 200.849Z" fill="black"/>
<path d="M122.948 209.872C122.969 209.981 122.847 210.126 122.754 210.345C122.597 210.11 122.459 209.969 122.385 209.79C121.867 208.531 121.348 207.27 120.859 205.989C120.707 205.589 120.611 205.169 120.575 204.742C120.584 204.631 120.616 204.524 120.669 204.426C120.722 204.328 120.795 204.243 120.883 204.175C120.996 204.098 121.267 204.175 121.375 204.298C121.593 204.535 121.77 204.808 121.897 205.104C122.565 206.593 122.65 208.266 122.948 209.872Z" fill="black"/>
<path d="M118.037 211.914C118.062 212.092 118.012 212.283 117.977 212.696C117.749 212.433 117.615 212.334 117.559 212.196C116.791 210.326 116.074 207.42 116.143 206.452C116.434 206.164 116.701 206.359 116.867 206.634C117.105 207.039 117.358 207.48 117.454 207.947C117.695 209.259 117.857 210.589 118.037 211.914Z" fill="black"/>
<path d="M112.382 213.42C112.398 213.733 112.281 214.049 112.225 214.365C112.143 214.365 112.066 214.372 111.979 214.381C111.9 214.196 111.833 214.007 111.777 213.814C111.445 212.37 111.12 210.924 110.801 209.474C110.741 209.207 110.66 208.907 110.712 208.656C110.767 208.407 110.913 208.188 111.121 208.041C111.38 207.891 111.668 208.041 111.793 208.353C111.945 208.689 112.046 209.046 112.093 209.411C112.218 210.741 112.314 212.078 112.382 213.42Z" fill="black"/>
<path d="M108.043 210.143C108.201 211.496 108.006 212.821 107.772 214.142C107.759 214.215 107.683 214.275 107.484 214.547C107.395 213.821 107.339 213.307 107.266 212.793C107.157 211.958 107.021 211.127 106.922 210.292C106.829 209.554 106.986 209.102 107.323 209.013C107.679 208.919 107.946 209.316 108.043 210.143Z" fill="black"/>
<path d="M104.05 209.491C104.119 209.73 104.133 209.983 104.091 210.229C103.937 211.525 103.768 212.822 103.599 214.118C103.587 214.194 103.506 214.26 103.433 214.364C103.336 214.271 103.271 214.241 103.259 214.194C102.918 212.736 102.835 211.229 103.013 209.741C103.018 209.619 103.055 209.5 103.122 209.397C103.272 209.243 103.462 209.016 103.62 209.028C103.779 209.04 103.974 209.293 104.05 209.491Z" fill="black"/>
<path d="M100.262 208.594C100.307 208.84 100.296 209.092 100.23 209.332C99.8862 210.901 99.5261 212.465 99.1659 214.029C99.1303 214.138 99.0855 214.244 99.0319 214.345L98.8218 214.386C98.7603 214.179 98.6312 213.969 98.6435 213.771C98.7443 212.157 98.8631 210.547 99 208.938C99.0128 208.695 99.1033 208.464 99.2581 208.277C99.341 208.197 99.441 208.137 99.5504 208.101C99.6598 208.065 99.7759 208.055 99.8899 208.07C100.044 208.105 100.214 208.384 100.262 208.594Z" fill="black"/>
<path d="M94.8047 206.374C95.0358 206.8 94.9178 207.279 94.8047 207.696C94.3794 209.199 93.9185 210.686 93.4526 212.177C93.4047 212.323 93.2707 212.423 93.1736 212.546C92.8294 212.3 92.9277 211.95 92.9634 211.671C93.1048 210.532 93.2498 209.393 93.4551 208.271C93.5687 207.77 93.7498 207.286 93.9935 206.833C94.152 206.521 94.3745 206.217 94.8047 206.374Z" fill="black"/>
<path d="M90.0867 206.136C89.609 207.347 89.1218 208.553 88.6252 209.753C88.5397 209.929 88.4393 210.097 88.3253 210.256C88.2602 210.235 88.2024 210.219 88.1311 210.2C88.1188 209.969 88.066 209.73 88.1028 209.511C88.313 208.328 88.5035 207.137 88.7875 205.973C88.9202 205.422 89.2165 204.917 89.4918 204.426C89.6295 204.18 89.8802 203.981 90.1753 204.187C90.4469 204.369 90.4998 204.669 90.4211 204.993C90.3334 205.38 90.2218 205.762 90.0867 206.136Z" fill="black"/>
<path d="M85.8563 200.561C86.1599 200.791 86.0259 201.104 85.9006 201.383C85.7149 201.796 85.5318 202.21 85.3179 202.603C84.7549 203.66 84.1846 204.705 83.6057 205.751C83.5192 205.886 83.423 206.015 83.318 206.136C83.2529 206.087 83.1877 206.043 83.1189 205.995C83.6253 204.149 84.058 202.266 85.2331 200.78C85.399 200.569 85.6006 200.371 85.8563 200.561Z" fill="black"/>
<path d="M79.6097 193.791C79.6257 193.993 79.6982 194.217 79.6417 194.358C79.5192 194.628 79.3626 194.882 79.1758 195.112C78.2211 196.368 77.2603 197.618 76.2934 198.86C76.2152 198.949 76.1296 199.031 76.0377 199.106C75.9615 197.562 78.1642 194.257 79.6097 193.791Z" fill="black"/>
<path d="M81.9571 197.831C82.1955 197.954 82.2447 198.26 82.123 198.555C82.0417 198.749 81.9497 198.938 81.8477 199.122C81.7746 199.252 81.695 199.378 81.6092 199.5C80.7078 200.882 79.8023 202.265 78.8927 203.649C78.8435 203.649 78.7956 203.649 78.7464 203.64C78.7464 203.483 78.7145 203.296 78.771 203.167C79.4028 201.691 80.0383 200.214 80.7057 198.767C80.8737 198.425 81.1047 198.118 81.3867 197.863C81.5121 197.753 81.7985 197.744 81.9571 197.831Z" fill="black"/>
<path d="M77.4071 190.813C77.3533 190.983 77.2701 191.142 77.1613 191.283C76.6266 191.979 76.0919 192.673 75.5461 193.345C75.1614 193.819 74.7557 194.268 74.3513 194.718C74.193 194.873 74.0269 195.019 73.8535 195.156C73.8978 194.743 73.8695 194.487 73.9506 194.295C74.5456 192.93 75.2179 191.626 76.2455 190.641C76.4392 190.442 76.6707 190.284 76.9265 190.176C77.3137 190.039 77.5448 190.359 77.4071 190.813Z" fill="black"/>
<path d="M75.6944 185.1C75.5089 185.356 75.2976 185.592 75.0638 185.805C74.0952 186.729 73.1233 187.643 72.1481 188.548C72.0916 188.6 72.0068 188.605 71.8003 188.686C71.8605 188.421 71.8605 188.288 71.9171 188.204C72.6988 187.024 73.4437 185.805 74.4676 184.889C74.7129 184.669 74.9973 184.497 75.3059 184.383C75.4289 184.334 75.6624 184.468 75.7632 184.606C75.8247 184.69 75.7755 184.978 75.6944 185.1Z" fill="black"/>
<path d="M74.4596 180.676C74.5444 180.821 74.5001 181.153 74.4104 181.336C74.3133 181.538 74.1068 181.681 73.9372 181.828C72.885 182.67 71.8307 183.509 70.7745 184.344C70.7179 184.389 70.6294 184.372 70.4143 184.409C70.5163 184.114 70.5372 183.858 70.6601 183.72C71.4985 182.772 72.3515 181.839 73.2193 180.92C73.4065 180.716 73.6457 180.566 73.9114 180.487C74.0112 180.467 74.1147 180.474 74.2111 180.507C74.3075 180.54 74.3932 180.598 74.4596 180.676Z" fill="black"/>
<path d="M60.1288 91.3968L59.0754 91.494C58.966 90.9638 58.6341 90.8051 57.797 90.6883C57.797 89.8936 57.7601 89.0892 57.8044 88.2896C57.8486 87.5848 57.9949 86.8788 58.076 86.1739C58.1203 85.7889 58.2665 85.5134 58.6267 85.3363C60.9388 84.1812 63.2423 83.0176 65.5532 81.8638C65.6306 81.8232 65.7314 81.8306 65.9429 81.7986C65.7523 82.1024 65.6024 82.3214 65.477 82.5563C64.8489 83.6867 64.2134 84.8209 63.6098 85.9673L62.5454 85.4002C62.5577 85.3756 62.4888 85.303 62.4606 85.2551C61.857 85.6475 60.8331 87.3855 59.9628 89.489C60.0066 89.517 60.0542 89.5386 60.1042 89.5529C60.1288 89.5615 60.1693 89.5332 60.1853 89.5086C60.5369 88.8936 60.8933 88.2786 61.2461 87.6635L61.7194 87.9391C61.0725 89.0342 60.5395 90.1928 60.1288 91.3968Z" fill="#7A3927"/>
<path d="M61.7999 90.0914C61.1275 90.9992 60.6936 92.0041 60.6457 93.1666C60.8608 92.6401 61.0955 92.121 61.2775 91.5822C61.452 91.0841 61.9179 90.6954 61.7999 90.0914ZM63.5293 86.1207C63.2835 86.5869 63.1889 87.122 63.4642 87.6165C63.7395 88.111 63.6301 88.544 63.5011 89.0188C63.1077 90.453 62.6984 91.8824 62.3542 93.324C61.7649 95.7459 61.5358 98.2415 61.6745 100.73C61.7641 102.419 61.6883 104.113 61.4483 105.787C61.0353 105.07 60.5658 104.385 60.2326 103.639C60.0434 103.219 60.0151 102.696 60.0261 102.221C60.063 100.832 60.1601 99.4424 60.2326 98.0561C60.2412 97.8297 60.2658 97.6022 60.2695 97.3758C60.2941 96.3992 60.0839 95.5603 58.9088 95.313C58.9543 94.698 58.9985 94.1223 59.0428 93.543C59.0747 93.0928 59.1276 92.6438 59.1276 92.1899C59.1342 91.955 59.1165 91.72 59.0748 91.4887L60.1282 91.3916C60.1884 91.4162 60.2511 91.4445 60.3101 91.4728C60.9386 90.2697 61.5676 89.0663 62.1969 87.8625L62.0838 87.7493C61.9609 87.8096 61.7753 87.8342 61.715 87.9351L61.2492 87.662C61.6868 86.9092 62.1199 86.1544 62.5484 85.3975L63.6129 85.9645C63.5846 86.0199 63.5576 86.0691 63.5293 86.1207Z" fill="#7A3927"/>
<path d="M145.889 96.3066C145.723 95.5489 144.484 93.3545 143.933 92.8305C144.01 93.4824 145.204 95.6104 145.889 96.3066ZM147.95 94.8601C147.04 99.6573 146.126 104.455 145.209 109.252C145.144 109.596 145.038 109.932 144.953 110.273C144.881 110.245 144.803 110.22 144.727 110.192C144.69 109.649 144.69 109.102 144.618 108.563C144.436 107.251 144.33 105.913 143.99 104.64C143.415 102.494 143.232 100.314 143.043 98.121C142.666 93.7936 141.46 89.7418 138.909 86.1561C138.295 85.2852 137.706 84.3898 137.123 83.4943C136.791 82.9827 136.509 82.4402 136.281 81.8743C140.669 83.5964 144.856 85.642 148.804 88.182C148.558 89.8955 149.533 91.4393 149.472 93.2143C148.354 93.197 148.116 93.9806 147.95 94.8601ZM145.86 91.4688C146.205 92.0076 146.525 92.5635 146.967 93.304C146.756 91.935 143.793 87.3321 142.683 86.5387C142.711 87.2927 143.266 87.6937 143.597 88.2042C143.966 88.7712 144.391 89.3026 144.776 89.8611C145.156 90.3876 145.52 90.9226 145.864 91.4749L145.86 91.4688ZM142.775 89.3223C144.06 91.2142 145.345 93.1048 146.63 94.9942C145.769 92.8268 144.508 90.9226 143.031 89.1599C142.95 89.2128 142.868 89.2694 142.779 89.3223H142.775Z" fill="#7A3927"/>
<path d="M120.216 97.0202C120.661 97.9194 122.183 99.3414 122.84 99.4631C121.815 98.0818 120.782 97.1174 120.216 97.0202ZM113.099 93.9451C116.163 94.2206 119.13 94.998 121.933 96.5503C123.316 97.3261 124.634 98.2108 125.876 99.1962C127.856 100.747 129.751 102.409 131.682 104.025C131.637 104.123 131.593 104.22 131.548 104.317C129.673 103.656 127.788 103.008 125.92 102.328C123.771 101.537 121.653 100.65 119.483 99.9244C119.01 99.767 118.536 99.6255 118.059 99.5037L118.207 98.9318C117.196 97.5024 114.01 94.8811 113.037 94.6499L113.099 93.9451ZM120.637 99.0818C120.062 97.9969 118.159 96.137 117.503 95.9304C117.793 96.5184 119.325 98.0855 120.637 99.0818Z" fill="#5E2C20"/>
<path d="M115.075 97.9687C113.772 96.7485 112.459 95.5418 110.895 94.6586C111.152 95.3142 114.102 97.6403 115.075 97.9687ZM113.091 98.1176C111.761 96.9076 110.365 95.7714 108.911 94.714L108.876 93.8529C110.281 93.7915 111.689 93.8239 113.091 93.9501L113.029 94.6549C114.762 96.2675 116.471 97.6169 118.199 98.9368L118.05 99.5088C116.372 99.0856 114.657 98.8252 112.928 98.7314L112.957 98.2885C113.006 98.227 113.05 98.1705 113.091 98.1176Z" fill="#5E2C20"/>
<path d="M112.961 98.2835L112.933 98.7264C111.775 98.6489 110.605 98.6329 109.435 98.6489C108.402 98.6612 107.366 98.6366 106.333 98.5763C105.548 98.5308 105.281 98.3524 105.253 97.6193C105.237 96.7188 105.312 95.8191 105.479 94.9341C105.52 94.6979 105.892 94.431 106.167 94.3461C106.84 94.1308 107.54 93.9082 108.236 93.8725C108.451 93.8602 108.665 93.8516 108.88 93.8479L108.916 94.7089L108.714 94.9365C110.127 96.0518 111.543 97.1674 112.961 98.2835Z" fill="#5E2C20"/>
<path d="M78.5249 97.7251L82.2211 96.206C82.1732 96.1211 82.124 96.035 82.0798 95.9502C80.869 96.4852 79.598 96.8789 78.5249 97.7251ZM75.7593 97.9281C77.2138 97.2721 78.6688 96.6222 80.1241 95.9784C79.2539 95.9034 76.6701 97.056 75.7593 97.9281ZM70.7515 99.1582C72.1565 98.243 73.5615 97.3266 75.0746 96.329C74.1552 96.3315 72.2487 97.5468 70.7515 99.1631V99.1582ZM72.926 98.3525C74.5129 97.644 75.9621 97.024 77.3265 96.222C76.4685 96.3315 73.5406 97.7485 72.926 98.3525ZM65.5975 101.85C68.1075 97.7338 71.6624 95.3302 76.4759 94.7718C79.4972 94.4187 82.5124 94.1481 85.5535 94.233C86.1026 94.2483 86.6489 94.3175 87.1846 94.4396C87.7918 94.5774 87.9344 94.8087 87.8287 95.4151C87.7581 95.7624 87.6661 96.105 87.5534 96.441C87.2497 97.425 86.5614 97.917 85.5448 97.9441C83.7355 98.0007 81.9298 98.0856 80.1204 98.1015C77.1605 98.1261 74.2781 98.5358 71.5038 99.6207C69.5654 100.378 67.6048 101.096 65.6012 101.85H65.5975ZM68.7934 99.6133C69.5785 99.0056 70.3623 98.398 71.1449 97.7903C71.0883 97.7215 71.0367 97.6526 70.9789 97.5788C70.1935 98.1864 69.4129 98.799 68.6275 99.4066C68.6865 99.4706 68.7394 99.5444 68.7959 99.6133H68.7934Z" fill="#5E2C20"/>
<path d="M99.2537 162.777C99.9138 162.076 100.048 161.221 99.926 160.317C99.8449 160.301 99.7638 160.285 99.6802 160.264C99.5376 161.104 99.395 161.943 99.2537 162.777ZM100.764 159.403C100.703 160.415 100.65 161.221 100.598 162.04C101.229 161.404 101.347 160.391 100.764 159.403ZM98.0872 163.109C98.4272 162.781 98.6686 162.364 98.784 161.906C98.8994 161.448 98.8841 160.966 98.7399 160.516C98.3146 161.299 98.3232 162.173 98.0872 163.109ZM93.7395 161.633C94.096 160.49 94.1243 159.623 93.7027 159.077C93.6301 160.024 93.5699 160.822 93.5084 161.626C93.5859 161.627 93.6621 161.631 93.7395 161.631V161.633ZM94.8249 161.674C94.8765 160.916 94.9257 160.22 94.9749 159.522C94.391 160.113 94.3836 160.998 94.8249 161.671V161.674ZM95.4887 160.421C95.3658 160.953 95.3989 161.442 96.0639 161.974C95.9336 161.322 95.8365 160.843 95.7394 160.365C95.6546 160.383 95.5698 160.399 95.4887 160.419V160.421ZM91.1078 161.803C90.5731 161.176 91.2652 159.958 89.9696 159.628C90.2499 158.943 90.5252 158.275 90.83 157.521C95.3682 159.243 99.8953 158.947 104.523 157.873C104.701 158.521 104.855 159.012 104.968 159.51C105.053 159.886 105.085 160.271 105.146 160.69C104.871 160.734 104.567 160.702 104.418 160.835C104.268 160.968 104.207 161.285 104.146 161.527C104.033 161.994 103.944 162.468 103.823 163.039C103.547 162.8 103.348 162.629 103.053 162.379C102.649 163.136 102.28 163.829 101.915 164.51C101.777 164.461 101.701 164.454 101.669 164.417C100.956 163.627 100.855 163.639 100.301 164.54C100.034 164.973 99.7466 165.401 99.4405 165.868C98.3515 165.05 98.2113 166.221 97.6828 166.606C97.4369 166.336 97.2132 166.06 96.9662 165.808C96.3712 165.209 96.2655 165.193 95.383 165.529C95.1236 165.071 94.8483 164.601 94.5975 164.123C94.0395 163.058 93.9092 163.016 92.8361 163.718C92.5976 163.187 92.3665 162.669 92.1318 162.158C91.865 161.57 91.7839 161.546 91.1078 161.8V161.803Z" fill="#5E2C20"/>
<path d="M114.129 102.523C115.189 102.57 116.258 102.502 117.325 102.579C119.294 102.727 121.218 103.236 123.002 104.082C124.488 104.778 125.715 105.824 126.904 106.922C127.229 107.223 127.519 107.59 128.022 107.574C128.318 107.177 128.103 106.854 127.872 106.598C127.497 106.153 127.076 105.748 126.617 105.391C124.036 103.511 121.265 102.012 118.07 101.455C116.208 101.135 114.346 100.973 112.548 101.775C112.398 101.84 112.281 101.978 111.949 102.237C112.822 102.36 113.473 102.489 114.129 102.523ZM126.129 107.097C122.226 104.151 117.919 102.973 113.099 103.957C111.176 104.35 109.398 105.136 107.945 106.505C107.6 106.839 107.316 107.232 107.107 107.664C106.908 108.065 107.017 108.503 107.353 108.823C107.689 109.143 108.09 109.264 108.515 109.095C108.873 108.948 109.218 108.772 109.547 108.567C110.352 108.075 111.127 107.551 111.944 107.091C112.579 106.734 113.227 106.369 114.016 106.325C114.05 108.861 115.098 110.659 117.539 111.555C116.438 111.324 115.337 111.095 114.235 110.866C116.523 112.604 121.956 112.143 124.524 110.121C123.114 110.458 121.782 111.129 120.3 111.239C122.014 110.437 123.127 109.197 123.398 107.066C124.627 107.831 125.669 108.525 126.755 109.157C127.56 109.624 128.405 110.037 129.252 110.422C129.554 110.538 129.879 110.581 130.2 110.545C130.649 110.508 130.799 110.107 130.483 109.795C130.256 109.572 129.953 109.434 129.678 109.268C128.485 108.551 127.23 107.931 126.129 107.097ZM109.412 100.086C111.678 99.9627 113.93 100.053 116.165 100.535C120.027 101.37 123.764 102.589 127.456 103.97C128.879 104.502 130.335 104.94 131.793 105.352C132.197 105.475 132.679 105.392 133.113 105.32C133.505 105.251 133.652 104.935 133.429 104.582C133.138 104.124 132.841 103.649 132.457 103.273C131.441 102.272 130.352 101.348 129.343 100.344C127.435 98.4463 125.278 96.8175 122.931 95.5025C118.809 93.1838 114.372 92.0829 109.655 92.1223C108.266 92.1346 106.881 92.3007 105.55 92.7472C104.452 93.1162 103.706 93.7755 103.601 95.0203C103.561 95.5345 103.367 96.0364 103.347 96.5518C103.322 97.1545 103.319 97.7818 103.464 98.371C103.735 99.4892 104.375 100.016 105.533 100.069C106.817 100.136 108.113 100.092 109.408 100.092L109.412 100.086ZM87.2336 135.777C87.6822 136.212 88.1001 136.609 88.5168 137.007C87.5937 136.947 86.7185 136.813 86.3227 135.886C85.9843 135.111 85.8772 134.255 86.0142 133.421C86.249 131.986 87.0467 130.856 87.8691 129.73C88.0879 129.43 88.2858 129.115 88.5045 128.794C87.8605 128.24 87.4806 128.677 87.0713 128.965C84.6301 130.666 84.1889 135.127 85.4279 137.287C85.6079 137.612 85.8596 137.892 86.164 138.106C86.4683 138.32 86.8173 138.462 87.1844 138.52C88.0448 138.679 88.9212 138.727 89.6538 138.151C90.5241 138.942 91.2973 139.785 92.2081 140.441C93.9093 141.671 95.8563 142.102 97.9054 141.632C98.6909 141.449 99.4235 140.947 100.128 140.502C101.357 139.732 102.541 138.893 103.715 138.103C104.913 138.739 105.213 138.784 106.075 138.658C107.739 138.42 108.743 137.41 109.245 135.887C110.132 133.213 109.027 130.871 107.229 128.998C107.137 128.908 107.03 128.834 106.913 128.78C106.484 128.564 105.974 128.656 105.78 128.981C105.598 129.278 105.723 129.686 106.205 129.922C106.425 130.024 106.622 130.169 106.786 130.347C106.95 130.526 107.077 130.735 107.16 130.963C107.492 131.871 107.873 132.782 108.027 133.722C108.237 135.011 107.646 136.048 106.63 136.841C106.237 137.145 105.824 137.173 105.298 136.927C105.504 136.804 105.633 136.712 105.767 136.64C106.103 136.461 106.259 136.181 106.092 135.836C105.925 135.492 105.622 135.521 105.257 135.59C103.622 135.874 102.108 136.636 100.905 137.779C100.193 138.439 99.4324 139.044 98.6294 139.589C98.1764 139.891 97.6644 140.093 97.1273 140.181C95.9498 140.384 94.8238 140.08 93.7311 139.63C92.7268 139.213 91.9451 138.487 91.119 137.807C90.2915 137.141 89.4295 136.519 88.5365 135.943C88.2009 135.721 87.8076 135.49 87.2336 135.777ZM89.4363 160.594L90.1812 160.241C90.5413 161.004 90.2291 161.899 90.9506 162.489L91.5972 162.109C91.7717 162.514 91.8725 162.862 92.0631 163.155C92.2659 163.471 92.5043 163.847 92.8166 163.982C93.055 164.079 93.4398 163.835 93.7999 163.736C94.0912 164.214 94.3789 164.72 94.6948 165.198C95.1963 165.956 95.3302 165.989 96.2005 165.664C96.7868 166.118 97.415 166.547 97.5157 167.492C97.7714 167.217 97.9497 167.038 98.1156 166.848C98.3061 166.629 98.4844 166.406 98.6577 166.196C99.5329 166.406 99.8033 166.313 100.306 165.599C100.552 165.239 100.772 164.854 101.002 164.474C101.933 165.272 102.241 165.212 102.779 164.17C102.909 163.924 103.039 163.667 103.164 163.424C104.024 163.76 104.2 163.691 104.488 162.889C104.638 162.467 104.719 162.028 104.832 161.589C105.569 161.455 105.711 161.382 105.662 160.706C105.598 159.753 105.399 158.813 105.25 157.816C105.808 157.598 106.509 157.363 107.181 157.059C107.88 156.739 108.508 156.313 108.634 155.442C107.773 155.183 107.594 155.171 106.731 155.621C104.149 156.979 101.286 157.716 98.37 157.776C94.6689 157.852 91.2038 156.99 88.0657 154.955C87.8113 154.793 87.5273 154.672 87.2569 154.535C87.1758 154.644 87.0947 154.754 87.0111 154.867C87.6908 156.139 89.1523 156.511 90.2869 157.269C89.9218 158.333 89.3969 159.329 89.4363 160.594ZM79.0877 111.448C76.9256 111.25 74.8851 110.614 72.8274 110.017C75.63 112.169 82.9978 112.707 85.3541 110.418C83.2854 111.29 81.2535 111.648 79.0877 111.448ZM63.5237 110.637C63.3221 107.016 63.2041 103.39 63.0468 99.7672C62.9779 98.1582 63.3295 96.6108 63.7056 95.0671C64.1149 93.3696 64.5931 91.6881 65.0307 89.9992C65.1438 89.5613 65.2851 89.1074 65.2765 88.6658C65.2691 88.2045 65.2163 87.6608 64.9655 87.3004C64.6533 86.8428 64.6496 86.4652 64.8844 86.0519C65.5113 84.9227 66.0829 83.7517 66.8278 82.7024C68.2733 80.6593 68.3175 80.6888 70.6493 79.8659C75.689 78.0786 80.8688 76.8719 86.1605 76.0859C92.7613 75.1281 99.4422 74.8441 106.1 75.2384C113.789 75.6734 121.396 77.0448 128.753 79.3222C130.388 79.8253 132.033 80.3063 133.67 80.7983C134.006 80.8992 134.337 81.0259 134.653 81.1353C134.808 82.4478 135.439 83.5044 136.051 84.566C136.65 85.6042 137.28 86.6202 137.909 87.6412C140.14 91.2637 141.12 95.254 141.293 99.4559C141.362 101.055 141.561 102.609 142.051 104.13C142.449 105.363 142.666 106.648 142.695 107.943C142.776 111.116 142.857 114.292 143.039 117.46C143.132 119.142 142.76 120.734 142.48 122.359C141.373 128.768 140.021 135.134 138.585 141.479C138.016 143.972 137.262 146.419 136.33 148.8C134.732 152.9 132.237 156.426 129.496 159.808C124.467 166.023 118.714 171.529 112.798 176.869C110.022 179.373 106.79 181.115 103.26 182.327C100.75 183.188 98.3123 182.942 95.8711 181.998C92.2278 180.585 89.2113 178.344 86.7419 175.313C83.7291 171.614 81.1097 167.647 78.6292 163.579C74.4869 156.802 70.8067 149.793 67.8062 142.422C65.9817 137.91 64.8923 133.134 64.5796 128.276C64.1801 122.408 63.8433 116.524 63.5237 110.637ZM64.0756 102.757C63.9662 103.495 64.3915 103.831 65.1008 103.584C65.3744 103.489 65.6431 103.381 65.9059 103.259C70.9947 100.963 76.354 99.9492 81.9062 99.8274C83.2018 99.7991 84.4937 99.7475 85.7856 99.6614C87.7646 99.5384 88.9434 98.5309 89.4166 96.6268C89.4891 96.3439 89.558 96.0597 89.6034 95.7657C89.8222 94.2749 89.145 93.1826 87.6724 92.8849C86.4125 92.6303 85.1169 92.5405 83.8422 92.3794C83.8336 92.4114 83.8299 92.4483 83.8213 92.4802C82.854 92.5368 81.8866 92.6033 80.9143 92.6549C78.5223 92.7779 76.1573 93.0965 73.8415 93.7398C69.3955 94.9797 66.4406 97.9454 64.3669 101.928C64.2261 102.187 64.1277 102.467 64.0756 102.757ZM72.4206 105.504C70.9222 106.481 69.918 107.825 69.0723 109.333C68.8854 109.666 68.8449 110.063 69.1362 110.326C69.3671 110.531 69.6661 110.642 69.9745 110.637C70.2203 110.621 70.4772 110.374 70.6837 110.18C71.2467 109.645 71.7679 109.062 72.3358 108.535C73.2663 107.674 74.2705 106.922 75.6755 106.622C75.8131 108.025 76.2139 109.284 77.3066 110.229C78.4571 111.213 79.7244 111.476 81.1896 111.132C83.267 110.64 84.2552 109.26 84.4372 106.246C85.2546 106.882 85.9429 107.405 86.619 107.947C87.1451 108.373 87.6429 108.839 88.1739 109.26C88.5267 109.544 88.9225 109.666 89.3318 109.357C89.6797 109.094 89.7325 108.648 89.4891 108.118C89.434 108.001 89.3708 107.889 89.2998 107.781C87.9182 105.836 86.158 104.377 83.7685 103.981C82.1085 103.719 80.4288 103.602 78.7485 103.632C76.4904 103.653 74.3578 104.236 72.4194 105.504H72.4206ZM68.4146 108.157C68.9334 107.919 69.1927 107.419 69.4963 106.991C70.2765 105.869 71.3467 104.979 72.5927 104.418C73.53 103.982 74.5057 103.634 75.5071 103.377C78.0221 102.778 80.5937 102.448 83.1785 102.393C83.6038 102.385 84.0782 102.457 84.4138 102.049C83.9221 101.579 83.6161 101.413 82.8552 101.434C81.5965 101.462 80.3366 101.494 79.0853 101.636C76.6413 101.889 74.2551 102.541 72.0211 103.564C70.3531 104.338 69.3242 105.737 68.4011 107.231C68.2364 107.49 68.0705 107.806 68.4146 108.157ZM136.052 102.206C136.064 101.985 136.064 101.763 136.052 101.542C135.842 99.8766 135.599 98.221 135.408 96.5505C135.076 93.5848 134.975 90.6228 135.603 87.6731C135.64 87.4168 135.66 87.1583 135.664 86.8994C135.429 87.0089 135.328 87.1381 135.307 87.2808C135.104 88.6818 134.816 90.0841 134.749 91.4937C134.612 94.1187 135.02 96.7117 135.401 99.301C135.546 100.285 135.712 101.262 135.867 102.238C135.927 102.231 135.983 102.219 136.052 102.206ZM135.651 131.206C135.591 131.194 135.528 131.178 135.469 131.166C133.915 135.659 131.392 139.674 129.336 143.928C129.505 143.673 129.705 143.426 129.85 143.154C131.094 140.962 132.389 138.798 133.537 136.558C134.331 135.015 134.923 133.36 135.59 131.761C135.66 131.593 135.635 131.39 135.651 131.206ZM118.529 144.436C118.537 142.872 117.821 141.498 117.136 140.131C115.752 137.359 115.258 136.695 114.399 136.379C116.096 138.962 117.683 141.486 118.529 144.436ZM117.157 150.546C117.853 149.517 117.198 147.373 116.015 146.969C115.695 146.859 115.237 146.937 114.93 147.092C114.561 147.282 114.508 147.707 114.638 148.125C114.691 148.307 114.732 148.494 114.78 148.68C113.747 149.502 112.589 149.992 111.399 150.402C108.071 151.532 104.639 152.062 101.132 152.143C97.1433 152.232 93.1927 151.889 89.2445 151.386C87.5765 151.172 85.9257 150.924 84.3278 150.425C83.5669 150.186 82.8171 149.903 82.0882 149.648C82.0882 149.04 82.141 148.526 82.0722 148.023C81.9874 147.399 81.6395 147.221 81.036 147.383C79.5216 147.796 78.9464 149.966 80.044 151.103C80.5136 151.58 81.1417 151.511 81.5092 150.928C81.6321 150.741 81.7034 150.534 81.83 150.276C82.7605 150.621 83.6738 150.935 84.5662 151.285C85.9515 151.824 87.3073 152.431 88.7086 152.913C93.028 154.389 97.4654 154.429 101.927 153.793C103.361 153.59 104.778 153.262 106.186 152.932C107.47 152.628 108.746 152.268 110.004 151.886C111.822 151.335 113.628 150.74 115.455 150.157C115.629 150.359 115.816 150.551 116.013 150.731C116.439 151.077 116.853 150.999 117.162 150.546H117.157ZM101.229 108.696C101.262 108.441 101.266 108.183 101.241 107.926C101.222 107.785 101.06 107.667 100.95 107.525C99.5537 109.157 98.9342 116.062 100.09 117.646C100.248 117.35 100.402 117.171 100.438 116.973C100.566 116.374 100.661 115.768 100.721 115.158C100.91 113.008 101.063 110.856 101.229 108.696ZM93.5762 113.292C93.9007 111.857 93.9523 110.411 93.8724 108.956C93.7348 106.46 92.7256 104.405 90.6409 102.96C90.3778 102.777 90.0988 102.567 89.7989 102.507C89.5199 102.45 89.1228 102.473 88.9286 102.639C88.641 102.885 88.8057 103.243 89.0417 103.5C89.3256 103.808 89.6698 104.063 89.928 104.387C90.4504 105.039 91.1104 105.652 91.3907 106.401C92.0139 108.091 92.4748 109.845 92.5437 111.672C92.6088 113.284 92.7256 114.893 92.819 116.501C92.8633 116.522 92.9038 116.538 92.9419 116.559C93.0149 116.397 93.0722 116.229 93.1128 116.056C93.2738 115.134 93.3746 114.203 93.5762 113.292ZM82.484 135.122C82.5688 134.951 82.5934 134.753 82.6905 134.408C81.4072 135.638 78.6464 142.158 78.6944 143.671C78.7755 143.597 78.8849 143.548 78.9046 143.471C79.7306 140.53 81.1319 137.836 82.484 135.122Z" fill="#F3D7C7"/>
<path d="M71.5641 108.747C71.5641 108.747 73.1891 111.185 77.5687 111.468C81.9483 111.751 85.5855 111.822 87.4219 108.147C87.4219 108.147 84.5947 104.259 80.9231 104.825C77.2516 105.391 74.0016 104.859 71.5641 108.747Z" fill="white"/>
<path d="M109.672 107.685C109.672 107.685 113.275 112.174 119.209 111.713C125.142 111.253 126.166 108.179 126.166 108.179C126.166 108.179 122.246 104.999 119.703 104.787C117.16 104.575 111.368 105.104 109.672 107.685Z" fill="white"/>
<path d="M122 108.004C121.748 107.859 121.497 107.716 121.247 107.575C121.615 107.486 121.923 107.502 122 108.004Z" fill="#7BB6D1"/>
<path d="M120.588 108.162C120.956 108.307 121.248 108.425 121.539 108.542C120.801 110.354 117.495 110.828 115.786 109.049C116.166 108.81 116.524 108.588 116.75 108.445C117.518 108.691 118.138 108.996 118.782 109.06C119.474 109.134 120.081 108.761 120.588 108.162Z" fill="#7BB6D1"/>
<path d="M115.003 107.947C115.542 107.765 115.987 107.36 116.765 107.624C115.732 108.466 115.425 108.523 115.003 107.947Z" fill="#7BB6D1"/>
<path d="M82.9632 108.049C82.8169 108.295 82.7173 108.453 82.5821 108.688C82.3363 108.494 82.1162 108.332 81.8987 108.162C82.2183 107.712 82.5293 107.842 82.9632 108.049Z" fill="#7BB6D1"/>
<path d="M82.1846 109.004C81.1078 110.54 78.9887 110.54 77.5001 109.057L78.3839 108.291C79.2087 108.83 79.9745 109.012 80.8656 108.83C81.2541 108.749 81.699 108.932 82.1846 109.004Z" fill="#7BB6D1"/>
<path d="M77.8806 107.647L77.99 107.866C77.6863 108.032 77.3754 108.198 77.0754 108.358C77.1676 107.818 77.5204 107.724 77.8806 107.647Z" fill="#7BB6D1"/>
<path d="M58.816 104.514C59.3077 104.964 59.6764 105.483 59.6531 106.208C59.3581 105.654 58.8074 105.225 58.816 104.514Z" fill="#F3D7C7"/>
<path d="M57.8184 91.9224C57.709 92.7933 57.6119 93.5559 57.5148 94.3247C56.5314 93.8954 54.4787 91.4771 53.1622 89.2002C54.4135 88.2605 55.6772 87.3084 57.1387 86.2136C56.9801 87.4437 56.8424 88.4179 56.738 89.3946C56.6876 89.8437 56.674 90.2963 56.6974 90.7477C56.7293 91.3799 56.9641 91.8867 57.8184 91.9224Z" fill="#271922"/>
<path d="M56.128 93.9812C56.3246 94.196 56.5389 94.3939 56.7684 94.5729C57.485 95.1645 57.485 95.1609 57.2748 96.2593C57.0786 96.1507 56.8893 96.0299 56.7082 95.8977C54.9578 94.4495 53.4915 92.6885 52.3839 90.7043C52.0754 90.1606 52.084 90.1569 52.5695 89.7769C53.7926 91.2296 54.9541 92.6085 56.128 93.9812Z" fill="#40152A"/>
<path d="M57.1353 102.62C56.9928 102.482 56.608 102.413 56.463 102.51C56.3179 102.608 56.2171 102.968 56.2639 103.171L55.9246 103.224C55.8558 102.806 55.7906 102.385 55.7255 101.963C55.5878 101.076 55.6124 100.156 55.621 99.2569C55.621 98.8878 55.7832 98.5274 55.884 98.0981C56.9116 98.3085 57.568 98.969 58.3215 99.4389C58.4444 99.5201 58.4444 99.8522 58.4543 100.071C58.4875 101.104 58.4789 102.141 58.5354 103.175C58.56 103.616 58.7013 104.036 58.7874 104.479C58.3535 104.54 58.3658 104.098 58.1728 103.888C57.8188 103.475 57.5201 103.005 57.1353 102.62Z" fill="#F3D7C7"/>
<path d="M57.7991 114.601C57.1181 110.817 56.5158 107.02 55.9246 103.22L56.2638 103.167C56.3658 103.537 56.6006 103.856 56.7666 104.208C57.2115 105.137 57.6577 106.068 58.0904 107.008C58.1506 107.18 58.1918 107.358 58.2133 107.539C58.154 107.586 58.0882 107.624 58.0179 107.652C57.2214 107.802 57.0997 108.066 57.5262 108.73C57.7524 109.083 57.9798 109.44 58.2342 109.772C58.571 110.217 58.6398 110.703 58.5784 111.238C58.4739 112.202 58.3522 113.167 58.2871 114.135C58.218 114.951 58.2594 115.773 58.41 116.578L58.1875 116.623C58.0523 115.954 57.9208 115.281 57.7991 114.601Z" fill="#F3D7C7"/>
<path d="M58.9566 118.105C59.2885 118.72 59.7703 119.255 60.2362 119.778C60.3653 119.924 60.718 119.988 60.9196 119.924C61.2478 119.822 61.2601 119.486 61.1876 119.186C61.1209 118.838 61.0289 118.496 60.9122 118.162C60.1588 116.261 60.1551 114.324 60.6283 112.359C61.8108 117.185 61.6928 122.136 62.1033 127.243C61.7997 126.963 61.6006 126.85 61.5084 126.68C61.0905 125.918 60.6332 125.164 60.3222 124.357C59.3462 121.851 58.7058 119.249 58.1884 116.624L58.4108 116.579C58.5164 117.112 58.7003 117.626 58.9566 118.105Z" fill="#F3D7C7"/>
<path d="M147.559 112.979C147.823 113.875 147.62 114.714 147.22 115.503C146.701 116.533 146.122 117.529 145.531 118.603C145.324 117.388 146.065 111.824 146.676 109.823C146.989 110.937 147.26 111.962 147.559 112.979Z" fill="#F3D7C7"/>
<path d="M153.176 100.687C153.56 102.696 153.273 104.706 152.913 106.675C151.852 112.513 150.366 118.238 148.119 123.745C147.39 125.527 146.419 127.164 145.106 128.582C144.762 128.951 144.358 129.263 143.976 129.598C143.9 129.554 143.823 129.514 143.742 129.475C144.11 126.992 144.476 124.506 144.839 122.016C144.962 122.036 145.046 122.025 145.085 122.061C145.368 122.369 145.631 122.749 146.129 122.592C146.651 122.426 146.903 121.977 146.944 121.485C147.036 120.351 147.505 119.374 148.061 118.41C149.231 116.367 149.352 114.171 148.91 111.915C148.818 111.433 148.87 111.068 149.194 110.67C149.802 109.917 150.34 109.107 150.915 108.324C151.134 108.029 151.333 107.733 151.081 107.356C150.843 107.003 150.479 106.968 150.13 107.053C149.822 107.139 149.528 107.267 149.256 107.434C148.999 107.597 148.752 107.777 148.518 107.973C149.02 106.137 149.883 104.735 151.138 103.564C151.373 103.345 151.648 103.155 151.842 102.9C151.955 102.75 152.033 102.45 151.965 102.305C151.901 102.218 151.817 102.15 151.72 102.104C151.623 102.059 151.516 102.039 151.409 102.045C151.012 102.146 150.567 102.271 150.285 102.537C149.604 103.173 148.996 103.89 148.377 104.595C148.175 104.826 148.025 105.109 147.713 105.316C147.863 104.604 148.013 103.886 148.167 103.173C148.264 102.731 148.421 102.297 148.467 101.848C148.617 100.215 149.786 99.3967 151.021 98.6672C151.859 98.1752 152.228 98.2982 152.677 99.1371C152.918 99.6265 153.086 100.149 153.176 100.687Z" fill="#F3D7C7"/>
<path d="M115.38 37.7447C116.008 41.104 115.356 44.3329 113.376 47.1941C110.275 51.6789 105.975 54.219 100.581 54.9201C100.453 54.9381 100.323 54.9464 100.193 54.9447C99.6755 54.9447 99.1567 54.9447 98.6429 54.9447C93.9659 54.9447 89.8849 53.417 86.5858 50.0577C84.3732 47.8017 83.2375 45.0427 83.0101 41.874C82.6708 37.2145 84.608 33.5194 87.9908 30.5857C92.9825 26.251 98.8728 24.8204 105.199 26.62C110.695 28.1871 114.307 31.9794 115.38 37.7447Z" fill="#EA533C"/>
<path d="M148.492 73.6257C148.489 73.7617 148.477 73.8974 148.455 74.0316C148.209 73.9086 148.066 73.8447 147.932 73.7684C142.032 70.2959 135.649 68.0387 129.078 66.265C123.835 64.8554 118.499 63.8212 113.109 63.1701C108.486 62.6068 103.842 62.282 99.1826 62.1123C94.4895 61.9425 89.7977 61.9019 85.1096 62.1812C81.7907 62.3804 78.4719 62.7286 75.1617 63.0853C68.8781 63.7618 62.7604 65.2317 56.7398 67.1445C56.4972 67.2102 56.251 67.2615 56.0023 67.2982C56.0957 65.7914 56.1486 64.3461 56.2777 62.8946C56.5616 59.7985 56.8369 56.7037 57.1971 53.6162C57.6298 49.9051 58.3992 46.2875 60.1816 42.9282C61.562 40.3352 63.5618 38.3622 65.9059 36.6967C68.2851 35.0116 70.7977 33.5236 73.4187 32.2475C76.2323 30.8612 79.0632 29.5045 81.8768 28.1231C86.0634 26.0689 90.427 24.46 94.8079 22.8842C95.0537 22.7944 95.318 22.7538 95.5454 22.6382C97.6018 21.5976 99.748 21.787 101.898 22.1966C106.913 23.1558 111.837 24.5439 116.615 26.3456C122.515 28.5598 128.397 30.8354 134.081 33.5735C136.239 34.6154 138.304 35.8221 140.126 37.415C141.969 39.0313 143.255 41.008 144.085 43.3132C145.068 46.0402 145.603 48.8608 145.98 51.7244C146.385 54.8082 146.841 57.8747 147.248 60.9622C147.493 62.8909 147.705 64.8234 147.895 66.7558C148.115 69.0437 148.297 71.3366 148.492 73.6257ZM116.761 45.4965C119.357 39.0744 117.442 31.9916 111.867 27.8832C107.669 24.7847 102.907 23.5079 97.7051 24.0147C92.6396 24.5067 88.3313 26.6076 84.9031 30.3876C82.2222 33.3496 80.7853 36.907 80.5505 40.8604C80.3231 44.7462 81.6752 48.1818 84.1864 51.1315C87.8543 55.4367 92.6679 57.1969 98.1906 57.3224C100.2 57.3373 102.2 57.0534 104.126 56.4798C109.992 54.738 114.413 51.3098 116.761 45.4965Z" fill="#CD202D"/>
<path d="M156.912 83.7549C157.237 84.3946 157.196 84.9739 156.799 85.6185C152.613 80.0598 146.758 76.997 140.64 74.3191C135.045 71.8713 129.199 70.271 123.215 69.1528C119.915 68.5378 116.603 67.9658 113.28 67.475C111.109 67.1552 108.915 66.9682 106.721 66.8108C103.109 66.5512 99.4931 66.3188 95.8744 66.1625C91.437 65.9719 87.0119 66.1945 82.5905 66.5832C80.9471 66.7296 79.2987 66.8292 77.659 67.0014C72.1203 67.5648 66.6504 68.496 61.2825 69.9991C57.3257 71.1062 53.428 72.3572 49.6617 74.0104C45.4751 75.8493 41.5884 78.1188 38.4109 81.4732C38.3514 81.5219 38.2862 81.5632 38.2167 81.5962C38.1147 81.5027 38.0508 81.4732 38.0225 81.4141C37.2125 79.927 37.2407 79.7326 38.4761 78.6219C40.7267 76.5923 43.2933 75.0412 45.941 73.586C52.3905 70.0409 59.3268 67.9498 66.5164 66.6337C69.918 66.0137 73.3298 65.4532 76.7519 64.9522C78.9644 64.636 81.1856 64.4417 83.4079 64.2842C86.4121 64.0727 89.4162 63.8943 92.424 63.7922C94.5223 63.7233 96.6316 63.8131 98.7323 63.8451C103.073 63.9103 107.385 64.3027 111.693 64.8292C118.632 65.6717 125.482 66.9486 132.191 68.9413C137.936 70.6511 143.531 72.7545 148.662 75.9108C150.367 76.9601 151.981 78.1717 153.549 79.4153C155.01 80.5666 156.074 82.0821 156.912 83.7549Z" fill="#731530"/>
<path d="M153.119 83.5121C154.18 84.4445 155.127 85.506 156.24 86.6242C155.748 86.8702 155.426 87.0817 155.078 87.2072C153.985 87.6045 152.888 87.9895 151.783 88.3376C151.665 88.371 151.542 88.3799 151.421 88.3639C151.3 88.3478 151.183 88.307 151.078 88.2442C145.891 84.2821 140.066 81.5268 134.098 78.9793C129.102 76.8439 123.911 75.4699 118.611 74.4047C112.505 73.1746 106.326 72.6137 100.108 72.5596C96.2568 72.5203 92.4076 72.7356 88.5852 73.2041C81.9475 74.0098 75.4795 75.5044 69.2205 77.8624C62.9614 80.2204 57.2973 83.624 52.0942 87.8136C51.7819 88.0596 51.5275 88.2589 51.0653 88.1335C47.1626 87.0879 43.5476 85.3867 40.053 83.4014C39.8072 83.2599 39.5798 83.073 39.2196 82.822C40.2558 81.9757 41.1863 81.1282 42.2029 80.3951C47.1258 76.8279 52.6166 74.4268 58.4024 72.6457C62.2682 71.455 66.22 70.6235 70.2026 69.9518C73.7673 69.3442 77.3565 68.8657 80.9482 68.4364C82.9997 68.1904 85.0734 68.092 87.1421 68.0108C92.446 67.8041 97.7574 67.7033 103.061 68.0108C111.532 68.5028 119.909 69.6271 128.111 71.8671C132.942 73.1845 137.723 74.679 142.298 76.7492C146.203 78.5131 149.88 80.6768 153.119 83.5121Z" fill="#40152A"/>
<path d="M146.631 94.9941C145.345 93.1023 144.06 91.2117 142.777 89.3223C142.863 89.2694 142.948 89.2128 143.032 89.1599C144.51 90.9226 145.774 92.828 146.631 94.9941Z" fill="black"/>
<path d="M143.931 92.8279C144.482 93.3507 145.721 95.5463 145.887 96.304C145.202 95.6103 144.009 93.4823 143.931 92.8279Z" fill="black"/>
<path d="M146.971 93.3042C146.526 92.5662 146.206 92.0077 145.865 91.469C145.525 90.9302 145.157 90.3877 144.785 89.8563C144.4 89.2979 143.978 88.7665 143.606 88.1994C143.274 87.689 142.72 87.288 142.691 86.5339C143.798 87.3322 146.761 91.9352 146.971 93.3042Z" fill="black"/>
<path d="M135.471 131.163C135.532 131.175 135.594 131.191 135.653 131.204C135.637 131.389 135.661 131.592 135.592 131.755C134.925 133.362 134.334 135.012 133.54 136.552C132.39 138.792 131.095 140.956 129.852 143.148C129.703 143.419 129.508 143.667 129.338 143.921C131.394 139.671 133.916 135.657 135.471 131.163Z" fill="black"/>
<path d="M136.049 101.542C136.061 101.763 136.061 101.985 136.049 102.206C135.985 102.219 135.926 102.231 135.86 102.238C135.705 101.262 135.539 100.286 135.394 99.3009C135.013 96.7178 134.605 94.1187 134.743 91.4937C134.815 90.0841 135.098 88.6818 135.301 87.2807C135.321 87.1381 135.423 87.0089 135.657 86.8994C135.653 87.1583 135.633 87.4167 135.597 87.6731C134.969 90.6253 135.069 93.5848 135.401 96.5505C135.596 98.2197 135.839 99.8766 136.049 101.542Z" fill="black"/>
<path d="M131.682 104.022C129.751 102.406 127.856 100.744 125.876 99.193C124.634 98.2076 123.315 97.3228 121.933 96.5471C119.13 94.9947 116.163 94.2173 113.099 93.9418C111.697 93.8156 110.289 93.7832 108.884 93.8446C108.669 93.8446 108.455 93.8569 108.24 93.8692C107.544 93.9049 106.843 94.1276 106.171 94.3428C105.896 94.4277 105.523 94.6946 105.483 94.9308C105.314 95.819 105.238 96.722 105.254 97.6259C105.282 98.3639 105.549 98.5373 106.334 98.5829C107.367 98.6431 108.403 98.6677 109.436 98.6554C110.606 98.6394 111.771 98.6554 112.934 98.7329C114.662 98.8268 116.378 99.0871 118.056 99.5103C118.533 99.6333 119.007 99.7736 119.481 99.931C121.65 100.657 123.768 101.544 125.918 102.335C127.785 103.015 129.671 103.663 131.545 104.324C131.592 104.22 131.636 104.123 131.682 104.022ZM127.454 103.973C123.767 102.592 120.025 101.373 116.163 100.537C113.928 100.055 111.677 99.9704 109.41 100.088C108.114 100.088 106.819 100.133 105.531 100.076C104.373 100.023 103.733 99.4968 103.462 98.3787C103.317 97.7944 103.32 97.1621 103.345 96.5594C103.365 96.044 103.559 95.5421 103.6 95.028C103.702 93.7831 104.45 93.1189 105.548 92.7548C106.879 92.3083 108.264 92.1398 109.653 92.1299C114.37 92.0906 118.807 93.1915 122.929 95.5101C125.278 96.8259 127.437 98.456 129.346 100.355C130.355 101.359 131.444 102.283 132.46 103.284C132.844 103.661 133.141 104.135 133.432 104.593C133.654 104.941 133.508 105.257 133.116 105.331C132.682 105.404 132.2 105.481 131.796 105.363C130.33 104.946 128.875 104.514 127.453 103.977L127.454 103.973Z" fill="black"/>
<path d="M122.84 99.4627C122.187 99.3397 120.66 97.919 120.215 97.0198C120.782 97.117 121.814 98.0813 122.84 99.4627Z" fill="black"/>
<path d="M117.502 95.9302C118.159 96.1368 120.061 97.9967 120.637 99.0816C119.324 98.0853 117.792 96.5181 117.502 95.9302Z" fill="black"/>
<path d="M126.897 106.922C125.708 105.824 124.481 104.778 122.995 104.082C121.211 103.236 119.287 102.727 117.318 102.579C116.258 102.502 115.188 102.57 114.123 102.522C113.466 102.489 112.815 102.36 111.936 102.243C112.268 101.984 112.384 101.846 112.534 101.781C114.333 100.979 116.195 101.141 118.057 101.461C121.253 102.012 124.021 103.511 126.604 105.397C127.063 105.755 127.483 106.159 127.859 106.604C128.09 106.86 128.305 107.183 128.009 107.58C127.513 107.589 127.222 107.22 126.897 106.922Z" fill="black"/>
<path d="M117.142 140.133C117.826 141.498 118.543 142.872 118.534 144.438C117.684 141.486 116.097 138.964 114.404 136.384C115.264 136.697 115.758 137.357 117.142 140.133Z" fill="black"/>
<path d="M118.207 98.9318C116.486 97.6119 114.766 96.2625 113.037 94.6499C114.01 94.8812 117.196 97.5024 118.207 98.9318Z" fill="black"/>
<path d="M111.865 27.8806C117.441 31.989 119.356 39.0742 116.76 45.4939C114.412 51.3072 109.99 54.7354 104.125 56.4772C102.199 57.0507 100.198 57.3347 98.189 57.3198C92.6663 57.1968 87.8527 55.4341 84.1848 51.1288C81.6736 48.1767 80.3215 44.7436 80.5489 40.8578C80.7837 36.8994 82.2206 33.347 84.9014 30.385C88.3297 26.605 92.638 24.5016 97.7035 24.012C102.905 23.5077 107.667 24.7845 111.865 27.8806ZM113.376 47.1926C115.356 44.3315 116.007 41.1026 115.379 37.7433C114.306 31.9779 110.695 28.1856 105.197 26.6185C98.8724 24.8189 92.9821 26.2495 87.9879 30.5843C84.6064 33.518 82.668 37.2131 83.0073 41.8726C83.2347 45.0412 84.368 47.8003 86.583 50.0562C89.8883 53.4168 93.9655 54.942 98.6426 54.942C99.1564 54.942 99.6751 54.942 100.193 54.942C100.322 54.9437 100.452 54.9355 100.581 54.9174C105.975 54.2188 110.274 51.6787 113.376 47.1926Z" fill="black"/>
<path d="M121.248 107.574C121.499 107.716 121.75 107.859 122.001 108.004C121.924 107.502 121.617 107.486 121.248 107.574ZM117.539 111.561C115.098 110.666 114.05 108.867 114.017 106.331C113.227 106.375 112.58 106.74 111.944 107.097C111.127 107.555 110.346 108.081 109.547 108.573C109.218 108.778 108.873 108.954 108.515 109.101C108.086 109.271 107.676 109.142 107.353 108.829C107.03 108.517 106.907 108.071 107.107 107.67C107.316 107.238 107.6 106.845 107.946 106.512C109.399 105.143 111.176 104.357 113.1 103.963C117.922 102.979 122.229 104.157 126.129 107.103C127.235 107.934 128.49 108.554 129.676 109.274C129.952 109.44 130.255 109.578 130.482 109.801C130.798 110.113 130.648 110.514 130.199 110.551C129.878 110.587 129.553 110.545 129.251 110.428C128.404 110.043 127.559 109.63 126.753 109.164C125.668 108.533 124.62 107.839 123.397 107.073C123.125 109.203 122.012 110.443 120.299 111.245C121.781 111.135 123.113 110.464 124.522 110.127C121.955 112.149 116.522 112.61 114.234 110.872C115.336 111.104 116.438 111.333 117.539 111.561ZM115.005 107.947C115.426 108.523 115.734 108.466 116.766 107.624C115.993 107.36 115.543 107.765 115.005 107.947ZM116.75 108.445C116.527 108.588 116.166 108.814 115.787 109.049C117.495 110.828 120.807 110.354 121.539 108.543C121.248 108.42 120.957 108.308 120.588 108.162C120.081 108.761 119.474 109.134 118.782 109.062C118.138 108.996 117.519 108.689 116.75 108.45V108.445ZM119.078 105.958C119.201 106.819 119.292 106.87 120.078 106.525C119.952 105.954 119.568 105.886 119.078 105.958Z" fill="black"/>
<path d="M110.895 94.658C112.461 95.5411 113.774 96.7491 115.074 97.9681C114.104 97.6396 111.154 95.3136 110.895 94.658Z" fill="black"/>
<path d="M113.092 98.1175C113.051 98.174 113.007 98.2306 112.969 98.2872C111.552 97.1736 110.137 96.0583 108.722 94.9414L108.924 94.7139C110.374 95.7716 111.765 96.9078 113.092 98.1175Z" fill="black"/>
<path d="M100.6 162.041C100.652 161.221 100.705 160.416 100.766 159.403C101.349 160.391 101.231 161.405 100.6 162.041Z" fill="black"/>
<path d="M101.229 108.696C101.063 110.851 100.91 113.001 100.728 115.158C100.667 115.768 100.573 116.374 100.444 116.973C100.408 117.171 100.254 117.35 100.096 117.646C98.9342 116.062 99.5537 109.159 100.956 107.525C101.066 107.667 101.228 107.785 101.248 107.926C101.27 108.183 101.264 108.441 101.229 108.696Z" fill="black"/>
<path d="M99.9263 160.318C100.049 161.221 99.914 162.076 99.2539 162.778C99.3953 161.944 99.5379 161.105 99.6792 160.266C99.764 160.286 99.8451 160.302 99.9263 160.318Z" fill="black"/>
<path d="M98.088 163.11C98.324 162.173 98.3154 161.299 98.7407 160.517C98.8849 160.967 98.9002 161.448 98.7848 161.906C98.6695 162.365 98.4281 162.782 98.088 163.11Z" fill="black"/>
<path d="M95.7397 160.359C95.8368 160.838 95.9339 161.316 96.0642 161.968C95.3992 161.437 95.3636 160.947 95.4889 160.416C95.5701 160.4 95.6549 160.384 95.7397 160.359Z" fill="black"/>
<path d="M94.9758 159.52C94.9267 160.217 94.8775 160.913 94.8259 161.671C94.3846 160.998 94.392 160.113 94.9758 159.52Z" fill="black"/>
<path d="M93.6997 159.074C94.1213 159.62 94.093 160.488 93.7366 161.63C93.6591 161.63 93.5829 161.63 93.5055 161.623C93.5768 160.82 93.6309 160.021 93.6997 159.074Z" fill="black"/>
<path d="M92.821 116.499C92.7276 114.892 92.6108 113.283 92.5456 111.67C92.4768 109.844 92.0159 108.09 91.3927 106.399C91.1124 105.65 90.4523 105.038 89.9299 104.386C89.6718 104.061 89.3276 103.806 89.0437 103.499C88.8126 103.243 88.643 102.884 88.9306 102.638C89.1248 102.472 89.5218 102.448 89.8009 102.505C90.1008 102.565 90.3798 102.776 90.6429 102.959C92.7325 104.409 93.7367 106.458 93.8744 108.954C93.9543 110.409 93.9027 111.856 93.5782 113.29C93.3754 114.202 93.2746 115.135 93.1172 116.053C93.0766 116.226 93.0194 116.394 92.9464 116.556C92.9058 116.536 92.8652 116.52 92.821 116.499Z" fill="black"/>
<path d="M90.2897 157.272C89.1552 156.514 87.6937 156.141 87.0139 154.869C87.095 154.756 87.1762 154.647 87.2598 154.537C87.5302 154.675 87.8141 154.796 88.0686 154.958C91.2067 156.993 94.6718 157.855 98.3729 157.779C101.289 157.716 104.151 156.975 106.731 155.615C107.592 155.165 107.773 155.177 108.634 155.437C108.511 156.307 107.881 156.733 107.181 157.053C106.509 157.357 105.808 157.592 105.25 157.811C105.399 158.807 105.598 159.747 105.662 160.7C105.711 161.377 105.565 161.449 104.832 161.583C104.719 162.016 104.638 162.461 104.488 162.883C104.2 163.685 104.019 163.754 103.164 163.418C103.041 163.664 102.91 163.91 102.78 164.164C102.241 165.204 101.934 165.271 101.002 164.468C100.772 164.848 100.557 165.233 100.306 165.593C99.8037 166.307 99.5332 166.4 98.658 166.19C98.4847 166.4 98.3065 166.623 98.116 166.842C97.95 167.032 97.7718 167.211 97.5161 167.486C97.4153 166.542 96.7872 166.112 96.2009 165.658C95.3306 165.983 95.1966 165.95 94.6951 165.192C94.3792 164.71 94.0916 164.208 93.8003 163.73C93.4315 163.835 93.0505 164.079 92.8169 163.976C92.5047 163.842 92.2663 163.465 92.0634 163.149C91.8729 162.856 91.7721 162.508 91.5976 162.103L90.951 162.484C90.2295 161.893 90.5417 160.998 90.1815 160.235L89.4367 160.588C89.3961 159.33 89.921 158.333 90.2897 157.272ZM91.1071 161.801C91.7832 161.546 91.8643 161.571 92.131 162.15C92.3658 162.661 92.5969 163.179 92.8354 163.71C93.9084 163.009 94.0387 163.049 94.5968 164.115C94.8426 164.593 95.1229 165.063 95.3823 165.521C96.2648 165.185 96.3656 165.201 96.9655 165.8C97.2113 166.046 97.4387 166.328 97.6821 166.598C98.2131 166.218 98.3508 165.047 99.4398 165.86C99.7434 165.387 100.031 164.965 100.3 164.532C100.855 163.632 100.955 163.62 101.668 164.409C101.705 164.446 101.781 164.453 101.914 164.502C102.283 163.821 102.652 163.128 103.052 162.37C103.347 162.616 103.544 162.792 103.822 163.031C103.945 162.46 104.032 161.985 104.145 161.519C104.207 161.273 104.255 160.977 104.417 160.827C104.579 160.677 104.87 160.726 105.146 160.682C105.084 160.263 105.052 159.878 104.967 159.502C104.854 159.01 104.701 158.518 104.523 157.865C99.8946 158.939 95.3675 159.235 90.8293 157.513C90.522 158.267 90.2467 158.935 89.9689 159.62C91.2645 159.962 90.5724 161.174 91.1071 161.801Z" fill="black"/>
<path d="M64.3665 101.931C66.4401 97.9481 69.3951 94.9824 73.8411 93.7425C76.1569 93.0992 78.5219 92.7794 80.9139 92.6576C81.8861 92.6047 82.8535 92.5346 83.8209 92.4829C83.8295 92.451 83.8332 92.4141 83.8418 92.3821C85.1165 92.5432 86.412 92.6281 87.672 92.8876C89.147 93.1841 89.8218 94.2776 89.603 95.7685C89.5575 96.0563 89.4887 96.3404 89.4162 96.6295C88.9429 98.5336 87.7641 99.5349 85.7851 99.6641C84.4933 99.7502 83.2038 99.8018 81.9058 99.8301C76.3548 99.9531 70.9943 100.965 65.9054 103.262C65.6426 103.384 65.3739 103.492 65.1003 103.587C64.3911 103.833 63.9658 103.497 64.0752 102.76C64.1273 102.47 64.2256 102.19 64.3665 101.931ZM65.5957 101.846C67.5993 101.092 69.5598 100.37 71.4958 99.6173C74.2701 98.5324 77.1501 98.1228 80.1124 98.0982C81.9218 98.0822 83.7275 97.9973 85.5368 97.9408C86.5534 97.9075 87.2417 97.4254 87.5453 96.4376C87.6581 96.1017 87.7501 95.759 87.8207 95.4117C87.9264 94.809 87.7838 94.5741 87.1766 94.4363C86.6421 94.3144 86.0971 94.2452 85.5491 94.2296C82.5081 94.1448 79.4929 94.4154 76.4716 94.7684C71.6667 95.3306 68.1118 97.7341 65.6018 101.85L65.5957 101.846Z" fill="black"/>
<path d="M87.8678 129.72C87.0454 130.85 86.2477 131.981 86.0129 133.41C85.8753 134.246 85.9829 135.104 86.3227 135.88C86.7185 136.808 87.5936 136.942 88.5168 137.002C88.1001 136.606 87.6821 136.209 87.2335 135.772C87.8075 135.484 88.2009 135.715 88.5327 135.938C89.4285 136.511 90.2934 137.13 91.1239 137.794C91.9499 138.474 92.7317 139.2 93.7359 139.617C94.8287 140.067 95.9546 140.371 97.1322 140.168C97.6692 140.08 98.1813 139.878 98.6342 139.576C99.4372 139.031 100.198 138.426 100.909 137.766C102.113 136.623 103.627 135.862 105.262 135.578C105.631 135.514 105.931 135.496 106.097 135.824C106.263 136.151 106.108 136.448 105.772 136.627C105.638 136.699 105.509 136.788 105.303 136.915C105.829 137.161 106.242 137.132 106.635 136.829C107.65 136.035 108.242 134.998 108.031 133.709C107.878 132.769 107.497 131.864 107.165 130.95C107.082 130.722 106.955 130.513 106.791 130.335C106.627 130.156 106.429 130.012 106.21 129.909C105.728 129.673 105.603 129.265 105.784 128.968C105.979 128.645 106.489 128.551 106.918 128.767C107.035 128.821 107.141 128.895 107.234 128.986C109.032 130.857 110.137 133.199 109.25 135.874C108.748 137.397 107.744 138.407 106.079 138.645C105.219 138.768 104.918 138.727 103.719 138.091C102.546 138.88 101.359 139.719 100.133 140.489C99.4283 140.934 98.6957 141.436 97.9102 141.62C95.8612 142.09 93.9141 141.655 92.2129 140.428C91.3021 139.772 90.529 138.929 89.6587 138.139C88.9212 138.718 88.0607 138.67 87.1892 138.508C86.8203 138.448 86.4698 138.306 86.1645 138.09C85.8592 137.875 85.6072 137.592 85.4278 137.264C84.1888 135.104 84.6301 130.644 87.0712 128.943C87.4806 128.655 87.8604 128.217 88.5045 128.772C88.2894 129.115 88.0866 129.42 87.8678 129.72Z" fill="black"/>
<path d="M82.6913 134.405C82.5942 134.749 82.5684 134.947 82.4848 135.118C81.1327 137.833 79.7314 140.53 78.9054 143.468C78.8857 143.545 78.7825 143.591 78.6952 143.667C78.6473 142.154 81.408 135.635 82.6913 134.405Z" fill="black"/>
<path d="M82.0787 95.9502C82.123 96.0351 82.1722 96.1212 82.2201 96.2061L78.5239 97.7252C79.597 96.8789 80.868 96.4853 82.0787 95.9502Z" fill="black"/>
<path d="M84.3283 150.424C85.9263 150.924 87.5832 151.171 89.2451 151.385C93.1932 151.888 97.1439 152.231 101.133 152.143C104.642 152.061 108.071 151.528 111.4 150.401C112.59 149.995 113.748 149.505 114.78 148.679C114.732 148.488 114.692 148.31 114.639 148.124C114.509 147.711 114.562 147.281 114.93 147.091C115.238 146.933 115.696 146.856 116.016 146.968C117.198 147.372 117.859 149.516 117.158 150.545C116.849 150.999 116.432 151.076 116.007 150.727C115.813 150.545 115.63 150.352 115.458 150.15C113.631 150.733 111.825 151.328 110.007 151.879C108.749 152.261 107.473 152.617 106.189 152.925C104.781 153.257 103.362 153.585 101.93 153.786C97.4684 154.422 93.031 154.389 88.7116 152.906C87.3103 152.424 85.9545 151.817 84.5692 151.278C83.6707 150.928 82.7636 150.614 81.8331 150.269C81.7101 150.527 81.6302 150.734 81.5122 150.921C81.1435 151.504 80.5166 151.573 80.047 151.096C78.9408 149.965 79.5246 147.789 81.039 147.376C81.6425 147.214 81.9904 147.392 82.0752 148.016C82.144 148.519 82.0912 149.033 82.0912 149.641C82.8176 149.904 83.5675 150.186 84.3283 150.424Z" fill="black"/>
<path d="M79.0884 111.448C81.2542 111.646 83.2861 111.29 85.3573 110.418C83.0009 112.707 75.6368 112.169 72.8306 110.017C74.8858 110.614 76.9262 111.25 79.0884 111.448Z" fill="black"/>
<path d="M80.1246 95.9783C78.6709 96.6262 77.2159 97.2761 75.7598 97.928C76.6706 97.0559 79.2544 95.9033 80.1246 95.9783Z" fill="black"/>
<path d="M82.9616 108.049C82.5277 107.843 82.2167 107.712 81.8971 108.163C82.1147 108.332 82.3298 108.495 82.5805 108.689C82.7182 108.45 82.8153 108.295 82.9616 108.049ZM77.075 108.361C77.3786 108.198 77.6896 108.032 77.9895 107.869L77.8801 107.65C77.52 107.725 77.1672 107.818 77.075 108.361ZM77.4991 109.058C78.9938 110.534 81.1067 110.534 82.1835 109.005C81.6918 108.933 81.253 108.749 80.8646 108.831C79.9734 109.013 79.2076 108.831 78.3829 108.292L77.4991 109.058ZM77.3049 110.229C76.2121 109.284 75.8114 108.025 75.6737 106.623C74.2687 106.923 73.2645 107.672 72.334 108.535C71.7661 109.062 71.2449 109.642 70.682 110.18C70.4755 110.374 70.2247 110.621 69.9727 110.637C69.6643 110.642 69.3653 110.531 69.1344 110.326C68.8431 110.063 68.8886 109.666 69.0705 109.334C69.9162 107.826 70.9204 106.481 72.4188 105.504C74.3573 104.236 76.4874 103.659 78.7467 103.632C80.427 103.602 82.1067 103.719 83.7667 103.982C86.1563 104.378 87.9165 105.837 89.2981 107.781C89.369 107.889 89.4323 108.002 89.4874 108.118C89.7332 108.648 89.6779 109.094 89.33 109.357C88.9207 109.666 88.5249 109.544 88.1721 109.26C87.6411 108.839 87.1433 108.373 86.6172 107.947C85.9411 107.405 85.2528 106.882 84.4354 106.246C84.2535 109.26 83.2652 110.642 81.1879 111.132C79.7227 111.476 78.4566 111.217 77.3049 110.229ZM81.2383 106.979C81.4202 105.926 81.3845 105.865 80.5094 106.019C80.6925 106.388 80.8584 106.723 81.0281 107.06C81.103 107.036 81.1756 107.008 81.2444 106.974L81.2383 106.979Z" fill="black"/>
<path d="M77.3296 96.2217C75.9652 97.0237 74.516 97.6436 72.9291 98.3521C73.54 97.7482 76.4679 96.3312 77.3296 96.2217Z" fill="black"/>
<path d="M70.9825 97.5786C71.0403 97.6524 71.092 97.7213 71.1485 97.7902C70.3643 98.3978 69.5805 99.0055 68.797 99.6131C68.7405 99.5443 68.6876 99.4754 68.6311 99.4065C69.4166 98.7988 70.1971 98.1863 70.9825 97.5786Z" fill="black"/>
<path d="M75.0738 96.3389C73.5607 97.3316 72.1557 98.248 70.7507 99.168C72.2479 97.5468 74.1544 96.3315 75.0738 96.3389Z" fill="black"/>
<path d="M72.5939 104.418C71.3479 104.979 70.2777 105.869 69.4976 106.991C69.1939 107.417 68.9346 107.919 68.4159 108.157C68.0717 107.806 68.2376 107.49 68.3999 107.23C69.323 105.735 70.3518 104.337 72.0199 103.563C74.2539 102.539 76.64 101.888 79.084 101.634C80.3353 101.493 81.5953 101.461 82.854 101.433C83.6148 101.417 83.9221 101.583 84.4126 102.048C84.077 102.456 83.6025 102.384 83.1772 102.392C80.5925 102.447 78.0208 102.777 75.5058 103.376C74.5052 103.633 73.5304 103.982 72.5939 104.418Z" fill="black"/>
<path d="M61.7996 90.0908C61.9225 90.6948 61.4517 91.0835 61.2772 91.578C61.0953 92.1167 60.8605 92.6358 60.6454 93.1623C60.6982 92.0036 61.126 90.9986 61.7996 90.0908Z" fill="black"/>
<path d="M61.7203 87.9401C61.7769 87.8393 61.96 87.8171 62.0891 87.7544L62.2022 87.8676C61.5679 89.0706 60.9377 90.2732 60.3117 91.4753C60.2514 91.4471 60.1888 91.4188 60.1298 91.3942C60.5407 90.1915 61.0737 89.0341 61.7203 87.9401Z" fill="black"/>
<path d="M61.2481 87.6624C60.8953 88.2774 60.5389 88.8925 60.1873 89.5075C60.1713 89.5321 60.1308 89.5604 60.1062 89.5518C60.0562 89.5374 60.0086 89.5159 59.9648 89.4878C60.8351 87.3844 61.859 85.6463 62.4626 85.2539C62.4908 85.3019 62.5597 85.3769 62.5474 85.3991C62.1155 86.1576 61.6824 86.912 61.2481 87.6624Z" fill="black"/>
<path d="M58.8166 104.471V104.515L58.7913 104.491C58.7913 104.491 58.7913 104.478 58.7913 104.473C58.7913 104.468 58.8039 104.471 58.8166 104.471Z" fill="black"/>
<path d="M156.24 86.6238C155.134 85.5057 154.18 84.4441 153.119 83.5117C149.881 80.6826 146.204 78.5127 142.303 76.7464C137.727 74.6762 132.946 73.1792 128.115 71.8642C119.913 69.6243 111.536 68.4975 103.066 68.008C97.7616 67.7041 92.4502 67.805 87.1463 68.008C85.0776 68.0892 83.0039 68.1826 80.9524 68.4336C77.3607 68.8629 73.769 69.3414 70.2068 69.949C66.2267 70.6206 62.2748 71.4522 58.4066 72.6429C52.6208 74.4252 47.13 76.8251 42.2071 80.3923C41.1905 81.1303 40.26 81.9729 39.2238 82.8192C39.584 83.0652 39.8064 83.2571 40.0572 83.3986C43.5518 85.3839 47.1668 87.0888 51.0695 88.1306C51.5317 88.2536 51.7861 88.0618 52.0984 87.8108C57.3003 83.6212 62.9644 80.2176 69.2247 77.8596C75.4849 75.5015 81.9468 74.0082 88.5869 73.2013C92.4093 72.7328 96.2585 72.5175 100.109 72.5568C106.328 72.6133 112.507 73.1718 118.612 74.4019C123.911 75.4671 129.102 76.8411 134.1 78.9765C140.068 81.5239 145.893 84.2793 151.08 88.2413C151.185 88.3042 151.302 88.3449 151.423 88.361C151.544 88.3771 151.667 88.3682 151.785 88.3348C152.891 87.9867 153.987 87.5968 155.08 87.2044C155.427 87.0814 155.747 86.8747 156.24 86.6238ZM156.8 85.6188C157.197 84.9743 157.237 84.3949 156.913 83.7553C156.074 82.0824 155.01 80.5669 153.548 79.4119C151.978 78.1683 150.366 76.9518 148.661 75.9075C143.532 72.7474 137.936 70.6477 132.19 68.9379C125.481 66.9452 118.631 65.6684 111.692 64.8258C107.384 64.303 103.072 63.9106 98.7314 63.8417C96.6307 63.8098 94.5214 63.7187 92.4232 63.7888C89.4154 63.886 86.4112 64.0644 83.4071 64.2809C81.1847 64.4383 78.9574 64.6327 76.751 64.9488C73.3306 65.4408 69.9188 66.0013 66.5155 66.6303C59.326 67.9465 52.3897 70.0376 45.9401 73.5826C43.2937 75.0366 40.7222 76.5914 38.4765 78.6173C37.2411 79.7243 37.2129 79.9224 38.0229 81.4095C38.0512 81.4624 38.1151 81.4981 38.2171 81.5916C38.2866 81.5586 38.3518 81.5173 38.4113 81.4686C41.5888 78.1142 45.4755 75.8447 49.6621 74.0058C53.4283 72.3526 57.3261 71.1004 61.2829 69.9945C66.6507 68.4914 72.1206 67.5602 77.6594 66.9969C79.2991 66.8259 80.9475 66.725 82.5909 66.5786C87.016 66.1899 91.4411 65.9636 95.8748 66.1579C99.4935 66.3117 103.11 66.5467 106.721 66.8062C108.915 66.9636 111.109 67.1506 113.28 67.4704C116.599 67.9625 119.918 68.5283 123.216 69.1482C129.199 70.2701 135.045 71.8704 140.641 74.3145C146.758 76.9973 152.613 80.0602 156.8 85.6188ZM64.8819 86.0518C64.6472 86.4651 64.6509 86.8428 64.9631 87.3003C65.2089 87.6607 65.2667 88.2044 65.2741 88.6657C65.2863 89.1073 65.1511 89.5612 65.0282 89.9991C64.5906 91.688 64.1125 93.3695 63.7031 95.067C63.327 96.6107 62.9755 98.1581 63.0443 99.7671C63.2016 103.39 63.3196 107.016 63.5212 110.637C63.8408 116.524 64.1776 122.408 64.582 128.286C64.8947 133.144 65.9841 137.92 67.8086 142.432C70.8091 149.799 74.4893 156.808 78.6317 163.589C81.1134 167.657 83.7328 171.624 86.7443 175.323C89.2138 178.354 92.2302 180.595 95.8735 182.008C98.3147 182.956 100.752 183.195 103.262 182.337C106.792 181.125 110.023 179.384 112.801 176.879C118.717 171.539 124.469 166.033 129.498 159.818C132.239 156.43 134.737 152.91 136.332 148.81C137.265 146.429 138.018 143.981 138.588 141.488C140.021 135.144 141.373 128.778 142.482 122.368C142.762 120.743 143.135 119.152 143.041 117.47C142.859 114.302 142.778 111.125 142.697 107.953C142.668 106.658 142.451 105.373 142.053 104.14C141.561 102.617 141.365 101.065 141.296 99.4657C141.123 95.2638 140.143 91.2734 137.912 87.6509C137.284 86.6299 136.652 85.6139 136.053 84.5757C135.439 83.5142 134.811 82.4576 134.656 81.1451C134.336 81.0356 134.004 80.9089 133.672 80.808C132.033 80.316 130.388 79.8363 128.756 79.332C121.399 77.0511 113.791 75.6764 106.102 75.2383C99.4421 74.845 92.7599 75.1302 86.158 76.0895C80.8725 76.8755 75.6878 78.0822 70.6469 79.8695C68.3114 80.6924 68.2708 80.6629 66.8253 82.706C66.0804 83.7516 65.5088 84.9226 64.8819 86.0518ZM56.4644 102.51C56.6095 102.413 56.9942 102.482 57.1368 102.62C57.5215 103.005 57.8202 103.474 58.1804 103.884C58.3672 104.094 58.3549 104.536 58.795 104.475C58.795 104.475 58.795 104.487 58.795 104.492L58.8196 104.515C58.811 105.225 59.3616 105.654 59.6566 106.209C59.6812 105.484 59.3174 104.965 58.8196 104.515V104.471C58.8073 104.471 58.7987 104.471 58.7913 104.471C58.7053 104.034 58.5639 103.61 58.5393 103.167C58.4828 102.134 58.4914 101.097 58.4582 100.064C58.4508 99.8446 58.4508 99.5124 58.3254 99.4313C57.5719 98.9614 56.9156 98.3008 55.888 98.0905C55.7872 98.5198 55.6286 98.8839 55.6249 99.2492C55.6163 100.152 55.5917 101.072 55.7294 101.955C55.7945 102.377 55.8597 102.798 55.9285 103.216C56.5198 107.016 57.1221 110.813 57.803 114.597C57.926 115.273 58.0489 115.95 58.1878 116.619C58.7053 119.244 59.3457 121.846 60.3216 124.352C60.6326 125.159 61.0899 125.913 61.5078 126.675C61.6 126.845 61.7991 126.958 62.1027 127.238C61.6971 122.125 61.8151 117.174 60.6277 112.354C60.1545 114.322 60.1582 116.256 60.9117 118.157C61.0283 118.491 61.1203 118.833 61.187 119.181C61.2595 119.485 61.2472 119.821 60.919 119.919C60.7174 119.983 60.3647 119.919 60.2356 119.773C59.7697 119.25 59.2879 118.711 58.956 118.1C58.6982 117.622 58.5126 117.108 58.4053 116.576C58.2547 115.771 58.2134 114.949 58.2824 114.133C58.3476 113.165 58.4692 112.201 58.5737 111.236C58.6352 110.701 58.5664 110.215 58.2296 109.77C57.9751 109.438 57.7477 109.081 57.5215 108.728C57.0926 108.064 57.2142 107.801 58.0132 107.651C58.0835 107.623 58.1494 107.584 58.2087 107.537C58.1872 107.356 58.146 107.178 58.0857 107.006C57.6531 106.066 57.2069 105.135 56.7619 104.206C56.596 103.855 56.3612 103.53 56.2592 103.166C56.21 102.968 56.3108 102.607 56.4644 102.51ZM58.0759 86.1736C57.9948 86.8784 57.8485 87.5845 57.8043 88.2893C57.76 89.0876 57.7969 89.8884 57.7969 90.6879C58.634 90.8048 58.9658 90.9635 59.0752 91.4936C59.117 91.7249 59.1347 91.9599 59.1281 92.1948C59.1281 92.6487 59.0752 93.0976 59.0433 93.5478C58.999 94.1272 58.9548 94.7029 58.9093 95.3179C60.0844 95.5639 60.2946 96.4041 60.27 97.3807C60.27 97.6071 60.2417 97.8346 60.2331 98.061C60.1606 99.4472 60.0635 100.837 60.0266 102.226C60.0156 102.701 60.0438 103.224 60.2331 103.644C60.5662 104.39 61.0358 105.075 61.4488 105.792C61.6888 104.118 61.7646 102.424 61.675 100.735C61.5367 98.2463 61.7662 95.7507 62.356 93.3289C62.7001 91.8823 63.1094 90.453 63.5028 89.0237C63.6257 88.5489 63.7327 88.0999 63.4659 87.6214C63.1992 87.1429 63.2877 86.5918 63.5311 86.1256C63.5593 86.074 63.5827 86.0248 63.611 85.9719C64.2145 84.8254 64.85 83.6913 65.4781 82.5609C65.601 82.3259 65.7534 82.107 65.944 81.8032C65.7325 81.8351 65.6318 81.8278 65.5543 81.8684C63.2434 83.0222 60.9399 84.1858 58.6278 85.3408C58.2664 85.5131 58.1202 85.7886 58.0759 86.1736ZM55.0189 96.0928C54.4879 95.4778 53.9212 94.9095 53.4566 94.2687C52.6539 93.1714 51.8685 92.0546 51.1765 90.8946C50.8323 90.3189 50.4389 89.9942 49.8084 89.8047C46.1122 88.6903 42.609 87.1097 39.225 85.2535C37.4071 84.2559 36.275 82.7331 35.7464 80.7847C35.1601 78.6124 35.9775 77.6763 37.1514 76.9395C38.0794 76.3552 38.9497 75.675 39.8359 75.023C43.2777 72.483 47.0636 70.6145 51.0597 69.1396C51.9336 68.8161 52.8088 68.484 53.641 68.1679C53.7258 66.0399 53.7639 63.966 53.9077 61.9031C54.2359 57.2806 54.6821 52.6703 55.6569 48.1264C56.414 44.5973 57.835 41.3475 60.1803 38.5639C61.5852 36.8873 63.2938 35.5293 65.1155 34.3509C67.0662 33.0827 69.0489 31.8588 71.1078 30.7689C77.1726 27.5523 83.4157 24.7318 89.9538 22.6173C92.1319 21.9125 94.3715 21.3983 96.5816 20.7943C96.7045 20.7611 96.8495 20.7783 96.9626 20.7205C99.1321 19.6676 101.388 19.9517 103.6 20.4216C114.644 22.7825 125.342 26.5415 135.436 31.6078C137.318 32.5476 139.153 33.5759 140.829 34.8687C143.35 36.776 145.272 39.3663 146.367 42.3328C147.25 44.7142 147.707 47.194 148.072 49.6935C148.521 52.7404 148.962 55.7836 149.34 58.8341C149.635 61.2451 149.85 63.6646 150.051 66.0915C150.222 68.0892 150.349 70.0921 150.432 72.1004C150.473 73.0968 150.376 74.1017 150.335 75.2285C150.643 75.4388 151.036 75.7143 151.428 75.9862C153.149 77.1572 154.781 78.4463 156.137 80.0208C157.02 81.0467 157.773 82.1845 158.571 83.2829C158.677 83.4456 158.751 83.6273 158.788 83.818C159.219 85.5881 158.328 87.7542 156.672 88.5218C155.509 89.0606 154.231 89.3484 152.992 89.6965C152.218 89.9155 151.421 90.0372 150.558 90.2193C150.681 91.1468 150.804 92.0644 150.902 92.982C151.015 94.153 150.813 94.4581 149.691 94.9145C149.594 95.7214 149.497 96.5517 149.384 97.5283C149.688 97.3623 149.894 97.2602 150.088 97.1433C152.263 95.8149 154.416 96.6009 155.064 99.0721C155.358 100.199 155.483 101.364 155.433 102.527C155.339 104.562 155.101 106.595 154.829 108.614C154.349 112.046 153.601 115.436 152.591 118.751C151.688 121.829 150.473 124.808 148.965 127.639C147.828 129.75 146.188 131.452 144.216 132.816C143.9 133.035 143.528 133.177 143.152 133.372C142.537 136.086 141.923 138.829 141.308 141.572C140.595 144.7 139.71 147.775 138.493 150.75C136.871 154.715 134.478 158.2 131.846 161.547C127.525 167.041 122.602 171.955 117.521 176.724C115.554 178.569 113.574 180.375 111.375 181.931C108.824 183.729 105.998 184.875 102.994 185.633C102.529 185.767 102.044 185.819 101.561 185.787C99.5685 185.581 97.5612 185.46 95.6695 184.69C95.5226 184.624 95.3714 184.569 95.2172 184.524C90.3422 183.287 86.8685 180.095 83.9086 176.262C80.8958 172.364 78.2322 168.228 75.7591 163.962C71.8109 157.142 68.3286 150.096 65.4621 142.752C64.3214 139.83 63.1918 136.893 62.7505 133.756C62.5551 132.38 62.4064 130.994 62.2281 129.543C60.8072 129.098 59.9639 128.105 59.3211 126.906C58.2443 124.887 57.6076 122.708 57.0495 120.51C55.5261 114.484 54.3137 108.384 53.4173 102.233C53.2833 101.206 53.2524 100.167 53.3251 99.1336C53.3915 97.8875 53.8745 96.8051 55.0189 96.0928ZM53.1641 89.2045C54.4805 91.4813 56.537 93.8996 57.5166 94.3289C57.6137 93.5601 57.7108 92.7975 57.8202 91.9266C56.9598 91.8909 56.7312 91.3842 56.6992 90.7519C56.6758 90.3005 56.6894 89.848 56.7398 89.3988C56.8443 88.4222 56.9856 87.4504 57.1405 86.2179C55.679 87.3089 54.4154 88.261 53.1641 89.2008V89.2045ZM56.768 94.5762C56.5385 94.3972 56.3243 94.1992 56.1276 93.9845C54.9538 92.6118 53.7922 91.2304 52.563 89.7801C52.0713 90.1602 52.0713 90.1639 52.3774 90.7076C53.4866 92.6932 54.955 94.4551 56.7078 95.9034C56.889 96.0357 57.0782 96.1565 57.2745 96.2651C57.4847 95.1654 57.4847 95.1654 56.768 94.5725V94.5762ZM152.913 106.679C153.273 104.711 153.561 102.7 153.176 100.691C153.084 100.151 152.914 99.6283 152.67 99.1385C152.221 98.2959 151.852 98.1741 151.014 98.6686C149.785 99.398 148.61 100.216 148.46 101.85C148.414 102.299 148.257 102.733 148.16 103.174C148.006 103.888 147.856 104.605 147.706 105.317C148.018 105.11 148.168 104.825 148.37 104.596C148.984 103.891 149.599 103.174 150.278 102.538C150.56 102.27 151.005 102.145 151.402 102.046C151.51 102.038 151.617 102.057 151.715 102.101C151.813 102.146 151.899 102.214 151.964 102.3C152.037 102.445 151.964 102.745 151.841 102.895C151.647 103.15 151.372 103.34 151.137 103.559C149.882 104.73 149.019 106.133 148.517 107.968C148.751 107.772 148.998 107.593 149.255 107.429C149.527 107.262 149.821 107.134 150.129 107.048C150.478 106.963 150.842 106.999 151.08 107.352C151.326 107.728 151.133 108.024 150.914 108.32C150.344 109.102 149.808 109.913 149.193 110.665C148.869 111.063 148.817 111.428 148.909 111.91C149.351 114.166 149.23 116.362 148.06 118.405C147.504 119.364 147.035 120.341 146.943 121.48C146.902 121.972 146.65 122.425 146.128 122.587C145.636 122.745 145.367 122.365 145.084 122.056C145.047 122.02 144.961 122.031 144.838 122.012C144.475 124.499 144.109 126.985 143.741 129.471C143.822 129.515 143.899 129.556 143.975 129.594C144.357 129.258 144.761 128.945 145.105 128.578C146.418 127.159 147.389 125.522 148.118 123.74C150.366 118.238 151.852 112.509 152.913 106.675V106.679ZM149.471 93.2194C149.533 91.4444 148.552 89.8982 148.804 88.1872C144.856 85.6471 140.669 83.5966 136.281 81.8794C136.509 82.4453 136.791 82.9879 137.123 83.4994C137.705 84.3949 138.289 85.2904 138.909 86.1613C141.459 89.7469 142.665 93.7988 143.043 98.1262C143.232 100.318 143.411 102.498 143.989 104.646C144.329 105.919 144.435 107.256 144.617 108.568C144.69 109.107 144.69 109.654 144.727 110.197C144.803 110.225 144.88 110.25 144.953 110.278C145.037 109.937 145.143 109.601 145.208 109.257C146.123 104.46 147.037 99.6625 147.949 94.8652C148.115 93.9808 148.354 93.1973 149.471 93.2157V93.2194ZM148.455 74.0304C148.477 73.8961 148.489 73.7605 148.492 73.6245C148.297 71.3353 148.115 69.0425 147.893 66.757C147.702 64.8246 147.496 62.8921 147.245 60.9634C146.843 57.8808 146.385 54.813 145.978 51.7256C145.6 48.862 145.066 46.0414 144.082 43.3144C143.253 41.0092 141.973 39.0325 140.123 37.4162C138.302 35.8233 136.236 34.6166 134.078 33.5747C128.394 30.8366 122.515 28.5585 116.612 26.3468C111.834 24.5455 106.911 23.1578 101.895 22.1991C99.7455 21.7895 97.5993 21.6 95.5429 22.6407C95.3155 22.7538 95.0512 22.7944 94.8054 22.8867C90.4245 24.4624 86.0609 26.0713 81.8743 28.1255C79.0607 29.5044 76.2298 30.8612 73.4187 32.2475C70.7987 33.5222 68.2869 35.0085 65.9083 36.6917C63.5643 38.3572 61.5644 40.3302 60.184 42.9232C58.3992 46.2825 57.6297 49.8989 57.1933 53.6113C56.8332 56.6987 56.5579 59.7936 56.2739 62.8897C56.151 64.3362 56.092 65.7865 55.9986 67.2933C56.2472 67.2565 56.4935 67.2052 56.7361 67.1395C62.7591 65.2268 68.8744 63.7569 75.158 63.0803C78.4694 62.7236 81.7858 62.3755 85.1058 62.1762C89.794 61.897 94.4858 61.9376 99.1788 62.1073C103.839 62.2771 108.483 62.5994 113.106 63.1652C118.496 63.8156 123.834 64.8495 129.078 66.2588C135.649 68.0375 142.033 70.2947 147.932 73.7622C148.066 73.8446 148.212 73.9098 148.455 74.0316V74.0304ZM147.225 115.502C147.626 114.712 147.829 113.873 147.565 112.978C147.266 111.961 146.994 110.936 146.682 109.822C146.068 111.823 145.33 117.387 145.537 118.602C146.123 117.529 146.702 116.533 147.221 115.503L147.225 115.502Z" fill="black"/>
</g>
<defs>
<linearGradient id="paint0_linear_150_1613" x1="30.5" y1="61.5" x2="154.5" y2="237" gradientUnits="userSpaceOnUse">
<stop stop-color="#673DDD" stop-opacity="0.23"/>
<stop offset="1" stop-color="#673DDD" stop-opacity="0.61"/>
</linearGradient>
</defs>
</svg>
