<svg width="208" height="244" viewBox="0 0 208 244" fill="none" xmlns="http://www.w3.org/2000/svg">
<mask id="mask0_150_1542" style="mask-type:alpha" maskUnits="userSpaceOnUse" x="4" y="0" width="200" height="237">
<path fill-rule="evenodd" clip-rule="evenodd" d="M204 0H4V137V141H4.07854C6.17815 194.374 50.1112 237 104 237C157.889 237 201.822 194.374 203.921 141H204V137V0Z" fill="#C4C4C4"/>
</mask>
<g mask="url(#mask0_150_1542)">
<circle cx="104" cy="137" r="100" fill="url(#paint0_linear_150_1542)"/>
<path d="M169.618 173.938C170.14 175.384 169.741 176.391 168.64 177.393C167.568 178.369 166.349 179.172 165.082 179.866C162.6 181.226 159.905 182.123 157.193 182.895C157.219 182.858 157.249 182.821 157.274 182.783C158.507 180.97 158.214 178.742 157.223 176.9C156.215 175.018 154.597 173.403 152.927 172.099C151.746 171.175 150.337 170.121 148.837 169.617C148.224 166.844 147.504 164.099 146.678 161.381C146.608 161.152 146.537 160.923 146.467 160.693C146.895 160.854 147.323 161.014 147.76 161.151C148.644 161.426 149.557 161.619 150.445 161.879C152.271 162.421 154.081 163.036 155.865 163.703C158.84 164.812 161.791 166.128 164.408 167.949C166.502 169.403 168.73 171.476 169.618 173.938Z" fill="#871814"/>
<path d="M64.4909 160.686C64.4203 160.917 64.3491 161.146 64.2797 161.374C63.4527 164.091 62.733 166.836 62.1204 169.61C60.6201 170.114 59.2105 171.168 58.0306 172.092C56.3604 173.397 54.7452 175.011 53.7345 176.894C52.744 178.738 52.4532 180.966 53.6835 182.777C53.7099 182.815 53.7395 182.852 53.7653 182.889C51.0531 182.116 48.3577 181.22 45.8758 179.86C44.6085 179.166 43.3894 178.362 42.3181 177.387C41.2167 176.384 40.8178 175.378 41.3399 173.931C42.2285 171.471 44.4555 169.399 46.5503 167.942C49.1667 166.121 52.1182 164.804 55.0931 163.695C56.877 163.029 58.6866 162.414 60.5114 161.871C61.4005 161.608 62.3137 161.415 63.2006 161.143C63.6348 161.008 64.0629 160.847 64.4909 160.686Z" fill="#871814"/>
<path d="M178.696 172.69C180.068 175.752 180.068 179.227 178.354 182.15C176.738 184.903 174.025 186.832 171.228 188.257C167.723 190.04 163.824 191.054 159.993 191.857C155.787 192.739 151.519 193.279 147.251 193.755C142.715 194.263 138.168 194.662 133.609 194.953C126.227 195.427 118.824 195.596 111.427 195.514C112.727 195.252 114.024 194.971 115.311 194.729C118.147 194.202 120.984 193.68 123.816 193.131C128.752 192.174 133.688 191.202 138.579 190.033C140.372 189.603 142.174 189.159 143.965 188.68C146.872 188.095 149.77 187.457 152.649 186.741C158.806 185.209 165.601 183.568 170.402 179.15C175.836 174.144 168.497 167.403 164.143 164.799C161.453 163.19 158.502 162.019 155.544 161.009C153.831 160.433 152.089 159.945 150.326 159.548C149.478 159.351 148.623 159.136 147.754 159.065C147.144 159.014 146.531 158.987 145.918 158.953C145.668 158.181 145.409 157.409 145.141 156.636C149.56 158.086 154.187 158.884 158.653 160.202C162.925 161.463 167.303 162.713 171.199 164.928C174.399 166.75 177.169 169.284 178.696 172.69Z" fill="#BE1818"/>
<path d="M99.5282 195.514C92.1328 195.594 84.729 195.426 77.3465 194.954C72.7898 194.661 68.242 194.262 63.7031 193.756C59.4362 193.28 55.1682 192.739 50.9629 191.858C47.1319 191.055 43.2314 190.041 39.7275 188.257C36.9301 186.834 34.2179 184.905 32.6016 182.15C30.8878 179.228 30.8861 175.752 32.2582 172.691C33.7854 169.285 36.5565 166.752 39.7583 164.931C43.6527 162.716 48.0328 161.466 52.3042 160.205C56.7705 158.887 61.3977 158.089 65.8159 156.64C65.5469 157.411 65.2892 158.184 65.0371 158.957C64.4253 158.991 63.813 159.018 63.2028 159.069C62.3339 159.14 61.4795 159.355 60.6296 159.551C58.8666 159.949 57.1251 160.437 55.4119 161.013C52.4554 162.021 49.5023 163.194 46.8148 164.802C42.4627 167.406 35.1188 174.147 40.5556 179.153C45.3558 183.571 52.1495 185.213 58.3084 186.744C61.1859 187.46 64.0791 188.098 66.9924 188.684C68.7852 189.163 70.5837 189.606 72.3782 190.036C77.2692 191.206 82.2056 192.178 87.1415 193.135C89.973 193.683 92.8102 194.205 95.6462 194.733C96.932 194.971 98.2284 195.253 99.5282 195.514Z" fill="#BE1818"/>
<path d="M212.228 211.844C214.861 221.302 216.362 231.07 217.875 240.763C215.02 240.667 212.163 240.624 209.303 240.609C205.839 240.537 202.374 240.503 198.907 240.506C198.848 239.816 198.762 239.125 198.709 238.452C198.662 237.841 198.608 237.23 198.551 236.62C199.237 236.302 199.888 235.688 200.352 235.276C201.181 234.54 202.008 233.631 202.385 232.574C202.741 231.574 201.45 231.113 200.787 231.643C200.05 232.231 199.472 232.988 198.701 233.548C198.561 233.648 198.415 233.739 198.265 233.823C198.173 233.017 198.071 232.21 197.959 231.403C197.808 230.298 197.805 228.957 197.226 227.979C196.879 227.39 196.119 227.598 195.89 228.153C195.457 229.2 195.652 230.601 195.653 231.716C195.653 232.892 195.68 234.062 195.723 235.237C195.766 236.413 195.822 237.585 195.891 238.758C195.925 239.336 195.943 239.922 195.973 240.507C188.956 240.523 181.939 240.613 174.934 240.619C168.583 240.626 162.231 240.643 155.881 240.67C139.079 240.686 122.277 240.703 105.475 240.723C88.6727 240.709 71.8708 240.692 55.0691 240.67C48.7169 240.647 42.3656 240.63 36.0153 240.619C29.0121 240.615 21.9932 240.525 14.9754 240.507C15.0062 239.922 15.0247 239.336 15.0589 238.758C15.13 237.585 15.1844 236.412 15.227 235.237C15.2695 234.063 15.2948 232.892 15.2964 231.716C15.2964 230.601 15.4925 229.2 15.06 228.153C14.8309 227.598 14.0706 227.39 13.7232 227.979C13.1507 228.955 13.1478 230.299 12.996 231.403C12.884 232.209 12.7814 233.016 12.6884 233.823C12.539 233.739 12.3941 233.647 12.2542 233.548C11.4816 232.987 10.9035 232.233 10.1678 231.643C9.50338 231.113 8.2131 231.573 8.56999 232.573C8.94704 233.631 9.77398 234.539 10.6037 235.275C11.0659 235.686 11.7181 236.3 12.4044 236.62C12.3484 237.23 12.2923 237.84 12.2464 238.451C12.1937 239.123 12.1075 239.815 12.0486 240.505C8.5825 240.508 5.11713 240.542 1.6525 240.608C-1.20481 240.624 -4.06212 240.667 -6.91943 240.763C-5.40674 231.07 -3.90413 221.301 -1.27092 211.843C-0.0450811 207.441 1.69844 203.24 5.07006 200.041C8.50276 196.786 12.8016 194.449 16.7492 191.89C19.1923 190.306 21.6387 188.73 24.0885 187.163C26.0993 185.874 28.1454 184.608 30.1063 183.238C33.0302 188.585 39.5399 191.524 45.1469 193.19C49.4447 194.466 53.8724 195.239 58.3074 195.843C63.0199 196.486 67.7464 197.004 72.4869 197.396C83.1043 198.296 127.848 198.296 138.465 197.396C143.203 196.996 147.93 196.479 152.647 195.844C157.082 195.24 161.509 194.467 165.806 193.19C171.413 191.524 177.924 188.585 180.846 183.238C182.807 184.608 184.855 185.871 186.866 187.163C189.317 188.735 191.764 190.311 194.208 191.891C198.155 194.45 202.453 196.787 205.885 200.041C209.257 203.239 211.002 207.441 212.228 211.844Z" fill="#BE1818"/>
<path d="M155.925 179.56C156.143 181.309 154.827 182.438 153.411 183.162C151.579 184.102 149.482 184.627 147.516 185.212C147.147 185.321 146.777 185.429 146.407 185.533C139.916 186.909 133.363 187.966 126.811 188.995C119.89 190.083 112.969 191.168 106.049 192.249C105.669 192.284 105.286 192.284 104.905 192.249C97.9849 191.166 91.0644 190.081 84.1438 188.995C77.5916 187.966 71.0388 186.909 64.5477 185.533C64.1768 185.428 63.8064 185.321 63.4367 185.212C61.4724 184.627 59.3754 184.102 57.5422 183.162C56.127 182.438 54.8098 181.309 55.0295 179.56C55.2939 177.45 57.099 175.624 58.5748 174.242C59.3744 173.493 60.2404 172.818 61.162 172.225C61.315 172.126 61.4724 172.032 61.6287 171.938C61.2455 173.87 60.9116 175.811 60.627 177.761C60.5205 178.5 60.8096 179.248 61.5945 179.464C62.2433 179.641 63.1896 179.24 63.296 178.496C64.6188 169.229 67.0173 159.923 70.7962 151.339C72.477 147.522 74.6239 143.748 77.9748 141.153C81.4999 138.424 85.9724 136.954 90.2113 135.77C92.8289 135.034 95.4882 134.455 98.1748 134.036C100.569 133.668 103.124 133.617 105.477 132.998C107.83 133.617 110.386 133.67 112.78 134.036C115.466 134.455 118.124 135.034 120.741 135.77C124.981 136.954 129.455 138.424 132.979 141.153C136.331 143.748 138.479 147.522 140.158 151.339C143.937 159.923 146.336 169.229 147.658 178.496C147.765 179.241 148.711 179.641 149.36 179.464C150.144 179.248 150.434 178.5 150.327 177.761C150.044 175.812 149.71 173.871 149.325 171.938C149.482 172.032 149.638 172.126 149.792 172.225C150.714 172.818 151.58 173.493 152.38 174.242C153.855 175.624 155.661 177.45 155.925 179.56Z" fill="#DFBBA8"/>
<path d="M221.131 242.052C221.332 242.596 221.091 243.284 220.403 243.474C220.293 243.538 220.175 243.588 220.052 243.623C219.818 243.781 219.542 243.864 219.259 243.863C202.545 244.127 185.812 243.928 169.097 243.925C147.891 243.919 126.684 243.914 105.476 243.909C84.2698 243.914 63.0627 243.92 41.8552 243.925C25.1382 243.928 8.40782 244.127 -8.30688 243.863C-8.58917 243.864 -8.86532 243.781 -9.09965 243.623C-9.22232 243.588 -9.34013 243.538 -9.45037 243.474C-10.1367 243.287 -10.3776 242.596 -10.1787 242.052C-10.1772 241.95 -10.1684 241.849 -10.1524 241.749C-9.18537 235.715 -8.21948 229.683 -7.0435 223.688C-6.05297 218.646 -5.03106 213.524 -3.40184 208.64C-1.8516 203.993 0.550218 199.9 4.36893 196.763C6.19256 195.263 8.15851 193.961 10.1396 192.687C12.4025 191.231 14.6631 189.779 16.9473 188.359C20.9329 185.881 24.9685 183.277 29.2583 181.325C29.1065 180.884 28.9785 180.436 28.8751 179.981C28.0112 176.171 29.0992 172.178 31.2691 168.991C33.5454 165.65 36.865 163.258 40.4921 161.555C44.3976 159.721 48.5889 158.473 52.7555 157.385C57.1429 156.24 61.7196 155.069 66.2812 155.334C67.1911 152.834 68.2113 150.373 69.3935 148.007C71.4009 143.988 74.1288 140.388 77.9536 137.948C81.9611 135.392 86.7609 133.885 91.3544 132.786C93.7781 132.205 96.233 131.764 98.7072 131.463C100.903 131.199 103.279 130.915 105.478 131.341C107.677 130.915 110.052 131.199 112.247 131.463C114.722 131.763 117.177 132.205 119.601 132.786C124.196 133.885 128.994 135.392 133.002 137.948C136.827 140.388 139.557 143.988 141.562 148.007C142.745 150.373 143.765 152.834 144.675 155.334C149.236 155.069 153.813 156.24 158.2 157.385C162.367 158.472 166.558 159.721 170.464 161.555C174.089 163.258 177.411 165.65 179.687 168.991C181.857 172.178 182.945 176.169 182.081 179.981C181.977 180.436 181.849 180.884 181.698 181.325C185.987 183.277 190.023 185.881 194.009 188.359C196.293 189.779 198.553 191.233 200.816 192.687C202.799 193.963 204.766 195.265 206.59 196.763C210.407 199.9 212.809 203.994 214.359 208.64C215.987 213.524 217.009 218.644 218 223.688C219.177 229.683 220.141 235.718 221.105 241.751C221.121 241.851 221.13 241.951 221.131 242.052ZM217.875 240.763C216.362 231.071 214.861 221.302 212.228 211.844C211.002 207.441 209.259 203.24 205.885 200.041C202.453 196.787 198.154 194.45 194.208 191.891C191.765 190.307 189.317 188.731 186.866 187.163C184.855 185.875 182.809 184.609 180.846 183.238C177.924 188.585 171.413 191.524 165.806 193.19C161.51 194.467 157.082 195.24 152.647 195.844C147.935 196.487 143.208 197.005 138.468 197.397C127.85 198.297 83.1069 198.297 72.4894 197.397C67.753 196.996 63.0265 196.478 58.3099 195.843C53.8749 195.239 49.4472 194.466 45.1495 193.19C39.5424 191.524 33.0328 188.585 30.1088 183.238C28.1479 184.608 26.1018 185.871 24.0911 187.163C21.6402 188.734 19.1937 190.31 16.7517 191.89C12.8042 194.449 8.5053 196.786 5.07261 200.041C1.70211 203.24 -0.0425339 207.441 -1.26838 211.843C-3.90158 221.301 -5.40251 231.07 -6.91689 240.763C-4.05958 240.667 -1.20227 240.624 1.65504 240.608C5.11855 240.537 8.58393 240.502 12.0512 240.505C12.1072 239.815 12.1963 239.125 12.2489 238.451C12.2954 237.84 12.3498 237.23 12.4069 236.62C11.7206 236.301 11.0685 235.687 10.6063 235.275C9.77653 234.539 8.94959 233.631 8.57254 232.574C8.21565 231.574 9.50592 231.113 10.1704 231.643C10.906 232.231 11.4842 232.988 12.2568 233.548C12.3966 233.647 12.5416 233.739 12.691 233.823C12.7851 233.016 12.8876 232.209 12.9986 231.403C13.1498 230.298 13.1532 228.957 13.7314 227.978C14.0787 227.39 14.839 227.598 15.0682 228.153C15.5007 229.199 15.3057 230.601 15.3046 231.715C15.3046 232.892 15.2783 234.061 15.2351 235.237C15.192 236.413 15.1359 237.584 15.067 238.758C15.0329 239.335 15.0144 239.921 14.9836 240.507C22.0013 240.522 29.0191 240.612 36.0234 240.619C42.373 240.625 48.7243 240.642 55.0772 240.67C71.879 240.685 88.6809 240.703 105.483 240.722C122.285 240.709 139.087 240.691 155.889 240.67C162.241 240.647 168.592 240.63 174.943 240.619C181.946 240.614 188.965 240.525 195.981 240.507C195.952 239.921 195.933 239.335 195.899 238.758C195.828 237.584 195.772 236.411 195.731 235.237C195.688 234.06 195.663 232.891 195.661 231.715C195.661 230.601 195.465 229.199 195.898 228.153C196.127 227.598 196.887 227.39 197.235 227.978C197.813 228.957 197.816 230.298 197.967 231.403C198.079 232.209 198.181 233.016 198.273 233.823C198.422 233.739 198.566 233.647 198.705 233.548C199.476 232.988 200.054 232.233 200.792 231.644C201.454 231.114 202.745 231.574 202.389 232.574C202.012 233.631 201.185 234.54 200.356 235.276C199.892 235.686 199.241 236.3 198.555 236.62C198.611 237.23 198.667 237.841 198.713 238.452C198.766 239.124 198.852 239.816 198.911 240.506C202.377 240.509 205.842 240.543 209.307 240.609C212.163 240.624 215.02 240.667 217.875 240.763V240.763ZM178.355 182.15C180.069 179.227 180.069 175.751 178.697 172.69C177.17 169.284 174.4 166.751 171.198 164.93C167.302 162.715 162.924 161.466 158.652 160.204C154.186 158.886 149.559 158.088 145.141 156.639C145.41 157.41 145.669 158.182 145.918 158.956C146.53 158.99 147.144 159.017 147.754 159.068C148.623 159.139 149.477 159.354 150.325 159.55C152.088 159.948 153.83 160.436 155.543 161.012C158.501 162.02 161.454 163.193 164.142 164.801C168.494 167.405 175.838 174.146 170.401 179.152C165.601 183.57 158.804 185.212 152.648 186.743C149.771 187.459 146.873 188.097 143.964 188.683C142.171 189.162 140.373 189.605 138.578 190.035C133.687 191.205 128.751 192.177 123.815 193.134C120.984 193.682 118.146 194.205 115.31 194.732C114.022 194.971 112.727 195.253 111.427 195.516C118.822 195.596 126.226 195.428 133.608 194.956C138.165 194.663 142.712 194.264 147.25 193.758C151.519 193.282 155.787 192.741 159.992 191.86C163.823 191.056 167.724 190.043 171.227 188.259C174.026 186.832 176.739 184.903 178.355 182.15ZM168.641 177.391C169.742 176.388 170.141 175.382 169.619 173.935C168.729 171.475 166.503 169.403 164.409 167.945C161.792 166.125 158.841 164.808 155.866 163.699C154.082 163.033 152.272 162.417 150.446 161.875C149.558 161.612 148.645 161.419 147.761 161.147C147.324 161.011 146.896 160.85 146.468 160.689C146.539 160.92 146.609 161.149 146.679 161.377C147.506 164.094 148.226 166.839 148.838 169.613C150.339 170.117 151.748 171.171 152.928 172.095C154.598 173.4 156.214 175.014 157.224 176.897C158.215 178.74 158.506 180.969 157.275 182.779C157.249 182.818 157.219 182.855 157.194 182.891C159.906 182.119 162.601 181.222 165.083 179.863C166.35 179.17 167.57 178.366 168.641 177.391ZM153.412 183.161C154.829 182.437 156.144 181.309 155.926 179.559C155.662 177.45 153.857 175.623 152.381 174.242C151.581 173.493 150.715 172.818 149.794 172.225C149.64 172.126 149.483 172.031 149.326 171.937C149.71 173.869 150.044 175.81 150.329 177.76C150.435 178.499 150.145 179.247 149.361 179.463C148.712 179.641 147.766 179.239 147.66 178.496C146.337 169.228 143.938 159.923 140.16 151.338C138.479 147.521 136.332 143.747 132.98 141.152C129.456 138.423 124.982 136.953 120.743 135.77C118.126 135.033 115.467 134.454 112.781 134.036C110.387 133.667 107.832 133.616 105.478 132.997C103.125 133.616 100.57 133.669 98.1761 134.036C95.4894 134.454 92.8302 135.034 90.2126 135.77C85.9737 136.953 81.5012 138.423 77.976 141.152C74.6251 143.747 72.4771 147.521 70.7975 151.338C67.0185 159.923 64.6201 169.228 63.2973 178.496C63.1909 179.241 62.2446 179.641 61.5958 179.463C60.8114 179.247 60.5218 178.499 60.6282 177.76C60.9114 175.811 61.2453 173.871 61.63 171.937C61.4737 172.031 61.3162 172.126 61.1633 172.225C60.2416 172.817 59.3756 173.492 58.576 174.242C57.1003 175.623 55.2952 177.45 55.0307 179.559C54.8111 181.309 56.1283 182.437 57.5435 183.161C59.3766 184.101 61.4737 184.626 63.4379 185.211C63.8073 185.321 64.1777 185.428 64.5489 185.532C71.0401 186.908 77.5928 187.965 84.145 188.994C91.0661 190.082 97.9866 191.167 104.906 192.249C105.287 192.283 105.67 192.283 106.051 192.249C112.971 191.166 119.891 190.081 126.812 188.994C133.364 187.965 139.917 186.908 146.408 185.532C146.779 185.427 147.149 185.32 147.517 185.211C149.483 184.626 151.58 184.101 153.412 183.161ZM77.3469 194.952C84.7294 195.426 92.132 195.595 99.5286 195.512C98.2288 195.251 96.9323 194.969 95.6449 194.728C92.8088 194.201 89.9717 193.678 87.1402 193.13C82.2043 192.173 77.2679 191.201 72.3768 190.031C70.584 189.602 68.7822 189.158 66.9911 188.679C64.0822 188.093 61.1863 187.455 58.3071 186.739C52.1482 185.208 45.3545 183.566 40.5542 179.148C35.1198 174.142 42.4591 167.401 46.8134 164.797C49.5027 163.189 52.4541 162.017 55.4106 161.008C57.1238 160.432 58.8653 159.944 60.6282 159.546C61.4781 159.35 62.3325 159.135 63.2015 159.064C63.8116 159.013 64.424 158.985 65.0358 158.952C65.2879 158.179 65.5456 157.406 65.8145 156.635C61.3964 158.084 56.7692 158.882 52.3028 160.201C48.0314 161.462 43.6513 162.712 39.757 164.926C36.5551 166.745 33.7841 169.28 32.2568 172.686C30.8848 175.748 30.8864 179.223 32.6003 182.146C34.2166 184.899 36.9288 186.828 39.7262 188.252C43.2311 190.036 47.1305 191.05 50.9616 191.853C55.1669 192.734 59.4349 193.275 63.7018 193.751C68.2403 194.26 72.7886 194.661 77.3469 194.952ZM64.2789 161.374C64.3484 161.146 64.4195 160.917 64.4901 160.686C64.0621 160.847 63.634 161.008 63.197 161.144C62.3129 161.419 61.3997 161.612 60.5078 161.872C58.683 162.415 56.8734 163.03 55.0895 163.696C52.1146 164.805 49.1631 166.122 46.5467 167.943C44.4508 169.399 42.2238 171.472 41.3364 173.932C40.8142 175.379 41.2131 176.385 42.3146 177.388C43.3858 178.363 44.6049 179.167 45.8722 179.861C48.3541 181.221 51.0495 182.117 53.7617 182.89C53.7354 182.853 53.7057 182.816 53.6799 182.778C52.4474 180.965 52.7404 178.737 53.7309 176.895C54.7394 175.013 56.3568 173.398 58.027 172.093C59.208 171.169 60.6176 170.115 62.1168 169.611C62.7324 166.839 63.4531 164.093 64.2789 161.374Z" fill="black"/>
<path d="M83.6585 164.374C83.4036 163.981 82.8428 164.154 82.8086 164.604C82.7436 165.44 82.8568 166.285 83.0854 167.112C82.5134 166.681 81.9542 166.234 81.4007 165.78C82.5817 164.85 82.863 163.754 83.2294 162.381C83.2306 162.374 83.2292 162.367 83.2253 162.361C83.2214 162.355 83.2153 162.35 83.2083 162.348C83.2013 162.346 83.1938 162.347 83.1873 162.35C83.1809 162.354 83.1759 162.359 83.1734 162.366C82.719 163.581 81.5217 164.258 80.5429 165.063C80.381 164.925 80.2202 164.789 80.0611 164.649C80.6778 164.172 81.1558 163.539 81.4455 162.816C81.6018 162.367 81.5727 161.908 81.6932 161.457C81.6952 161.445 81.6925 161.432 81.6856 161.421C81.6786 161.41 81.6679 161.403 81.6555 161.399C81.6432 161.396 81.63 161.397 81.6186 161.403C81.6072 161.409 81.5985 161.419 81.594 161.431C81.1508 162.44 80.1289 163.261 79.3081 163.976C78.8121 163.525 78.3234 163.065 77.842 162.596C78.7322 162.247 79.2897 161.399 79.7614 160.604C79.865 160.436 79.6393 160.284 79.5003 160.402C78.7966 161 77.9876 161.439 77.3904 162.15C77.015 161.774 76.6441 161.395 76.2794 161.009C77.1327 160.357 77.638 159.302 77.9406 158.288C77.9452 158.269 77.9437 158.25 77.9364 158.232C77.929 158.215 77.9162 158.2 77.8998 158.191C77.8835 158.181 77.8644 158.177 77.8456 158.179C77.8268 158.182 77.8092 158.19 77.7955 158.203C77.1047 158.92 76.2547 159.506 75.5421 160.21C75.1421 159.771 74.7486 159.326 74.3616 158.874C75.0227 158.729 75.6052 158.341 75.9937 157.787C76.1477 157.56 76.1679 157.258 76.3298 157.05C76.3808 156.982 76.2738 156.909 76.2178 156.961C76.0743 157.091 75.7993 157.121 75.62 157.195C74.9846 157.475 74.351 157.776 73.7913 158.189C73.4299 157.751 73.073 157.311 72.7268 156.863C73.2353 156.448 73.6966 155.978 74.1022 155.462C74.2384 155.287 74.0742 155.055 73.8658 155.155C73.2767 155.434 72.7206 155.778 72.2074 156.18C65.5113 147.347 61.5009 136.558 60.6662 125.509C60.5009 123.333 60.4684 121.147 60.2594 118.977C60.2286 118.648 59.7389 118.529 59.6476 118.896C58.9411 121.722 58.8767 124.784 59.093 127.751C58.9503 127.738 58.8065 127.757 58.6722 127.807C57.8161 128.124 57.1085 128.357 56.3387 127.668C54.4938 125.786 56.0082 123.061 56.6749 120.997C56.7445 120.873 56.783 120.735 56.7869 120.593C57.3864 118.442 56.5505 115.707 54.3605 114.805C52.9094 114.212 51.2001 114.499 50.3266 115.873C50.1457 116.158 50.5306 116.385 50.7591 116.209C52.8517 114.611 55.7342 116.539 55.416 119.021C53.6383 118.426 52.0421 119.353 51.0718 120.818C50.7222 121.26 51.144 121.826 51.6696 121.59C52.5828 121.23 53.8826 120.414 54.8176 121.014C53.4842 123.426 52.6248 126.593 54.5644 128.938C55.6429 130.245 57.8004 130.911 59.3042 129.996C59.5159 131.815 59.814 133.625 60.1961 135.414C57.5859 136.385 54.8115 135.907 52.6248 134.155C47.7321 130.132 47.4351 122.497 47.6654 116.624C47.8738 113.803 48.8739 110.701 51.3172 109.026C53.0624 107.773 55.4916 107.603 57.3337 108.746C58.6705 109.897 59.5933 111.357 59.7199 113.309C59.7955 114.468 61.6192 114.472 61.5312 113.309C60.5227 103.398 69.2067 99.2105 70.4113 90.4184C70.6942 87.9382 70.3183 85.4395 70.5233 82.9525C71.5262 74.0013 76.3573 64.9543 84.4569 60.5855C86.4906 59.4947 88.6728 58.9014 90.8349 58.1545C97.1355 61.7032 103.175 66.234 110.602 66.9634C116.625 67.6144 122.997 65.8788 127.728 62.0662C132.418 67.1354 142.491 66.3242 144.608 73.9352C144.832 74.9538 144.82 76.0081 145.001 77.0351C145.182 78.0805 145.628 79.0623 146.294 79.8879C147.439 81.3345 149.011 82.3793 149.82 84.0836C150.598 85.719 150.694 87.6412 150.44 89.4128C150.037 92.7043 147.737 95.5061 147.873 98.8811C147.943 100.235 148.346 101.536 148.64 102.852C148.936 104.175 149.154 105.515 149.294 106.864C149.431 108.215 149.394 109.588 149.544 110.933C149.61 111.518 149.995 112.009 150.629 112.016C151.181 112.022 151.757 111.515 151.712 110.933C151.674 109.902 152.528 109.028 153.337 108.517C153.807 108.237 154.371 108.112 154.898 108.021C156.308 107.811 157.719 108.227 158.881 109.024C163.908 112.736 162.808 121.03 161.85 126.444C160.887 132.071 156.147 137.662 150.003 135.412C150.385 133.622 150.684 131.813 150.894 129.994C152.398 130.909 154.556 130.242 155.636 128.935C157.574 126.589 156.716 123.426 155.381 121.012C156.318 120.41 157.614 121.228 158.531 121.588C159.055 121.825 159.476 121.258 159.127 120.816C158.156 119.35 156.559 118.423 154.783 119.018C154.464 116.535 157.348 114.609 159.441 116.207C159.668 116.385 160.053 116.158 159.872 115.871C159 114.497 157.291 114.21 155.838 114.803C153.649 115.704 152.813 118.44 153.412 120.591C153.415 120.733 153.454 120.871 153.524 120.994C154.191 123.055 155.709 125.785 153.86 127.666C153.09 128.355 152.382 128.122 151.527 127.805C151.393 127.755 151.249 127.736 151.106 127.749C151.324 124.779 151.257 121.72 150.551 118.893C150.46 118.529 149.972 118.646 149.939 118.975C149.73 121.145 149.698 123.331 149.532 125.507C148.703 136.516 144.719 147.267 138.066 156.081C137.589 155.72 137.076 155.409 136.536 155.152C136.327 155.053 136.163 155.285 136.299 155.46C136.671 155.935 137.091 156.369 137.552 156.756C137.203 157.208 136.848 157.654 136.488 158.093C135.946 157.745 135.375 157.443 134.782 157.192C134.603 157.118 134.326 157.089 134.184 156.959C134.125 156.907 134.016 156.979 134.072 157.047C134.232 157.256 134.251 157.557 134.408 157.784C134.765 158.288 135.281 158.657 135.873 158.832C135.507 159.262 135.133 159.687 134.753 160.106C134.062 159.444 133.261 158.881 132.603 158.201C132.589 158.188 132.572 158.179 132.553 158.177C132.534 158.175 132.515 158.179 132.499 158.188C132.482 158.198 132.47 158.213 132.462 158.23C132.455 158.248 132.453 158.267 132.458 158.285C132.748 159.255 133.223 160.261 134.008 160.916C133.649 161.297 133.283 161.671 132.914 162.042C132.324 161.395 131.569 160.967 130.9 160.4C130.761 160.282 130.535 160.432 130.637 160.602C131.085 161.347 131.606 162.166 132.421 162.531C131.951 162.991 131.473 163.444 130.985 163.889C130.207 163.197 129.223 162.396 128.805 161.429C128.801 161.416 128.793 161.405 128.781 161.398C128.769 161.392 128.756 161.39 128.743 161.393C128.73 161.397 128.719 161.405 128.712 161.417C128.705 161.429 128.704 161.442 128.707 161.455C128.828 161.906 128.798 162.367 128.954 162.813C129.228 163.495 129.668 164.097 130.234 164.565C130.075 164.704 129.914 164.84 129.755 164.976C128.797 164.208 127.666 163.535 127.226 162.364C127.214 162.328 127.159 162.342 127.17 162.379C127.521 163.69 127.793 164.783 128.9 165.696C128.314 166.178 127.719 166.652 127.113 167.11C127.342 166.281 127.455 165.438 127.39 164.602C127.386 164.497 127.347 164.398 127.28 164.318C127.212 164.239 127.12 164.185 127.017 164.165C126.915 164.144 126.809 164.159 126.716 164.206C126.623 164.254 126.549 164.331 126.506 164.426C126.194 163.415 125.525 162.553 124.623 161.999C124.387 161.857 124.179 162.172 124.343 162.362C125.24 163.401 125.535 164.538 125.68 165.798C125.618 165.91 125.555 166.019 125.493 166.128C125.278 164.368 124.36 162.781 122.652 162.167C122.152 161.965 121.884 162.741 122.3 163.002C124.182 164.183 123.816 166.535 124.179 168.412C124.087 168.561 123.991 168.709 123.895 168.855C123.727 166.699 123.055 164.586 121.501 163.065C121.109 162.69 120.513 163.166 120.763 163.636C121.364 164.771 121.931 165.912 122.206 167.177C122.444 168.265 122.206 169.522 122.58 170.566C122.263 170.929 121.938 171.282 121.605 171.626C122.093 168.652 121.121 165.444 119.257 163.177C119.056 162.945 118.738 163.2 118.786 163.452C119.449 166.382 120.918 168.765 120.027 171.899C120.022 169.366 119.271 167.037 118.044 164.857C117.733 164.288 116.894 164.79 117.18 165.361C118.58 168.189 118.656 171.444 118.192 174.493C117.643 174.864 117.074 175.205 116.489 175.516C117.9 172.203 117.105 168.81 115.806 165.68C115.635 165.283 114.987 165.571 115.117 165.97C115.901 168.521 116.268 171.84 115.279 174.371C115.05 174.987 114.089 175.893 114.339 176.539C114.233 176.584 114.126 176.629 114.019 176.672C114.927 173.87 114.905 171.013 114.106 168.233C114.004 167.868 113.372 167.93 113.423 168.325C113.862 171.432 113.126 174.547 111.949 177.406C111.76 177.466 111.569 177.523 111.378 177.579C112.355 173.311 113.227 168.223 110.442 164.449C110.246 164.199 109.882 164.477 109.944 164.738C111.159 169.348 110.654 173.627 109.216 178.128C109.048 178.165 108.88 178.202 108.715 178.237C110.499 173.174 110.185 167 107.604 162.282C107.394 161.907 106.799 162.164 106.916 162.572C108.137 166.622 108.582 170.934 107.636 175.093C107.431 176.246 106.872 177.413 106.844 178.573C106.569 178.612 106.289 178.643 106.003 178.669C106.115 176.327 106.357 174.041 106.339 171.701C106.305 169.432 105.887 167.304 105.492 165.09C105.612 164.534 104.772 164.534 104.891 165.09C104.496 167.305 104.077 169.433 104.045 171.701C104.029 174.047 104.273 176.337 104.381 178.688C104.098 178.663 103.82 178.635 103.54 178.6C103.528 177.43 102.955 176.255 102.751 175.093C101.805 170.934 102.25 166.622 103.471 162.572C103.589 162.164 102.994 161.907 102.782 162.282C100.209 166.956 99.8746 173.266 101.695 178.281C101.523 178.247 101.352 178.211 101.181 178.175C99.7446 173.627 99.2197 169.398 100.442 164.739C100.504 164.478 100.141 164.199 99.9458 164.45C97.1445 168.245 98.0409 173.354 99.0247 177.642C98.8346 177.587 98.6456 177.531 98.4577 177.473C98.2812 176.821 97.9569 176.2 97.7451 175.558C96.9742 173.244 96.6464 170.753 96.9607 168.325C97.0134 167.929 96.3814 167.867 96.2778 168.232C95.4744 171.045 95.4525 173.942 96.3982 176.762C96.2654 176.712 96.1355 176.659 96.006 176.605C96.3982 176.006 95.3197 174.967 95.1063 174.37C94.1191 171.839 94.49 168.522 95.2687 165.969C95.3998 165.571 94.7511 165.283 94.5813 165.679C93.2703 168.847 92.4406 172.346 93.9785 175.666C93.3756 175.348 92.779 175.012 92.2075 174.635C92.0915 173.247 91.8237 171.894 91.9352 170.471C92.0697 168.748 92.4249 166.918 93.207 165.36C93.4933 164.79 92.654 164.288 92.3431 164.856C91.1161 167.036 90.3637 169.365 90.3587 171.898C89.4673 168.761 90.9385 166.383 91.6013 163.451C91.6478 163.199 91.3307 162.947 91.1285 163.176C89.2645 165.411 88.1675 168.979 88.8583 171.906C88.4751 171.524 88.1036 171.13 87.7439 170.722C88.2123 169.653 87.9294 168.319 88.1798 167.176C88.4549 165.911 89.0202 164.771 89.6247 163.635C89.8735 163.165 89.2802 162.689 88.8846 163.065C87.2772 164.657 86.5618 166.895 86.4923 169.154C86.3803 168.986 86.2682 168.818 86.1562 168.649C86.6044 166.737 86.1237 164.234 88.0851 163.004C88.5025 162.743 88.2347 161.967 87.7344 162.169C85.9214 162.815 85.0172 164.565 84.8564 166.424C84.7964 166.315 84.7359 166.207 84.6743 166.097C84.8087 164.718 85.0743 163.483 86.0436 162.364C86.2088 162.174 86.0004 161.86 85.7634 162.001C84.7945 162.595 84.0979 163.547 83.8238 164.65C83.7762 164.559 83.719 164.469 83.6585 164.374ZM105.004 138.506C105.046 138.38 104.874 138.331 104.805 138.423C104.029 139.437 103.561 141.013 103.725 142.292C103.751 142.493 104.085 142.595 104.124 142.348C104.226 141.693 104.247 141.036 104.397 140.387C104.547 139.739 104.8 139.132 105.006 138.506H105.004ZM105.595 138.423C105.525 138.331 105.353 138.38 105.395 138.506C105.601 139.132 105.856 139.739 106.003 140.385C106.149 141.032 106.174 141.691 106.276 142.346C106.315 142.595 106.649 142.493 106.675 142.29C106.839 141.013 106.372 139.437 105.597 138.423H105.595ZM138.628 116C138.945 116.112 139.3 115.683 139.086 115.403C138.183 114.221 136.341 113.829 134.947 114.118C134.654 114.179 134.646 114.663 134.947 114.719C135.589 114.838 136.231 114.977 136.848 115.192C137.465 115.406 138.012 115.779 138.63 116H138.628ZM137.521 117.292C137.655 117.447 137.886 117.218 137.745 117.068C137.135 116.402 136.39 115.875 135.56 115.521C135.425 115.462 135.306 115.657 135.442 115.721C136.24 116.089 136.949 116.625 137.522 117.292H137.521ZM135.652 104.309C135.709 104.253 135.753 104.186 135.781 104.112C135.809 104.037 135.82 103.957 135.813 103.878C135.453 97.0765 129.662 91.2269 122.958 90.4123C121.582 90.2515 119.988 90.4756 119.298 91.8359C118.691 93.0303 118.87 94.7598 119.261 96.0036C119.709 97.4378 120.737 98.2771 122.214 98.5074C125.609 98.9556 129.093 99.6234 131.884 101.743C133.162 102.672 134.139 103.919 135.15 105.116C135.406 105.419 135.836 105.086 135.766 104.755C135.737 104.604 135.697 104.456 135.654 104.309H135.652ZM134.681 141.446C134.938 140.577 134.756 139.426 134.646 138.536C134.544 137.709 134.357 136.896 134.011 136.136C133.17 134.29 131.357 133.069 129.801 131.865C126.392 129.232 122.851 126.832 118.882 125.127C118.866 125.12 118.847 125.118 118.83 125.124C118.812 125.129 118.798 125.141 118.789 125.157C118.779 125.172 118.777 125.191 118.78 125.209C118.784 125.227 118.795 125.242 118.81 125.253C122.083 127.494 125.454 129.614 128.611 132.017C130.145 133.184 132.065 134.412 133.037 136.124C133.519 136.976 133.738 137.951 133.839 138.917C133.922 139.732 133.782 140.664 134.013 141.446C134.036 141.517 134.08 141.579 134.14 141.624C134.201 141.668 134.273 141.692 134.348 141.692C134.423 141.692 134.496 141.668 134.556 141.624C134.616 141.579 134.661 141.517 134.683 141.446H134.681ZM132.838 109.083C132.857 107.626 131.675 106.232 130.713 105.236C127.565 101.927 120.868 99.5674 117.681 103.974C117.425 104.416 117.927 104.87 118.354 104.646C119.066 104.277 119.565 103.598 120.287 103.22C122.35 102.187 124.818 102.794 126.815 103.709C128.075 104.289 129.224 105.085 130.209 106.062C131.153 107.006 131.678 108.234 132.576 109.189C132.597 109.21 132.625 109.225 132.654 109.232C132.684 109.238 132.715 109.235 132.743 109.224C132.772 109.212 132.796 109.193 132.813 109.168C132.83 109.143 132.839 109.113 132.84 109.083H132.838ZM132.102 113.924C132.57 109.667 127.294 106.509 123.647 105.827C120.093 105.035 116.462 106.477 115.032 109.957C114.575 110.994 114.098 112.283 114.351 113.419C114.604 114.555 116.389 114.831 116.906 113.755C117.281 112.971 117.298 112.074 117.649 111.271C117.829 110.853 118.06 110.461 118.338 110.102C118.17 110.938 118.341 111.913 118.905 112.562C119.103 112.927 119.428 113.278 119.818 113.571C122.503 116.453 127.115 113.855 127.045 110.202C127.938 110.799 128.739 111.524 129.422 112.353C129.907 112.966 130.256 113.726 130.823 114.264C131.221 114.646 131.972 114.505 132.104 113.924H132.102ZM131.388 136.644C132.436 134.608 128.436 132.879 127.227 132.142C127.041 132.03 126.815 132.31 126.99 132.45C127.792 133.088 128.626 133.701 129.399 134.377C130.189 135.018 130.549 135.567 130.754 136.562C130.843 136.829 131.246 136.923 131.39 136.644H131.388ZM128.486 142.751C130.522 143.29 131.088 140.255 130.579 138.881C130.086 137.548 127.704 135.736 126.67 137.549C126.325 138.151 127.006 138.626 127.545 139.042C125.959 139.725 124.47 140.626 122.894 141.334C120.987 142.181 119.013 142.869 116.992 143.389C113.993 144.188 110.914 144.694 107.808 144.765C106.907 144.79 103.295 144.79 102.394 144.765C99.288 144.694 96.2094 144.188 93.2098 143.389C91.1887 142.869 89.2145 142.181 87.3075 141.334C85.7298 140.626 84.2412 139.725 82.6574 139.042C83.1935 138.626 83.877 138.151 83.5325 137.549C82.4982 135.736 80.1149 137.549 79.6224 138.881C79.1137 140.255 79.6785 143.29 81.7161 142.751C81.8867 142.704 82.0422 142.614 82.1674 142.489C82.2926 142.364 82.3833 142.209 82.4305 142.039C82.645 141.204 81.7873 140.462 82.0641 139.708C83.4473 140.967 85.192 141.822 86.8722 142.612C90.706 144.44 94.8278 145.672 99.0533 146.141C100.074 146.265 101.1 146.349 102.129 146.393C103.101 146.435 107.105 146.435 108.077 146.393C109.105 146.349 110.13 146.266 111.152 146.141C115.379 145.675 119.5 144.443 123.334 142.612C125.014 141.822 126.76 140.967 128.143 139.708C128.418 140.462 127.56 141.204 127.775 142.039C127.822 142.209 127.912 142.365 128.037 142.49C128.162 142.615 128.317 142.706 128.487 142.753L128.486 142.751ZM127.968 135.168C128.279 135.416 128.849 135.081 128.571 134.703C127.61 133.392 125.948 132.692 124.4 132.349C124.186 132.301 124.115 132.594 124.311 132.671C125.763 133.232 126.778 134.21 127.968 135.168ZM125.13 135.733C125.511 135.868 125.786 135.469 125.727 135.137C125.45 133.797 122.902 132.598 121.623 132.735C121.252 132.761 121.012 133.316 121.414 133.505C122.086 133.82 122.788 134.071 123.414 134.477C124.004 134.861 124.46 135.494 125.13 135.732V135.733ZM124.196 137.072C124.252 136.167 122.925 135.445 122.262 135.003C121.301 134.36 120.372 134.05 119.266 133.801C118.954 133.73 118.744 134.171 119.042 134.329C120.366 135.067 121.669 135.954 122.777 136.992C123.097 137.293 123.301 137.519 123.76 137.507C123.874 137.504 123.983 137.457 124.064 137.376C124.145 137.295 124.192 137.187 124.196 137.072ZM121.47 138.437C121.644 137.463 120.349 136.564 119.663 136.028C118.791 135.352 117.886 134.714 116.759 134.639C116.454 134.619 116.342 135.01 116.524 135.207C117.21 135.957 118.124 136.43 118.884 137.102C119.287 137.455 119.67 137.829 120.032 138.223C120.348 138.569 120.508 138.788 120.995 138.797C121.196 138.804 121.434 138.645 121.47 138.438V138.437ZM120.573 130.713C121.12 129.386 120.586 128.08 119.751 127.012C119.141 126.204 118.357 125.525 117.407 125.152C117.062 125.021 116.72 125.124 116.387 125.01C116.231 124.958 116.156 125.178 116.28 125.262C116.451 125.374 116.611 125.724 116.762 125.899C117.254 126.379 117.764 126.856 118.214 127.381C118.833 128.08 119.601 129.136 119.195 130.115C118.646 131.441 117.422 131.671 116.147 131.566C116.858 131.174 116.539 129.961 115.811 129.679C113.432 128.766 111.506 131.391 109.634 132.371C108.645 132.889 107.569 133.166 106.469 133.319C105.564 133.45 104.646 133.45 103.741 133.319C102.641 133.166 101.567 132.889 100.576 132.371C98.7042 131.391 96.7775 128.766 94.3987 129.679C93.6664 129.959 93.3493 131.172 94.0625 131.566C92.7879 131.671 91.5638 131.441 91.0153 130.115C90.6085 129.136 91.3766 128.08 91.9963 127.381C92.4445 126.856 92.956 126.379 93.4473 125.899C93.5992 125.724 93.7583 125.375 93.9297 125.262C94.0536 125.18 93.979 124.958 93.8233 125.01C93.4871 125.122 93.1476 125.021 92.8031 125.152C91.8506 125.525 91.0691 126.204 90.4589 127.012C89.6241 128.081 89.0908 129.386 89.6365 130.713C90.7816 133.5 94.2653 133.484 96.7394 132.72C99.0236 134.708 102.252 135.866 105.208 135.887C108.33 135.909 111.191 134.71 113.475 132.72C115.943 133.487 119.429 133.501 120.572 130.714L120.573 130.713ZM118.904 139.309C119.016 139.098 119.037 138.833 118.904 138.624C117.971 137.154 116.139 135.461 114.415 135.033C113.963 134.921 113.597 135.491 113.949 135.831C114.863 136.709 115.966 137.351 116.841 138.284C117.206 138.676 118.315 140.418 118.903 139.31L118.904 139.309ZM115.783 140.641C116.258 139.74 115.13 138.512 114.56 137.856C113.956 137.162 112.849 135.927 111.845 135.998C111.597 136.015 111.35 136.251 111.446 136.521C111.747 137.368 112.828 137.977 113.407 138.66C113.77 139.083 114.1 139.533 114.393 140.007C114.628 140.39 114.807 140.763 115.283 140.844C115.472 140.877 115.683 140.826 115.781 140.642L115.783 140.641ZM115.707 150.165C115.9 149.994 115.69 149.725 115.473 149.766C113.424 150.158 111.486 150.961 109.431 151.344C108.003 151.599 106.579 151.823 105.12 151.797C103.651 151.826 102.215 151.602 100.775 151.344C98.7194 150.961 96.7814 150.157 94.732 149.766C94.5158 149.725 94.3057 149.994 94.4984 150.165C96.9775 152.238 100.356 152.936 103.487 153.348C103.972 153.529 106.232 153.529 106.72 153.348C109.849 152.936 113.226 152.239 115.705 150.165H115.707ZM112.258 140.888C112.973 143.104 114.932 141.611 112.437 138.675C111.703 137.718 110.862 137.075 109.699 136.755C109.479 136.695 109.328 136.97 109.481 137.131C110.545 138.254 111.688 139.419 112.258 140.888ZM112.074 127.178C112.593 125.865 111.824 124.305 110.708 123.576C110.66 123.543 110.62 123.617 110.663 123.65C111.816 124.511 112.054 125.765 111.822 127.109C111.818 127.14 111.826 127.172 111.843 127.198C111.861 127.224 111.887 127.243 111.917 127.251C111.947 127.26 111.98 127.257 112.008 127.244C112.037 127.23 112.059 127.207 112.072 127.178H112.074ZM110.341 141.913C110.647 142.227 111.3 142.009 111.256 141.534C111.181 140.7 110.703 139.998 110.229 139.326C109.777 138.688 109.272 137.918 108.564 137.552C108.102 137.312 107.691 137.783 107.889 138.224C108.192 138.897 108.782 139.457 109.178 140.078C109.564 140.688 109.828 141.386 110.339 141.911L110.341 141.913ZM108.519 142.513C108.774 142.95 109.391 142.642 109.3 142.184C108.964 140.477 107.747 138.673 106.412 137.586C106.387 137.562 106.354 137.547 106.319 137.546C106.285 137.544 106.25 137.554 106.223 137.575C106.195 137.597 106.176 137.627 106.169 137.661C106.162 137.695 106.168 137.73 106.184 137.76C106.555 138.567 106.989 139.329 107.387 140.12C107.784 140.911 108.072 141.748 108.517 142.51L108.519 142.513ZM106.705 111.556C107.348 111.476 107.346 110.637 106.705 110.556C105.642 110.411 104.564 110.411 103.501 110.556C102.86 110.637 102.859 111.476 103.501 111.556C104.564 111.7 105.641 111.7 106.703 111.554L106.705 111.556ZM105.104 109.647C105.294 109.674 106.569 109.591 106.127 109.247C105.8 109.127 105.452 109.076 105.104 109.097C104.914 109.069 103.637 109.153 104.079 109.498C104.407 109.615 104.755 109.665 105.102 109.645L105.104 109.647ZM104.223 137.76C104.239 137.73 104.244 137.695 104.236 137.661C104.229 137.627 104.21 137.597 104.182 137.577C104.155 137.556 104.121 137.545 104.087 137.547C104.052 137.548 104.019 137.562 103.994 137.586C102.661 138.673 101.441 140.477 101.106 142.184C101.016 142.642 101.632 142.95 101.89 142.513C102.335 141.751 102.626 140.91 103.022 140.12C103.417 139.33 103.85 138.565 104.221 137.758L104.223 137.76ZM102.517 138.225C102.716 137.783 102.305 137.312 101.844 137.553C101.136 137.919 100.631 138.689 100.18 139.327C99.7037 139.999 99.2275 140.701 99.1519 141.535C99.1087 142.01 99.7609 142.228 100.067 141.914C100.577 141.392 100.843 140.692 101.231 140.08C101.621 139.454 102.213 138.894 102.515 138.223L102.517 138.225ZM100.927 137.133C101.08 136.972 100.927 136.697 100.707 136.758C99.5452 137.077 98.7042 137.72 97.9703 138.677C97.4044 139.414 96.3725 140.77 96.8576 141.724C96.9697 141.948 97.2778 142.004 97.4818 141.887C97.8947 141.654 97.9826 141.314 98.1479 140.89C98.3447 140.397 98.5962 139.927 98.8975 139.489C99.4718 138.648 100.223 137.866 100.925 137.128L100.927 137.133ZM99.5401 123.65C99.5833 123.617 99.5435 123.543 99.4953 123.576C98.3793 124.304 97.6101 125.865 98.1305 127.178C98.1404 127.211 98.1625 127.238 98.1923 127.255C98.222 127.271 98.257 127.275 98.2897 127.266C98.3224 127.257 98.3503 127.235 98.3674 127.206C98.3844 127.177 98.3893 127.142 98.381 127.109C98.1501 125.765 98.3883 124.511 99.5401 123.65ZM98.9575 136.522C99.0533 136.252 98.8062 136.017 98.5586 136C97.554 135.928 96.4475 137.163 95.8436 137.857C95.2732 138.512 94.1449 139.741 94.6194 140.642C94.7186 140.827 94.9304 140.877 95.1186 140.845C95.5931 140.764 95.7741 140.391 96.0088 140.008C96.3021 139.534 96.6318 139.084 96.9949 138.661C97.5792 137.981 98.6572 137.369 98.9586 136.522H98.9575ZM96.4537 135.833C96.8061 135.493 96.4402 134.921 95.9887 135.034C94.2625 135.462 92.4327 137.155 91.4993 138.625C91.3666 138.834 91.3873 139.099 91.4993 139.31C92.0848 140.418 93.1964 138.676 93.5622 138.285C94.4418 137.353 95.5399 136.711 96.4548 135.833H96.4537ZM95.8481 113.419C96.1018 112.283 95.6239 110.994 95.1668 109.957C93.737 106.477 90.1082 105.034 86.5523 105.827C82.9106 106.508 77.6257 109.67 78.0974 113.924C78.2285 114.505 78.9798 114.646 79.3799 114.261C79.944 113.722 80.2931 112.962 80.7805 112.349C81.52 111.452 82.3957 110.677 83.3756 110.052C83.3698 110.177 83.3713 110.303 83.3801 110.428C83.3123 110.911 83.3308 111.389 83.4479 111.786C84.2322 116.311 92.1828 115.294 91.9184 110.173C92.1701 110.513 92.3823 110.88 92.5509 111.267C92.9 112.071 92.9185 112.969 93.2938 113.752C93.811 114.83 95.5971 114.55 95.8492 113.419H95.8481ZM93.8776 135.213C94.0586 135.015 93.9454 134.624 93.6412 134.644C92.5162 134.72 91.6091 135.358 90.7374 136.034C90.0511 136.567 88.7574 137.466 88.9305 138.443C88.9681 138.65 89.2045 138.809 89.4068 138.804C89.892 138.795 90.0544 138.576 90.3693 138.229C90.7318 137.836 91.1152 137.461 91.5178 137.109C92.2792 136.434 93.1924 135.961 93.8815 135.211L93.8776 135.213ZM91.8439 104.651C92.2719 104.875 92.7745 104.417 92.5162 103.978C90.5609 100.995 86.2598 101.151 83.3672 102.55C81.0141 103.582 77.4755 106.334 77.3601 109.087C77.3608 109.117 77.3701 109.146 77.387 109.17C77.4038 109.195 77.4274 109.214 77.455 109.225C77.4825 109.237 77.5128 109.24 77.542 109.234C77.5712 109.228 77.5982 109.214 77.6195 109.194C78.5159 108.241 79.0443 107.009 79.9872 106.067C82.361 103.74 86.6649 101.688 89.9088 103.227C90.6321 103.601 91.1324 104.28 91.845 104.649L91.8439 104.651ZM91.3906 125.251C91.4055 125.241 91.4159 125.225 91.4198 125.207C91.4237 125.189 91.4208 125.171 91.4117 125.155C91.4025 125.139 91.3878 125.127 91.3705 125.122C91.3531 125.117 91.3343 125.118 91.3178 125.126C87.3495 126.83 83.8104 129.231 80.3995 131.864C78.0072 133.615 75.8004 135.347 75.5544 138.534C75.4424 139.424 75.2625 140.575 75.5191 141.444C75.5407 141.517 75.585 141.58 75.6456 141.625C75.7062 141.67 75.7797 141.695 75.8553 141.695C75.9308 141.695 76.0044 141.67 76.065 141.625C76.1255 141.58 76.1699 141.517 76.1914 141.444C76.4234 140.66 76.2828 139.73 76.3674 138.916C76.4665 137.95 76.6861 136.974 77.168 136.123C78.1372 134.411 80.0566 133.182 81.5912 132.015C84.7494 129.614 88.1176 127.492 91.3906 125.251ZM91.3615 134.327C91.6596 134.169 91.4495 133.728 91.1374 133.798C90.0309 134.05 89.102 134.359 88.1389 135.001C87.4761 135.448 86.15 136.168 86.206 137.072C86.2085 137.187 86.255 137.296 86.3359 137.377C86.4168 137.458 86.5258 137.504 86.6402 137.507C87.1008 137.519 87.3036 137.293 87.6246 136.992C88.7322 135.955 90.0371 135.068 91.3604 134.331L91.3615 134.327ZM90.9396 96.0002C91.3318 94.7565 91.5111 93.027 90.9021 91.8325C90.2102 90.4722 88.6179 90.2481 87.2425 90.4089C80.5385 91.2235 74.7488 97.0731 74.388 103.875C74.3809 103.954 74.3917 104.034 74.4194 104.108C74.4471 104.183 74.4911 104.25 74.5482 104.305C74.5051 104.452 74.4647 104.601 74.4362 104.754C74.3667 105.085 74.7964 105.417 75.0524 105.114C76.0609 103.918 77.0397 102.671 78.3182 101.742C79.6632 100.766 81.1602 100.02 82.7487 99.5321C84.4687 98.9987 86.2167 98.7808 87.9876 98.5057C89.4634 98.2771 90.4881 97.4378 90.9396 96.0058V96.0002ZM88.9888 133.5C89.3894 133.311 89.1513 132.757 88.7804 132.73C87.5025 132.593 84.9522 133.791 84.676 135.132C84.6171 135.465 84.8922 135.863 85.2721 135.729C85.9444 135.491 86.3971 134.857 86.9893 134.472C87.6151 134.069 88.3165 133.819 88.9888 133.504V133.5ZM86.094 132.668C86.2906 132.59 86.2195 132.298 86.0043 132.346C84.4558 132.691 82.7963 133.391 81.8349 134.699C81.5548 135.078 82.1268 135.413 82.4377 135.164C83.6232 134.21 84.6401 133.232 86.094 132.668ZM83.4143 132.45C83.5891 132.311 83.3633 132.028 83.1762 132.142C81.9677 132.879 77.9658 134.607 79.0163 136.644C79.1597 136.924 79.5631 136.829 79.651 136.56C79.8566 135.565 80.2169 135.02 81.0052 134.375C81.775 133.701 82.6081 133.088 83.4115 132.45H83.4143ZM75.253 114.718C75.5544 114.662 75.5466 114.179 75.253 114.117C73.8574 113.828 72.017 114.221 71.1144 115.403C70.9015 115.683 71.2567 116.112 71.5732 116C72.1895 115.776 72.7279 115.407 73.352 115.191C73.9762 114.975 74.6121 114.838 75.253 114.718ZM74.7572 115.718C74.8933 115.655 74.774 115.46 74.6395 115.519C73.8091 115.873 73.0641 116.4 72.4545 117.066C72.3156 117.218 72.5458 117.446 72.6786 117.29C73.2511 116.624 73.9599 116.088 74.7572 115.719V115.718Z" fill="#DFBBA8"/>
<path d="M79.0172 113.702C79.0172 113.702 89.5114 117.503 94.0562 113.619C94.0562 113.619 94.7173 107.588 90.2554 107.505C85.7935 107.422 79.7635 110.314 79.0172 113.702Z" fill="white"/>
<path d="M131.44 113.701C131.44 113.701 120.945 117.502 116.401 113.618C116.401 113.618 115.74 107.586 120.201 107.503C124.663 107.421 130.696 110.313 131.44 113.701Z" fill="white"/>
<path d="M124.175 92.5326C128.913 93.5557 132.398 97.0287 133.897 101.441C130.944 98.478 126.91 97.3558 122.912 96.8466C121.47 96.7385 120.976 96.1278 120.818 94.7249C120.75 94.1994 120.634 93.4727 120.811 92.9612C121.221 91.7869 123.316 92.3444 124.175 92.5326Z" fill="#311807"/>
<path d="M86.0246 92.5326C88.1855 92.0474 89.9749 91.788 89.3816 94.7243C89.3133 95.2543 89.19 95.8801 88.8174 96.2868C88.4297 96.7087 87.8252 96.7687 87.2874 96.8471C83.2894 97.3586 79.2555 98.4808 76.3024 101.441C77.8005 97.0258 81.2864 93.5528 86.0246 92.5326Z" fill="#311807"/>
<path d="M158.552 87.8041C160.323 89.5459 161.45 92.0295 161.146 94.5389C161.095 95.6964 160.417 96.7009 160.211 97.8108C158.985 96.6981 157.264 96.3104 155.461 96.5916C155.141 96.6409 155.084 97.1569 155.371 97.2931C156.282 97.7256 157.395 98.0068 158.189 98.6377C159.674 99.8568 159.895 101.999 159.463 103.764C159.271 104.625 158.871 105.473 158.631 106.334C156.301 105.45 153.457 105.815 151.62 107.598C151.503 106.287 151.319 104.983 151.066 103.691C150.618 101.375 149.609 99.0971 150.286 96.7323C150.874 94.6689 151.929 92.8021 152.343 90.677C153.199 86.6158 152.317 82.7674 149.149 79.9594C148.498 79.3291 147.831 78.7016 147.377 77.9089C146.823 76.9458 146.761 75.8006 146.611 74.7238C145.204 65.7682 134.401 65.8343 128.325 61.5523C131.055 59.0978 133.528 55.4119 132.84 51.5798C132.592 50.3169 130.397 50.243 130.213 51.5798C130.069 52.6291 129.984 53.6891 129.658 54.7032C128.131 59.1785 123.849 62.1024 119.563 63.6308C121.204 60.7304 122.724 56.6316 120.468 53.6785C120.392 53.5855 120.27 53.6891 120.287 53.7832C120.923 56.9593 119.576 59.9959 117.878 62.6095C117.635 62.9725 117.352 63.3311 117.01 63.6078C116.632 63.9137 116.216 64.0605 116.012 64.5429C115.533 64.6228 115.051 64.6871 114.565 64.7356C115.765 62.5674 116.364 60.3657 116.853 57.9885C117.581 54.6303 117.133 50.8503 114.6 48.3521C114.567 48.3163 114.504 48.3628 114.532 48.4042C116.391 51.1103 115.96 54.8505 115.154 57.8271C114.559 59.9225 113.926 62.1215 112.618 63.8975C112.343 64.242 111.971 64.5138 111.674 64.8275C111.209 64.8124 110.742 64.7799 110.277 64.7334C113.717 60.1393 111.906 47.5157 106.268 45.0309C106.258 45.025 106.246 45.0232 106.235 45.0259C106.224 45.0287 106.215 45.0357 106.209 45.0455C106.203 45.0553 106.201 45.0671 106.204 45.0782C106.206 45.0894 106.213 45.099 106.223 45.1049C109.189 47.3028 109.85 50.959 110.175 54.4102C110.521 57.8053 110.623 61.7584 108.085 64.3983C107.416 64.2605 106.754 64.0956 106.097 63.9036C108.446 56.4747 101.947 47.2966 95.4825 44.0018C94.5508 43.53 93.5989 43.26 92.6392 42.8717C92.6156 42.8628 92.5988 42.9014 92.6218 42.9121C93.5216 43.3042 94.3855 43.9385 95.1922 44.4993C95.9994 45.0509 96.7757 45.6462 97.5179 46.2825C101.338 49.6379 104.194 54.4314 104.542 59.5701C104.588 60.8223 104.245 61.9764 103.847 63.1462C101.143 62.1187 98.5577 60.7309 96.0931 59.2933C93.9911 58.0697 91.9187 56.6433 89.5449 55.9923C83.4913 54.5631 72.0508 57.7291 67.6013 62.1405C67.5133 62.2223 67.6321 62.3842 67.7324 62.3086C71.7337 59.3908 76.6236 58.2423 81.4374 57.5067C84.0017 57.1145 86.7038 56.7638 89.2283 57.5257C79.4731 59.4138 72.7831 68.3666 70.1062 77.4708C66.9385 77.4444 63.4055 79.4658 61.4222 81.8693C61.1673 82.1965 61.4782 82.6946 61.8878 82.4716C63.2324 81.7432 64.4649 80.8211 65.8656 80.1846C67.1066 79.6204 68.3184 79.3734 69.6193 79.2047C69.2651 80.5707 69.0374 81.9664 68.9392 83.3741C67.111 83.3047 65.2252 83.7574 63.7557 84.8829C63.2072 85.3076 62.8822 85.8639 62.4111 86.3508C62.1959 86.5704 62.4867 86.9906 62.7539 86.7945C63.5422 86.2118 64.8235 85.9042 65.7642 85.6521C66.7844 85.377 67.7985 85.2364 68.8551 85.2829C68.863 88.2226 68.9913 91.174 67.7072 93.8985C65.2807 99.0231 60.7168 103.184 59.9056 109.009C58.9212 107.622 57.5351 106.372 55.8488 106.095C54.4705 105.745 52.9819 105.802 51.6592 106.297C51.5589 104.891 51.4692 103.518 51.6222 102.103C52.0519 98.2584 53.7439 94.5462 56.4331 91.7583C57.0079 91.16 57.6494 90.4479 58.4439 90.1543C58.9117 89.9823 58.8086 89.37 58.3318 89.314C55.879 88.9694 52.6396 94.3955 51.7544 96.3872C51.388 89.4916 54.8974 82.7982 60.4009 78.7274C60.4281 78.7086 60.4473 78.6802 60.4544 78.6479C60.4615 78.6156 60.4561 78.5818 60.4392 78.5533C60.4223 78.5248 60.3953 78.5038 60.3635 78.4945C60.3317 78.4853 60.2976 78.4884 60.2681 78.5033C56.7166 80.1969 54.0772 83.1596 52.3057 86.627C50.6927 79.1829 54.4739 71.7046 60.6081 67.4932C60.6722 67.4515 60.7178 67.3868 60.7355 67.3124C60.7531 67.238 60.7415 67.1597 60.7029 67.0937C60.6644 67.0277 60.6019 66.9791 60.5284 66.9579C60.455 66.9367 60.3762 66.9446 60.3084 66.98C57.1665 68.4759 54.6549 70.9578 52.9382 73.9484C51.5936 62.8924 60.472 53.7093 70.3275 50.2816C72.6469 49.3763 75.0628 48.7628 77.464 48.123C78.2814 47.8877 79.0821 47.5879 79.9292 47.4675C79.9695 47.463 79.96 47.3919 79.9185 47.3963C78.3543 47.5678 76.7951 47.4832 75.228 47.7325C74.0661 47.9179 72.9052 48.1588 71.7617 48.4552C73.4632 44.5995 75.3222 40.9013 78.2232 37.7544C84.8701 30.5327 95.4841 27.0261 105.084 29.3069C113.193 31.219 121.22 39.5842 124.044 47.2787C124.492 48.611 124.62 50.0239 125.091 51.3338C125.436 52.2986 127.122 52.5664 127.326 51.3338C128.026 44.0505 119.914 34.8691 114.373 30.7658C128.357 27.1712 137.903 34.6158 136.671 49.2043C136.476 51.759 135.878 54.2998 134.783 56.6209C134.402 57.412 133.942 58.1431 133.698 58.993C133.401 60.0239 134.668 60.6329 135.404 59.9869C136.64 58.9023 137.279 57.0277 137.791 55.5049C139.182 51.247 139.348 46.631 138.538 42.2269C144.507 44.7105 147.912 50.6973 145.774 57.012C145.443 58.054 144.982 59.0503 144.403 59.9774C143.761 61.0116 142.97 61.8397 142.559 63.0028C142.347 63.6022 143.023 64.2964 143.629 64.0723C146.29 62.9686 147.472 59.7023 148.264 57.1302C149.732 58.6742 151.452 59.9752 152.837 61.6089C158.948 68.3879 161.95 77.9442 160.148 86.9586C159.485 86.3866 158.768 85.8768 157.98 85.4902C157.295 85.158 156.541 85.0207 155.819 84.7905C155.442 84.6683 155.184 85.2583 155.545 85.4376C156.632 85.9776 157.693 86.9435 158.552 87.8041Z" fill="#522D1C"/>
<path d="M139.087 115.403C139.301 115.683 138.947 116.113 138.63 116C138.013 115.776 137.474 115.408 136.85 115.192C136.226 114.975 135.59 114.838 134.949 114.719C134.647 114.663 134.655 114.179 134.949 114.118C136.344 113.828 138.185 114.221 139.087 115.403Z" fill="black"/>
<path d="M135.814 103.878C135.821 103.958 135.81 104.038 135.783 104.112C135.755 104.187 135.711 104.254 135.653 104.309C135.697 104.456 135.737 104.605 135.766 104.758C135.835 105.089 135.405 105.421 135.149 105.118C134.141 103.922 133.162 102.674 131.884 101.746C129.093 99.6256 125.609 98.9561 122.214 98.5096C120.737 98.2793 119.712 97.44 119.261 96.0058C118.869 94.762 118.691 93.0325 119.298 91.838C119.99 90.4777 121.582 90.2536 122.957 90.4144C129.663 91.2274 135.452 97.077 135.814 103.878ZM133.898 101.441C132.398 97.0271 128.911 93.5541 124.175 92.5328C123.316 92.3473 121.219 91.7899 120.814 92.9608C120.637 93.4723 120.753 94.199 120.821 94.7245C120.979 96.1251 121.473 96.738 122.915 96.8462C126.911 97.3549 130.944 98.4771 133.898 101.441Z" fill="black"/>
<path d="M137.522 117.292C136.95 116.625 136.241 116.088 135.444 115.719C135.309 115.655 135.428 115.46 135.562 115.519C136.392 115.873 137.137 116.4 137.747 117.066C137.888 117.218 137.656 117.447 137.522 117.292Z" fill="black"/>
<path d="M130.715 105.236C131.678 106.232 132.86 107.628 132.841 109.083C132.84 109.113 132.83 109.141 132.813 109.166C132.796 109.19 132.773 109.209 132.745 109.221C132.718 109.232 132.687 109.235 132.658 109.229C132.629 109.224 132.602 109.21 132.581 109.189C131.684 108.237 131.158 107.004 130.213 106.063C129.228 105.086 128.08 104.29 126.819 103.71C124.823 102.795 122.354 102.188 120.291 103.22C119.57 103.599 119.071 104.278 118.358 104.647C117.93 104.871 117.428 104.414 117.686 103.974C120.871 99.5674 127.567 101.927 130.715 105.236Z" fill="black"/>
<path d="M123.649 105.827C127.296 106.51 132.572 109.669 132.105 113.925C131.973 114.506 131.222 114.646 130.822 114.261C130.257 113.722 129.908 112.963 129.421 112.349C128.737 111.52 127.937 110.796 127.044 110.198C127.115 113.851 122.506 116.449 119.816 113.567C119.424 113.274 119.102 112.923 118.904 112.559C118.34 111.91 118.169 110.934 118.337 110.098C118.059 110.457 117.828 110.85 117.648 111.267C117.299 112.07 117.28 112.968 116.905 113.752C116.388 114.83 114.602 114.551 114.35 113.415C114.098 112.28 114.574 110.991 115.031 109.954C116.464 106.477 120.095 105.036 123.649 105.827Z" fill="black"/>
<path d="M130.581 138.883C131.09 140.257 130.525 143.292 128.488 142.753C128.317 142.706 128.162 142.616 128.036 142.491C127.911 142.366 127.82 142.211 127.773 142.041C127.559 141.206 128.416 140.464 128.141 139.71C126.758 140.969 125.012 141.824 123.332 142.614C119.498 144.442 115.376 145.674 111.15 146.143C110.129 146.267 109.104 146.351 108.075 146.395C107.103 146.437 103.099 146.437 102.127 146.395C101.099 146.352 100.074 146.268 99.0516 146.143C94.8245 145.677 90.7038 144.445 86.8705 142.614C85.1897 141.824 83.4456 140.969 82.0624 139.71C81.7856 140.464 82.6433 141.206 82.4288 142.041C82.3816 142.211 82.2909 142.366 82.1657 142.491C82.0405 142.616 81.885 142.706 81.7144 142.753C79.6779 143.292 79.112 140.257 79.6208 138.883C80.1149 137.55 82.4966 135.738 83.5308 137.551C83.8753 138.153 83.1918 138.628 82.6557 139.044C84.2412 139.727 85.7298 140.628 87.3058 141.336C89.2132 142.184 91.1878 142.871 93.2092 143.391C96.2089 144.19 99.2875 144.696 102.394 144.767C103.294 144.793 106.906 144.793 107.807 144.767C110.913 144.696 113.992 144.19 116.992 143.391C119.013 142.871 120.987 142.184 122.894 141.336C124.472 140.628 125.96 139.727 127.544 139.044C127.008 138.628 126.324 138.153 126.669 137.551C127.705 135.738 130.088 137.55 130.581 138.883Z" fill="black"/>
<path d="M127.227 132.142C128.435 132.879 132.437 134.607 131.387 136.644C131.244 136.924 130.84 136.829 130.752 136.56C130.547 135.567 130.187 135.018 129.397 134.375C128.626 133.7 127.791 133.087 126.988 132.448C126.814 132.31 127.04 132.03 127.227 132.142Z" fill="black"/>
<path d="M125.728 135.136C125.787 135.468 125.511 135.867 125.131 135.733C124.459 135.495 124.004 134.861 123.414 134.476C122.789 134.07 122.085 133.819 121.414 133.504C121.013 133.315 121.252 132.76 121.623 132.734C122.904 132.597 125.451 133.796 125.728 135.136Z" fill="black"/>
<path d="M124.398 132.347C125.947 132.691 127.608 133.392 128.569 134.7C128.849 135.078 128.277 135.414 127.966 135.165C126.776 134.208 125.761 133.23 124.31 132.666C124.114 132.591 124.185 132.298 124.398 132.347Z" fill="black"/>
<path d="M122.261 135.004C122.924 135.446 124.25 136.168 124.195 137.073C124.191 137.188 124.144 137.296 124.063 137.377C123.982 137.458 123.873 137.505 123.759 137.508C123.299 137.52 123.096 137.294 122.776 136.993C121.667 135.953 120.366 135.068 119.04 134.33C118.742 134.172 118.952 133.731 119.264 133.802C120.371 134.054 121.3 134.361 122.261 135.004Z" fill="black"/>
<path d="M119.664 136.032C120.35 136.565 121.645 137.465 121.471 138.441C121.435 138.648 121.197 138.807 120.996 138.803C120.509 138.794 120.349 138.574 120.033 138.228C119.671 137.834 119.288 137.46 118.885 137.107C118.125 136.435 117.211 135.962 116.525 135.212C116.343 135.015 116.455 134.624 116.76 134.644C117.887 134.719 118.792 135.356 119.664 136.032Z" fill="black"/>
<path d="M119.749 127.013C120.584 128.082 121.118 129.387 120.571 130.714C119.426 133.501 115.942 133.485 113.468 132.722C111.184 134.709 108.324 135.91 105.202 135.888C102.245 135.867 99.0171 134.712 96.7329 132.722C94.2588 133.485 90.7752 133.501 89.63 130.714C89.0843 129.387 89.6177 128.081 90.4524 127.013C91.0626 126.205 91.8464 125.526 92.7965 125.154C93.1411 125.023 93.4829 125.126 93.8168 125.012C93.9725 124.959 94.047 125.18 93.9232 125.264C93.7518 125.376 93.5927 125.726 93.4408 125.9C92.9495 126.381 92.4397 126.857 91.9898 127.383C91.3701 128.081 90.602 129.138 91.0088 130.117C91.5573 131.442 92.7814 131.672 94.056 131.568C93.3451 131.175 93.6638 129.962 94.3922 129.681C96.771 128.767 98.6977 131.393 100.57 132.373C101.56 132.89 102.634 133.167 103.734 133.32C104.639 133.451 105.558 133.451 106.462 133.32C107.563 133.167 108.638 132.89 109.627 132.373C111.499 131.393 113.426 128.767 115.805 129.681C116.537 129.961 116.854 131.173 116.141 131.568C117.416 131.672 118.64 131.442 119.188 130.117C119.595 129.138 118.827 128.081 118.207 127.383C117.759 126.857 117.247 126.381 116.756 125.9C116.604 125.726 116.445 125.376 116.274 125.264C116.15 125.182 116.224 124.959 116.38 125.012C116.716 125.124 117.056 125.023 117.4 125.154C118.355 125.526 119.139 126.204 119.749 127.013Z" fill="black"/>
<path d="M128.611 132.017C125.454 129.614 122.083 127.492 118.812 125.251C118.797 125.241 118.787 125.225 118.783 125.207C118.779 125.189 118.782 125.171 118.791 125.155C118.8 125.139 118.815 125.127 118.832 125.122C118.85 125.117 118.868 125.118 118.885 125.126C122.853 126.83 126.392 129.23 129.803 131.864C131.36 133.068 133.171 134.288 134.013 136.134C134.359 136.894 134.546 137.707 134.648 138.534C134.76 139.424 134.94 140.575 134.684 141.444C134.662 141.516 134.618 141.58 134.557 141.625C134.497 141.67 134.423 141.695 134.347 141.695C134.272 141.695 134.198 141.67 134.138 141.625C134.077 141.58 134.033 141.516 134.011 141.444C133.779 140.66 133.92 139.73 133.836 138.916C133.736 137.95 133.517 136.974 133.035 136.123C132.066 134.412 130.146 133.184 128.611 132.017Z" fill="black"/>
<path d="M118.901 138.625C119.034 138.834 119.013 139.099 118.901 139.31C118.314 140.417 117.204 138.676 116.838 138.285C115.961 137.352 114.86 136.71 113.946 135.832C113.594 135.492 113.96 134.921 114.412 135.034C116.136 135.462 117.968 137.155 118.901 138.625Z" fill="black"/>
<path d="M114.558 137.857C115.129 138.512 116.257 139.741 115.781 140.641C115.683 140.827 115.472 140.877 115.283 140.844C114.807 140.764 114.628 140.391 114.393 140.008C114.1 139.534 113.77 139.084 113.407 138.66C112.826 137.98 111.745 137.368 111.446 136.521C111.35 136.251 111.598 136.017 111.845 135.999C112.847 135.929 113.954 137.163 114.558 137.857Z" fill="black"/>
<path d="M115.471 149.766C115.687 149.725 115.898 149.993 115.705 150.165C113.226 152.238 109.846 152.936 106.718 153.348C106.231 153.529 103.972 153.529 103.485 153.348C100.354 152.936 96.9753 152.239 94.4962 150.165C94.3034 149.993 94.5135 149.725 94.7298 149.766C96.7792 150.158 98.7171 150.96 100.773 151.344C102.213 151.602 103.649 151.826 105.118 151.797C106.575 151.823 108.001 151.599 109.429 151.344C111.484 150.96 113.422 150.157 115.471 149.766Z" fill="black"/>
<path d="M112.434 138.675C114.929 141.611 112.97 143.103 112.255 140.888C111.687 139.419 110.544 138.254 109.478 137.13C109.325 136.97 109.478 136.695 109.696 136.755C110.859 137.075 111.7 137.718 112.434 138.675Z" fill="black"/>
<path d="M111.252 141.533C111.296 142.007 110.643 142.225 110.338 141.911C109.826 141.389 109.562 140.689 109.174 140.077C108.778 139.454 108.188 138.894 107.885 138.224C107.688 137.782 108.098 137.31 108.56 137.551C109.268 137.917 109.773 138.687 110.225 139.325C110.7 139.996 111.177 140.698 111.252 141.533Z" fill="black"/>
<path d="M111.82 127.109C112.051 125.765 111.813 124.511 110.66 123.65C110.617 123.618 110.66 123.544 110.705 123.576C111.821 124.305 112.59 125.865 112.072 127.179C112.061 127.21 112.038 127.236 112.009 127.251C111.979 127.266 111.945 127.27 111.913 127.261C111.881 127.252 111.854 127.232 111.837 127.204C111.819 127.175 111.813 127.142 111.82 127.109Z" fill="black"/>
<path d="M106.7 110.554C107.341 110.635 107.343 111.473 106.7 111.554C105.637 111.699 104.559 111.699 103.496 111.554C102.854 111.473 102.855 110.635 103.496 110.554C104.559 110.409 105.637 110.409 106.7 110.554Z" fill="black"/>
<path d="M106.409 137.584C107.744 138.671 108.963 140.475 109.297 142.182C109.389 142.641 108.772 142.948 108.517 142.511C108.072 141.749 107.781 140.908 107.384 140.118C106.987 139.328 106.553 138.565 106.182 137.759C106.165 137.728 106.16 137.693 106.167 137.659C106.174 137.625 106.193 137.595 106.221 137.574C106.248 137.552 106.282 137.542 106.317 137.544C106.351 137.546 106.384 137.56 106.409 137.584Z" fill="black"/>
<path d="M106.122 109.245C106.564 109.588 105.289 109.672 105.099 109.645C104.751 109.665 104.403 109.614 104.075 109.496C103.633 109.152 104.909 109.067 105.099 109.095C105.447 109.074 105.795 109.125 106.122 109.245Z" fill="black"/>
<path d="M105.597 138.423C106.373 139.437 106.839 141.013 106.677 142.293C106.651 142.494 106.317 142.596 106.279 142.349C106.177 141.693 106.154 141.036 106.005 140.388C105.857 139.739 105.603 139.134 105.398 138.509C105.356 138.38 105.528 138.332 105.597 138.423Z" fill="black"/>
<path d="M104.221 137.758C103.85 138.565 103.415 139.327 103.017 140.118C102.619 140.909 102.331 141.748 101.886 142.51C101.629 142.948 101.014 142.64 101.101 142.181C101.437 140.475 102.656 138.67 103.989 137.584C104.014 137.558 104.048 137.543 104.083 137.54C104.118 137.538 104.154 137.548 104.182 137.569C104.21 137.591 104.23 137.622 104.237 137.656C104.244 137.691 104.238 137.727 104.221 137.758Z" fill="black"/>
<path d="M104.397 140.385C104.247 141.035 104.226 141.691 104.124 142.346C104.085 142.595 103.751 142.493 103.725 142.29C103.561 141.011 104.029 139.433 104.805 138.421C104.874 138.329 105.046 138.377 105.004 138.504C104.799 139.132 104.544 139.739 104.397 140.385Z" fill="black"/>
<path d="M101.84 137.55C102.302 137.311 102.713 137.782 102.512 138.223C102.211 138.895 101.619 139.455 101.224 140.076C100.835 140.688 100.57 141.388 100.059 141.91C99.7535 142.224 99.1014 142.006 99.1445 141.532C99.2207 140.697 99.6964 139.995 100.173 139.323C100.626 138.686 101.132 137.916 101.84 137.55Z" fill="black"/>
<path d="M100.703 136.755C100.925 136.695 101.076 136.97 100.923 137.13C100.221 137.866 99.4701 138.648 98.8936 139.488C98.5923 139.925 98.3408 140.395 98.144 140.888C97.9759 141.312 97.8908 141.652 97.4779 141.885C97.2739 142.003 96.9664 141.944 96.8538 141.722C96.3686 140.77 97.4006 139.412 97.9664 138.675C98.6981 137.718 99.5413 137.075 100.703 136.755Z" fill="black"/>
<path d="M98.5587 136C98.8064 136.017 99.0534 136.252 98.9576 136.522C98.6562 137.369 97.5761 137.979 96.9967 138.661C96.6336 139.084 96.3039 139.535 96.0107 140.009C95.776 140.392 95.595 140.764 95.1204 140.845C94.9322 140.878 94.7204 140.828 94.6213 140.642C94.1467 139.741 95.2751 138.513 95.8454 137.858C96.4477 137.164 97.5542 135.929 98.5587 136Z" fill="black"/>
<path d="M98.1308 127.179C97.6103 125.865 98.3795 124.306 99.4956 123.576C99.5438 123.544 99.5836 123.618 99.5404 123.65C98.3874 124.511 98.1493 125.766 98.3812 127.109C98.3896 127.142 98.3847 127.177 98.3676 127.206C98.3506 127.236 98.3227 127.257 98.29 127.266C98.2572 127.275 98.2222 127.271 98.1925 127.255C98.1627 127.239 98.1406 127.211 98.1308 127.179Z" fill="black"/>
<path d="M95.9888 135.034C96.4404 134.922 96.8062 135.493 96.4538 135.833C95.5389 136.711 94.4369 137.352 93.5623 138.286C93.1965 138.678 92.0849 140.418 91.4994 139.31C91.3874 139.1 91.3667 138.834 91.4994 138.626C92.4328 137.156 94.2626 135.462 95.9888 135.034Z" fill="black"/>
<path d="M95.1697 109.957C95.6269 110.994 96.1048 112.283 95.851 113.419C95.5972 114.554 93.8128 114.831 93.2962 113.755C92.9209 112.97 92.9041 112.074 92.5533 111.27C92.3847 110.882 92.1725 110.515 91.9208 110.176C92.1852 115.297 84.2341 116.314 83.4503 111.789C83.3332 111.392 83.3147 110.914 83.3825 110.431C83.3737 110.306 83.3722 110.18 83.378 110.055C82.3981 110.68 81.5224 111.455 80.7829 112.352C80.2961 112.965 79.947 113.724 79.3823 114.263C78.9823 114.647 78.2309 114.506 78.0998 113.927C77.6281 109.673 82.9108 106.511 86.5547 105.829C90.1089 105.034 93.7377 106.478 95.1697 109.957Z" fill="black"/>
<path d="M93.6421 134.643C93.9463 134.623 94.0595 135.014 93.8785 135.211C93.1922 135.961 92.279 136.434 91.5187 137.106C91.1161 137.459 90.7327 137.833 90.3702 138.227C90.0553 138.573 89.8928 138.793 89.4077 138.802C89.2054 138.806 88.969 138.647 88.9314 138.44C88.7583 137.466 90.052 136.567 90.7383 136.031C91.61 135.357 92.5171 134.72 93.6421 134.643Z" fill="black"/>
<path d="M132.423 162.533C131.609 162.169 131.088 161.35 130.64 160.604C130.538 160.436 130.763 160.285 130.902 160.402C131.572 160.969 132.326 161.397 132.916 162.045C133.286 161.674 133.651 161.3 134.01 160.918C133.226 160.263 132.751 159.257 132.46 158.288C132.456 158.269 132.457 158.25 132.465 158.232C132.472 158.215 132.485 158.2 132.501 158.191C132.517 158.181 132.536 158.177 132.555 158.18C132.574 158.182 132.592 158.19 132.605 158.203C133.264 158.884 134.062 159.447 134.755 160.108C135.134 159.689 135.507 159.264 135.876 158.835C135.284 158.659 134.768 158.29 134.411 157.786C134.255 157.559 134.236 157.258 134.074 157.05C134.023 156.981 134.13 156.909 134.186 156.961C134.328 157.091 134.605 157.121 134.784 157.195C135.378 157.446 135.948 157.747 136.49 158.096C136.852 157.655 137.207 157.21 137.555 156.759C137.093 156.372 136.673 155.937 136.301 155.462C136.165 155.288 136.329 155.056 136.538 155.155C137.078 155.411 137.591 155.723 138.068 156.084C144.721 147.27 148.705 136.519 149.535 125.509C149.703 123.333 149.733 121.147 149.941 118.978C149.974 118.649 150.462 118.529 150.553 118.896C151.26 121.722 151.326 124.784 151.108 127.751C151.251 127.738 151.395 127.757 151.53 127.807C152.385 128.124 153.092 128.357 153.862 127.668C155.711 125.787 154.193 123.058 153.526 120.997C153.456 120.873 153.418 120.735 153.414 120.593C152.814 118.442 153.651 115.707 155.84 114.805C157.291 114.212 159.001 114.499 159.874 115.873C160.055 116.158 159.67 116.385 159.443 116.209C157.35 114.612 154.467 116.537 154.785 119.021C156.561 118.426 158.159 119.353 159.129 120.818C159.479 121.26 159.057 121.826 158.533 121.591C157.616 121.23 156.32 120.414 155.383 121.014C156.718 123.428 157.576 126.591 155.638 128.938C154.558 130.245 152.4 130.911 150.897 129.996C150.687 131.815 150.387 133.625 150.005 135.414C156.15 137.665 160.889 132.073 161.853 126.446C162.811 121.033 163.911 112.739 158.883 109.026C157.721 108.229 156.31 107.813 154.9 108.023C154.374 108.115 153.81 108.24 153.339 108.519C152.528 109.028 151.674 109.904 151.715 110.935C151.76 111.518 151.183 112.024 150.631 112.018C149.998 112.012 149.613 111.521 149.547 110.935C149.396 109.591 149.434 108.218 149.296 106.866C149.156 105.517 148.938 104.178 148.642 102.854C148.349 101.539 147.945 100.238 147.876 98.8835C147.74 95.5069 150.04 92.705 150.442 89.4152C150.696 87.6437 150.6 85.7215 149.823 84.0861C149.013 82.3818 147.442 81.3369 146.296 79.8903C145.63 79.0647 145.185 78.0829 145.003 77.0375C144.822 76.0117 144.835 74.9562 144.611 73.9376C142.493 66.3277 132.42 67.1378 127.73 62.0687C122.999 65.8784 116.627 67.6152 110.605 66.9659C103.177 66.2375 97.1378 61.7056 90.8372 58.157C88.6751 58.9038 86.493 59.4971 84.4592 60.5879C76.3596 64.9579 71.5285 74.0038 70.5256 82.9549C70.3228 85.4419 70.6987 87.9412 70.4136 90.4209C69.2068 99.2129 60.5245 103.401 61.5335 113.312C61.6215 114.474 59.7967 114.471 59.7222 113.312C59.5956 111.36 58.6728 109.9 57.3361 108.748C55.4939 107.604 53.0647 107.775 51.3195 109.029C48.8762 110.704 47.8761 113.805 47.6677 116.626C47.4374 122.5 47.7344 130.134 52.6271 134.157C54.8121 135.91 57.5882 136.387 60.1984 135.417C59.8163 133.627 59.5183 131.817 59.3065 129.998C57.8028 130.913 55.6452 130.247 54.5667 128.94C52.6271 126.595 53.4865 123.429 54.8199 121.016C53.8849 120.415 52.5851 121.233 51.6719 121.593C51.1463 121.829 50.7245 121.262 51.0741 120.82C52.0444 119.355 53.6406 118.428 55.4183 119.023C55.7365 116.541 52.854 114.614 50.7614 116.212C50.5329 116.389 50.148 116.162 50.3289 115.875C51.2007 114.502 52.91 114.214 54.3628 114.808C56.5528 115.709 57.3882 118.444 56.7892 120.596C56.7853 120.737 56.7468 120.876 56.6772 120.999C56.0094 123.063 54.495 125.788 56.341 127.67C57.1108 128.36 57.8184 128.127 58.6745 127.809C58.8088 127.759 58.9526 127.74 59.0953 127.753C58.879 124.784 58.9434 121.724 59.6499 118.898C59.7412 118.533 60.2309 118.651 60.2617 118.98C60.4707 121.15 60.5032 123.335 60.6685 125.511C61.5016 136.561 65.5119 147.349 72.2098 156.183C72.7229 155.781 73.2791 155.437 73.8681 155.157C74.0765 155.058 74.2407 155.29 74.1045 155.465C73.6989 155.981 73.2376 156.45 72.7291 156.865C73.077 157.313 73.4339 157.754 73.7936 158.191C74.3539 157.778 74.987 157.479 75.6223 157.197C75.8016 157.124 76.0767 157.094 76.2201 156.964C76.2761 156.912 76.3854 156.984 76.3321 157.052C76.1713 157.261 76.1512 157.562 75.996 157.789C75.6075 158.343 75.025 158.731 74.3639 158.876C74.7502 159.329 75.1436 159.774 75.5444 160.213C76.2571 159.508 77.107 158.924 77.7978 158.205C77.8115 158.192 77.8291 158.184 77.8479 158.182C77.8667 158.18 77.8858 158.184 77.9022 158.193C77.9185 158.203 77.9314 158.217 77.9387 158.235C77.9461 158.252 77.9475 158.272 77.9429 158.29C77.6403 159.304 77.135 160.36 76.2817 161.012C76.6464 161.398 77.0173 161.776 77.3927 162.152C77.9911 161.441 78.7989 161.002 79.5026 160.404C79.6416 160.287 79.8674 160.437 79.7637 160.607C79.292 161.401 78.7345 162.249 77.8443 162.599C78.325 163.067 78.8137 163.527 79.3105 163.979C80.1312 163.263 81.1531 162.443 81.5963 161.434C81.6008 161.422 81.6096 161.412 81.6209 161.406C81.6323 161.4 81.6455 161.398 81.6578 161.402C81.6702 161.405 81.6809 161.413 81.6879 161.424C81.6948 161.434 81.6975 161.447 81.6955 161.46C81.575 161.911 81.6042 162.371 81.4478 162.818C81.1581 163.542 80.6801 164.174 80.0634 164.651C80.2226 164.792 80.3833 164.928 80.5453 165.065C81.524 164.26 82.7213 163.583 83.1757 162.369C83.1782 162.362 83.1832 162.356 83.1896 162.353C83.1961 162.35 83.2036 162.349 83.2106 162.351C83.2176 162.352 83.2237 162.357 83.2276 162.363C83.2315 162.369 83.2329 162.377 83.2317 162.384C82.8653 163.756 82.584 164.852 81.403 165.782C81.9566 166.237 82.5157 166.683 83.0877 167.115C82.8591 166.286 82.7459 165.442 82.8109 164.606C82.8451 164.158 83.4059 163.983 83.6609 164.376C83.7214 164.468 83.7785 164.561 83.8373 164.653C84.1107 163.55 84.8062 162.599 85.7741 162.004C86.0123 161.862 86.2224 162.177 86.0543 162.367C85.085 163.487 84.8217 164.72 84.685 166.1C84.7466 166.213 84.8071 166.318 84.8671 166.427C85.0279 164.568 85.9316 162.818 87.7451 162.172C88.2454 161.97 88.5132 162.746 88.0958 163.007C86.1349 164.239 86.6151 166.74 86.1669 168.652C86.2789 168.821 86.391 168.992 86.503 169.157C86.5725 166.898 87.2874 164.66 88.8953 163.068C89.2909 162.692 89.8842 163.168 89.6354 163.638C89.0326 164.774 88.4656 165.914 88.1905 167.179C87.9401 168.322 88.223 169.656 87.7546 170.725C88.1151 171.133 88.4865 171.528 88.869 171.909C88.1782 168.982 89.2752 165.414 91.1392 163.179C91.3414 162.947 91.6585 163.202 91.612 163.454C90.9492 166.386 89.478 168.764 90.3694 171.901C90.3744 169.368 91.1268 167.039 92.3538 164.859C92.6647 164.29 93.504 164.793 93.2177 165.363C92.4333 166.921 92.0804 168.751 91.9459 170.474C91.8339 171.897 92.1022 173.25 92.2182 174.638C92.7897 175.015 93.3863 175.351 93.9892 175.669C92.4513 172.349 93.281 168.85 94.592 165.682C94.7601 165.286 95.4106 165.574 95.2795 165.972C94.499 168.525 94.1298 171.842 95.117 174.373C95.3304 174.97 96.4089 176.009 96.0168 176.608C96.1479 176.664 96.2778 176.714 96.4089 176.765C95.4632 173.945 95.4851 171.048 96.2885 168.235C96.3921 167.87 97.0241 167.932 96.9714 168.328C96.6549 170.756 96.9826 173.247 97.7558 175.561C97.9676 176.203 98.292 176.824 98.4684 177.476C98.6552 177.534 98.8442 177.59 99.0354 177.645C98.0494 173.357 97.158 168.249 99.9565 164.453C100.151 164.202 100.517 164.481 100.453 164.742C99.2304 169.401 99.7554 173.63 101.191 178.178C101.363 178.215 101.534 178.251 101.706 178.284C99.8853 173.27 100.219 166.959 102.793 162.285C103.004 161.91 103.599 162.167 103.482 162.575C102.261 166.625 101.815 170.937 102.762 175.096C102.966 176.258 103.539 177.433 103.551 178.603C103.831 178.638 104.111 178.666 104.391 178.691C104.279 176.34 104.037 174.05 104.055 171.704C104.088 169.435 104.504 167.307 104.902 165.093C104.783 164.537 105.622 164.537 105.503 165.093C105.895 167.308 106.316 169.436 106.35 171.704C106.366 174.044 106.122 176.33 106.014 178.672C106.297 178.646 106.574 178.616 106.854 178.576C106.882 177.416 107.442 176.249 107.647 175.096C108.593 170.937 108.148 166.625 106.927 162.575C106.81 162.167 107.405 161.91 107.615 162.285C110.196 167.003 110.509 173.176 108.726 178.24C108.894 178.205 109.062 178.168 109.226 178.131C110.664 173.631 111.169 169.352 109.955 164.741C109.895 164.48 110.256 164.202 110.453 164.452C113.237 168.226 112.366 173.314 111.389 177.582C111.58 177.526 111.771 177.47 111.959 177.409C113.136 174.552 113.873 171.435 113.434 168.328C113.383 167.933 114.015 167.871 114.117 168.236C114.916 171.019 114.938 173.876 114.03 176.675C114.137 176.632 114.244 176.587 114.35 176.542C114.1 175.896 115.061 174.991 115.29 174.374C116.279 171.843 115.91 168.524 115.128 165.973C114.998 165.574 115.645 165.286 115.817 165.683C117.118 168.813 117.911 172.206 116.5 175.519C117.083 175.208 117.649 174.868 118.196 174.498C118.66 171.449 118.588 168.194 117.184 165.365C116.898 164.796 117.737 164.293 118.048 164.861C119.275 167.042 120.026 169.371 120.031 171.904C120.922 168.77 119.453 166.387 118.79 163.457C118.742 163.205 119.06 162.952 119.261 163.182C121.125 165.448 122.097 168.657 121.609 171.63C121.943 171.287 122.268 170.934 122.584 170.57C122.21 169.527 122.448 168.269 122.21 167.181C121.935 165.917 121.369 164.776 120.767 163.64C120.517 163.17 121.111 162.695 121.505 163.07C123.06 164.591 123.734 166.703 123.899 168.859C123.995 168.714 124.091 168.566 124.183 168.417C123.82 166.54 124.186 164.187 122.304 163.007C121.888 162.746 122.156 161.97 122.656 162.172C124.364 162.788 125.282 164.373 125.497 166.133C125.559 166.021 125.622 165.914 125.684 165.802C125.539 164.543 125.245 163.406 124.347 162.367C124.179 162.177 124.39 161.863 124.627 162.004C125.529 162.558 126.198 163.42 126.51 164.43C126.553 164.336 126.627 164.258 126.72 164.211C126.813 164.164 126.919 164.149 127.021 164.169C127.124 164.19 127.216 164.244 127.284 164.323C127.351 164.402 127.39 164.502 127.394 164.606C127.459 165.442 127.346 166.287 127.117 167.115C127.723 166.657 128.318 166.183 128.904 165.7C127.797 164.787 127.525 163.695 127.174 162.384C127.162 162.347 127.217 162.333 127.23 162.369C127.67 163.54 128.799 164.212 129.759 164.981C129.918 164.844 130.079 164.708 130.238 164.569C129.672 164.101 129.232 163.499 128.958 162.818C128.802 162.37 128.832 161.911 128.711 161.46C128.708 161.447 128.709 161.433 128.716 161.422C128.723 161.41 128.734 161.402 128.747 161.398C128.76 161.395 128.773 161.396 128.785 161.403C128.797 161.41 128.805 161.421 128.809 161.434C129.227 162.401 130.209 163.202 130.989 163.894C131.475 163.447 131.953 162.994 132.423 162.533ZM110.177 54.4089C109.852 50.9577 109.191 47.3015 106.225 45.1036C106.215 45.0977 106.208 45.0881 106.205 45.077C106.202 45.0658 106.204 45.0541 106.21 45.0442C106.216 45.0344 106.226 45.0274 106.237 45.0247C106.248 45.0219 106.26 45.0237 106.269 45.0297C111.907 47.5144 113.721 60.1375 110.279 64.7321C110.744 64.7786 111.21 64.8111 111.675 64.8262C111.972 64.5097 112.345 64.2408 112.62 63.8962C113.927 62.1202 114.561 59.9212 115.156 57.8259C115.961 54.8492 116.392 51.109 114.533 48.403C114.505 48.3615 114.569 48.315 114.601 48.3509C117.137 50.8513 117.582 54.6313 116.854 57.9872C116.366 60.3644 115.766 62.5662 114.567 64.7344C115.052 64.6869 115.535 64.6227 116.013 64.5416C116.217 64.0593 116.633 63.9125 117.012 63.6066C117.354 63.3298 117.637 62.9712 117.879 62.6082C119.579 59.9946 120.926 56.958 120.288 53.782C120.271 53.6878 120.394 53.5842 120.469 53.6772C122.725 56.6303 121.206 60.7291 119.565 63.6295C123.85 62.1012 128.133 59.1772 129.66 54.7019C129.986 53.6878 130.071 52.629 130.214 51.5785C130.399 50.2417 132.593 50.3157 132.842 51.5785C133.529 55.4078 131.057 59.0937 128.326 61.551C134.403 65.833 145.205 65.7669 146.613 74.7226C146.765 75.7994 146.825 76.9445 147.378 77.9076C147.833 78.7004 148.499 79.3279 149.151 79.9581C152.316 82.7661 153.198 86.6145 152.344 90.6758C151.93 92.8008 150.876 94.6676 150.287 96.731C149.612 99.0986 150.619 101.373 151.068 103.69C151.32 104.982 151.505 106.286 151.621 107.597C153.459 105.813 156.302 105.449 158.633 106.333C158.873 105.472 159.273 104.623 159.464 103.763C159.897 101.998 159.676 99.8555 158.191 98.6364C157.396 98.0073 156.286 97.726 155.372 97.2918C155.086 97.1557 155.143 96.6397 155.463 96.5904C157.265 96.3103 158.987 96.6968 160.212 97.8095C160.419 96.6996 161.096 95.6951 161.147 94.5376C161.451 92.0282 160.325 89.5446 158.554 87.8028C157.695 86.9423 156.633 85.9764 155.54 85.4335C155.179 85.2542 155.437 84.6643 155.814 84.7864C156.536 85.0167 157.29 85.1539 157.974 85.4862C158.763 85.8727 159.48 86.3826 160.143 86.9546C161.944 77.9401 158.943 68.3816 152.831 61.6048C151.446 59.9711 149.726 58.6702 148.258 57.1261C147.467 59.6994 146.285 62.9645 143.623 64.0682C143.018 64.2923 142.342 63.5982 142.554 62.9987C142.965 61.8378 143.756 61.0098 144.398 59.9733C144.977 59.0462 145.438 58.0499 145.769 57.0079C147.907 50.6933 144.501 44.7064 138.533 42.2228C139.343 46.6286 139.177 51.2429 137.786 55.5008C137.274 57.0219 136.635 58.8965 135.399 59.9828C134.663 60.6288 133.396 60.0198 133.692 58.989C133.937 58.1391 134.397 57.4079 134.778 56.6168C135.873 54.2957 136.471 51.755 136.666 49.2002C137.898 34.6118 128.353 27.1671 114.367 30.7617C119.909 34.865 128.021 44.0492 127.321 51.3297C127.117 52.5623 125.431 52.2945 125.086 51.3297C124.615 50.0182 124.485 48.6069 124.039 47.2746C121.213 39.5801 113.188 31.2149 105.079 29.3028C95.4789 27.022 84.8648 30.5286 78.218 37.7503C75.3169 40.8967 73.4558 44.5949 71.7565 48.4511C72.9 48.1548 74.0608 47.9139 75.2228 47.7284C76.7915 47.478 78.3491 47.5603 79.9133 47.3923C79.9548 47.3878 79.9643 47.4589 79.9239 47.4634C79.0785 47.5839 78.2779 47.8836 77.4588 48.1189C75.0575 48.7587 72.6406 49.3722 70.3223 50.2776C60.4668 53.7052 51.5912 62.8883 52.933 73.9444C54.6496 70.9509 57.1613 68.4718 60.3032 66.9759C60.371 66.9406 60.4497 66.9327 60.5232 66.9538C60.5967 66.975 60.6591 67.0236 60.6977 67.0896C60.7362 67.1557 60.7479 67.234 60.7303 67.3084C60.7126 67.3827 60.667 67.4475 60.6029 67.4891C54.4687 71.7006 50.6864 79.1788 52.3005 86.6229C54.072 83.1583 56.7114 80.1957 60.2628 78.4992C60.2924 78.4843 60.3265 78.4812 60.3583 78.4905C60.39 78.4997 60.4171 78.5208 60.434 78.5492C60.4508 78.5777 60.4563 78.6115 60.4491 78.6438C60.442 78.6762 60.4229 78.7046 60.3956 78.7233C54.8922 82.7941 51.3828 89.4875 51.7492 96.3831C52.6344 94.3914 55.8738 88.9653 58.3266 89.3099C58.8056 89.3659 58.9087 89.9771 58.4386 90.1503C57.6442 90.4438 57.0027 91.1587 56.4279 91.7543C53.7386 94.5421 52.0467 98.2532 51.617 102.099C51.464 103.513 51.5536 104.887 51.6539 106.293C52.9767 105.798 54.4653 105.74 55.8435 106.091C57.5299 106.368 58.916 107.618 59.9004 109.004C60.7116 103.178 65.2755 99.0191 67.7019 93.8944C68.986 91.1699 68.8577 88.2185 68.8499 85.2789C67.7933 85.2324 66.777 85.373 65.759 85.6481C64.8183 85.9002 63.537 86.2083 62.7487 86.7904C62.4815 86.9865 62.1884 86.5663 62.4058 86.3467C62.8798 85.8598 63.2047 85.3035 63.7504 84.8788C65.22 83.7533 67.1058 83.3006 68.9339 83.3701C69.0322 81.9623 69.2598 80.5666 69.6141 79.2007C68.3143 79.3687 67.1025 79.6164 65.8604 80.1806C64.4597 80.817 63.2272 81.7369 61.8825 82.4675C61.4713 82.6916 61.1621 82.1924 61.417 81.8652C63.3986 79.4617 66.9316 77.4392 70.101 77.4667C72.7779 68.3626 79.4679 59.4097 89.2231 57.5217C86.6991 56.7597 83.9964 57.1104 81.4322 57.5026C76.6184 58.2382 71.7285 59.3867 67.7271 62.3045C67.6269 62.3785 67.5081 62.2166 67.596 62.1365C72.0456 57.7273 83.4861 54.559 89.5396 55.9882C91.9134 56.6393 93.9858 58.0657 96.0879 59.2893C98.553 60.7269 101.138 62.1146 103.841 63.1421C104.24 61.9723 104.583 60.8182 104.537 59.566C104.189 54.4274 101.333 49.6338 97.5126 46.2785C96.7705 45.6421 95.9941 45.0468 95.187 44.4952C94.3802 43.9349 93.5163 43.3007 92.6166 42.908C92.5936 42.8974 92.6104 42.8587 92.6339 42.8677C93.5936 43.2559 94.5455 43.526 95.4772 43.9977C101.949 47.2953 108.448 56.4734 106.098 63.9035C106.755 64.0951 107.418 64.26 108.087 64.3982C110.625 61.7572 110.521 57.804 110.177 54.4089ZM164.318 113.395C165.815 119.72 164.984 130.667 160.045 135.344C157.306 137.975 153.057 139.508 149.418 137.895C145.893 151.389 137.555 163.722 125.844 171.41C125.494 171.642 125.031 171.354 124.844 171.608C120.234 177.803 111.641 180.302 107.938 181.277C106.499 181.657 104.129 181.697 102.401 181.256C95.9708 179.611 89.2948 177.104 85.3568 171.608C85.0537 171.687 84.7074 171.643 84.3567 171.411C72.6473 163.722 64.3079 151.39 60.7828 137.895C57.145 139.509 52.8949 137.975 50.1564 135.345C47.4627 132.755 46.2435 129.02 45.7303 125.406C44.8491 119.157 44.3936 110.995 50.2768 106.986C49.6897 104.563 50.0001 101.899 50.6556 99.4415C50.0281 98.6572 50.0393 97.6056 50.0001 96.6089C49.8931 93.9575 50.339 91.3129 51.3094 88.8432C50.6931 88.0588 50.6415 86.7753 50.525 85.8234C50.1171 82.5656 50.5635 79.2578 51.8203 76.2246C50.9654 74.7517 50.7648 73.2653 50.8119 71.579C50.9138 60.3672 60.2959 51.374 70.72 48.7408C73.783 30.4491 97.9569 19.5936 113.459 30.132C123.863 25.762 136.174 29.435 138.387 41.499C145.549 41.7231 150.029 49.9386 148.416 56.4678C150.811 57.1961 152.935 59.2405 154.653 60.9958C159.948 66.363 162.867 73.8491 162.936 81.3616C162.955 82.6637 162.888 83.9658 162.737 85.2593C162.614 86.3237 162.572 87.9434 161.819 88.8169C162.987 90.5396 163.586 92.6927 163.373 94.7746C163.254 95.8626 162.966 97.456 162.105 98.321C161.891 98.6715 161.617 98.9817 161.296 99.2376C162.626 101.88 161.886 105.018 160.775 107.609C162.528 109.071 163.74 111.257 164.318 113.395Z" fill="black"/>
<path d="M92.5191 103.974C92.7757 104.416 92.2732 104.87 91.8468 104.646C91.1342 104.277 90.635 103.598 89.9134 103.22C86.6695 101.681 82.3656 103.733 79.9918 106.06C79.0489 107.004 78.5222 108.232 77.6241 109.186C77.6028 109.207 77.5758 109.221 77.5466 109.227C77.5174 109.232 77.4871 109.229 77.4596 109.218C77.4321 109.207 77.4084 109.188 77.3916 109.163C77.3747 109.139 77.3654 109.11 77.3647 109.08C77.4802 106.326 81.021 103.575 83.3718 102.543C86.2622 101.147 90.5638 100.992 92.5191 103.974Z" fill="black"/>
<path d="M91.1368 133.802C91.4489 133.731 91.659 134.172 91.3609 134.33C90.0365 135.068 88.7316 135.955 87.6251 136.993C87.3041 137.294 87.1013 137.52 86.6408 137.508C86.5262 137.505 86.417 137.458 86.336 137.377C86.2551 137.296 86.2087 137.187 86.2066 137.072C86.1505 136.167 87.4755 135.445 88.1383 135.003C89.1025 134.361 90.0314 134.054 91.1368 133.802Z" fill="black"/>
<path d="M91.3896 125.251C88.1166 127.492 84.7455 129.612 81.5885 132.015C80.0539 133.182 78.1345 134.411 77.1652 136.123C76.6834 136.975 76.4638 137.95 76.3646 138.916C76.28 139.731 76.4207 140.662 76.1887 141.445C76.1672 141.517 76.1228 141.58 76.0622 141.626C76.0017 141.671 75.9281 141.695 75.8526 141.695C75.777 141.695 75.7035 141.671 75.6429 141.626C75.5823 141.58 75.538 141.517 75.5164 141.445C75.2598 140.576 75.4419 139.424 75.5517 138.535C75.7977 135.348 78.0045 133.615 80.3968 131.864C83.806 129.231 87.344 126.831 91.3151 125.126C91.3317 125.116 91.3516 125.113 91.3704 125.118C91.3891 125.123 91.4052 125.135 91.4151 125.151C91.425 125.168 91.4278 125.188 91.423 125.207C91.4183 125.225 91.4062 125.242 91.3896 125.251Z" fill="black"/>
<path d="M90.9002 91.8355C91.5092 93.03 91.3283 94.7595 90.9378 96.0033C90.4862 97.4375 89.4615 98.2768 87.9841 98.5071C86.2131 98.7821 84.4651 99.0001 82.7451 99.5334C81.1567 100.021 79.6597 100.767 78.3146 101.743C77.0361 102.672 76.0596 103.919 75.0489 105.115C74.7923 105.418 74.3626 105.086 74.4326 104.755C74.4634 104.604 74.5037 104.455 74.5446 104.307C74.4876 104.251 74.4436 104.184 74.4158 104.109C74.3881 104.035 74.3774 103.955 74.3844 103.876C74.7441 97.0745 80.5349 91.2249 87.239 90.4103C88.6161 90.2512 90.2083 90.4752 90.9002 91.8355ZM89.3814 94.7209C89.9747 91.7846 88.1852 92.044 86.0243 92.5291C81.2862 93.5522 77.8014 97.0252 76.3022 101.437C79.2553 98.4746 83.2891 97.3524 87.2871 96.8431C87.825 96.7658 88.4295 96.7058 88.8172 96.2828C89.1898 95.8767 89.313 95.2509 89.3814 94.7209Z" fill="black"/>
<path d="M88.7823 132.734C89.1532 132.76 89.3913 133.315 88.9908 133.503C88.3184 133.819 87.617 134.069 86.9912 134.475C86.399 134.86 85.9446 135.494 85.274 135.732C84.8941 135.867 84.619 135.468 84.6779 135.135C84.9513 133.794 87.5016 132.596 88.7823 132.734Z" fill="black"/>
<path d="M81.832 134.702C82.7934 133.391 84.4529 132.691 86.0015 132.349C86.2166 132.3 86.2878 132.593 86.0911 132.67C84.64 133.234 83.626 134.213 82.4348 135.169C82.1239 135.415 81.5558 135.08 81.832 134.702Z" fill="black"/>
<path d="M83.4101 132.45C82.6067 133.088 81.7736 133.702 81.001 134.377C80.2127 135.02 79.8524 135.566 79.6468 136.562C79.5589 136.831 79.1555 136.925 79.012 136.646C77.9638 134.61 81.9635 132.882 83.172 132.144C83.3591 132.03 83.5849 132.311 83.4101 132.45Z" fill="black"/>
<path d="M75.2525 114.118C75.5461 114.179 75.5539 114.663 75.2525 114.719C74.6116 114.838 73.9684 114.977 73.3516 115.192C72.7347 115.406 72.1896 115.779 71.5727 116C71.2562 116.112 70.9004 115.683 71.1139 115.403C72.0165 114.221 73.8569 113.828 75.2525 114.118Z" fill="black"/>
<path d="M72.4526 117.066C73.0622 116.4 73.8072 115.873 74.6376 115.519C74.7721 115.46 74.8914 115.655 74.7553 115.719C73.9582 116.088 73.2497 116.625 72.6778 117.292C72.5439 117.447 72.3137 117.218 72.4526 117.066Z" fill="black"/>
<path d="M88.2181 112.831C88.9112 112.831 89.4731 112.301 89.4731 111.646C89.4731 110.992 88.9112 110.461 88.2181 110.461C87.525 110.461 86.9631 110.992 86.9631 111.646C86.9631 112.301 87.525 112.831 88.2181 112.831Z" fill="white"/>
<path d="M123.621 112.831C124.314 112.831 124.876 112.301 124.876 111.646C124.876 110.992 124.314 110.461 123.621 110.461C122.928 110.461 122.366 110.992 122.366 111.646C122.366 112.301 122.928 112.831 123.621 112.831Z" fill="white"/>
</g>
<defs>
<linearGradient id="paint0_linear_150_1542" x1="13.5" y1="37" x2="179.5" y2="230.5" gradientUnits="userSpaceOnUse">
<stop stop-color="#DD3DCD" stop-opacity="0.11"/>
<stop offset="1" stop-color="#DD3DCD" stop-opacity="0.55"/>
</linearGradient>
</defs>
</svg>
