<svg width="200" height="237" viewBox="0 0 200 237" fill="none" xmlns="http://www.w3.org/2000/svg">
<mask id="mask0_150_1367" style="mask-type:alpha" maskUnits="userSpaceOnUse" x="0" y="0" width="200" height="237">
<path fill-rule="evenodd" clip-rule="evenodd" d="M200 0H0V137V141H0.078538C2.17815 194.374 46.1112 237 100 237C153.889 237 197.822 194.374 199.921 141H200V137V0Z" fill="#C4C4C4"/>
</mask>
<g mask="url(#mask0_150_1367)">
<circle cx="100" cy="137" r="100" fill="url(#paint0_linear_150_1367)"/>
<path d="M124.396 186.488C125.55 193.83 126.002 201.294 125.399 208.715C124.99 214.089 124.168 219.408 123.065 224.674C122.335 226.349 121.545 227.995 120.628 229.577C119.315 224.018 115.197 219.454 110.356 216.589C112.591 212.501 113.67 208.043 115.703 203.887C118.704 198.284 121.356 192.769 121.063 186.236C121.068 185.248 121.054 184.26 121.028 183.271C121.966 184.522 123.126 185.565 124.396 186.488Z" fill="#E3E8F1"/>
<path d="M83.7624 203.887C85.7932 208.043 86.8729 212.504 89.1091 216.589C84.2685 219.454 80.1487 224.02 78.837 229.577C77.92 227.995 77.1305 226.349 76.3999 224.674C74.4661 215.491 73.4106 206.071 73.9358 196.679C74.1089 193.25 74.6046 189.877 75.0692 186.488C76.3388 185.567 77.4999 184.522 78.4376 183.271C77.9506 192.027 79.7222 196.351 83.7624 203.887Z" fill="#E3E8F1"/>
<path d="M98.5137 225.157V286.984C89.3351 269.525 83.2492 250.584 78.0104 231.615C78.3941 231.798 78.8731 231.652 79.1553 231.344C79.2008 231.343 79.2455 231.333 79.2867 231.314C79.3279 231.295 79.3646 231.267 79.3942 231.233C80.392 230.129 80.9968 228.757 81.8232 227.525C84.1379 224.146 87.0112 221.064 90.6324 219.073C92.5939 221.893 95.147 224.22 98.5137 225.157Z" fill="#E3E8F1"/>
<path d="M120.309 231.344C120.592 231.652 121.07 231.798 121.453 231.615C116.074 251.03 109.867 270.451 100.265 288.23V225.412C103.871 224.428 106.76 222.158 108.831 219.073C112.453 221.064 115.326 224.146 117.641 227.525C118.467 228.757 119.074 230.129 120.071 231.233C120.101 231.267 120.137 231.295 120.178 231.314C120.219 231.334 120.263 231.344 120.309 231.344Z" fill="#E3E8F1"/>
<path d="M95.0779 291.825H35.2634C34.819 278.408 35.148 264.974 34.8127 251.562C34.7954 251.319 34.4024 251.227 34.3579 251.5C33.5091 256.721 33.3769 262.098 33.1622 267.377C32.8456 275.522 32.7846 283.672 32.9793 291.825H6.69299C11.2312 265.598 15.4832 235.572 21.4953 209.755C21.7786 208.936 22.3949 208.594 23.1942 208.335C35.2669 204.891 47.107 200.621 58.4854 195.308C56.4431 203.538 54.6506 211.823 52.7803 220.09C51.7646 223.457 52.3284 224.617 55.7413 225.614L58.6066 226.667C57.1581 229.043 55.7275 231.43 54.3148 233.828C52.4346 236.669 51.5626 239.362 53.0146 242.627C62.4667 262.253 77.3538 279.192 95.0779 291.825Z" fill="#11395B"/>
<path d="M80.2283 249.583C84.5997 263.047 89.3145 276.505 96.1247 288.962C88.6266 283.663 81.7391 277.538 75.5516 270.751C67.4885 261.623 59.9114 251.573 55.1677 240.313C54.7869 238.705 55.4563 237.358 56.2498 235.995C58.0647 232.881 59.9068 229.784 61.6848 226.649C62.1158 225.887 61.7067 224.993 60.8999 224.728C59.2987 224.202 57.6961 223.676 56.0922 223.152C55.7933 223.054 54.7759 222.836 54.6934 222.674C56.5066 213.246 58.8132 203.819 60.5514 194.34C64.7491 192.354 68.8764 190.256 72.8866 187.912C68.3767 208.624 73.9167 229.84 80.2283 249.583Z" fill="#11395B"/>
<path d="M144.77 222.678C144.687 222.84 143.673 223.058 143.372 223.156C141.769 223.682 140.166 224.207 138.563 224.732C137.755 224.997 137.347 225.891 137.78 226.653C139.558 229.788 141.398 232.885 143.213 235.999C145.414 239.258 144.084 241.507 142.395 244.574C133.046 262.113 119.579 277.47 103.34 288.962C106.617 282.972 109.415 276.73 111.914 270.375C121.306 244.209 132.319 216.072 126.577 187.915C130.586 190.26 134.714 192.358 138.914 194.344C140.65 203.821 142.958 213.25 144.77 222.678Z" fill="#11395B"/>
<path d="M192.141 291.825H165.904C166.1 283.675 166.038 275.526 165.719 267.377C165.509 262.098 165.373 256.72 164.524 251.5C164.479 251.227 164.086 251.319 164.07 251.562C163.736 264.976 164.062 278.408 163.618 291.825H104.388C122.11 279.192 136.997 262.252 146.449 242.627C147.9 239.38 147.027 236.655 145.149 233.828C143.731 231.435 142.301 229.048 140.859 226.669C141.815 226.318 142.769 225.967 143.723 225.616C147.139 224.612 147.699 223.467 146.686 220.092C144.815 211.825 143.021 203.539 140.98 195.31C152.359 200.624 164.197 204.892 176.27 208.337C177.069 208.596 177.685 208.937 177.97 209.757C184.014 235.16 187.786 265.094 192.141 291.825Z" fill="#11395B"/>
<path d="M117.125 165.202C117.833 173.021 118.559 180.896 118.271 188.752C118.059 194.619 114.635 199.513 112.34 204.718C109.533 211.327 107.665 220.493 99.732 222.594C94.9901 221.476 92.0868 217.046 90.2718 212.796C89.1367 210.138 88.2584 207.378 87.125 204.718C85.9916 202.058 84.5362 199.558 83.3231 196.936C80.6299 191.514 81.0027 185.367 81.2935 179.491C81.432 176.344 81.6311 173.201 81.8908 170.061C82.2371 167.223 82.128 164.255 83.0767 161.531C84.202 158.778 87.4528 158.311 90.0202 157.693C93.2248 156.78 96.5852 156.393 99.732 155.321C102.879 156.391 106.24 156.78 109.444 157.693C114.377 158.704 116.858 159.695 117.125 165.202Z" fill="#F3D7C7"/>
<path d="M195.562 294H3.71553C3.31157 293.515 3.35427 292.692 3.80152 292.252C6.96914 265.789 12.2674 238.018 17.9009 211.98C18.4913 208.118 19.3667 206.166 23.3896 205.142C35.7549 201.611 47.8186 197.103 59.4661 191.661C59.5345 191.571 59.6233 191.499 59.7252 191.451C59.8271 191.402 59.9391 191.379 60.0519 191.383C64.7142 189.098 69.4676 186.945 73.9597 184.333C74.0618 183.974 74.4404 183.786 74.778 183.812C76.1422 182.918 77.4972 181.912 78.5291 180.655C78.7489 175.756 79.0802 170.868 79.5718 165.986C79.8488 163.217 80.0762 160.092 82.2461 158.065C85.7242 155.105 90.761 155.051 95.0545 154.214C99.7981 153.428 104.558 154.111 109.239 155.015C116.442 156.126 119.596 158.402 119.897 165.986C120.389 170.866 120.72 175.756 120.94 180.655C121.971 181.912 123.327 182.918 124.691 183.812C125.027 183.786 125.406 183.974 125.509 184.333C129.998 186.945 134.752 189.098 139.414 191.383C139.527 191.379 139.639 191.402 139.741 191.451C139.844 191.499 139.933 191.571 140.001 191.661C151.649 197.103 163.712 201.612 176.076 205.144C180.093 206.157 180.982 208.124 181.565 211.98C184.386 225.31 187.086 238.664 189.666 252.044C191.707 262.635 193.671 282.823 195.562 294ZM165.904 291.826H192.141C187.786 265.095 184.015 235.16 177.97 209.755C177.686 208.936 177.07 208.595 176.27 208.335C164.198 204.891 152.359 200.621 140.98 195.308C143.021 203.538 144.815 211.823 146.686 220.091C147.7 223.466 147.139 224.611 143.723 225.614C142.77 225.965 141.815 226.316 140.86 226.667C142.307 229.043 143.737 231.43 145.15 233.828C147.028 236.655 147.9 239.38 146.45 242.627C136.998 262.252 122.111 279.192 104.388 291.826H163.618C164.063 278.408 163.734 264.974 164.071 251.562C164.086 251.319 164.479 251.227 164.524 251.501C165.374 256.721 165.509 262.098 165.719 267.377C166.036 275.522 166.098 283.672 165.904 291.826ZM143.373 223.157C143.672 223.059 144.688 222.841 144.771 222.679C142.959 213.25 140.651 203.822 138.914 194.345C134.715 192.359 130.587 190.261 126.577 187.917C132.319 216.074 121.307 244.211 111.915 270.376C109.415 276.732 106.618 282.973 103.341 288.964C119.58 277.47 133.05 262.114 142.396 244.575C144.084 241.508 145.415 239.259 143.214 236.001C141.399 232.886 139.559 229.789 137.781 226.655C137.347 225.892 137.757 224.998 138.564 224.733C140.167 224.206 141.77 223.681 143.373 223.157ZM125.399 208.715C126.003 201.294 125.551 193.83 124.396 186.488C123.127 185.567 121.967 184.522 121.028 183.271C121.053 184.26 121.068 185.248 121.063 186.236C121.356 192.769 118.707 198.284 115.703 203.887C113.67 208.044 112.591 212.504 110.356 216.589C115.197 219.454 119.315 224.016 120.628 229.577C121.545 227.995 122.335 226.349 123.065 224.674C124.169 219.408 124.99 214.089 125.399 208.715ZM121.453 231.616C121.07 231.799 120.592 231.652 120.308 231.344C120.263 231.344 120.219 231.334 120.178 231.315C120.137 231.295 120.1 231.268 120.071 231.233C119.073 230.129 118.467 228.758 117.641 227.525C115.326 224.147 112.453 221.064 108.831 219.073C106.76 222.159 103.868 224.427 100.265 225.413V288.23C109.867 270.451 116.074 251.03 121.453 231.616ZM118.271 188.753C118.559 180.896 117.833 173.021 117.125 165.203C116.857 159.695 114.377 158.704 109.444 157.696C106.24 156.783 102.879 156.393 99.7318 155.323C96.5849 156.395 93.2246 156.783 90.02 157.696C87.4525 158.313 84.2018 158.78 83.0765 161.534C82.1278 164.258 82.2345 167.226 81.8906 170.064C81.6309 173.204 81.4318 176.347 81.2933 179.494C81.0048 185.366 80.6296 191.514 83.3229 196.938C84.5348 199.56 85.9914 202.062 87.1248 204.72C88.2582 207.379 89.1365 210.14 90.2716 212.799C92.0865 217.049 94.9899 221.478 99.7318 222.596C107.666 220.493 109.533 211.33 112.339 204.72C114.637 199.514 118.059 194.619 118.271 188.753ZM98.5141 286.984V225.157C95.1474 224.22 92.5944 221.893 90.6329 219.073C87.0117 221.064 84.1383 224.147 81.8236 227.525C80.9972 228.757 80.3925 230.129 79.3947 231.233C79.365 231.268 79.3283 231.295 79.2872 231.314C79.246 231.334 79.2012 231.344 79.1558 231.344C78.8736 231.652 78.3946 231.799 78.0108 231.616C83.2496 250.584 89.3356 269.525 98.5141 286.984ZM35.2654 291.826H95.0776C77.3535 279.192 62.4664 262.253 53.0143 242.627C51.5624 239.363 52.4372 236.669 54.3145 233.828C55.733 231.433 57.1636 229.046 58.6063 226.667L55.741 225.614C52.3282 224.617 51.7643 223.458 52.78 220.091C54.6504 211.823 56.4428 203.538 58.4851 195.308C47.1067 200.622 35.2666 204.891 23.1939 208.335C22.3947 208.595 21.7783 208.936 21.495 209.755C15.4829 235.572 11.2309 265.601 6.69272 291.826H32.979C32.7817 283.676 32.8426 275.526 33.162 267.377C33.3737 262.098 33.5082 256.721 34.3577 251.501C34.4021 251.227 34.7951 251.319 34.8124 251.562C35.1454 264.974 34.8188 278.408 35.2631 291.826H35.2654ZM96.125 288.963C89.3154 276.506 84.6 263.048 80.2286 249.583C73.917 229.839 68.3769 208.624 72.8869 187.915C68.8767 190.259 64.7499 192.357 60.5516 194.344C58.8135 203.822 56.5068 213.249 54.6936 222.677C54.7762 222.839 55.7936 223.057 56.0925 223.155C57.6956 223.681 59.2982 224.206 60.9002 224.731C61.7081 224.996 62.1161 225.89 61.685 226.652C59.907 229.787 58.065 232.884 56.25 235.999C55.456 237.36 54.7871 238.704 55.168 240.317C59.9134 251.575 67.4888 261.624 75.5519 270.753C81.7394 277.538 88.6269 283.666 96.125 288.963ZM89.1122 216.589C86.876 212.501 85.7963 208.044 83.7655 203.887C79.7259 196.352 77.9537 192.027 78.439 183.271C77.5013 184.522 76.3425 185.565 75.0706 186.488C74.606 189.877 74.1109 193.25 73.9372 196.678C73.412 206.071 74.4675 215.491 76.4013 224.673C77.1319 226.349 77.9214 227.994 78.8384 229.576C80.1489 224.021 84.2688 219.454 89.1122 216.589Z" fill="black"/>
<path d="M109.781 108.211C110.15 108.469 110.631 108.242 110.859 107.948C111.222 107.487 110.989 107.008 111.201 106.504C111.273 106.36 111.34 106.212 111.411 106.066C111.889 105.283 112.739 104.724 113.648 104.461C112.766 109.197 119.332 111.304 121.509 106.96C121.836 106.205 121.899 105.299 121.605 104.542C122.384 104.739 123.1 105.076 123.86 105.609C124.437 106.016 124.98 106.505 125.366 107.081C125.757 107.667 125.921 108.312 126.547 108.735C126.731 108.86 127.088 108.817 127.232 108.652C128.466 107.226 126.777 104.531 125.638 103.456C124.818 102.682 123.83 102.181 122.768 101.89C119.391 100.751 114.662 100.397 111.741 102.379C110.824 103.013 110.433 103.761 109.992 104.713C109.293 105.692 108.599 107.346 109.781 108.211ZM109.275 93.7153C109.842 94.4891 110.811 94.732 111.751 94.8541C118.855 95.6687 123.371 93.4821 129.633 98.2209C129.656 98.3367 129.712 98.4433 129.795 98.5273C129.878 98.6112 129.984 98.6687 130.1 98.6924C130.546 98.8035 130.829 99.3217 131.333 99.3614C131.407 99.4086 131.48 99.4564 131.555 99.5025C131.713 99.6009 131.889 99.4581 131.885 99.3085C133.193 98.8479 132.523 97.1783 132.273 96.2657C131.391 92.4706 129.662 88.2919 125.579 86.6546C123.59 85.8307 121.387 85.5607 119.237 85.3955C116.724 85.2032 114.066 84.9493 111.567 85.3891C109.033 85.8353 109.386 88.532 109.011 90.3755C108.791 91.4308 108.584 92.7688 109.275 93.7153ZM108.347 102.803C108.438 103.058 108.818 103.125 108.972 102.879C109.203 102.514 109.213 102.09 109.358 101.689C109.826 100.409 110.854 99.3545 112.081 98.6625C113.839 97.6619 115.961 97.3475 117.992 97.3746C121.777 97.427 125.051 98.7817 127.644 101.347C127.651 101.357 127.662 101.364 127.675 101.365C127.687 101.367 127.7 101.363 127.71 101.356C127.72 101.348 127.726 101.337 127.728 101.324C127.73 101.312 127.726 101.299 127.719 101.29C125.861 97.9843 121.248 96.6331 117.495 96.6296C114.305 96.5835 110.748 97.5876 109.058 100.306C108.635 100.976 108.072 102.028 108.347 102.803ZM105.264 122.741C105.295 123.332 106.273 123.337 106.25 122.741C106.066 118.02 105.904 113.266 105.257 108.578C105.23 108.382 104.932 108.372 104.923 108.578C104.714 113.293 105.004 118.029 105.264 122.741ZM92.8516 122.741C92.8296 123.337 93.8067 123.332 93.8401 122.741C94.0981 118.029 94.3878 113.293 94.1795 108.578C94.1696 108.372 93.8724 108.382 93.8453 108.578C93.1955 113.266 93.0362 118.018 92.8516 122.741ZM81.1102 97.3746C84.4821 97.2744 88.5252 98.4431 89.7445 101.689C89.8894 102.092 89.9003 102.514 90.1295 102.879C90.2841 103.125 90.6644 103.058 90.7556 102.803C91.0309 102.028 90.467 100.976 90.044 100.311C89.5391 99.5324 88.8851 98.8611 88.1195 98.3355C83.463 95.2323 74.2209 96.3866 71.384 101.294C71.3763 101.304 71.3729 101.317 71.3745 101.329C71.3762 101.341 71.3827 101.353 71.3926 101.36C71.4026 101.368 71.4151 101.371 71.4276 101.37C71.44 101.368 71.4513 101.362 71.459 101.352C74.0501 98.7817 77.3251 97.427 81.1102 97.3746ZM73.832 144.207C74.5089 145.661 76.3042 145.74 77.7371 145.45C78.676 145.261 79.6092 145.062 80.5435 144.874C79.7985 145.652 79.2652 146.855 79.5919 147.9C79.8637 148.764 81.4351 148.906 81.6151 147.9C81.6867 147.504 81.7086 147.138 81.8044 146.781C81.8488 146.781 81.8933 146.781 81.9383 146.786C84.6189 146.87 86.9301 147.946 89.3319 148.969C90.4988 149.463 91.7822 149.667 93.0443 149.813C94.3405 149.946 96.0752 150.316 97.2074 149.567C97.9092 149.849 98.7736 150.194 99.5521 150.155C100.329 150.194 101.193 149.849 101.895 149.567C103.027 150.315 104.762 149.946 106.058 149.813C107.32 149.667 108.603 149.463 109.77 148.969C112.172 147.946 114.484 146.87 117.166 146.786C117.21 146.782 117.254 146.782 117.298 146.781C117.393 147.138 117.414 147.504 117.487 147.9C117.667 148.906 119.238 148.764 119.511 147.9C119.837 146.855 119.304 145.655 118.559 144.874C119.493 145.061 120.426 145.26 121.365 145.45C122.798 145.74 124.594 145.661 125.27 144.207C125.905 142.844 124.684 141.86 123.553 141.236C119.127 138.813 114.574 136.591 109.869 134.678C110.792 133.872 111.392 132.67 111.867 131.626C112.57 130.072 112.661 128.08 111.093 126.949C109.996 126.157 107.688 125.779 106.577 126.729C106.316 126.953 106.399 127.362 106.687 127.524C107.663 128.067 108.968 127.538 109.926 128.182C111.112 128.976 110.519 130.58 110.005 131.555C109.097 133.44 108.133 134.629 105.773 133.685C106.225 133.457 106.663 133.203 107.086 132.925C107.274 132.799 107.239 132.439 106.953 132.464C105.536 132.599 104.224 132.925 102.835 133.199C101.738 133.419 100.647 133.55 99.5521 133.815C98.4557 133.55 97.3661 133.419 96.2679 133.199C94.8783 132.923 93.5666 132.599 92.1498 132.464C91.8613 132.437 91.8284 132.797 92.016 132.925C92.4389 133.203 92.8774 133.457 93.3294 133.685C90.9668 134.629 90.0088 133.442 89.0965 131.555C88.584 130.58 87.9902 128.976 89.1761 128.182C90.1347 127.538 91.4412 128.067 92.4159 127.524C92.7044 127.364 92.7864 126.953 92.5255 126.729C91.4158 125.779 89.108 126.157 88.0092 126.949C86.4413 128.08 86.5319 130.073 87.2359 131.626C87.7103 132.668 88.3105 133.867 89.2332 134.678C84.5277 136.591 79.975 138.813 75.5499 141.236C74.4183 141.86 73.1972 142.843 73.832 144.207ZM71.3886 62.702C72.889 62.1603 74.6491 61.7711 75.6232 60.5454C80.3842 65.4097 86.873 65.6693 93.3848 64.5426C101.109 63.3497 108.64 60.9961 115.541 57.5343C119.777 56.7703 124.095 56.0714 128.228 57.6564C132.33 59.2304 135.426 62.5017 136.677 66.4609C138.12 71.0334 137.644 76.0025 137.556 80.705C137.435 88.9488 137.168 97.1927 137.145 105.436C137.158 106.959 137.223 108.477 137.311 109.995C136.715 114.968 136.316 119.964 135.824 124.948C135.38 129.724 135.412 134.789 133.701 139.365C130.622 147.731 123.54 145.56 119.55 151.096C118.331 153 118.436 155.333 117.333 157.266C116.149 159.344 113.546 159.802 111.238 159.914C110.55 159.946 109.829 160.029 109.472 159.358C109.195 158.84 109.1 158.2 108.992 157.631C108.75 156.364 108.75 155.085 108.832 153.807C109.974 153.169 111.018 152.396 111.77 151.434C111.859 151.318 111.693 151.215 111.585 151.261C110.435 151.74 109.363 152.379 108.18 152.801C107.919 152.769 107.65 152.841 107.497 153.031C105.593 153.623 103.599 153.87 101.607 153.965C101.254 153.978 97.8428 153.978 97.489 153.965C95.4975 153.87 93.5014 153.62 91.5993 153.031C91.4464 152.841 91.1774 152.769 90.9166 152.801C89.737 152.379 88.666 151.74 87.5118 151.261C87.4033 151.215 87.2377 151.318 87.3271 151.434C88.0773 152.396 89.1224 153.169 90.2639 153.807C90.347 155.085 90.347 156.364 90.1046 157.631C89.9967 158.199 89.9009 158.836 89.6239 159.358C89.2673 160.028 88.5465 159.946 87.8586 159.914C85.5503 159.803 82.9493 159.344 81.7634 157.266C80.6606 155.333 80.7656 153 79.5463 151.096C75.5644 145.569 68.4662 147.723 65.3961 139.365C63.6845 134.789 63.7168 129.724 63.2724 124.948C62.9094 120.982 62.5101 117.02 62.1327 113.056C61.8441 101.547 61.5181 90.0093 62.7484 78.5339C62.9972 76.0117 63.2407 73.4675 63.6418 70.9649C63.9424 69.0799 64.392 66.9774 65.7349 65.4718C67.1464 63.8892 69.423 63.4096 71.3886 62.702ZM71.871 108.654C72.0141 108.819 72.3708 108.862 72.5572 108.737C73.181 108.314 73.3449 107.669 73.7367 107.083C74.1222 106.507 74.6664 106.017 75.2423 105.611C76.0018 105.077 76.7185 104.741 77.4965 104.544C77.2039 105.301 77.2656 106.207 77.594 106.962C79.7713 111.309 86.338 109.195 85.4545 104.462C86.3634 104.726 87.2134 105.285 87.6913 106.068C87.7628 106.214 87.8298 106.362 87.9013 106.506C88.1131 107.011 87.8805 107.49 88.2435 107.95C88.4744 108.244 88.9516 108.468 89.321 108.213C90.504 107.346 89.8098 105.694 89.1109 104.715C88.67 103.763 88.2782 103.016 87.3617 102.381C84.4498 100.402 79.7044 100.752 76.3348 101.891C75.2729 102.179 74.2844 102.683 73.4644 103.457C72.3246 104.53 70.636 107.225 71.871 108.651V108.654ZM67.218 99.3108C67.2133 99.4604 67.3911 99.6032 67.5475 99.5048C67.6225 99.4587 67.6958 99.4109 67.7691 99.3637C68.2735 99.324 68.5568 98.8059 69.0023 98.6947C69.1182 98.6711 69.2244 98.6136 69.3075 98.5297C69.3906 98.4458 69.4469 98.3391 69.4692 98.2232C75.7375 93.4827 80.2492 95.6727 87.3519 94.8564C88.2909 94.7343 89.2621 94.4913 89.8271 93.7176C90.5196 92.7711 90.3095 91.4342 90.0948 90.3784C89.7192 88.536 90.0723 85.8382 87.5395 85.392C85.039 84.9521 82.3803 85.206 79.8689 85.3983C77.7181 85.5618 75.5165 85.8336 73.5267 86.6574C69.4403 88.2965 67.7131 92.4723 66.8325 96.2721C66.5814 97.1806 65.908 98.8467 67.218 99.3085V99.3108Z" fill="#F3D7C7"/>
<path d="M75.1073 108.584C77.7763 109.714 82.3849 110.897 87.0784 108.53C87.3701 108.383 87.6278 108.177 87.8348 107.925C88.0418 107.673 88.1934 107.381 88.2799 107.066C88.3665 106.752 88.386 106.423 88.3372 106.101C88.2883 105.779 88.1723 105.471 87.9965 105.196C87.1632 103.901 85.7182 102.506 83.3597 102.506C80.5452 102.506 77.0036 103.117 74.8141 104.437C73.1741 105.424 73.3437 107.839 75.1073 108.584Z" fill="white"/>
<path d="M124.036 108.584C121.368 109.714 116.759 110.897 112.066 108.53C111.774 108.383 111.516 108.177 111.309 107.925C111.102 107.673 110.951 107.38 110.864 107.066C110.778 106.752 110.758 106.423 110.807 106.101C110.856 105.779 110.972 105.47 111.148 105.196C111.981 103.9 113.426 102.506 115.784 102.506C118.599 102.506 122.141 103.117 124.33 104.436C125.97 105.424 125.8 107.839 124.036 108.584Z" fill="white"/>
<path d="M140.453 85.7049C140.1 85.7521 139.967 85.3266 140.305 85.2011C141.43 84.7883 142.632 84.5834 143.825 84.436C144.878 84.3053 146.213 84.0595 147.238 84.3836C147.616 84.4987 147.662 85.0457 147.238 85.1441C146.232 85.3744 145.084 85.1884 144.047 85.2506C142.836 85.3237 141.653 85.5442 140.453 85.7049Z" fill="black"/>
<path d="M140.451 90.3403C140.13 90.4416 139.94 89.9857 140.225 89.8365C141.738 89.0392 143.356 88.5913 145.104 88.6615C145.731 88.6851 145.726 89.5383 145.104 89.57C143.523 89.6494 141.952 89.859 140.451 90.3403Z" fill="black"/>
<path d="M141.137 93.3043C140.814 93.4194 140.601 92.9278 140.903 92.7861C142.153 92.2104 143.484 91.8857 144.878 92.0239C145.418 92.0763 145.441 92.8483 144.878 92.8299C143.594 92.785 142.349 92.8863 141.137 93.3043Z" fill="black"/>
<path d="M141.137 93.304C142.349 92.886 143.593 92.7858 144.878 92.829C145.441 92.8498 145.417 92.0806 144.878 92.023C143.484 91.8848 142.152 92.2072 140.903 92.7853C140.6 92.9275 140.814 93.4168 141.137 93.304ZM144.051 85.2507C145.09 85.1886 146.237 85.3774 147.243 85.1442C147.666 85.0458 147.62 84.5011 147.243 84.3837C146.218 84.0596 144.882 84.3054 143.83 84.4361C142.635 84.5835 141.433 84.7884 140.31 85.2012C139.972 85.3267 140.104 85.7522 140.457 85.705C141.652 85.5444 142.835 85.3238 144.051 85.2507ZM140.396 63.2885C143.028 63.5619 144.768 65.1389 146.203 67.0762C146.511 67.4942 147.256 67.2489 147.104 66.7221C146.358 64.0778 143.151 62.5435 140.396 62.6488C139.945 62.6661 139.964 63.2441 140.393 63.2885H140.396ZM140.847 97.4291C141.757 97.4181 142.755 97.4354 143.631 97.1769C143.702 97.1585 143.764 97.1146 143.804 97.0537C143.845 96.9928 143.861 96.9192 143.851 96.8469C143.84 96.7746 143.803 96.7087 143.747 96.6617C143.691 96.6148 143.62 96.5902 143.546 96.5926C142.623 96.5845 141.678 96.87 140.801 97.1107C140.763 97.1218 140.731 97.1459 140.71 97.1785C140.689 97.2111 140.68 97.2502 140.686 97.2886C140.691 97.3271 140.71 97.3624 140.739 97.3883C140.768 97.4141 140.805 97.4288 140.844 97.4296L140.847 97.4291ZM138.406 57.9077C139.806 57.6325 141.372 57.9728 142.612 58.6251C143.812 59.2584 144.615 60.2308 145.471 61.2124C145.721 61.5003 146.149 61.1807 146.083 60.8791C145.758 59.3822 144.339 58.3079 142.905 57.7247C141.399 57.1121 139.86 57.1006 138.297 57.5341C138.036 57.6061 138.144 57.959 138.403 57.9083L138.406 57.9077ZM99.2579 49.7163C99.4552 49.5735 99.2405 49.2304 99.0097 49.3179C93.8061 51.36 88.9972 55.7562 86.3259 60.3989C85.8533 58.5284 86.8672 56.3049 87.5228 54.5656C90.0222 48.2562 95.1288 42.7373 101.563 39.6756C101.761 39.5818 101.621 39.2594 101.409 39.3359C93.1563 42.1104 86.6572 48.9218 84.339 56.8018C83.9985 57.9832 83.6863 59.3574 83.8964 60.6148C80.5187 53.7637 84.7308 46.152 89.6067 40.948C89.7019 40.8461 89.5605 40.7177 89.4491 40.8017C83.2362 45.5089 78.4493 54.6768 82.2222 61.9171C77.0054 59.8318 73.5717 54.4862 73.5111 49.1504C73.6785 34.3294 91.825 24.496 106.276 28.2733C104.626 28.689 103.035 29.2751 101.602 30.0932C101.438 30.1871 101.492 30.4709 101.705 30.4536C104.827 30.1963 107.912 29.6896 111.049 29.5566C120.47 29.1087 130.299 31.5003 137.718 37.0854C139.803 38.6595 141.734 40.5697 142.721 42.9377C141.367 42.3568 139.866 42.1317 138.481 42.8375C138.175 42.9935 138.291 43.5347 138.67 43.4887C142.389 43.0413 145.316 46.7571 147.317 49.182C151.824 54.6025 153.861 61.6281 153.132 68.4412C152.919 70.6647 152.44 72.834 151.9 74.9936C151.87 75.0051 151.886 75.0638 151.876 75.092C150.945 78.6431 150.033 82.2005 149.503 85.8282C149.272 87.2951 148.974 88.7788 148.954 90.2613C148.011 94.338 146.776 98.3514 145.34 102.297C145.105 102.96 144.862 103.62 144.611 104.278C144.469 104.65 144.336 104.962 144.315 105.287C143.366 105.966 142.373 106.735 141.711 107.647C141.404 107.847 141.067 108.065 140.7 108.125C140.606 108.162 140.51 108.193 140.415 108.223C139.896 108.472 139.361 108.705 138.828 108.929C139.427 99.5875 139.249 90.2175 139.496 80.8602C139.881 71.6158 140.304 61.0915 129.842 56.5179C126.482 55.0446 122.584 54.7568 119.014 55.6779C121.509 54.2755 123.843 52.6606 126.2 51.0721C128.185 49.737 130.511 48.2344 133.068 48.414C133.276 48.4284 133.309 48.1261 133.116 48.0772C128.972 46.996 125.608 50.0577 122.405 51.9921C118.821 54.1574 115.058 56.0134 111.157 57.5398C103.836 60.3154 96.1225 62.5406 88.1628 62.863C88.1963 62.2671 88.1391 61.7018 88.3936 61.1047C88.6897 60.4093 89.1438 59.7564 89.5651 59.1231C92.0218 55.3642 95.538 52.3658 99.2579 49.7163ZM145.104 89.5704C145.726 89.5387 145.731 88.6855 145.104 88.6619C143.356 88.5917 141.738 89.0396 140.225 89.837C139.94 89.9861 140.129 90.4421 140.451 90.3407C141.952 89.8594 143.523 89.6499 145.104 89.5704Z" fill="#3A1F14"/>
<path d="M142.304 117.494C142.304 116.506 142.289 115.517 142.246 114.529C142.251 114.502 142.259 114.475 142.264 114.447C142.374 113.803 142.448 113.151 142.552 112.506C142.719 111.477 142.723 110.176 143.233 109.23C144.182 108.712 145.031 107.892 145.863 107.251C146.42 106.822 147.004 106.422 147.605 106.042C148.813 112.672 148.716 119.513 147.189 126.095C146.876 127.462 146.586 128.931 145.947 130.205C145.11 131.949 143.254 133.103 141.242 133.181C141.452 131.48 141.632 129.775 141.782 128.067C142.158 128.093 142.53 127.978 142.826 127.745C144.12 126.758 145.33 125.427 145.989 123.986C147.654 120.203 144.241 119.107 145.21 115.891C145.575 114.682 146.439 113.747 147.477 112.985C148.079 112.543 147.423 111.644 146.756 111.827C144.228 112.522 142.611 115.081 142.611 117.493L142.304 117.494Z" fill="#F3D7C7"/>
<path d="M142.304 117.494H142.612C142.612 117.694 142.623 117.894 142.645 118.093C142.736 118.879 142.986 119.596 143.303 120.326C143.597 121.004 143.89 121.628 143.72 122.368C143.492 123.361 142.784 124.142 142.018 124.858C142.182 122.41 142.302 119.951 142.304 117.494Z" fill="#F3D7C7"/>
<path d="M140.842 97.4298C140.802 97.4312 140.763 97.4177 140.732 97.392C140.701 97.3662 140.681 97.3299 140.675 97.2901C140.669 97.2504 140.678 97.2099 140.701 97.1765C140.723 97.1431 140.757 97.1191 140.796 97.1091C141.673 96.8708 142.62 96.5852 143.542 96.591C143.615 96.5886 143.687 96.6133 143.743 96.6602C143.799 96.7071 143.836 96.773 143.846 96.8453C143.857 96.9176 143.84 96.9913 143.8 97.0521C143.759 97.113 143.698 97.1569 143.627 97.1753C142.751 97.4362 141.753 97.4183 140.842 97.4298Z" fill="black"/>
<path d="M140.393 62.6489C143.148 62.5435 146.355 64.0779 147.101 66.7222C147.253 67.2507 146.508 67.4942 146.201 67.0762C144.765 65.1389 143.027 63.5643 140.393 63.2885C139.964 63.2442 139.945 62.6662 140.393 62.6489Z" fill="black"/>
<path d="M142.61 58.6258C141.37 57.9735 139.804 57.6333 138.404 57.9085C138.145 57.9591 138.037 57.6062 138.295 57.5348C139.858 57.1013 141.397 57.1128 142.903 57.7254C144.337 58.3086 145.756 59.3835 146.081 60.8798C146.147 61.1815 145.719 61.5004 145.469 61.2131C144.613 60.2315 143.811 59.258 142.61 58.6258Z" fill="black"/>
<path d="M119.238 85.3954C121.389 85.559 123.591 85.8307 125.58 86.6546C129.666 88.2919 131.395 92.4694 132.274 96.2658C132.524 97.1806 133.194 98.845 131.886 99.3085C131.891 99.4582 131.713 99.6009 131.556 99.5025C131.481 99.4564 131.408 99.4087 131.335 99.3614C130.83 99.3217 130.547 98.8036 130.101 98.6924C129.985 98.6687 129.879 98.6112 129.796 98.5273C129.713 98.4433 129.657 98.3367 129.635 98.2209C123.372 93.4821 118.856 95.6687 111.752 94.8541C110.812 94.732 109.843 94.4891 109.276 93.7153C108.584 92.7688 108.794 91.4319 109.009 90.3761C109.385 88.5337 109.031 85.8359 111.566 85.3897C114.065 84.9493 116.724 85.2032 119.238 85.3954ZM110.986 91.8194C111.035 92.1384 111.038 92.4447 111.361 92.6197C111.699 92.8022 112.264 92.8195 112.631 92.8655C113.577 92.9847 114.535 93.0244 115.489 93.0486C121.147 93.0785 126.997 92.6243 130.666 97.5001C130.807 97.5318 130.944 97.5813 131.073 97.6475C130.272 93.7901 128.853 89.2165 124.495 87.741C122.726 87.1197 120.824 87.004 118.958 86.8595C116.699 86.6868 114.416 86.5181 112.151 86.677C110.726 86.669 110.797 87.4122 110.728 88.4825C110.633 89.615 110.816 90.6979 110.986 91.8194Z" fill="black"/>
<path d="M123.784 92.6355C124.547 92.084 125.458 91.7506 126.427 91.9446C126.731 92.0062 126.839 91.6142 126.554 91.514C125.394 91.111 124.072 91.3534 123.308 92.2935C123.079 92.575 123.542 92.8123 123.784 92.6355ZM118.957 86.8592C120.823 87.0038 122.725 87.1195 124.494 87.7407C128.853 89.2163 130.272 93.7927 131.073 97.6472C130.944 97.581 130.807 97.5315 130.665 97.4998C126.996 92.624 121.143 93.0782 115.488 93.0483C114.536 93.0241 113.576 92.9844 112.63 92.8652C112.263 92.8192 111.698 92.8019 111.361 92.6194C111.038 92.4467 111.035 92.1381 110.985 91.8191C110.816 90.6976 110.633 89.6147 110.729 88.4799C110.797 87.4096 110.729 86.6664 112.152 86.6744C114.416 86.5178 116.698 86.6848 118.957 86.8592ZM122.034 90.0545C122.086 90.0413 122.131 90.0096 122.16 89.9653C122.19 89.9211 122.202 89.8676 122.194 89.815C122.187 89.7624 122.16 89.7145 122.119 89.6805C122.078 89.6465 122.026 89.6288 121.973 89.6308C120.596 89.6561 118.862 90.1489 117.929 91.1553C117.65 91.457 117.999 91.8888 118.383 91.7046C118.964 91.4253 119.475 91.0361 120.064 90.7627C120.691 90.4719 121.367 90.2514 122.034 90.0545ZM117.584 88.9952C117.78 88.914 117.636 88.6365 117.444 88.6826C116.226 88.9796 114.93 89.6895 114.217 90.6867C114.05 90.9216 114.415 91.1519 114.618 90.9745C115.089 90.5663 115.495 90.1294 116.033 89.788C116.527 89.4809 117.046 89.2157 117.584 88.9952Z" fill="#2B1710"/>
<path d="M127.854 150.924C127.803 150.795 128.015 150.748 128.069 150.867C128.742 152.369 129.322 154.31 128.199 155.768C127.978 156.056 127.543 155.876 127.604 155.533C127.876 153.965 128.479 152.509 127.854 150.924Z" fill="black"/>
<path d="M110.861 107.948C110.63 108.242 110.152 108.466 109.783 108.211C108.6 107.348 109.295 105.691 109.993 104.713C110.434 103.762 110.826 103.014 111.743 102.379C114.664 100.397 119.393 100.751 122.77 101.889C123.831 102.177 124.82 102.682 125.639 103.455C126.779 104.53 128.467 107.225 127.233 108.651C127.09 108.817 126.733 108.86 126.548 108.734C125.923 108.312 125.759 107.667 125.368 107.081C124.982 106.505 124.438 106.015 123.861 105.609C123.102 105.075 122.386 104.739 121.607 104.542C121.901 105.299 121.838 106.204 121.51 106.96C119.334 111.303 112.768 109.196 113.65 104.46C112.741 104.724 111.891 105.283 111.413 106.066C111.342 106.211 111.275 106.359 111.203 106.504C110.991 107.008 111.224 107.488 110.861 107.948ZM118.19 105.487C118.324 105.185 117.988 104.648 117.812 104.411C117.775 104.359 117.751 104.298 117.743 104.235C117.481 104.219 117.22 104.203 116.958 104.191C116.727 104.812 116.276 105.548 116.66 106.233C116.741 106.112 116.845 106.008 116.966 105.926C117.279 105.709 118.02 105.868 118.19 105.487Z" fill="black"/>
<path d="M123.784 92.6358C123.542 92.8086 123.079 92.5783 123.308 92.2939C124.071 91.3537 125.394 91.1108 126.554 91.5143C126.839 91.6145 126.731 92.0066 126.427 91.945C125.457 91.751 124.546 92.0843 123.784 92.6358Z" fill="black"/>
<path d="M124.828 152.861C124.77 152.499 125.314 152.339 125.426 152.705C125.969 154.47 126.461 157.179 125.209 158.782C125.002 159.046 124.561 158.961 124.54 158.609C124.489 157.694 124.81 156.76 124.903 155.848C125.012 154.854 124.986 153.849 124.828 152.861Z" fill="black"/>
<path d="M108.974 102.879C108.82 103.125 108.439 103.058 108.348 102.803C108.073 102.028 108.637 100.976 109.06 100.311C110.749 97.5923 114.307 96.5883 117.497 96.6343C121.248 96.6378 125.865 97.989 127.72 101.294C127.724 101.299 127.727 101.305 127.728 101.311C127.73 101.317 127.73 101.323 127.729 101.329C127.729 101.335 127.727 101.341 127.723 101.347C127.72 101.352 127.716 101.357 127.711 101.36C127.706 101.364 127.701 101.367 127.695 101.369C127.689 101.37 127.683 101.371 127.676 101.37C127.67 101.369 127.664 101.367 127.659 101.364C127.653 101.361 127.649 101.357 127.645 101.352C125.052 98.7841 121.779 97.4294 117.994 97.3793C115.962 97.3522 113.839 97.6672 112.083 98.6672C110.856 99.3581 109.827 100.414 109.359 101.694C109.215 102.09 109.203 102.514 108.974 102.879Z" fill="black"/>
<path d="M121.539 161.942C121.335 162.188 120.931 161.917 121.007 161.654C121.296 160.645 121.767 159.722 121.904 158.667C122.044 157.624 122.011 156.566 121.805 155.534C121.747 155.262 122.158 155.153 122.251 155.419C122.949 157.441 123.007 160.178 121.539 161.942Z" fill="black"/>
<path d="M118.381 91.7045C117.998 91.8888 117.649 91.457 117.928 91.1553C118.861 90.1466 120.594 89.6584 121.971 89.6308C122.025 89.6288 122.077 89.6465 122.118 89.6805C122.159 89.7145 122.185 89.7624 122.193 89.815C122.201 89.8675 122.189 89.9211 122.159 89.9653C122.13 90.0095 122.085 90.0413 122.033 90.0545C121.366 90.2514 120.69 90.4719 120.062 90.7626C119.474 91.0361 118.962 91.4253 118.381 91.7045Z" fill="black"/>
<path d="M116.829 140.615C117.249 141.315 117.935 141.929 118.644 142.385C118.759 142.461 118.935 142.333 118.889 142.208C118.59 141.392 117.875 140.666 116.991 140.418C116.965 140.411 116.937 140.411 116.911 140.419C116.885 140.427 116.862 140.442 116.845 140.463C116.827 140.484 116.817 140.51 116.814 140.537C116.811 140.564 116.816 140.591 116.829 140.615ZM112.622 138.831C113.488 139.871 114.61 140.684 115.675 141.537C115.815 141.652 116.079 141.494 115.95 141.339C115.07 140.258 114.18 139.178 112.988 138.384C112.681 138.179 112.432 138.603 112.622 138.83V138.831ZM110.36 139.22C110.836 139.695 111.318 140.436 111.95 140.717C112.16 140.809 112.477 140.653 112.381 140.405C112.133 139.756 111.364 139.243 110.844 138.77C110.246 138.232 109.618 137.729 108.962 137.264C108.779 137.132 108.598 137.402 108.731 137.543C109.265 138.109 109.806 138.668 110.36 139.219V139.22ZM105.138 136.949C105.624 137.547 106.186 138.084 106.713 138.65C107.224 139.196 107.698 139.898 108.34 140.308C108.564 140.451 108.77 140.181 108.677 139.992C108.377 139.372 107.716 138.84 107.225 138.343C106.665 137.778 106.114 137.192 105.476 136.706C105.302 136.572 104.983 136.753 105.138 136.948V136.949ZM102.426 136.393C103.28 137.673 104.17 139.031 105.271 140.135C105.288 140.151 105.31 140.161 105.334 140.162C105.357 140.164 105.38 140.157 105.399 140.144C105.418 140.13 105.432 140.11 105.438 140.088C105.445 140.065 105.443 140.041 105.433 140.02C104.648 138.698 103.54 137.491 102.501 136.337C102.467 136.299 102.399 136.351 102.427 136.395L102.426 136.393ZM86.4807 138.831C86.67 138.604 86.423 138.181 86.1148 138.386C84.9226 139.18 84.0327 140.26 83.1538 141.34C83.0251 141.496 83.2877 141.651 83.4273 141.538C84.4961 140.683 85.6162 139.87 86.4818 138.83L86.4807 138.831ZM82.2737 140.615C82.2865 140.591 82.2919 140.564 82.2891 140.537C82.2864 140.51 82.2756 140.484 82.2582 140.463C82.2408 140.442 82.2175 140.426 82.1913 140.418C82.1651 140.41 82.1372 140.411 82.111 140.418C81.2275 140.666 80.513 141.392 80.2135 142.208C80.1674 142.333 80.3411 142.461 80.4588 142.385C81.168 141.929 81.8542 141.315 82.2749 140.615H82.2737ZM77.9375 144.012C77.2127 144.177 76.2784 144.473 75.583 144.082C74.0133 143.204 77.1527 141.927 77.8082 141.578C79.204 140.831 80.6111 140.106 82.0296 139.401C84.7789 137.988 87.6141 136.734 90.3974 135.387C91.349 135.745 92.4253 135.661 93.3982 135.419C94.0365 135.262 94.8531 135.052 95.3655 134.601C96.4043 135.001 97.4176 135.575 98.5891 135.915C98.7164 135.987 98.8556 136.036 99 136.059C99.1402 136.07 99.2787 136.078 99.4184 136.088C99.4628 136.088 99.5078 136.088 99.554 136.083C99.6002 136.077 99.6429 136.088 99.6873 136.088C99.6873 136.094 99.6873 136.101 99.6873 136.107C99.745 136.11 99.8027 136.114 99.8604 136.118L99.8552 136.084C100.088 136.085 100.316 136.027 100.519 135.915C101.693 135.575 102.707 135.001 103.743 134.601C104.256 135.052 105.07 135.262 105.71 135.419C106.682 135.661 107.757 135.745 108.711 135.387C111.495 136.734 114.329 137.988 117.079 139.401C118.497 140.105 119.905 140.831 121.301 141.578C121.957 141.927 125.096 143.204 123.526 144.082C122.83 144.471 121.896 144.177 121.173 144.012C118.905 143.48 116.614 143.023 114.303 142.695C111.173 142.251 108.021 141.974 104.861 141.867C103.429 141.819 101.705 141.786 100.649 140.741C100.36 140.571 100.245 140.242 100.166 139.947C99.8085 139.002 99.7445 137.995 99.6469 137.006C99.4161 138.249 99.4669 139.778 98.4818 140.725C97.428 141.784 95.6927 141.819 94.2523 141.867C88.7521 142.056 83.2698 142.728 77.9387 144.01L77.9375 144.012ZM96.6761 136.395C96.7049 136.353 96.6363 136.301 96.6016 136.341C95.5629 137.492 94.4554 138.701 93.6689 140.022C93.6598 140.043 93.6583 140.067 93.6647 140.089C93.6711 140.112 93.6849 140.131 93.7039 140.145C93.7228 140.158 93.7459 140.165 93.7691 140.163C93.7923 140.162 93.8144 140.153 93.8316 140.137C94.9333 139.03 95.8231 137.672 96.6761 136.395ZM93.9638 136.95C94.1213 136.755 93.7993 136.574 93.6262 136.707C92.9879 137.195 92.4368 137.779 91.8764 138.345C91.3865 138.842 90.7257 139.374 90.4251 139.994C90.3327 140.182 90.5376 140.454 90.7621 140.31C91.4055 139.9 91.8782 139.198 92.3889 138.652C92.9181 138.084 93.4796 137.546 93.9655 136.948L93.9638 136.95ZM90.3726 137.543C90.5041 137.402 90.3229 137.132 90.1417 137.263C89.4861 137.729 88.8578 138.232 88.2598 138.769C87.7405 139.242 86.9724 139.755 86.7225 140.405C86.6267 140.652 86.9435 140.808 87.1536 140.716C87.7884 140.438 88.2679 139.697 88.744 139.219C89.298 138.668 89.8393 138.109 90.3743 137.54L90.3726 137.543Z" fill="#2B1710"/>
<path d="M116.965 105.926C116.844 106.008 116.74 106.112 116.659 106.233C116.275 105.548 116.727 104.812 116.956 104.19C117.219 104.203 117.48 104.219 117.741 104.235C117.75 104.298 117.774 104.359 117.811 104.411C117.984 104.648 118.322 105.185 118.189 105.486C118.018 105.868 117.278 105.709 116.965 105.926Z" fill="white"/>
<path d="M116.992 140.419C117.875 140.666 118.59 141.392 118.89 142.208C118.936 142.334 118.762 142.461 118.645 142.385C117.936 141.929 117.25 141.316 116.83 140.616C116.817 140.592 116.812 140.564 116.814 140.537C116.817 140.51 116.828 140.485 116.845 140.464C116.862 140.443 116.886 140.427 116.912 140.419C116.938 140.411 116.966 140.411 116.992 140.419Z" fill="black"/>
<path d="M115.391 163.181C115.409 163.03 115.664 163.029 115.646 163.181C115.511 164.34 115.552 165.466 115.282 166.616C115.014 167.755 114.584 168.884 113.954 169.891C113.67 170.345 112.804 170.034 113.023 169.524C113.454 168.519 113.922 167.533 114.324 166.516C114.742 165.463 115.261 164.3 115.391 163.181Z" fill="black"/>
<path d="M112.621 138.83C112.431 138.603 112.678 138.181 112.987 138.386C114.179 139.18 115.069 140.26 115.949 141.34C116.076 141.495 115.814 141.651 115.673 141.538C114.609 140.683 113.486 139.87 112.621 138.83Z" fill="black"/>
<path d="M114.619 90.9758C114.416 91.152 114.051 90.9217 114.218 90.688C114.931 89.6908 116.227 88.9809 117.445 88.6839C117.637 88.6378 117.781 88.9141 117.585 88.9965C117.047 89.2173 116.528 89.4829 116.034 89.7904C115.495 90.1307 115.088 90.5671 114.619 90.9758Z" fill="black"/>
<path d="M111.359 164.279C111.355 166.717 110.799 169.36 109.218 171.361C109.006 171.627 108.438 171.476 108.593 171.114C109.549 168.84 110.633 166.66 111.218 164.26C111.224 164.245 111.235 164.232 111.249 164.224C111.263 164.215 111.28 164.212 111.296 164.214C111.312 164.216 111.328 164.224 111.339 164.236C111.35 164.248 111.358 164.263 111.359 164.279Z" fill="black"/>
<path d="M127.854 150.924C128.48 152.509 127.877 153.965 127.604 155.534C127.546 155.877 127.979 156.058 128.2 155.769C129.322 154.312 128.743 152.372 128.069 150.868C128.015 150.748 127.803 150.795 127.854 150.924ZM124.83 152.861C124.988 153.85 125.014 154.855 124.905 155.851C124.812 156.763 124.491 157.697 124.542 158.612C124.562 158.961 125.003 159.046 125.21 158.784C126.463 157.182 125.971 154.473 125.428 152.708C125.315 152.337 124.769 152.497 124.83 152.861ZM121.807 155.532C122.012 156.564 122.046 157.623 121.905 158.665C121.769 159.72 121.301 160.643 121.009 161.653C120.933 161.918 121.337 162.189 121.541 161.94C123.009 160.176 122.951 157.439 122.252 155.413C122.16 155.15 121.751 155.259 121.807 155.531V155.532ZM100.616 172.608C100.613 172.969 101.098 173.046 101.299 172.781C101.999 171.846 102.185 170.526 102.493 169.438C102.839 168.216 103.005 166.986 103.226 165.743C103.232 165.715 103.227 165.686 103.212 165.662C103.197 165.638 103.173 165.621 103.146 165.613C103.119 165.606 103.09 165.609 103.065 165.623C103.04 165.636 103.021 165.658 103.012 165.685C102.556 166.865 102.027 168.013 101.619 169.211C101.251 170.291 100.623 171.466 100.616 172.608ZM97.9575 163.678C98.3748 163.916 98.7839 163.457 98.5923 163.087C98.2738 162.483 97.7677 161.979 97.4289 161.38C97.0723 160.753 96.7474 160.052 96.647 159.347C96.6123 159.109 96.2124 159.175 96.2095 159.405C96.1761 160.908 96.4294 162.809 97.9575 163.678ZM96.5281 173.015C96.7283 173.45 97.5466 173.135 97.3574 172.688C96.2799 170.124 95.4997 167.497 95.2129 164.75C95.1864 164.488 94.7674 164.477 94.7674 164.75C94.7755 167.59 95.3231 170.399 96.5281 173.015ZM94.7657 162.117C94.9809 162.398 95.5736 162.341 95.5378 161.921C95.4761 161.158 95.1765 160.429 95.0825 159.662C94.9938 158.897 94.9566 158.128 94.9711 157.359C94.9711 157.213 94.731 157.133 94.6606 157.279C93.9935 158.666 93.7627 160.806 94.7657 162.117ZM92.4383 163.295C91.9847 166.047 91.8687 168.986 93.3506 171.51C93.5417 171.836 94.0974 171.616 93.9906 171.258C93.2139 168.667 92.3638 166.059 92.736 163.332C92.7568 163.176 92.4642 163.136 92.4383 163.295ZM87.2347 168.455C87.4655 169.941 87.8239 171.741 88.9659 172.862C89.2268 173.118 89.6042 172.843 89.5517 172.543C89.2955 171.107 88.5268 169.784 88.24 168.34C87.9441 166.848 87.8787 165.32 88.0461 163.809C88.0842 163.469 87.4759 163.391 87.4061 163.728C87.0789 165.296 86.9929 166.87 87.2347 168.455ZM84.2546 169.005C84.4508 169.275 84.9916 169.203 84.9662 168.823C84.9009 167.851 84.5749 166.916 84.4537 165.945C84.3224 164.921 84.3224 163.884 84.4537 162.861C84.4924 162.578 84.0192 162.538 83.9384 162.795C83.3393 164.683 83.0006 167.273 84.2546 169.005ZM81.1349 167.135C81.2988 167.37 81.7668 167.303 81.7425 166.981C81.6681 165.994 81.3478 165.039 81.2809 164.048C81.2076 162.979 81.2439 161.904 81.4748 160.854C81.5198 160.653 81.233 160.586 81.1533 160.77C80.331 162.666 79.8549 165.309 81.1349 167.135ZM76.6884 160.616C76.8656 161.083 77.6071 160.9 77.4877 160.41C77.1039 158.839 76.8748 157.07 77.4415 155.504C77.5148 155.301 77.1836 155.225 77.1039 155.416C76.7427 156.28 76.4276 157.036 76.3462 157.972C76.2619 158.868 76.3788 159.771 76.6884 160.616ZM74.0477 159.683C74.1706 159.916 74.5492 159.792 74.5526 159.555C74.5665 158.51 74.2929 157.487 74.3137 156.438C74.3374 155.34 74.4868 154.173 74.8804 153.135C74.9381 152.989 74.694 152.931 74.6352 153.071C73.8013 155.035 72.9829 157.65 74.0477 159.683ZM71.5564 156.932C71.6199 157.149 71.9211 157.079 71.9465 156.882C72.0533 156.085 71.9719 155.277 72.0406 154.475C72.1212 153.597 72.2979 152.73 72.5674 151.889C72.6252 151.712 72.343 151.645 72.2789 151.813C71.6758 153.336 71.0866 155.317 71.5564 156.932ZM58.6643 112.313C59.0555 112.889 59.6067 113.913 60.3898 114.152C60.7574 116.82 61.1567 119.483 61.6709 122.127C61.9594 125.78 62.1822 129.444 62.5942 133.089C62.8585 135.404 63.244 137.738 64.0947 139.94C67.5283 149.324 76.3612 146.766 78.8877 153.138C80.0771 157.206 80.2029 160.04 85.3938 161.083C86.6495 161.318 88.2688 161.601 89.5228 161.259C90.9731 160.866 91.3378 159.374 91.5842 158.161C91.8288 156.988 91.9216 155.788 91.86 154.591C93.574 155.362 95.3254 155.895 97.2212 156.031C97.9137 156.091 101.199 156.091 101.89 156.031C103.786 155.895 105.537 155.362 107.252 154.591C107.19 155.788 107.283 156.988 107.527 158.161C107.774 159.374 108.138 160.867 109.588 161.259C110.843 161.6 112.461 161.317 113.718 161.083C115.053 160.832 116.362 160.348 117.393 159.497C121.365 155.7 117.797 151.897 125.075 148.664C130.05 146.534 133.055 145.046 135.017 139.941C135.865 137.741 136.251 135.406 136.517 133.09C137.158 126.996 137.51 120.877 137.987 114.771C138.062 114.762 138.132 114.727 138.185 114.673C138.237 114.618 138.269 114.547 138.275 114.472C138.415 113.084 138.57 111.695 138.705 110.306C139.485 110.162 140.233 109.917 140.972 109.66C140.925 110.102 140.912 110.547 140.932 110.991C140.753 112.576 140.566 114.162 140.436 115.753C139.916 123.295 139.21 130.833 137.92 138.297C137.17 142.624 136.039 146.885 133.938 150.824C131.99 154.473 129.437 157.81 126.625 160.916C124.767 162.972 122.638 164.899 120.797 167.009C120.809 166.673 120.776 166.337 120.699 166.009C120.642 165.774 120.26 165.66 120.086 165.858C119.452 166.589 119.057 167.474 118.583 168.301C117.072 171.047 114.48 173.134 111.527 174.461C109.423 175.426 107.141 176.065 104.88 176.618C103.122 177.053 101.349 177.439 99.5566 177.717C97.7625 177.439 95.9891 177.053 94.2319 176.618C91.9697 176.065 89.6885 175.426 87.5838 174.461C84.6314 173.137 82.0397 171.048 80.5289 168.301C80.0546 167.474 79.6633 166.589 79.0245 165.858C78.8513 165.66 78.4705 165.774 78.4133 166.009C78.3357 166.336 78.3025 166.673 78.3147 167.009C76.4761 164.899 74.3478 162.972 72.4861 160.916C69.6734 157.81 67.1232 154.473 65.1732 150.824C63.0703 146.885 61.9415 142.624 61.1913 138.297C59.9004 130.833 59.1952 123.295 58.6747 115.753C58.5633 114.383 58.4086 113.016 58.2528 111.648C58.3775 111.869 58.5125 112.091 58.6643 112.312V112.313ZM115.646 163.181C115.664 163.029 115.409 163.03 115.391 163.181C115.261 164.301 114.742 165.463 114.325 166.516C113.921 167.533 113.456 168.519 113.025 169.525C112.805 170.034 113.671 170.346 113.956 169.891C114.585 168.884 115.014 167.755 115.283 166.617C115.552 165.469 115.511 164.34 115.646 163.181V163.181ZM111.361 164.28C111.359 164.264 111.352 164.249 111.34 164.237C111.329 164.226 111.313 164.218 111.297 164.216C111.281 164.214 111.264 164.218 111.25 164.226C111.236 164.235 111.225 164.248 111.22 164.263C110.635 166.663 109.551 168.843 108.594 171.117C108.44 171.481 109.008 171.63 109.22 171.363C110.801 169.36 111.356 166.717 111.361 164.28V164.28ZM106.491 168.93C107.052 167.39 107.289 165.907 107.149 164.287C107.138 164.152 106.918 164.106 106.883 164.253C106.53 165.645 106.118 167.074 105.578 168.413C105.28 169.137 104.931 169.839 104.532 170.514C104.199 171.089 103.731 171.67 103.62 172.326C103.57 172.614 103.865 172.89 104.169 172.721C105.427 172.023 106.043 170.159 106.491 168.93V168.93ZM103.12 161.849C104.464 160.839 104.575 158.532 104.082 157.112C103.966 156.781 103.457 156.844 103.44 157.193C103.403 157.956 103.354 158.716 103.151 159.461C102.963 160.152 102.581 160.785 102.467 161.495C102.409 161.861 102.804 162.085 103.12 161.847V161.849ZM101.697 161.968C101.966 161.258 101.866 160.702 101.636 160.005C101.628 159.984 101.613 159.965 101.594 159.952C101.575 159.939 101.552 159.932 101.529 159.932C101.506 159.932 101.483 159.939 101.464 159.952C101.444 159.965 101.43 159.984 101.421 160.005C101.106 161.099 100.376 162.01 99.7644 162.959C99.5145 163.347 100.019 163.842 100.439 163.592C101.052 163.224 101.458 162.601 101.695 161.966L101.697 161.968Z" fill="#522D1C"/>
<path d="M110.36 139.219C109.806 138.668 109.264 138.109 108.73 137.541C108.598 137.4 108.78 137.13 108.961 137.261C109.617 137.727 110.245 138.229 110.842 138.767C111.362 139.24 112.132 139.753 112.38 140.403C112.476 140.65 112.159 140.806 111.949 140.714C111.318 140.436 110.837 139.694 110.36 139.219Z" fill="black"/>
<path d="M105.139 136.948C104.981 136.753 105.303 136.572 105.476 136.705C106.115 137.193 106.665 137.777 107.226 138.342C107.716 138.84 108.377 139.372 108.678 139.991C108.77 140.18 108.562 140.452 108.34 140.307C107.699 139.898 107.224 139.196 106.713 138.649C106.186 138.084 105.624 137.546 105.139 136.948Z" fill="black"/>
<path d="M104.168 172.723C103.864 172.892 103.569 172.614 103.619 172.328C103.73 171.672 104.196 171.092 104.531 170.516C104.93 169.842 105.279 169.14 105.577 168.415C106.117 167.075 106.529 165.647 106.882 164.255C106.919 164.108 107.137 164.154 107.148 164.289C107.288 165.909 107.051 167.392 106.49 168.933C106.042 170.159 105.426 172.023 104.168 172.723Z" fill="black"/>
<path d="M104.925 108.579C104.934 108.372 105.232 108.383 105.259 108.579C105.908 113.266 106.067 118.021 106.252 122.742C106.275 123.337 105.297 123.333 105.266 122.742C105.005 118.029 104.715 113.293 104.925 108.579Z" fill="black"/>
<path d="M104.08 157.11C104.573 158.53 104.462 160.837 103.119 161.847C102.803 162.085 102.407 161.861 102.466 161.493C102.581 160.785 102.962 160.151 103.15 159.459C103.352 158.714 103.402 157.954 103.439 157.191C103.456 156.841 103.965 156.779 104.08 157.11Z" fill="black"/>
<path d="M101.617 169.211C102.025 168.014 102.555 166.866 103.01 165.686C103.019 165.659 103.038 165.637 103.063 165.623C103.088 165.61 103.117 165.607 103.145 165.614C103.172 165.621 103.195 165.639 103.21 165.663C103.225 165.687 103.231 165.715 103.225 165.743C103.004 166.987 102.835 168.219 102.491 169.439C102.184 170.526 101.998 171.846 101.297 172.781C101.097 173.047 100.611 172.969 100.615 172.609C100.621 171.466 101.25 170.291 101.617 169.211Z" fill="black"/>
<path d="M102.501 136.337C103.539 137.489 104.646 138.698 105.433 140.018C105.442 140.04 105.444 140.064 105.438 140.086C105.432 140.109 105.418 140.129 105.399 140.142C105.38 140.156 105.357 140.162 105.333 140.161C105.31 140.159 105.288 140.15 105.271 140.134C104.169 139.027 103.279 137.669 102.426 136.391C102.399 136.351 102.467 136.299 102.501 136.337Z" fill="black"/>
<path d="M101.42 160.004C101.428 159.982 101.443 159.963 101.462 159.95C101.481 159.937 101.504 159.93 101.527 159.93C101.551 159.93 101.573 159.937 101.593 159.95C101.612 159.963 101.627 159.982 101.635 160.004C101.866 160.702 101.965 161.256 101.696 161.966C101.457 162.599 101.05 163.222 100.438 163.589C100.018 163.84 99.5143 163.345 99.763 162.956C100.374 162.008 101.105 161.094 101.42 160.004Z" fill="black"/>
<path d="M81.9517 146.383C82.2541 145.756 82.8415 145.289 83.279 144.747C83.3263 144.698 83.3614 144.639 83.3814 144.574C83.4015 144.508 83.4059 144.44 83.3944 144.372C87.2834 143.805 91.1752 143.712 95.0948 143.488C96.672 143.399 98.3963 143.126 99.5551 142.049C100.712 143.124 102.436 143.397 104.014 143.488C107.933 143.712 111.825 143.805 115.714 144.372C115.703 144.44 115.707 144.509 115.727 144.574C115.747 144.64 115.782 144.699 115.83 144.749C116.264 145.289 116.852 145.756 117.157 146.383C116.729 146.192 116.374 146.072 115.864 146.053C114.798 146.021 113.738 146.237 112.728 146.542C111.708 146.013 110.577 145.708 109.463 145.398C108.185 145.041 106.904 144.703 105.605 144.416C104.381 144.144 103.206 144.058 101.977 144.358C101.268 144.531 100.294 144.808 99.5528 145.229C98.8124 144.808 97.8383 144.533 97.129 144.358C95.9004 144.056 94.7255 144.142 93.5015 144.416C92.2025 144.703 90.9207 145.041 89.6425 145.398C88.5281 145.708 87.3982 146.013 86.3779 146.542C85.3686 146.237 84.3085 146.021 83.2432 146.053C82.733 146.072 82.3781 146.192 81.9517 146.383Z" fill="#F1DCCD"/>
<path d="M93.1277 146.044C94.3355 145.791 95.4562 145.561 96.6791 145.889C97.3872 146.08 98.0508 146.483 98.7404 146.753C98.8807 146.996 99.2419 147.058 99.5524 146.983C99.8611 147.056 100.222 146.994 100.36 146.753C101.049 146.483 101.713 146.079 102.422 145.889C103.644 145.561 104.765 145.791 105.973 146.044C107.826 146.412 109.728 146.797 111.615 146.904C111.177 147.057 110.739 147.212 110.298 147.354C108.34 147.987 106.316 148.154 104.239 148.045C104.35 147.889 104.361 147.613 104.114 147.564C103.299 147.419 102.446 147.736 101.656 147.909C101.001 148.05 100.229 148.024 99.5524 148.174C98.8743 148.024 98.1022 148.05 97.446 147.909C96.6566 147.741 95.8036 147.421 94.9882 147.564C94.7418 147.613 94.7527 147.889 94.8641 148.045C94.1861 148.049 93.4999 148.102 92.8888 148.07C91.0375 147.997 89.1989 147.557 87.4861 146.906C89.372 146.797 91.2747 146.413 93.1277 146.044Z" fill="#D8C6BA"/>
<path d="M96.2051 159.402C96.2051 159.175 96.6091 159.109 96.6425 159.345C96.7429 160.049 97.0678 160.75 97.4245 161.377C97.7632 161.976 98.2693 162.481 98.5879 163.085C98.7824 163.454 98.3732 163.914 97.9531 163.675C96.4279 162.809 96.1745 160.908 96.2051 159.402Z" fill="black"/>
<path d="M87.486 146.904C89.1988 147.555 91.0374 147.995 92.8886 148.068C93.4998 148.1 94.1859 148.047 94.864 148.043C94.7526 147.887 94.7417 147.611 94.9881 147.561C95.8035 147.417 96.6564 147.734 97.4459 147.907C98.102 148.048 98.8742 148.022 99.5523 148.172C100.229 148.022 101.001 148.048 101.656 147.907C102.446 147.739 103.299 147.419 104.114 147.561C104.361 147.611 104.35 147.887 104.239 148.043C106.316 148.154 108.342 147.985 110.298 147.352C110.739 147.21 111.177 147.055 111.615 146.902C109.728 146.795 107.826 146.41 105.973 146.042C104.765 145.789 103.644 145.559 102.422 145.887C101.713 146.078 101.049 146.481 100.36 146.751C100.22 146.994 99.8587 147.056 99.5523 146.981C99.2418 147.054 98.8805 146.992 98.7403 146.751C98.0478 146.481 97.387 146.077 96.679 145.887C95.4561 145.559 94.3354 145.789 93.1276 146.042C91.2745 146.412 89.3719 146.796 87.486 146.904ZM83.2432 146.053C84.3085 146.021 85.3686 146.237 86.378 146.542C87.3983 146.013 88.5282 145.708 89.6425 145.398C90.9208 145.041 92.2025 144.703 93.5015 144.416C94.7255 144.144 95.9005 144.058 97.1291 144.358C97.8377 144.531 98.8119 144.808 99.5528 145.229C100.292 144.808 101.266 144.533 101.977 144.358C103.206 144.056 104.381 144.142 105.605 144.416C106.904 144.704 108.185 145.041 109.463 145.398C110.578 145.708 111.708 146.013 112.728 146.542C113.738 146.237 114.798 146.021 115.864 146.053C116.374 146.072 116.73 146.192 117.157 146.383L117.17 146.786C114.487 146.87 112.176 147.947 109.774 148.97C108.607 149.464 107.324 149.667 106.061 149.813C104.766 149.946 103.03 150.316 101.899 149.567C101.197 149.849 100.332 150.194 99.5557 150.156C98.7772 150.194 97.9128 149.849 97.211 149.567C96.0788 150.315 94.3441 149.946 93.0479 149.813C91.7858 149.667 90.5024 149.464 89.3355 148.97C86.9337 147.947 84.6225 146.87 81.9419 146.786L81.9546 146.383C82.3776 146.192 82.7325 146.072 83.2432 146.053Z" fill="black"/>
<path d="M94.7684 164.75C94.7684 164.476 95.1874 164.488 95.2139 164.75C95.5025 167.497 96.281 170.123 97.3584 172.687C97.5477 173.135 96.7294 173.449 96.5291 173.014C95.3219 170.399 94.7742 167.589 94.7684 164.75Z" fill="black"/>
<path d="M95.5363 161.921C95.5698 162.341 94.9794 162.398 94.7642 162.117C93.7612 160.805 93.992 158.666 94.6591 157.281C94.7295 157.134 94.9713 157.214 94.9696 157.36C94.9551 158.129 94.9923 158.899 95.081 159.663C95.175 160.429 95.4746 161.158 95.5363 161.921Z" fill="black"/>
<path d="M93.8441 108.579C93.8712 108.383 94.1684 108.372 94.1782 108.579C94.3866 113.293 94.0968 118.029 93.8389 122.742C93.8054 123.333 92.8284 123.337 92.8503 122.742C93.0362 118.018 93.1954 113.266 93.8441 108.579Z" fill="black"/>
<path d="M93.8313 140.137C93.8141 140.153 93.792 140.162 93.7688 140.164C93.7456 140.165 93.7226 140.159 93.7036 140.145C93.6846 140.132 93.6708 140.112 93.6644 140.09C93.658 140.067 93.6595 140.044 93.6686 140.022C94.4552 138.703 95.5614 137.494 96.6014 136.341C96.636 136.301 96.7047 136.354 96.6758 136.395C95.8229 137.673 94.933 139.031 93.8313 140.137Z" fill="black"/>
<path d="M93.3478 171.51C91.8658 168.986 91.9819 166.047 92.4354 163.295C92.4614 163.136 92.754 163.176 92.7332 163.332C92.361 166.059 93.211 168.67 93.9878 171.258C94.0946 171.616 93.5388 171.836 93.3478 171.51Z" fill="black"/>
<path d="M75.5829 144.081C76.2754 144.469 77.2126 144.176 77.9374 144.011C83.2685 142.729 88.7508 142.053 94.2476 141.865C95.6903 141.818 97.4216 141.782 98.4771 140.723C99.4621 139.777 99.4096 138.247 99.6422 137.004C99.7374 137.993 99.8015 139 100.162 139.945C100.24 140.241 100.358 140.569 100.644 140.739C101.7 141.784 103.423 141.818 104.857 141.865C108.016 141.973 111.168 142.249 114.298 142.694C116.611 143.021 118.9 143.479 121.169 144.011C121.891 144.176 122.826 144.471 123.521 144.081C125.091 143.202 121.952 141.925 121.296 141.576C119.9 140.83 118.492 140.104 117.074 139.399C114.325 137.987 111.492 136.732 108.707 135.386C107.754 135.743 106.679 135.659 105.706 135.417C105.067 135.26 104.251 135.05 103.738 134.6C102.702 135 101.688 135.573 100.515 135.913C100.311 136.025 100.083 136.084 99.8505 136.083L99.8557 136.116C99.798 136.113 99.7403 136.108 99.6826 136.105C99.6826 136.099 99.6826 136.093 99.6826 136.086C99.638 136.086 99.5935 136.084 99.5493 136.081C99.5031 136.084 99.4581 136.086 99.4137 136.086C99.274 136.076 99.1355 136.068 98.9953 136.057C98.8508 136.034 98.7117 135.985 98.5844 135.913C97.4129 135.573 96.3972 135 95.3608 134.6C94.8483 135.05 94.0335 135.26 93.3935 135.417C92.4223 135.659 91.346 135.743 90.3926 135.386C87.6099 136.732 84.7747 137.987 82.0249 139.399C80.6068 140.104 79.1997 140.829 77.8035 141.576C77.1525 141.925 74.0132 143.202 75.5829 144.081ZM77.7366 145.449C76.3036 145.74 74.5083 145.661 73.8314 144.206C73.1966 142.844 74.4177 141.86 75.5494 141.236C79.9745 138.813 84.5271 136.591 89.2327 134.677C88.3094 133.871 87.7098 132.67 87.2354 131.626C86.5314 130.072 86.4408 128.08 88.0087 126.949C89.1052 126.157 91.4135 125.778 92.525 126.728C92.7858 126.952 92.705 127.362 92.4153 127.524C91.4406 128.067 90.1341 127.538 89.1756 128.181C87.9897 128.975 88.5835 130.579 89.0959 131.555C90.0083 133.442 90.9663 134.629 93.3289 133.685C92.8769 133.457 92.4383 133.203 92.0154 132.924C91.8279 132.799 91.8625 132.438 92.1493 132.464C93.566 132.598 94.8778 132.924 96.2674 133.199C97.3639 133.418 98.4545 133.55 99.5516 133.815C100.648 133.55 101.735 133.418 102.834 133.199C104.224 132.923 105.535 132.598 106.952 132.464C107.241 132.437 107.274 132.797 107.085 132.924C106.663 133.203 106.224 133.457 105.773 133.685C108.133 134.628 109.096 133.439 110.005 131.555C110.518 130.579 111.112 128.975 109.926 128.181C108.967 127.538 107.662 128.066 106.686 127.524C106.398 127.363 106.315 126.952 106.576 126.728C107.686 125.778 109.996 126.157 111.092 126.949C112.661 128.08 112.57 130.073 111.866 131.626C111.392 132.668 110.792 133.867 109.868 134.677C114.574 136.591 119.126 138.813 123.552 141.236C124.684 141.86 125.905 142.844 125.269 144.206C124.593 145.661 122.797 145.74 121.365 145.449C120.425 145.26 119.493 145.062 118.559 144.874C119.304 145.653 119.837 146.855 119.51 147.9C119.238 148.764 117.667 148.906 117.487 147.9C117.415 147.503 117.393 147.138 117.298 146.781C117.253 146.781 117.21 146.781 117.165 146.786L117.153 146.383C116.849 145.756 116.261 145.289 115.825 144.749C115.778 144.699 115.743 144.639 115.723 144.574C115.703 144.509 115.699 144.439 115.71 144.372C111.821 143.805 107.929 143.712 104.01 143.488C102.432 143.399 100.708 143.126 99.551 142.048C98.3922 143.124 96.6656 143.397 95.0907 143.488C91.1711 143.712 87.2793 143.805 83.3903 144.372C83.4018 144.439 83.3974 144.508 83.3773 144.573C83.3573 144.638 83.3222 144.698 83.2749 144.747C82.8403 145.289 82.2528 145.756 81.9476 146.383L81.9349 146.786C81.8898 146.782 81.8454 146.782 81.801 146.781C81.7052 147.138 81.6856 147.503 81.6117 147.9C81.4316 148.906 79.8602 148.764 79.5884 147.9C79.2618 146.855 79.795 145.651 80.54 144.874C79.6086 145.062 78.6755 145.261 77.7366 145.449Z" fill="black"/>
<path d="M90.7633 140.31C90.5388 140.453 90.3339 140.183 90.4263 139.994C90.7269 139.374 91.3877 138.842 91.8776 138.345C92.438 137.78 92.9891 137.193 93.6273 136.708C93.8005 136.575 94.1225 136.755 93.9649 136.95C93.479 137.549 92.9175 138.086 92.3901 138.652C91.8822 139.196 91.4067 139.898 90.7633 140.31Z" fill="black"/>
<path d="M67.5472 99.5021C67.3896 99.6006 67.213 99.4578 67.2176 99.3081C65.9077 98.8475 66.5828 97.1779 66.8293 96.2671C67.7128 92.4673 69.44 88.2933 73.5235 86.6525C75.5133 85.8286 77.7148 85.5586 79.8656 85.3934C82.3771 85.2011 85.0358 84.9472 87.5363 85.387C90.0691 85.8332 89.7159 88.5299 90.0916 90.3734C90.3063 91.4299 90.5152 92.7667 89.8239 93.7126C89.2589 94.4864 88.2876 94.7293 87.3487 94.8514C80.2459 95.6678 75.7343 93.4777 69.466 98.2182C69.4437 98.3341 69.3874 98.4408 69.3043 98.5247C69.2212 98.6087 69.115 98.6661 68.9991 98.6898C68.5536 98.8009 68.2702 99.319 67.7659 99.3588C67.6955 99.4083 67.6222 99.4561 67.5472 99.5021ZM88.1191 91.819C88.2877 90.6975 88.4706 89.6146 88.3754 88.4798C88.3102 87.4032 88.369 86.6663 86.9523 86.6744C84.6866 86.5155 82.4043 86.6824 80.1427 86.8569C78.2775 87.0014 76.3748 87.1171 74.6067 87.7383C70.2479 89.2122 68.8277 93.7921 68.0279 97.6448C68.1556 97.5785 68.2914 97.5289 68.4318 97.4974C72.9175 91.6337 79.9539 93.5618 86.4675 92.8628C86.8357 92.8168 87.4007 92.7995 87.7371 92.617C88.0678 92.4443 88.0695 92.138 88.1191 91.819Z" fill="black"/>
<path d="M87.4077 163.726C87.4775 163.389 88.0858 163.467 88.0477 163.806C87.8803 165.318 87.9457 166.846 88.2416 168.337C88.5301 169.784 89.2971 171.107 89.5533 172.54C89.6058 172.84 89.2284 173.116 88.9676 172.859C87.8232 171.738 87.462 169.939 87.2363 168.452C86.9922 166.87 87.0782 165.296 87.4077 163.726Z" fill="black"/>
<path d="M80.9191 105.487C81.0922 105.868 81.8298 105.711 82.1431 105.927C82.2635 106.009 82.3673 106.112 82.449 106.233C82.8322 105.548 82.3803 104.81 82.1512 104.191C81.8898 104.203 81.6272 104.22 81.3664 104.235C81.3576 104.299 81.3337 104.359 81.2965 104.411C81.1182 104.648 80.7823 105.185 80.9191 105.487ZM72.5617 108.734C72.3754 108.86 72.0187 108.817 71.8756 108.652C70.6406 107.225 72.3292 104.53 73.4689 103.456C74.289 102.682 75.2775 102.18 76.3393 101.89C79.709 100.751 84.4543 100.4 87.3663 102.379C88.2827 103.012 88.6746 103.761 89.1155 104.713C89.8143 105.692 90.5086 107.345 89.3255 108.212C88.9562 108.469 88.4772 108.242 88.2481 107.948C87.8851 107.487 88.1177 107.01 87.9059 106.505C87.8343 106.36 87.7674 106.212 87.6958 106.066C87.218 105.284 86.3685 104.724 85.4591 104.461C86.3426 109.193 79.7759 111.307 77.5986 106.961C77.2702 106.205 77.2084 105.299 77.501 104.543C76.7231 104.739 76.0064 105.076 75.2469 105.609C74.6698 106.016 74.1268 106.505 73.7413 107.082C73.3466 107.666 73.1827 108.312 72.5589 108.734H72.5617Z" fill="black"/>
<path d="M86.9532 86.6771C88.37 86.669 88.3111 87.4059 88.3763 88.4825C88.4715 89.615 88.2886 90.6979 88.1201 91.8218C88.0705 92.1407 88.0687 92.447 87.7444 92.622C87.4068 92.8045 86.8418 92.8218 86.4748 92.8678C79.9612 93.5668 72.9248 91.6387 68.4391 97.5024C68.2986 97.5339 68.1628 97.5835 68.0352 97.6498C68.8338 93.7971 70.2541 89.2172 74.6139 87.7433C76.3821 87.1221 78.2848 87.0064 80.1499 86.8619C82.4052 86.6851 84.6876 86.5182 86.9532 86.6771ZM83.0706 89.7894C83.6084 90.1308 84.0147 90.5678 84.4873 90.976C84.6893 91.1522 85.054 90.9219 84.8867 90.6881C84.1734 89.691 82.8778 88.9811 81.6602 88.684C81.4674 88.638 81.3243 88.9143 81.5199 88.9967C82.0581 89.2173 82.5768 89.4824 83.0706 89.7894ZM79.0396 90.763C79.6288 91.0365 80.1396 91.4257 80.7207 91.7049C81.1062 91.8891 81.453 91.4573 81.1743 91.1556C80.2417 90.147 78.5081 89.6587 77.1312 89.6311C77.0781 89.6294 77.0262 89.6474 76.9856 89.6815C76.9449 89.7156 76.9183 89.7634 76.9108 89.8159C76.9033 89.8684 76.9154 89.9218 76.9449 89.9659C76.9744 90.0099 77.0192 90.0416 77.0706 90.0548C77.736 90.2517 78.4129 90.4722 79.0396 90.763ZM72.6772 91.945C73.6467 91.7509 74.5574 92.0843 75.3215 92.6358C75.5615 92.8085 76.0249 92.5783 75.7958 92.2938C75.0329 91.3537 73.7102 91.1107 72.5497 91.5143C72.2646 91.6145 72.3731 92.0066 72.6772 91.945Z" fill="#2B1710"/>
<path d="M87.1534 140.713C86.9433 140.805 86.6265 140.649 86.7223 140.401C86.9722 139.752 87.7391 139.239 88.2597 138.766C88.8576 138.228 89.4859 137.726 90.1416 137.26C90.3245 137.128 90.5057 137.398 90.3724 137.539C89.8374 138.108 89.2961 138.667 88.7421 139.218C88.2677 139.694 87.7853 140.436 87.1534 140.713Z" fill="black"/>
<path d="M84.4497 162.863C84.3184 163.887 84.3184 164.924 84.4497 165.948C84.5709 166.916 84.8969 167.852 84.9621 168.826C84.9875 169.206 84.4468 169.278 84.2506 169.008C82.9966 167.276 83.3353 164.686 83.9326 162.801C84.0151 162.541 84.4883 162.581 84.4497 162.863Z" fill="black"/>
<path d="M83.4283 141.538C83.2887 141.653 83.0244 141.495 83.1548 141.34C84.0337 140.26 84.9236 139.18 86.1158 138.386C86.4228 138.181 86.671 138.603 86.4817 138.83C85.6161 139.87 84.4959 140.683 83.4283 141.538Z" fill="black"/>
<path d="M81.3624 104.235C81.6233 104.219 81.8858 104.203 82.1473 104.19C82.3781 104.81 82.8282 105.548 82.445 106.233C82.3634 106.112 82.2596 106.008 82.1392 105.926C81.8258 105.71 81.0854 105.869 80.9152 105.486C80.7813 105.185 81.1172 104.648 81.2926 104.411C81.3297 104.359 81.3537 104.298 81.3624 104.235Z" fill="white"/>
<path d="M81.5204 88.9952C81.3248 88.9141 81.4679 88.6366 81.6607 88.6826C82.8783 88.9797 84.1739 89.6896 84.8872 90.6867C85.0545 90.9216 84.6898 91.1519 84.4878 90.9746C84.0152 90.5664 83.6089 90.1294 83.0711 89.788C82.5773 89.481 82.0586 89.2158 81.5204 88.9952Z" fill="black"/>
<path d="M81.1317 167.135C79.8517 165.309 80.3278 162.666 81.149 160.77C81.2286 160.586 81.5155 160.655 81.4704 160.854C81.2396 161.904 81.2032 162.979 81.2765 164.048C81.3446 165.039 81.6649 165.994 81.7382 166.981C81.7636 167.303 81.2956 167.369 81.1317 167.135Z" fill="black"/>
<path d="M77.0697 90.0549C77.0183 90.0417 76.9735 90.01 76.944 89.966C76.9145 89.9219 76.9024 89.8685 76.9099 89.816C76.9174 89.7635 76.944 89.7157 76.9847 89.6816C77.0254 89.6475 77.0772 89.6295 77.1303 89.6312C78.5072 89.6565 80.2408 90.1494 81.1734 91.1557C81.4521 91.4574 81.1053 91.8892 80.7198 91.705C80.1387 91.4258 79.6279 91.0366 79.0387 90.7631C78.412 90.4723 77.7351 90.2518 77.0697 90.0549Z" fill="black"/>
<path d="M80.2149 142.21C80.5144 141.394 81.2288 140.668 82.1123 140.42C82.1385 140.412 82.1665 140.412 82.1927 140.42C82.2189 140.428 82.2421 140.444 82.2595 140.465C82.277 140.486 82.2877 140.511 82.2905 140.539C82.2932 140.566 82.2879 140.593 82.2751 140.617C81.8544 141.317 81.1682 141.93 80.4601 142.386C80.3412 142.461 80.1681 142.333 80.2149 142.21Z" fill="black"/>
<path d="M77.4862 160.41C77.6056 160.9 76.8641 161.083 76.6869 160.616C76.3773 159.771 76.2604 158.868 76.3447 157.972C76.4261 157.036 76.7411 156.277 77.1024 155.416C77.182 155.225 77.5133 155.301 77.44 155.504C76.8733 157.068 77.1024 158.839 77.4862 160.41Z" fill="black"/>
<path d="M74.0451 159.682C72.9803 157.65 73.7987 155.035 74.6326 153.071C74.6903 152.931 74.9332 152.988 74.8778 153.135C74.4843 154.171 74.3348 155.34 74.3111 156.438C74.2903 157.487 74.5639 158.51 74.55 159.555C74.5466 159.792 74.168 159.916 74.0451 159.682Z" fill="black"/>
<path d="M72.6772 91.9452C72.3731 92.0068 72.2646 91.6147 72.5496 91.5146C73.7102 91.1116 75.0311 91.3539 75.7958 92.2941C76.0266 92.5756 75.5615 92.8123 75.3214 92.6361C74.5573 92.0845 73.6467 91.7512 72.6772 91.9452Z" fill="black"/>
<path d="M71.5549 156.932C71.0852 155.317 71.6744 153.336 72.2745 151.813C72.3415 151.645 72.6208 151.711 72.5631 151.889C72.2935 152.729 72.1168 153.596 72.0362 154.475C71.9675 155.277 72.0489 156.087 71.9421 156.882C71.9196 157.079 71.6184 157.149 71.5549 156.932Z" fill="black"/>
<path d="M71.4598 101.349C71.4522 101.359 71.4409 101.366 71.4284 101.367C71.416 101.369 71.4034 101.366 71.3935 101.358C71.3835 101.35 71.377 101.339 71.3754 101.327C71.3738 101.314 71.3772 101.302 71.3848 101.292C74.2218 96.3843 83.4638 95.23 88.1203 98.3332C88.886 98.8588 89.54 99.5301 90.0449 100.308C90.4679 100.974 91.0317 102.025 90.7565 102.8C90.6653 103.056 90.285 103.123 90.1303 102.876C89.8995 102.511 89.8903 102.087 89.7454 101.687C88.526 98.4408 84.483 97.2721 81.111 97.3723C77.3259 97.427 74.051 98.7817 71.4598 101.349Z" fill="black"/>
<path d="M53.2389 107.251C54.22 107.991 55.1941 109.017 56.3765 109.457C56.6095 109.786 56.8883 110.081 57.2047 110.332C56.8907 112.709 56.7845 115.101 56.7938 117.494H56.4914C56.4914 115.082 54.8755 112.523 52.3462 111.828C51.6791 111.645 51.0235 112.544 51.6248 112.985C52.6636 113.748 53.5292 114.683 53.8916 115.892C54.8629 119.101 51.4482 120.21 53.1137 123.986C53.7727 125.426 54.9823 126.759 56.2767 127.745C56.5723 127.979 56.9446 128.094 57.3207 128.068C57.4692 129.775 57.649 131.479 57.8602 133.181C57.0327 133.115 56.2559 132.972 55.4676 132.557C52.9573 131.306 52.4449 128.47 51.9145 126.095C50.3864 119.513 50.2912 112.673 51.4979 106.042C52.098 106.422 52.682 106.822 53.2389 107.251Z" fill="#F3D7C7"/>
<path d="M56.4577 118.094C56.4801 117.896 56.4912 117.696 56.4911 117.496H56.7935C56.8016 119.953 56.932 122.413 57.0821 124.861C56.3163 124.145 55.6082 123.365 55.3802 122.371C55.2071 121.631 55.5032 121.007 55.7975 120.329C56.1172 119.597 56.3671 118.881 56.4577 118.094Z" fill="#F3D7C7"/>
<path d="M54.2179 87.0309C54.8752 88.5428 55.649 89.9815 56.663 91.3126C57.397 92.2735 58.2038 93.2436 59.1831 94.0013C59.1496 95.3099 59.1208 96.6231 59.1098 97.9398C57.5355 96.2501 55.7968 94.6282 54.7176 92.6097C54.6715 92.5239 54.5364 92.5988 54.5791 92.6846C55.7362 95.0065 56.8984 97.3013 59.1046 98.907C59.0556 103.201 59.4059 107.436 60.0487 111.658C59.6575 111.176 59.2737 110.69 58.8836 110.208C59.0637 108.979 58.2881 107.991 57.6896 106.949C49.9451 94.3979 51.5927 83.9341 54.1694 70.3326C55.5706 62.6092 57.4472 54.108 64.2107 48.8516C63.292 51.5051 63.3618 54.4177 64.1484 57.1035C64.2424 57.4276 64.8172 57.3747 64.7901 57.0223C64.5494 53.9986 64.7549 50.7607 66.5392 48.132C67.6357 46.5044 69.3456 45.0892 71.31 44.521C69.9319 49.9536 71.2038 55.925 75.2296 60.1382C73.8255 61.2148 72.2432 61.65 70.3821 61.8279C65.6194 62.163 63.0086 64.436 61.8308 68.7061C60.8024 72.5428 60.5191 76.5291 60.0349 80.451C58.6572 79.0298 57.4591 77.4457 56.4674 75.734C56.3519 75.5308 55.9659 75.6707 56.0599 75.8947C56.9434 77.9943 58.1455 80.2235 59.8918 81.8626C59.7487 83.3446 59.6255 84.8274 59.5224 86.3113C57.8651 84.2116 56.1557 82.1534 54.664 79.9317C54.4395 79.5983 53.9034 79.8919 54.1007 80.2397C55.6161 82.9254 57.2937 85.6947 59.4157 88.0344C59.3341 89.4507 59.272 90.8678 59.2293 92.2856C57.498 90.6448 55.9399 88.8312 54.653 86.8605C54.5203 86.6521 54.1128 86.7897 54.2179 87.0309Z" fill="#3A1F14"/>
<path d="M142.247 114.529C142.289 115.517 142.305 116.506 142.305 117.494C142.305 119.951 142.182 122.409 142.016 124.86C142.782 124.143 143.49 123.363 143.718 122.37C143.888 121.629 143.595 121.005 143.301 120.327C142.984 119.597 142.734 118.881 142.644 118.094C142.621 117.895 142.61 117.696 142.61 117.495C142.61 115.083 144.226 112.525 146.755 111.829C147.422 111.647 148.078 112.545 147.476 112.987C146.437 113.749 145.572 114.685 145.209 115.893C144.24 119.109 147.653 120.205 145.988 123.988C145.329 125.427 144.119 126.761 142.825 127.747C142.529 127.98 142.157 128.095 141.781 128.069C141.633 129.776 141.453 131.481 141.241 133.183C143.253 133.105 145.107 131.951 145.946 130.207C146.585 128.933 146.875 127.464 147.188 126.097C148.714 119.514 148.812 112.674 147.604 106.044C147.003 106.422 146.419 106.822 145.862 107.253C145.03 107.895 144.181 108.713 143.232 109.232C142.721 110.179 142.718 111.477 142.551 112.508C142.447 113.153 142.373 113.806 142.263 114.449C142.261 114.475 142.252 114.502 142.247 114.529ZM73.5103 49.1481C73.568 54.4839 77.0045 59.8296 82.2214 61.9148C78.4484 54.6745 83.2353 45.5066 89.4483 40.7995C89.5596 40.7154 89.701 40.8438 89.6058 40.9457C84.73 46.1497 80.5178 53.7614 83.8955 60.6125C83.6855 59.3552 83.9977 57.9809 84.3382 56.7995C86.6563 48.9195 93.1572 42.1081 101.408 39.3337C101.621 39.2571 101.76 39.5795 101.562 39.6734C95.1279 42.7351 90.0207 48.2517 87.5219 54.5634C86.8664 56.3027 85.8524 58.5261 86.3251 60.3967C88.9958 55.7563 93.8053 51.3577 99.0088 49.3179C99.2397 49.2304 99.4544 49.5736 99.257 49.7163C95.5371 52.3647 92.0209 55.3642 89.5619 59.1231C89.1389 59.7564 88.6865 60.4093 88.3905 61.1048C88.136 61.7018 88.1931 62.2672 88.1596 62.8631C96.1194 62.5407 103.833 60.3155 111.154 57.5399C115.056 56.014 118.82 54.1584 122.405 51.9933C125.607 50.056 128.971 46.9943 133.115 48.0784C133.309 48.1291 133.275 48.4296 133.067 48.4152C130.51 48.2356 128.185 49.7394 126.199 51.0733C123.842 52.6635 121.508 54.2784 119.014 55.6791C122.585 54.7545 126.481 55.0458 129.839 56.5191C140.303 61.0927 139.88 71.617 139.493 80.8614C139.246 90.2158 139.423 99.5887 138.824 108.93C139.358 108.706 139.89 108.473 140.412 108.225C140.507 108.195 140.603 108.163 140.696 108.126C141.064 108.069 141.4 107.849 141.707 107.648C142.369 106.739 143.363 105.969 144.312 105.288C144.333 104.964 144.466 104.651 144.608 104.279C144.858 103.622 145.101 102.961 145.337 102.299C146.773 98.3526 148.008 94.3392 148.95 90.2625C148.971 88.7794 149.27 87.2957 149.499 85.8294C150.03 82.2023 150.942 78.6443 151.873 75.0932C151.883 75.065 151.867 75.0063 151.897 74.9948C152.438 72.8352 152.916 70.6659 153.129 68.4424C153.858 61.6293 151.82 54.6037 147.314 49.1832C145.313 46.7583 142.386 43.0425 138.667 43.4899C138.288 43.5359 138.172 42.9947 138.478 42.8387C139.863 42.134 141.363 42.358 142.718 42.9389C141.731 40.5709 139.8 38.6607 137.715 37.0866C130.296 31.5021 120.467 29.1099 111.046 29.5578C107.909 29.6908 104.824 30.1975 101.702 30.4548C101.489 30.4721 101.435 30.1883 101.599 30.0944C103.035 29.2763 104.625 28.6902 106.273 28.2746C91.8241 24.4961 73.6776 34.3295 73.5103 49.1481ZM63.278 124.945C63.7223 129.721 63.69 134.787 65.4016 139.362C68.4723 147.721 75.5716 145.564 79.5518 151.094C80.7712 152.998 80.6662 155.331 81.769 157.263C82.9549 159.341 85.5575 159.8 87.8641 159.912C88.552 159.943 89.2728 160.027 89.6295 159.355C89.9065 158.837 90.0023 158.198 90.1102 157.628C90.3526 156.362 90.3526 155.082 90.2695 153.804C89.128 153.167 88.084 152.394 87.3327 151.431C87.2432 151.316 87.4088 151.212 87.5173 151.258C88.668 151.738 89.7397 152.376 90.9221 152.798C91.183 152.767 91.4519 152.838 91.6048 153.029C93.5092 153.62 95.503 153.868 97.4946 153.963C97.8483 153.975 101.259 153.975 101.613 153.963C103.604 153.868 105.6 153.617 107.503 153.029C107.655 152.838 107.925 152.767 108.186 152.798C109.365 152.376 110.436 151.738 111.59 151.258C111.698 151.212 111.864 151.316 111.775 151.431C111.025 152.394 109.979 153.167 108.838 153.804C108.755 155.082 108.755 156.361 108.997 157.628C109.106 158.197 109.201 158.834 109.478 159.355C109.834 160.026 110.556 159.943 111.243 159.912C113.551 159.8 116.154 159.342 117.339 157.263C118.442 155.331 118.337 152.998 119.556 151.094C123.545 145.558 130.627 147.729 133.706 139.362C135.417 134.787 135.385 129.721 135.83 124.945C136.322 119.962 136.721 114.966 137.316 109.992C137.229 108.475 137.163 106.957 137.151 105.434C137.173 97.1902 137.439 88.9464 137.562 80.7025C137.649 76 138.127 71.0303 136.683 66.4585C135.432 62.4992 132.336 59.2279 128.233 57.6539C124.101 56.0689 119.782 56.7678 115.546 57.5318C108.646 60.9937 101.114 63.3467 93.3903 64.5402C86.8727 65.6674 80.384 65.4078 75.623 60.5429C74.6489 61.7686 72.8911 62.1549 71.3883 62.6996C69.4228 63.4094 67.1462 63.889 65.7404 65.4694C64.4004 66.9749 63.948 69.0775 63.6473 70.9624C63.2433 73.4668 63.0027 76.0092 62.754 78.5315C61.5236 90.0069 61.8502 101.544 62.1382 113.054C62.5156 117.018 62.915 120.98 63.278 124.945ZM61.1878 138.295C61.938 142.622 63.0679 146.883 65.1696 150.821C67.1196 154.471 69.6709 157.808 72.4825 160.914C74.3419 162.969 76.4702 164.897 78.3111 167.006C78.2989 166.67 78.3321 166.334 78.4097 166.007C78.4675 165.772 78.8477 165.658 79.0209 165.856C79.6557 166.587 80.051 167.471 80.5253 168.299C82.0362 171.044 84.6278 173.131 87.5802 174.459C89.6849 175.423 91.9661 176.063 94.2283 176.616C95.9855 177.051 97.7589 177.437 99.553 177.715C101.345 177.437 103.119 177.051 104.876 176.616C107.138 176.063 109.419 175.423 111.524 174.459C114.477 173.135 117.068 171.046 118.579 168.299C119.053 167.471 119.445 166.587 120.083 165.856C120.256 165.658 120.639 165.772 120.696 166.007C120.772 166.334 120.805 166.67 120.793 167.006C122.632 164.897 124.761 162.969 126.622 160.914C129.435 157.808 131.989 154.471 133.935 150.821C136.038 146.883 137.166 142.622 137.917 138.295C139.206 130.83 139.912 123.293 140.432 115.751C140.563 114.16 140.749 112.574 140.928 110.989C140.908 110.545 140.922 110.1 140.968 109.658C140.23 109.915 139.482 110.16 138.701 110.304C138.566 111.692 138.413 113.082 138.272 114.469C138.266 114.545 138.234 114.616 138.181 114.67C138.128 114.725 138.058 114.76 137.983 114.768C137.507 120.874 137.155 126.993 136.514 133.087C136.249 135.402 135.864 137.737 135.013 139.938C133.051 145.044 130.047 146.534 125.072 148.662C117.791 151.895 121.361 155.697 117.39 159.494C116.358 160.346 115.05 160.83 113.714 161.081C112.458 161.316 110.839 161.599 109.585 161.257C108.134 160.863 107.77 159.372 107.523 158.158C107.279 156.985 107.186 155.786 107.248 154.589C105.533 155.359 103.783 155.892 101.887 156.028C101.194 156.089 97.9083 156.089 97.2176 156.028C95.3218 155.893 93.5704 155.36 91.8564 154.589C91.918 155.786 91.8253 156.985 91.5806 158.158C91.3342 159.372 90.9695 160.864 89.5192 161.257C88.2652 161.597 86.6459 161.315 85.3902 161.081C80.1993 160.039 80.0735 157.205 78.8841 153.136C76.3576 146.763 67.5247 149.32 64.0911 139.937C63.2428 137.737 62.8573 135.403 62.5907 133.086C62.1786 129.441 61.9559 125.774 61.6673 122.125C61.1531 119.481 60.7538 116.817 60.3862 114.149C59.6031 113.911 59.052 112.883 58.6607 112.311C58.5089 112.089 58.3722 111.867 58.2481 111.645C58.4039 113.012 58.5585 114.38 58.6699 115.75C59.1916 123.294 59.8968 130.831 61.1878 138.295ZM54.2171 87.0303C54.1121 86.7891 54.5195 86.6521 54.6534 86.8576C55.938 88.8283 57.4979 90.6419 59.2297 92.2827C59.2712 90.8649 59.3334 89.4478 59.4161 88.0315C57.2942 85.6918 55.6166 82.9225 54.1011 80.2368C53.9038 79.8913 54.4399 79.5954 54.6644 79.9288C56.1561 82.1505 57.8655 84.2087 59.5229 86.3084C59.6244 84.8249 59.7475 83.342 59.8922 81.8597C58.1459 80.2206 56.9439 77.9914 56.0603 75.8918C55.9663 75.6678 56.3489 75.5279 56.4678 75.7311C57.4595 77.4428 58.6576 79.0269 60.0353 80.4481C60.5195 76.5285 60.8028 72.5422 61.8312 68.7032C63.009 64.4331 65.6198 62.1601 70.3825 61.825C72.2418 61.6471 73.8242 61.2119 75.23 60.1353C71.2042 55.9221 69.9323 49.9507 71.3104 44.5181C69.3483 45.0863 67.6332 46.5015 66.5397 48.1291C64.7553 50.7578 64.5499 53.9957 64.7905 57.0194C64.8176 57.3718 64.2429 57.4224 64.1488 57.1006C63.3622 54.4149 63.2924 51.5022 64.2111 48.8487C57.4488 54.1051 55.5721 62.6086 54.1698 70.3297C51.5925 83.9301 49.945 94.391 57.69 106.946C58.2885 107.988 59.0641 108.976 58.884 110.205C59.2741 110.688 59.6579 111.173 60.0492 111.655C59.4063 107.434 59.056 103.198 59.105 98.9041C56.8988 97.2984 55.7366 95.0036 54.5795 92.6817C54.5368 92.5959 54.6719 92.521 54.718 92.6068C55.7972 94.6253 57.5359 96.2472 59.1102 97.9369C59.1212 96.6202 59.1501 95.307 59.1835 93.9984C58.2025 93.2407 57.3974 92.2712 56.6634 91.3097C55.6483 89.9815 54.8744 88.5428 54.2171 87.0309V87.0303ZM51.6237 112.986C51.0224 112.545 51.6779 111.646 52.3451 111.829C54.8727 112.524 56.4903 115.083 56.4903 117.495C56.4904 117.695 56.4792 117.895 56.4568 118.094C56.3662 118.88 56.1163 119.596 55.7995 120.327C55.5052 121.005 55.212 121.629 55.3823 122.369C55.6131 123.362 56.3183 124.143 57.0841 124.859C56.9312 122.41 56.8007 119.95 56.7955 117.493C56.7863 115.1 56.8925 112.708 57.2064 110.331C56.8901 110.08 56.6112 109.786 56.3783 109.456C55.1959 109.016 54.2229 107.99 53.2407 107.25C52.6838 106.822 52.0998 106.421 51.4996 106.041C50.2929 112.671 50.3882 119.513 51.9163 126.094C52.4466 128.47 52.9591 131.304 55.4694 132.556C56.2577 132.97 57.0345 133.113 57.862 133.18C57.6519 131.479 57.4721 129.775 57.3224 128.066C56.9463 128.092 56.5741 127.977 56.2785 127.744C54.9841 126.758 53.7745 125.427 53.1155 123.985C51.45 120.21 54.8646 119.1 53.8934 115.89C53.5264 114.685 52.6619 113.749 51.6237 112.987V112.986ZM148.866 47.7456C159.6 60.2838 155.911 72.4409 151.379 86.3642C150.49 92.2825 149.032 98.1017 147.025 103.741C147.3 103.573 147.577 103.41 147.858 103.253C148.487 102.901 149.458 103.211 149.614 103.921C151.292 111.485 151.307 119.322 149.657 126.893C149.157 129.186 148.613 131.613 146.849 133.382C145.403 134.83 143.084 135.883 140.897 135.793C139.696 145.687 136.608 153.487 129.751 161.199C126.661 164.623 123.625 168.26 119.518 170.677C118.065 173.161 115.968 175.165 113.351 176.569C109.989 178.346 106.248 179.464 102.502 180.284C100.576 180.846 98.5297 180.846 96.6041 180.284C92.8571 179.464 89.1176 178.346 85.7549 176.569C83.1378 175.165 81.0413 173.159 79.5876 170.677C75.4805 168.259 72.445 164.623 69.3553 161.199C62.4977 153.484 59.4126 145.695 58.2088 135.793C56.0217 135.883 53.7024 134.83 52.2573 133.382C50.4949 131.616 49.949 129.186 49.4492 126.893C47.8 119.322 47.8146 111.485 49.4919 103.921C49.6478 103.211 50.619 102.901 51.248 103.253C52.0967 103.725 52.913 104.252 53.6914 104.832C46.8241 93.4854 49.5017 79.9645 52.184 67.8563C53.7266 60.3719 56.2606 52.1966 63.2566 47.5936C63.9081 47.1618 64.5095 46.8032 65.2354 46.6777C66.6458 44.4064 69.2393 42.4547 72.0728 42.1006C77.0571 28.8376 94.9733 22.6555 108.535 27.8128C119.903 26.1282 132.154 29.3408 140.77 36.5109C141.968 37.5512 143.057 38.7263 143.914 40.032C144.648 41.1501 145.928 43.0114 144.912 44.2118C146.366 45.2288 147.694 46.4151 148.866 47.7456Z" fill="black"/>
</g>
<defs>
<linearGradient id="paint0_linear_150_1367" x1="53" y1="37" x2="150.5" y2="253" gradientUnits="userSpaceOnUse">
<stop stop-color="#3DDD4D" stop-opacity="0.12"/>
<stop offset="1" stop-color="#3DDD4D" stop-opacity="0.44"/>
</linearGradient>
</defs>
</svg>
