<svg width="200" height="237" viewBox="0 0 200 237" fill="none" xmlns="http://www.w3.org/2000/svg">
<mask id="mask0_150_1459" style="mask-type:alpha" maskUnits="userSpaceOnUse" x="0" y="0" width="200" height="237">
<path fill-rule="evenodd" clip-rule="evenodd" d="M200 0H0V137V141H0.078538C2.17815 194.374 46.1112 237 100 237C153.889 237 197.822 194.374 199.921 141H200V137V0Z" fill="#C4C4C4"/>
</mask>
<g mask="url(#mask0_150_1459)">
<circle cx="100" cy="137" r="100" fill="url(#paint0_linear_150_1459)"/>
<path d="M61.5103 112.042C60.781 118.636 60.8297 125.122 61.971 131.751C58.1446 127.82 60.0578 119.341 58.1324 114.147L61.5103 112.042Z" fill="#FDE8DC"/>
<path d="M148.684 126.82C147.765 129.225 146.7 131.519 143.984 132.692C144.228 129.94 144.463 127.302 144.7 124.642L148.684 126.82Z" fill="#FDE8DC"/>
<path d="M127.873 188.804C129.874 192.773 130.003 197.456 129.018 201.774C120.657 228.307 72.353 207.389 66.2159 188.167C71.6723 182.809 75.63 175.525 76.7094 167.942C78.8559 170.009 80.182 173.012 82.3007 175.2C87.0581 180.562 94.5019 182.362 101.438 181.886C111.004 181.839 118.09 174.868 124.514 168.618C123.584 175.265 122.388 183.783 127.873 188.804Z" fill="#FDE8DC"/>
<path d="M107.628 137.63C106.525 137.289 105.395 137.038 104.25 136.882C104.948 136.505 105.75 136.369 106.533 136.495C106.545 136.442 106.559 136.388 106.571 136.333C101.231 133.562 100.383 142.004 93.8299 136.371C93.0071 135.978 91.8754 135.202 91.0963 136.1C91.4079 136.427 91.7847 136.686 92.2024 136.859C88.6774 136.844 85.1306 137.739 82.1599 139.669C78.9221 141.794 76.5649 145.022 75.5257 148.753C75.4163 149.142 75.6776 149.414 75.9839 149.482C76.0233 149.545 76.0749 149.598 76.1357 149.64C76.1965 149.682 76.2653 149.711 76.3377 149.725C80.0633 150.603 83.8876 150.991 87.7135 150.879C89.442 150.819 91.185 150.529 92.9159 150.598C94.9275 150.678 96.4773 151.905 98.3966 152.087C99.9852 152.239 101.48 151.442 103.074 151.47C105 151.502 106.867 152.199 108.772 152.424C112.468 152.86 116.165 152.103 119.771 151.36C119.895 151.342 120.009 151.279 120.089 151.182C120.169 151.086 120.21 150.963 120.205 150.838C120.29 150.731 120.333 150.598 120.327 150.462C120.26 146.458 116.756 142.893 113.717 140.682C111.954 139.402 110.003 138.406 107.932 137.73C112.819 137.536 113.645 130.651 109.279 128.846C109.036 129.481 109.578 129.904 109.887 130.399C111.698 132.898 110.548 136.63 107.616 137.605L107.628 137.63ZM143.136 122.994C143.365 123.237 143.562 123.445 143.439 123.845C140.97 132.542 141.38 142.192 136.496 150.078C129.163 160.823 118.986 173.12 107.029 178.644C100.403 180.66 91.9824 180.089 86.3655 175.737C76.4142 166.751 71.5571 153.649 66.9832 141.369C64.179 133.997 62.9453 126.247 63.1276 118.377C63.412 115.156 62.5198 111.628 63.9456 108.633C65.0951 106.664 65.5497 104.366 65.2365 102.108C65.1721 101.607 65.4164 101.437 65.7482 101.239C81.2483 90.4056 67.7198 82.3768 72.9731 74.9327C74.2494 73.1482 74.7964 72.3265 77.0584 72.1624C82.1016 71.4561 87.1994 71.3115 92.268 70.8885C94.9579 70.9663 97.6247 69.4869 100.216 69.7738C107.904 72.6656 116.433 69.3593 122.833 64.886C122.749 67.8508 123.927 70.5007 125.23 73.0704C124.89 80.6993 128.082 87.9417 132.523 94.0134C133.43 95.7942 136.093 96.9843 136.075 99.0507C135.048 103.439 135.99 107.997 137.333 112.215C138.642 116.091 140.299 119.976 143.136 122.994ZM134.446 139.637C137.363 137.942 140.911 133.361 140.815 129.913C137.936 133.961 134.625 137.596 131.176 141.043C132.135 141.378 133.441 139.918 134.446 139.637ZM133.668 107.148C134.154 105.525 132.762 104.024 131.79 102.871C127.071 97.8206 120.335 95.6921 113.511 95.4855C108.974 95.3323 101.084 98.2205 103.831 104.005C105.608 108.017 115.364 100.738 124.379 104.755C125.969 104.928 133.404 109.107 133.668 107.148ZM127.493 113.24L127.648 113.108C124.626 109.185 118.986 106.565 113.954 107.261C107.862 107.984 107.406 114.364 111.068 111.05C112.304 115.982 118.954 113.691 117.908 109.421C121.413 109.703 124.355 111.837 127.493 113.24ZM124.343 108.135C124.726 108.823 125.734 108.442 124.875 107.623C120.56 102.727 110.431 102.857 107.412 108.92C111.802 104.047 119.567 103.238 124.343 108.135ZM85.9681 153.216C89.3994 160.86 106.632 159.18 109.184 154.289C103.487 155.712 95.6921 157.518 90.1531 155.191C88.6908 154.624 87.5592 153.389 85.9681 153.216ZM102.476 119.396C102.857 117.851 102.512 116.048 102.623 114.412C102.6 113.469 101.65 113.867 101.682 114.614C101.821 116.211 101.093 118.185 102.476 119.396ZM97.5397 175.869H97.5688C97.3622 171.505 94.9506 176.638 97.2759 177.479C97.6709 177.01 97.5263 176.428 97.5397 175.869ZM94.7805 118.923C95.776 117.232 95.6313 115.455 95.1755 113.67C94.8376 115.417 94.8279 117.171 94.7805 118.923ZM92.8259 131.046C92.0006 133.064 93.2903 135.707 95.7103 135.191C93.909 133.876 93.2271 133.392 92.8259 131.046ZM89.4967 104.366C93.2878 104.788 94.4644 99.6524 91.4938 97.7732C84.5946 93.5564 74.1887 95.1281 68.0941 100.189C66.5213 101.161 64.5534 106.467 67.9726 105.408C74.9836 100.667 81.8876 102.798 89.487 104.454C89.4845 104.426 89.4906 104.399 89.4967 104.366ZM88.5243 136.641C88.4586 136.033 88.4842 136.008 87.8983 135.244C85.9535 132.637 87.8327 129.388 89.7325 127.333C87.7658 127.342 86.1747 130.764 85.7651 132.481C85.3324 134.209 86.3339 137.126 88.5316 136.646L88.5243 136.641ZM87.3428 111.865C88.867 112.569 89.5489 110.465 88.3152 109.663C83.9029 105.866 76.0666 105.995 72.0153 110.244C69.8639 113.937 75.2802 109.237 76.5941 109.574C75.5111 114.882 83.3462 114.841 83.2368 109.726C84.8231 110.002 86.0702 110.972 87.3465 111.87L87.3428 111.865ZM87.8874 107.732C88.252 106.499 85.6934 105.544 84.7441 105.116C80.6588 103.821 73.9723 104.577 72.0798 108.852C76.5078 105.66 82.2523 103.982 87.0304 107.738C87.361 108.022 87.6965 107.996 87.891 107.734L87.8874 107.732Z" fill="#FDE8DC"/>
<path d="M132.423 106.698L132.25 106.862C124.776 102.047 115.683 100.272 107.222 103.433C103.98 104.128 105.339 99.2245 107.454 98.6544C115.502 95.1755 127.758 99.3534 132.423 106.698Z" fill="#894B20"/>
<path d="M90.3249 99.4668C92.1481 100.874 90.8111 103.114 88.6754 102.506C81.5769 101.009 73.9241 99.6346 67.6594 104.3C69.8826 97.838 81.5453 96.6261 87.3943 98.1443C88.4442 98.4011 89.4377 98.8494 90.3249 99.4668Z" fill="#894B20"/>
<path d="M57.2548 125.531C57.696 127.452 58.1056 129.225 58.531 131.08C55.9505 131.029 53.4162 130.759 51.1165 129.303C53.5924 128.785 55.756 127.809 57.2548 125.531Z" fill="#BA6A3E"/>
<path d="M67.3108 148.691C66.4417 148.778 62.4585 147.523 61.5153 146.829C62.4135 145.116 65.0706 140.01 61.5153 140.038C60.3861 140.333 59.1013 141.118 58.0085 140.91C59.6385 138.874 60.9367 136.733 61.6879 134.218C62.1498 134.242 62.5387 134.321 62.6724 134.901C63.753 139.649 65.7282 144.129 67.3108 148.691Z" fill="#BA6A3E"/>
<path d="M63.4124 73.061L63.7248 72.8264C68.2769 69.8179 73.0368 67.2433 78.4032 66.0642C72.9128 65.8964 67.9499 69.6428 63.7248 72.8264C63.6142 72.8981 63.5048 72.9711 63.3954 73.044L62.8059 73.5071L62.7463 73.5594L62.3562 73.7405L62.4254 73.8426L62.7463 73.5594L62.8229 73.5241L63.41 73.061H63.4124ZM125.827 37.9311C130.203 43.5944 128.473 51.7412 125.571 57.6999C121.381 65.2449 111.489 69.2769 103.127 68.2194C107.643 65.7627 111.222 60.4057 110.986 55.3733C103.26 77.9196 75.6975 61.5374 63.3152 77.2535C66.3539 75.6891 69.3562 73.5071 72.8435 73.2518C65.5055 80.5367 75.5176 87.5749 68.9734 95.3946C65.8264 99.5045 60.9194 101.802 55.8727 102.43C54.8662 102.772 52.4924 102.415 51.9831 103.275C51.994 103.577 52.2784 103.571 52.4997 103.59C56.3893 104.037 60.4563 103.923 64.0567 102.219C63.9667 108.405 58.7607 112.358 53.8124 115.084C53.9814 115.978 55.9711 114.783 56.6348 114.712C56.7564 116.804 56.8694 118.813 56.9885 120.884C52.4535 121.602 44.9441 118.954 42.2214 116.661C44.8615 117.244 57.0286 111.906 55.784 109.039C54.267 108.693 52.5313 110.604 51.086 111.159C46.0235 112.132 38.7912 108.728 35.7355 104.603C44.5612 106.287 49.4974 96.9445 49.8256 89.3861C50.7676 76.7442 61.1638 67.7867 72.7609 64.4852C70.7176 63.4969 68.1687 65.0261 66.0902 65.5391C57.9804 68.5865 51.0629 74.9998 48.6125 83.4517H48.418C47.2657 74.4565 53.9072 66.7473 59.9786 60.9236C69.7258 51.6998 83.5338 47.4733 96.7998 49.2651L96.8728 49.1046C80.5158 43.0924 61.8943 53.2861 52.1071 66.5261L51.9454 66.441C55.649 47.5657 76.6371 33.3569 95.5163 37.6746C91.5707 34.0619 85.317 35.3225 80.3881 35.5425C93.0865 29.1741 102.898 27.2827 112.538 39.504C111.607 34.0607 106.524 30.4408 101.518 28.7803C105.699 27.6863 111.242 28.0048 113.771 31.9918C117.969 39.0737 118.86 47.9571 116.566 55.817C116.343 56.4892 115.903 57.8068 117.124 57.0921C122.238 49.5969 120.056 38.9096 116.207 31.2503C124.923 33.6632 126.258 45.7776 124.958 53.4563C128.407 49.2894 127.316 42.7897 125.687 37.9882L125.827 37.9311ZM113.123 64.9823C121.024 62.0322 123.541 53.3129 122.239 45.6013L122.169 45.6086C122.78 53.5633 120.464 60.971 113.123 64.9823ZM111.245 47.1135L111.398 47.088C109.391 40.0474 102.589 35.297 95.667 33.9136C102.133 36.7338 108.205 40.3951 111.245 47.1135ZM104.547 48.4713L104.633 48.3497C98.2949 41.5839 87.6435 41.3359 79.5373 44.7796L79.5737 44.8744C87.8294 42.2123 98.087 41.9011 104.547 48.4761V48.4713ZM102.267 59.2351L102.205 59.0747C96.519 61.1472 90.5582 61.6724 84.6071 62.4151C90.5291 62.065 96.9639 62.2899 102.267 59.2351ZM82.3329 58.4949C88.0713 56.9961 93.7769 55.4255 99.7875 55.4438C93.9446 54.2416 87.8027 56.5706 82.3244 58.4949H82.3329ZM86.5264 39.8201C80.9278 39.6061 75.3961 42.2135 70.6653 44.9546C75.9613 42.8323 80.8841 40.5336 86.5264 39.8201ZM64.0165 61.7392C69.6419 58.0743 75.7012 55.3319 82.0449 53.1537C75.2125 53.7274 69.4596 57.9126 63.9242 61.5982L64.0165 61.7392ZM57.5428 98.0519C63.4987 95.4992 68.1176 89.5915 67.2668 82.8718C67.2413 82.5813 67.2206 82.2738 66.7927 82.1158C67.0261 89.3447 62.8788 93.8107 57.4334 97.8768L57.5428 98.0519ZM54.5223 94.6483C58.2745 92.047 63.0551 88.7321 63.0235 83.679C61.041 88.3443 57.2778 91.5802 53.5255 94.8695C54.0117 95.0761 54.2755 94.8172 54.5223 94.6531V94.6483ZM62.8849 79.495C62.874 79.4756 62.863 79.4561 62.8509 79.4367C50.6959 85.3322 53.9242 98.2549 44.0106 105.263C54.741 100.799 49.9933 87.1057 62.8849 79.495ZM59.7963 105.907L59.7222 105.742C55.897 106.969 51.9102 107.373 47.9136 107.55V107.703C51.8968 108.156 56.2702 108.05 59.7963 105.907Z" fill="#BA6A3E"/>
<path d="M160.984 99.4778C162.531 105.337 167.305 105.903 172.42 104.352C170.034 110.147 165.849 116.09 159.763 118.313C158.147 118.921 155.994 118.596 154.6 119.492C155.236 121.286 159.162 120.987 160.768 120.651C158.474 141.68 146.114 124.882 152.073 142.61C148.608 141.326 144.735 141.065 141.964 143.915C142.533 140.864 143.07 137.975 143.604 135.11C147.592 134.288 149.487 130.977 150.532 127.357C151.417 127.51 155.816 128.606 154.452 126.608C153.009 125.807 151.379 125.393 149.85 124.785C140.436 120.719 138.383 108.817 137.817 99.6359C143.968 104.203 151.552 109.422 159.461 108.536C159.391 108.134 159.096 108.193 158.865 108.144C151.66 106.792 145.421 102.739 139.737 98.2805C133.374 92.9004 128.676 84.9178 127.835 76.5996C134.512 82.9571 144.194 87.3878 153.509 85.7164C154.784 85.4283 154.976 83.7861 153.37 84.1119C143.686 84.1277 133.336 80.4506 127.701 72.2163C125.878 69.7548 125.635 66.5311 123.842 64.072C130.609 57.322 133.357 45.6537 128.54 37.1423C144.706 38.7675 150.905 55.8742 143.723 69.3111L143.858 69.3938C145.717 66.6101 147.955 63.9043 148.81 60.6076C160.878 63.993 165.65 73.6142 162.39 85.5268C161.677 90.1204 159.884 94.8101 160.984 99.4778ZM157.965 115.02C159.979 114.777 162.672 114.382 163.743 112.489C157.631 115.796 150.209 114.125 144.837 110.155L144.755 110.265C148.418 113.451 153.014 115.616 157.965 115.02ZM146.86 118.732C149.301 121.519 152.91 124.709 156.827 124.133C153.142 122.918 149.541 121.668 146.86 118.732ZM155.805 90.8206C155.805 90.789 155.805 90.7561 155.805 90.7245C148.169 90.2517 140.522 88.9133 133.885 84.9068L133.812 85.0418C140.245 89.3874 148.225 90.3878 155.805 90.8206ZM152.482 98.12C153.666 98.1602 155.163 99.1034 156.105 98.0447C149.038 96.9507 142.978 93.3891 137.399 89.1297L137.277 89.2282C141.457 93.4498 146.653 96.7623 152.482 98.12ZM137.542 73.0891C140.931 74.6791 151.239 73.2666 155.262 70.658C149.58 72.773 143.764 73.8889 137.542 73.0891ZM136.261 75.4181C140.43 78.733 146.228 79.3894 151.333 78.7476C146.132 78.6345 141.09 77.4104 136.34 75.3063L136.261 75.4181ZM142.552 55.2579L142.447 55.2409C141.388 61.0854 139.112 66.6672 133.553 69.5725C139.628 67.6567 142.094 61.1121 142.552 55.2579ZM134.659 64.1243C138.083 61.9047 140.917 56.1222 140.216 52.7052C139.453 57.153 137.468 60.728 134.659 64.1206V64.1243ZM129.506 64.134C134.987 59.3799 135.341 51.7717 134.733 45.0326C134.961 51.7899 133.994 58.7162 129.365 63.9736L129.506 64.134Z" fill="#BA6A3E"/>
<path d="M116.638 145.053C117.864 146.54 119.013 148.293 119.116 150.264C115 151.103 111.016 151.723 106.84 150.872C105.365 150.571 103.88 150.184 102.361 150.276C100.537 150.386 99.1859 151.109 97.3079 150.506C96.0486 150.104 94.9766 149.547 93.6322 149.432C91.9305 149.286 90.2288 149.553 88.5271 149.639C84.6015 149.835 80.6677 149.486 76.8376 148.604C77.8778 145.278 80.0652 142.429 83.01 140.565C86.1508 138.602 89.8885 137.864 93.5569 138.121C93.6501 138.133 93.7451 138.12 93.831 138.081C93.917 138.043 93.9904 137.981 94.0431 137.903C94.2135 138.078 94.354 138.28 94.4588 138.501C96.0158 140.299 99.2065 141.01 101.641 138.976C102.02 138.636 102.394 138.279 102.776 137.944C106.333 138.191 109.757 139.392 112.688 141.422C114.166 142.444 115.495 143.666 116.638 145.053ZM111.197 146.998C111.35 146.952 111.479 146.85 111.557 146.711C111.635 146.573 111.657 146.409 111.618 146.255C111.271 144.803 110.524 143.478 109.46 142.43C109.343 142.342 109.199 142.299 109.053 142.31C108.907 142.32 108.77 142.383 108.666 142.486C108.563 142.59 108.5 142.727 108.49 142.873C108.479 143.019 108.522 143.164 108.61 143.281C108.731 143.402 108.843 143.515 108.952 143.638C109.011 143.704 109.074 143.771 109.124 143.837L109.197 143.927C109.206 143.938 109.214 143.949 109.222 143.96C109.421 144.224 109.602 144.5 109.763 144.788C109.845 144.932 109.921 145.077 109.992 145.227C110.026 145.297 110.057 145.368 110.089 145.438L110.096 145.455V145.464V145.472V145.482C110.111 145.517 110.124 145.554 110.139 145.589C110.261 145.906 110.361 146.231 110.439 146.562C110.459 146.64 110.495 146.714 110.545 146.779C110.594 146.844 110.656 146.898 110.727 146.938C110.798 146.978 110.876 147.004 110.957 147.013C111.037 147.023 111.119 147.016 111.197 146.993V146.998ZM107.135 146.851C107.203 146.112 107.106 145.367 106.853 144.67C106.6 143.972 106.196 143.339 105.671 142.815C105.554 142.727 105.409 142.685 105.263 142.695C105.117 142.706 104.98 142.768 104.876 142.872C104.773 142.975 104.71 143.112 104.7 143.258C104.689 143.404 104.732 143.549 104.82 143.666C104.933 143.779 105.041 143.897 105.143 144.021C105.143 144.028 105.153 144.032 105.155 144.036C105.175 144.062 105.195 144.089 105.214 144.117C105.257 144.178 105.3 144.239 105.335 144.305C105.421 144.44 105.499 144.58 105.57 144.724C105.598 144.781 105.626 144.845 105.65 144.897C105.65 144.905 105.658 144.921 105.666 144.938L105.714 145.07C105.762 145.213 105.803 145.357 105.836 145.504C105.854 145.577 105.87 145.651 105.884 145.725C105.893 145.771 105.9 145.818 105.908 145.865C105.908 145.867 105.908 145.87 105.908 145.872V145.881C105.939 146.197 105.939 146.515 105.908 146.83C105.876 147.146 106.209 147.448 106.515 147.438C106.886 147.434 107.1 147.184 107.135 146.846V146.851ZM100.179 142.505C100.211 142.426 100.225 142.341 100.222 142.255C100.219 142.17 100.197 142.086 100.159 142.009C100.121 141.932 100.067 141.865 100.001 141.81C99.9355 141.756 99.8587 141.716 99.7762 141.693C99.6938 141.67 99.6074 141.665 99.5228 141.678C99.4383 141.691 99.3574 141.722 99.2855 141.768C99.2136 141.815 99.1523 141.876 99.1056 141.947C99.0589 142.019 99.0278 142.1 99.0145 142.184C98.5609 143.622 98.3876 145.133 98.504 146.636C98.5068 146.796 98.5717 146.949 98.6851 147.062C98.7984 147.176 98.9514 147.241 99.1117 147.244C99.418 147.244 99.7413 146.966 99.7195 146.636C99.6032 145.241 99.7592 143.836 100.179 142.5V142.505ZM93.8838 142.488C93.9362 142.42 93.9735 142.341 93.993 142.257C94.0126 142.173 94.0141 142.086 93.9975 142.001C93.9808 141.917 93.9463 141.837 93.8963 141.766C93.8463 141.696 93.7819 141.637 93.7075 141.594C93.633 141.55 93.5501 141.523 93.4644 141.514C93.3787 141.505 93.292 141.515 93.2101 141.542C93.1283 141.569 93.0532 141.613 92.9897 141.672C92.9263 141.73 92.876 141.801 92.8422 141.88C92.04 143.329 91.7106 144.993 91.9001 146.638C91.939 146.961 92.1432 147.246 92.5079 147.246C92.8045 147.246 93.1509 146.969 93.1156 146.638C92.9244 145.207 93.1921 143.752 93.8802 142.483L93.8838 142.488ZM91.5452 140.086C91.8503 139.965 92.0594 139.68 91.967 139.344C91.888 139.053 91.5306 138.805 91.2243 138.922C89.7551 139.486 88.4391 140.387 87.3821 141.554C86.3252 142.72 85.557 144.118 85.1395 145.635C84.9378 146.388 86.1022 146.707 86.3028 145.956C87.0077 143.318 88.9914 141.061 91.5452 140.081V140.086Z" fill="#894B20"/>
<path d="M129.607 185.599C137.573 188.003 136.466 202.594 133.496 208.639C130.082 217.036 121.119 220.754 112.504 220.745C94.9685 220.703 76.6655 213.18 65.6798 199.246C63.5174 196.375 59.6618 187.523 64.6077 185.887C63.1394 189.733 66.0845 193.289 68.2445 196.186C77.791 207.997 92.2081 214.606 107.089 216.429C126.204 218.987 137.179 202.882 129.607 185.599Z" fill="#FFD14C"/>
<path d="M176.313 221.445C177.876 231.048 178.333 240.884 177.397 250.565C121.132 250.329 64.9197 250.468 8.74526 250.432C4.28315 199.041 29.7102 212.956 59.7696 189.823C62.3999 211.26 94.1889 223.947 113.419 223.084C131.439 223.306 142.549 205.994 136.612 189.448C151.928 196.577 173.689 201.777 176.313 221.445Z" fill="#F7A718"/>
<path d="M176.049 212.896C180.21 223.885 180.481 236.183 179.468 247.783C179.103 249.599 180.042 252.85 177.288 252.791C120.755 253.156 64.1948 252.968 7.65942 252.791C4.91725 253.71 6.20082 237.915 5.95772 235.91C6.83531 206.857 24.1635 205.966 46.0024 195.91C51.0567 193.68 55.797 190.796 60.1022 187.334C61.3894 184.726 63.1811 182.848 66.3013 183.777C66.9516 183.945 66.9589 183.95 67.3442 183.404C70.7585 178.488 73.6855 173.127 74.8426 167.206C75.403 165.895 75.2887 164.765 74.3807 163.648C71.974 159.838 70.7415 155.232 68.1744 151.621C66.1299 149.433 59.0581 150.303 59.8506 146.323C60.5264 144.851 61.3566 143.353 61.6058 141.742L61.449 141.606C59.9515 142.578 55.0068 143.85 55.9294 140.645C57.76 138.641 59.4106 136.583 60.3526 134C60.6468 133.466 60.1375 133.246 59.8664 132.888C59.4762 132.158 58.9268 132.094 58.1817 132.339C54.6762 133.374 50.9459 131.834 48.1125 129.777C44.8744 126.726 52.2331 128.056 53.5239 126.617C55.1782 125.682 56.8811 124.103 57.0063 122.151C50.3138 124.181 41.4929 119.888 37.3748 114.699C40.5083 114.289 44.3919 114.898 47.241 113.008C41.2753 112.123 35.1492 108.794 32.9698 102.895C32.5383 101.345 35.0982 102.312 35.9259 102.219C41.2644 103.405 45.7241 98.5722 46.6807 93.6698C46.9639 91.5219 47.743 89.2342 47.5218 87.0887C45.4275 82.4088 46.3063 76.8779 48.527 72.4119C50.4852 69.9808 49.2247 67.2409 50.1072 64.4573C52.7083 52.0354 62.8796 42.323 74.2373 37.4279C81.1912 32.754 88.799 28.1604 97.4996 28.3196C99.6364 27.6754 101.443 26.0794 103.861 26.0915C107.637 25.7524 111.901 26.2666 114.619 29.1572C114.931 29.4854 115.236 29.6264 115.675 29.5133C118.423 29.2447 121.153 30.9611 122.949 32.9619C123.04 33.0737 123.166 33.2111 123.292 33.2318C124.76 33.3813 125.653 34.7816 127.041 34.9883C140.709 35.2107 149.495 45.1699 149.264 58.6092C159.231 60.3608 167.246 69.5639 165.795 79.912C165.417 85.7589 163.121 91.325 163.176 97.2083C162.99 101.261 166.72 103.583 170.455 103.131C171.469 102.977 172.643 103.297 173.45 102.496C175.288 101.628 174.092 105.64 173.794 106.441C171.606 112.229 167.805 116.749 162.49 119.939C163.494 126.539 159.805 134.852 152.424 135.247C151.677 137.645 156.667 145.967 152.7 145.276C150.955 144.738 149.297 143.906 147.425 143.867C144.265 143.763 141.834 146.766 139.876 148.905C137.951 152.77 135.444 156.245 132.677 159.534C130.793 162.087 128.083 164.153 126.562 166.898C125.778 172.532 125.378 178.49 127.17 183.95C130.197 181.734 133.26 184.455 135.484 186.421C149.852 193.21 168.696 197.312 176.049 212.896ZM177.404 250.566C178.34 240.885 177.883 231.045 176.32 221.445C173.696 201.778 151.935 196.577 136.619 189.448C142.556 205.994 131.446 223.307 113.426 223.084C94.1958 223.947 62.4068 211.26 59.7765 189.824C29.7171 212.956 4.29005 199.041 8.75216 250.432C64.9217 250.468 121.134 250.33 177.399 250.566H177.404ZM172.421 104.352C167.301 105.903 162.533 105.337 160.985 99.4778C159.891 94.81 161.678 90.1179 162.4 85.5231C165.66 73.6044 160.888 63.9881 148.819 60.6039C147.968 63.9005 145.727 66.6064 143.867 69.39L143.732 69.3074C150.91 55.8705 144.722 38.7638 128.55 37.1386C133.367 45.6476 130.616 57.317 123.852 64.0683C125.643 66.5274 125.889 69.7511 127.711 72.2126C133.346 80.4469 143.696 84.1252 153.38 84.1082C154.985 83.7824 154.793 85.4246 153.518 85.7127C144.204 87.3853 134.521 82.9546 127.845 76.5959C128.684 84.9141 133.384 92.8967 139.747 98.2768C145.43 102.736 151.67 106.786 158.875 108.14C159.104 108.19 159.4 108.13 159.471 108.533C151.555 109.419 143.978 104.199 137.826 99.6322C138.387 108.813 140.44 120.715 149.86 124.781C151.389 125.389 153.02 125.807 154.462 126.604C155.825 128.603 151.423 127.506 150.542 127.353C149.494 130.974 147.599 134.282 143.613 135.106C143.08 137.971 142.542 140.861 141.974 143.912C144.745 141.061 148.617 141.323 152.083 142.606C146.127 124.878 158.484 141.675 160.777 120.647C159.172 120.984 155.246 121.283 154.61 119.488C156.009 118.593 158.157 118.916 159.772 118.309C165.847 116.09 170.032 110.147 172.418 104.352H172.421ZM143.984 132.69C146.699 131.517 147.764 129.223 148.683 126.818L144.7 124.64C144.463 127.302 144.228 129.94 143.984 132.69ZM143.441 123.84C143.562 123.443 143.367 123.232 143.137 122.989C140.3 119.971 138.639 116.086 137.335 112.211C135.998 107.993 135.05 103.434 136.077 99.0463C136.095 96.9798 133.432 95.7898 132.525 94.0089C128.082 87.9311 124.89 80.6948 125.232 73.0659C123.929 70.4962 122.752 67.8463 122.835 64.8815C116.436 69.3548 107.907 72.6611 100.219 69.7693C97.6272 69.4824 94.9604 70.9618 92.2705 70.884C87.1957 71.3034 82.1016 71.4565 77.0585 72.1628C74.7964 72.3269 74.2494 73.1486 72.9732 74.933C67.721 82.3772 81.2495 90.406 65.7458 101.239C65.414 101.437 65.1697 101.604 65.2341 102.108C65.5473 104.367 65.0927 106.665 63.9432 108.633C62.5223 111.629 63.4096 115.156 63.1252 118.377C62.9465 126.249 64.1802 133.997 66.9795 141.369C71.5535 153.646 76.4106 166.75 86.3619 175.736C91.9836 180.088 100.405 180.66 107.025 178.643C118.982 173.118 129.16 160.821 136.493 150.077C141.382 142.19 140.971 132.54 143.441 123.843V123.84ZM133.506 208.639C136.472 202.594 137.579 188.004 129.617 185.6C137.189 202.883 126.213 218.988 107.103 216.43C92.2219 214.607 77.8097 207.998 68.2582 196.187C66.0983 193.289 63.1531 189.734 64.6215 185.888C59.6756 187.524 63.5275 196.376 65.6935 199.247C76.6792 213.181 94.9871 220.704 112.518 220.745C121.124 220.755 130.087 217.037 133.506 208.639ZM129.024 201.774C130.008 197.456 129.874 192.779 127.879 188.804C122.393 183.784 123.589 175.265 124.515 168.625C118.09 174.876 111.005 181.846 101.439 181.893C94.5033 182.367 87.0596 180.567 82.3021 175.208C80.1872 173.02 78.8611 170.021 76.7108 167.95C75.6315 175.533 71.6738 182.816 66.2174 188.174C72.3533 207.389 120.657 228.307 129.019 201.774H129.024ZM125.572 57.6975C128.474 51.7412 130.204 43.5969 125.828 37.9287L125.683 37.9944C127.311 42.7959 128.401 49.2991 124.954 53.4625C126.253 45.7837 124.919 33.6694 116.202 31.2565C120.052 38.9145 122.234 49.603 117.12 57.0982C115.905 57.813 116.339 56.4904 116.562 55.8231C118.857 47.9572 117.966 39.0738 113.767 31.998C111.243 28.0109 105.694 27.6961 101.514 28.7864C106.52 30.4469 111.603 34.0669 112.534 39.5102C102.894 27.2888 93.0861 29.1778 80.3841 35.5486C85.3178 35.3225 91.5667 34.0681 95.5134 37.6795C76.6343 33.3557 55.6462 47.5645 51.9462 66.4411L52.1115 66.5274C61.8987 53.2874 80.5202 43.0937 96.8711 49.101L96.7982 49.2615C83.5322 47.4697 69.7241 51.6926 59.977 60.92C53.9056 66.7438 47.2641 74.4468 48.4164 83.4481H48.6109C51.0613 74.9962 57.9787 68.5829 66.0886 65.5355C68.1671 65.0225 70.716 63.4933 72.7592 64.4816C61.1585 67.7867 50.7623 76.7491 49.8203 89.3862C49.4921 96.9494 44.556 106.283 35.7302 104.603C38.786 108.736 46.0182 112.133 51.0808 111.159C52.526 110.604 54.2617 108.693 55.7787 109.039C57.0234 111.906 44.8562 117.245 42.2161 116.661C44.9449 118.954 52.4543 121.602 56.9905 120.884C56.869 118.817 56.7572 116.804 56.6368 114.713C55.9732 114.783 53.9834 115.978 53.8144 115.084C58.7627 112.358 63.9687 108.405 64.0587 102.219C60.4584 103.921 56.401 104.042 52.5017 103.59C52.2805 103.571 51.9961 103.577 51.9851 103.275C52.4932 102.415 54.8671 102.772 55.8747 102.43C60.9215 101.802 65.8284 99.5033 68.9754 95.3971C75.5172 87.5774 65.5076 80.5392 72.8455 73.2543C69.3583 73.5096 66.3548 75.6916 63.3172 77.256C75.6995 61.535 103.262 77.9173 110.988 55.3758C111.224 60.4082 107.645 65.7652 103.129 68.2219C111.49 69.2746 121.382 65.2425 125.572 57.6975ZM61.5146 146.829C62.4579 147.523 66.4411 148.774 67.3102 148.691C65.73 144.129 63.7524 139.649 62.6718 134.901C62.532 134.321 62.1491 134.242 61.6872 134.218C60.9361 136.733 59.6379 138.874 58.0079 140.91C59.1019 141.118 60.3854 140.333 61.5146 140.038C65.0736 140.01 62.4141 145.116 61.5159 146.829H61.5146ZM61.9705 131.756C60.8291 125.127 60.7853 118.641 61.5098 112.047L58.1331 114.147C60.0585 119.341 58.1453 127.82 61.9717 131.751L61.9705 131.756ZM58.5282 131.085C58.1015 129.23 57.6931 127.457 57.2519 125.536C55.7532 127.814 53.5896 128.79 51.1112 129.304C53.4145 130.759 55.9489 131.029 58.5294 131.08L58.5282 131.085Z" fill="black"/>
<path d="M163.742 112.489C162.671 114.381 159.974 114.776 157.964 115.019C153.013 115.615 148.417 113.45 144.754 110.264L144.836 110.155C150.207 114.125 157.629 115.793 163.742 112.489Z" fill="black"/>
<path d="M156.83 124.133C152.908 124.709 149.294 121.518 146.863 118.732C149.54 121.668 153.14 122.918 156.83 124.133Z" fill="black"/>
<path d="M155.81 90.7242C155.81 90.7558 155.81 90.7886 155.81 90.8202C148.23 90.3899 140.252 89.3871 133.823 85.0414L133.896 84.9065C140.528 88.913 148.174 90.2513 155.81 90.7242Z" fill="black"/>
<path d="M156.103 98.0454C155.161 99.1041 153.663 98.1669 152.48 98.1207C146.651 96.7629 141.455 93.4505 137.286 89.2288L137.407 89.1304C142.986 93.3885 149.036 96.9514 156.103 98.0454Z" fill="black"/>
<path d="M155.264 70.6626C151.242 73.2663 140.933 74.674 137.544 73.0937C143.763 73.8887 149.579 72.7728 155.264 70.6626Z" fill="black"/>
<path d="M151.328 78.7472C146.223 79.389 140.429 78.7326 136.256 75.4177L136.331 75.3059C141.085 77.4088 146.127 78.6341 151.328 78.7472Z" fill="black"/>
<path d="M142.445 55.2371L142.551 55.2541C142.092 61.1119 139.626 67.6529 133.556 69.5686C139.111 66.6646 141.386 61.0815 142.445 55.2371Z" fill="black"/>
<path d="M140.816 129.907C140.912 133.361 137.359 137.942 134.447 139.631C133.442 139.912 132.138 141.372 131.177 141.03C134.626 137.59 137.937 133.955 140.816 129.907Z" fill="black"/>
<path d="M140.216 52.7051C140.918 56.122 138.083 61.9045 134.659 64.1241C137.468 60.7278 139.453 57.1528 140.216 52.7051Z" fill="black"/>
<path d="M134.731 45.0288C135.339 51.7679 134.986 59.3725 129.504 64.1302L129.362 63.9698C133.993 58.7125 134.966 51.7861 134.731 45.0288Z" fill="black"/>
<path d="M131.793 102.871C132.765 104.024 134.16 105.525 133.671 107.148C133.407 109.105 125.968 104.928 124.382 104.755C115.366 100.738 105.611 108.02 103.834 104.005C101.087 98.2206 108.976 95.3324 113.514 95.4855C120.338 95.6922 127.074 97.8206 131.793 102.871ZM132.252 106.862L132.425 106.698C127.76 99.3535 115.504 95.1756 107.456 98.6545C105.341 99.2246 103.982 104.125 107.224 103.433C115.685 100.272 124.778 102.047 132.252 106.862Z" fill="black"/>
<path d="M73.1872 111.443C75.0007 112.839 80.18 115.956 86.4787 112.073C86.6116 111.99 86.7236 111.878 86.8062 111.745C86.8887 111.612 86.9396 111.462 86.9549 111.306C86.9702 111.15 86.9494 110.993 86.8942 110.847C86.8391 110.7 86.751 110.568 86.6367 110.461C85.2559 109.158 82.3691 107.01 78.9207 107.758C75.6899 108.459 73.9894 109.159 73.1617 109.842C73.0429 109.94 72.9477 110.064 72.8831 110.203C72.8185 110.343 72.7863 110.495 72.7887 110.649C72.7912 110.803 72.8283 110.954 72.8972 111.092C72.9662 111.229 73.0653 111.349 73.1872 111.443Z" fill="white"/>
<path d="M123.256 111.969C121.442 113.365 116.263 116.481 109.964 112.6C109.831 112.517 109.72 112.404 109.637 112.271C109.555 112.138 109.504 111.988 109.489 111.832C109.474 111.677 109.494 111.519 109.55 111.373C109.605 111.226 109.693 111.095 109.807 110.988C111.187 109.683 114.075 107.536 117.523 108.284C120.754 108.985 122.455 109.686 123.281 110.369C123.4 110.467 123.496 110.59 123.56 110.729C123.625 110.869 123.657 111.021 123.655 111.175C123.652 111.329 123.615 111.48 123.546 111.618C123.477 111.755 123.378 111.875 123.256 111.969Z" fill="white"/>
<path d="M127.648 113.109L127.493 113.241C124.355 111.837 121.416 109.703 117.908 109.422C118.954 113.692 112.304 115.986 111.068 111.051C107.406 114.365 107.862 107.985 113.954 107.262C118.986 106.566 124.632 109.186 127.648 113.109ZM115.249 111.454C115.964 110.907 116.024 110.117 115.412 109.283C114.397 109.749 114.321 110.755 115.247 111.454H115.249Z" fill="black"/>
<path d="M124.876 107.621C125.735 108.441 124.726 108.821 124.343 108.133C119.568 103.239 111.803 104.048 107.413 108.918C110.432 102.855 120.561 102.725 124.876 107.621Z" fill="black"/>
<path d="M122.234 45.6035C123.54 53.3139 121.018 62.0343 113.117 64.9845C120.459 60.9731 122.775 53.5582 122.158 45.6108L122.234 45.6035Z" fill="black"/>
<path d="M120.333 150.461C120.339 150.597 120.296 150.731 120.211 150.837C120.214 150.742 120.196 150.647 120.157 150.56C120.119 150.473 120.061 150.396 119.988 150.334C119.916 150.273 119.83 150.228 119.738 150.204C119.646 150.18 119.55 150.177 119.456 150.195C119.343 150.22 119.231 150.243 119.118 150.265C119.015 148.293 117.866 146.54 116.64 145.053C115.495 143.664 114.163 142.441 112.682 141.418C109.751 139.388 106.327 138.186 102.771 137.94C103.22 137.529 103.718 137.174 104.253 136.882C105.397 137.039 106.527 137.289 107.631 137.631C107.645 137.666 107.66 137.7 107.673 137.734C107.763 137.734 107.852 137.734 107.938 137.734C110.008 138.41 111.96 139.406 113.723 140.686C116.761 142.892 120.266 146.457 120.333 150.461Z" fill="black"/>
<path d="M120.21 150.837C120.215 150.962 120.174 151.085 120.093 151.182C120.013 151.278 119.9 151.342 119.776 151.36C116.17 152.102 112.473 152.86 108.777 152.423C106.872 152.2 105.009 151.502 103.079 151.469C101.485 151.441 99.99 152.239 98.4013 152.087C96.482 151.904 94.9322 150.678 92.9206 150.598C91.1897 150.528 89.4467 150.819 87.7182 150.878C83.8923 150.99 80.068 150.602 76.3424 149.725C76.27 149.71 76.2012 149.681 76.1404 149.64C76.0796 149.598 76.028 149.544 75.9886 149.482C76.0619 149.502 76.1385 149.507 76.2138 149.497C76.2892 149.488 76.3619 149.463 76.4276 149.425C76.4933 149.387 76.5508 149.336 76.5967 149.275C76.6426 149.215 76.676 149.146 76.6949 149.072C76.7386 148.913 76.7872 148.753 76.8359 148.597C80.666 149.479 84.5997 149.828 88.5253 149.632C90.227 149.544 91.9287 149.279 93.6304 149.425C94.9748 149.546 96.0469 150.097 97.3061 150.499C99.1841 151.107 100.536 150.378 102.359 150.269C103.878 150.177 105.364 150.564 106.838 150.865C111.017 151.716 115 151.101 119.115 150.257C119.115 150.323 119.117 150.388 119.122 150.454C119.135 151.081 119.906 151.207 120.21 150.837Z" fill="black"/>
<path d="M120.209 150.837C119.905 151.201 119.135 151.08 119.124 150.461C119.124 150.395 119.121 150.33 119.116 150.264C119.229 150.242 119.341 150.219 119.454 150.195C119.548 150.177 119.644 150.18 119.736 150.204C119.828 150.228 119.914 150.272 119.986 150.334C120.059 150.396 120.117 150.473 120.155 150.56C120.194 150.647 120.212 150.742 120.209 150.837Z" fill="black"/>
<path d="M109.216 143.953L109.206 143.942L109.216 143.953ZM109.216 143.953C109.208 143.942 109.2 143.931 109.191 143.92L109.118 143.83C109.062 143.763 109.005 143.697 108.946 143.631C108.837 143.509 108.722 143.388 108.604 143.273C108.516 143.156 108.473 143.012 108.484 142.866C108.494 142.72 108.557 142.582 108.66 142.479C108.764 142.376 108.901 142.313 109.047 142.303C109.193 142.292 109.337 142.335 109.454 142.423C110.518 143.47 111.265 144.796 111.612 146.248C111.651 146.402 111.629 146.566 111.551 146.704C111.473 146.842 111.344 146.945 111.191 146.991C111.037 147.032 110.872 147.011 110.733 146.932C110.594 146.853 110.492 146.723 110.449 146.569C110.371 146.238 110.27 145.914 110.148 145.596C110.134 145.561 110.121 145.525 110.106 145.49V145.481V145.472L110.099 145.455C110.067 145.385 110.035 145.314 110.001 145.244C109.931 145.094 109.854 144.949 109.773 144.805C109.612 144.517 109.431 144.241 109.232 143.977L109.216 143.953Z" fill="black"/>
<path d="M111.398 47.0928L111.245 47.1183C108.206 40.395 102.128 36.7337 95.6667 33.9185C102.589 35.2981 109.391 40.0522 111.398 47.0928Z" fill="black"/>
<path d="M107.614 137.604C110.546 136.632 111.696 132.897 109.885 130.398C109.58 129.903 109.044 129.48 109.277 128.845C113.653 130.65 112.817 137.535 107.93 137.729C107.828 137.695 107.725 137.662 107.623 137.631L107.614 137.604Z" fill="black"/>
<path d="M109.217 143.953L109.207 143.942L109.217 143.953Z" fill="black"/>
<path d="M107.937 137.729C107.85 137.729 107.762 137.729 107.672 137.729C107.658 137.695 107.644 137.661 107.629 137.626C107.737 137.662 107.834 137.695 107.937 137.729Z" fill="black"/>
<path d="M105.658 144.912C105.634 144.853 105.606 144.79 105.578 144.738C105.507 144.594 105.429 144.455 105.343 144.32C105.303 144.255 105.261 144.192 105.222 144.131C105.203 144.103 105.183 144.077 105.163 144.05C105.163 144.05 105.143 144.022 105.138 144.017L105.155 144.039C105.155 144.039 105.147 144.032 105.143 144.024C105.041 143.901 104.933 143.782 104.819 143.669C104.732 143.552 104.689 143.408 104.699 143.262C104.71 143.116 104.772 142.978 104.876 142.875C104.979 142.772 105.116 142.709 105.262 142.699C105.408 142.688 105.553 142.731 105.67 142.819C106.196 143.342 106.599 143.974 106.853 144.67C107.107 145.367 107.204 146.111 107.137 146.849C107.102 147.187 106.894 147.438 106.53 147.457C106.227 147.471 105.894 147.169 105.922 146.849C105.953 146.534 105.953 146.216 105.922 145.9C105.922 145.946 105.928 145.934 105.922 145.894C105.922 145.892 105.922 145.889 105.922 145.887C105.914 145.839 105.907 145.793 105.899 145.747C105.884 145.673 105.868 145.599 105.85 145.526C105.817 145.379 105.776 145.234 105.728 145.092L105.68 144.959C105.671 144.935 105.66 144.919 105.658 144.912Z" fill="black"/>
<path d="M106.574 136.336C106.562 136.391 106.548 136.445 106.536 136.498C105.754 136.372 104.951 136.508 104.253 136.885C103.672 136.804 103.086 136.749 102.497 136.719C101.72 136.679 101.722 137.886 102.497 137.926L102.772 137.942C102.389 138.277 102.016 138.634 101.637 138.974C99.2055 141.008 96.0112 140.297 94.4541 138.499C94.3493 138.278 94.2089 138.076 94.0384 137.901C94.2645 137.563 94.1029 136.949 93.5522 136.911C93.1025 136.88 92.6519 136.863 92.2006 136.862C91.7829 136.689 91.4061 136.43 91.0945 136.103C91.8736 135.205 93.0053 135.982 93.8281 136.374C100.386 142.005 101.234 133.563 106.574 136.336Z" fill="black"/>
<path d="M105.158 144.045L105.141 144.023C105.141 144.023 105.156 144.041 105.158 144.045Z" fill="black"/>
<path d="M109.188 154.289C106.635 159.18 89.4018 160.86 85.9717 153.217C87.5664 153.389 88.6944 154.624 90.1579 155.191C95.7054 157.519 103.491 155.712 109.188 154.289Z" fill="black"/>
<path d="M104.632 48.3557L104.547 48.4772C98.0868 41.9022 87.8292 42.2134 79.5783 44.8755L79.5419 44.7807C87.6432 41.3358 98.2946 41.5837 104.632 48.3557Z" fill="black"/>
<path d="M104.252 136.882C103.717 137.174 103.22 137.529 102.77 137.94L102.496 137.924C101.72 137.884 101.719 136.677 102.496 136.717C103.084 136.748 103.67 136.803 104.252 136.882Z" fill="black"/>
<path d="M102.624 114.412C102.514 116.049 102.859 117.851 102.477 119.396C101.094 118.181 101.822 116.211 101.683 114.614C101.66 113.868 102.601 113.469 102.624 114.412Z" fill="black"/>
<path d="M102.202 59.0745L102.264 59.2349C96.9654 62.2896 90.5305 62.0672 84.6038 62.4148C90.5549 61.6721 96.5157 61.147 102.202 59.0745Z" fill="black"/>
<path d="M99.7581 141.757C99.912 141.801 100.043 141.903 100.121 142.042C100.2 142.181 100.221 142.346 100.18 142.5C99.7577 143.834 99.5987 145.238 99.7119 146.633C99.7387 146.96 99.4154 147.241 99.1042 147.241C98.9439 147.238 98.7909 147.173 98.6776 147.06C98.5642 146.946 98.4993 146.793 98.4964 146.633C98.3801 145.13 98.5534 143.619 99.007 142.182C99.0282 142.104 99.0645 142.032 99.1138 141.969C99.1631 141.905 99.2244 141.853 99.2942 141.813C99.3641 141.774 99.441 141.749 99.5206 141.739C99.6002 141.729 99.681 141.736 99.7581 141.757Z" fill="black"/>
<path d="M99.7785 55.4433C93.7678 55.4251 88.0622 56.9956 82.3239 58.4944C87.8021 56.5702 93.944 54.2411 99.7785 55.4433Z" fill="black"/>
<path d="M97.5714 175.866H97.5422C97.5276 176.425 97.6735 177.008 97.2785 177.474C94.9533 176.636 97.3648 171.502 97.5714 175.866Z" fill="black"/>
<path d="M95.1772 113.671C95.6318 115.455 95.7776 117.232 94.7821 118.923C94.8295 117.171 94.8392 115.417 95.1772 113.671Z" fill="black"/>
<path d="M95.7117 135.191C93.2916 135.708 92.002 133.064 92.8273 131.046C93.2284 133.392 93.9103 133.876 95.7117 135.191Z" fill="black"/>
<path d="M93.557 136.909C94.1027 136.946 94.2644 137.56 94.0432 137.898C93.5412 137.38 92.8508 137.157 92.2102 136.859C92.6575 136.861 93.1064 136.877 93.557 136.909Z" fill="black"/>
<path d="M93.6684 141.657C93.8045 141.739 93.9031 141.872 93.9435 142.026C93.9838 142.18 93.9628 142.344 93.8847 142.483C93.1937 143.749 92.9218 145.202 93.108 146.632C93.1469 146.958 92.8005 147.24 92.5003 147.24C92.1466 147.24 91.9363 146.96 91.8925 146.632C91.703 144.986 92.0324 143.323 92.8345 141.874C92.8749 141.805 92.9284 141.744 92.9922 141.696C93.056 141.648 93.1287 141.612 93.2062 141.592C93.2837 141.572 93.3644 141.567 93.4437 141.578C93.523 141.589 93.5994 141.616 93.6684 141.657Z" fill="black"/>
<path d="M94.0375 137.898C93.9848 137.976 93.9114 138.038 93.8254 138.077C93.7395 138.115 93.6445 138.129 93.5513 138.116C89.8829 137.859 86.1452 138.602 83.0044 140.56C80.0596 142.424 77.8722 145.273 76.832 148.599L76.6594 148.56C76.0736 148.425 75.7478 149.095 75.9848 149.484C75.6785 149.415 75.4172 149.142 75.5266 148.755C76.5649 145.024 78.9207 141.797 82.1572 139.671C85.1303 137.739 88.6795 136.844 92.2045 136.859C92.8451 137.157 93.5355 137.381 94.0375 137.898Z" fill="black"/>
<path d="M91.9673 139.338C92.0597 139.675 91.8458 139.964 91.5455 140.081C88.993 141.061 87.0081 143.318 86.3031 145.951C86.1025 146.702 84.9381 146.382 85.1398 145.63C85.5574 144.113 86.3255 142.714 87.3825 141.548C88.4394 140.382 89.7555 139.481 91.2246 138.916C91.5309 138.8 91.8883 139.048 91.9673 139.338Z" fill="black"/>
<path d="M91.497 97.7782C94.4676 99.6575 93.291 104.793 89.4999 104.371C89.4938 104.399 89.4877 104.426 89.4829 104.454C81.8872 102.798 74.9831 100.671 67.9685 105.408C64.5529 106.467 66.5208 101.167 68.09 100.189C74.1918 95.1283 84.5978 93.5565 91.497 97.7782ZM88.6782 102.506C90.809 103.113 92.1509 100.874 90.3276 99.4666C89.4405 98.8492 88.447 98.4008 87.3971 98.1441C81.5481 96.6258 69.8853 97.8378 67.6621 104.3C73.9269 99.6344 81.5797 101.009 88.6782 102.506Z" fill="black"/>
<path d="M87.9025 135.25C88.4883 136.013 88.4628 136.032 88.5284 136.646C86.3345 137.132 85.3329 134.215 85.7693 132.487C86.1789 130.769 87.77 127.347 89.7366 127.339C87.8368 129.393 85.9564 132.642 87.9025 135.25Z" fill="black"/>
<path d="M88.3151 109.668C89.5537 110.47 88.8718 112.574 87.3427 111.87C86.0664 110.972 84.8193 110.002 83.2319 109.731C83.3413 114.846 75.5062 114.888 76.5892 109.579C75.2752 109.242 69.8589 113.942 72.0104 110.249C76.0665 106.001 83.9028 105.872 88.3151 109.668ZM80.1713 111.088C80.8143 110.729 80.9006 110.53 80.6453 109.979C80.4678 109.645 80.243 108.939 79.7653 109.201C79.1138 109.758 79.7167 110.631 80.1688 111.088H80.1713Z" fill="black"/>
<path d="M84.7505 105.118C85.6998 105.544 88.2572 106.5 87.8938 107.733C87.6993 107.996 87.3638 108.022 87.0332 107.733C82.2587 103.977 76.5142 105.655 72.0825 108.847C73.9787 104.578 80.6652 103.822 84.7505 105.118Z" fill="black"/>
<path d="M70.6642 44.9521C75.3949 42.2109 80.9267 39.6036 86.5253 39.8175C80.8841 40.5335 75.9613 42.8321 70.6642 44.9521Z" fill="black"/>
<path d="M63.726 72.8264C67.951 69.6428 72.9139 65.8977 78.4043 66.0642C73.0379 67.2433 68.278 69.8179 63.726 72.8264Z" fill="black"/>
<path d="M76.6636 148.56L76.8362 148.598C76.7876 148.755 76.739 148.915 76.6952 149.074C76.6763 149.147 76.6429 149.216 76.597 149.277C76.5512 149.338 76.4937 149.388 76.4279 149.427C76.3622 149.465 76.2895 149.489 76.2142 149.499C76.1388 149.509 76.0623 149.504 75.989 149.483C75.752 149.099 76.0777 148.425 76.6636 148.56Z" fill="black"/>
<path d="M82.0462 53.1536C75.7025 55.3319 69.6481 58.0742 64.0179 61.7391L63.9255 61.5981C69.4609 57.9125 75.2139 53.7273 82.0462 53.1536Z" fill="black"/>
<path d="M67.2625 82.8716C68.1134 89.5912 63.4944 95.4952 57.5385 98.0516L57.4327 97.8765C62.8733 93.8105 67.0206 89.3445 66.7921 82.1155C67.2212 82.2735 67.2418 82.581 67.2625 82.8716Z" fill="black"/>
<path d="M63.396 73.044C63.5054 72.9711 63.6148 72.8981 63.7254 72.8264L63.413 73.061L63.396 73.044Z" fill="black"/>
<path d="M63.4119 73.06L62.8248 73.5231L62.8077 73.5061L63.3973 73.043L63.4119 73.06Z" fill="black"/>
<path d="M63.0245 83.6836C63.0561 88.7367 58.2756 92.0516 54.5233 94.6529C54.2802 94.817 54.0177 95.0759 53.5266 94.8741C57.2789 91.5848 61.0421 88.349 63.0245 83.6836Z" fill="black"/>
<path d="M62.8569 79.4363C62.8691 79.4557 62.88 79.4752 62.8909 79.4946C49.9957 87.1053 54.7434 100.799 44.0227 105.262C53.9303 98.2545 50.6958 85.3318 62.8569 79.4363Z" fill="black"/>
<path d="M62.8236 73.5244L62.7467 73.5598L62.8065 73.5073L62.8236 73.5244Z" fill="black"/>
<path d="M62.7461 73.5593L62.4252 73.8426L62.356 73.7404L62.7461 73.5593Z" fill="black"/>
<path d="M59.7252 105.742L59.7994 105.907C56.2744 108.05 51.8986 108.156 47.9142 107.704V107.55C51.9108 107.373 55.8976 106.969 59.7252 105.742Z" fill="black"/>
</g>
<defs>
<linearGradient id="paint0_linear_150_1459" x1="28" y1="23" x2="143" y2="237" gradientUnits="userSpaceOnUse">
<stop stop-color="#3DDDB7" stop-opacity="0.13"/>
<stop offset="1" stop-color="#3DDDB7" stop-opacity="0.54"/>
</linearGradient>
</defs>
</svg>
