<svg width="24" height="24" viewBox="0 0 24 24" fill="none" xmlns="http://www.w3.org/2000/svg">
<path opacity="0.1" fill-rule="evenodd" clip-rule="evenodd" d="M2.58337 2.58279C4.5698 0.596612 7.69461 0 12.0006 0C16.3065 0 19.4311 0.596604 21.4173 2.58285C23.4034 4.56908 24 7.69379 24 12C24 16.3132 23.3775 19.4353 21.3795 21.4196C19.3832 23.4021 16.2629 24 12.0006 24C7.73821 24 4.61772 23.4021 2.62111 21.4196C0.622768 19.4354 0 16.3133 0 12C0 7.69371 0.596908 4.569 2.58337 2.58279Z" fill="#C2E978"/>
<path d="M13.2318 6.535V16H11.5068V7.855H10.3368V6.535H13.2318Z" fill="#C2E978"/>
</svg>
