<svg width="24" height="24" viewBox="0 0 24 24" fill="none" xmlns="http://www.w3.org/2000/svg">
<path opacity="0.1" fill-rule="evenodd" clip-rule="evenodd" d="M2.58337 2.58279C4.5698 0.596612 7.69461 0 12.0006 0C16.3065 0 19.4311 0.596604 21.4173 2.58285C23.4034 4.56908 24 7.69379 24 12C24 16.3132 23.3775 19.4353 21.3795 21.4196C19.3832 23.4021 16.2629 24 12.0006 24C7.73821 24 4.61772 23.4021 2.62111 21.4196C0.622768 19.4354 0 16.3133 0 12C0 7.69371 0.596908 4.569 2.58337 2.58279Z" fill="#C2E978"/>
<path d="M11.3164 8.26V9.67H9.59145V8.02C9.59145 7.03 10.1364 6.535 11.2264 6.535H12.6664C13.7664 6.535 14.3164 7.03 14.3164 8.02V9.085C14.3164 9.825 14.0914 10.545 13.6414 11.245L11.6764 14.68H14.3614V16H9.63645V14.755L12.0814 10.795C12.4314 10.265 12.6064 9.685 12.6064 9.055V8.26C12.6064 8.1 12.5764 7.995 12.5164 7.945C12.4564 7.885 12.3464 7.855 12.1864 7.855H11.7514C11.5814 7.855 11.4664 7.885 11.4064 7.945C11.3464 7.995 11.3164 8.1 11.3164 8.26Z" fill="#C2E978"/>
</svg>
