<svg width="24" height="24" viewBox="0 0 24 24" fill="none" xmlns="http://www.w3.org/2000/svg">
<path opacity="0.1" fill-rule="evenodd" clip-rule="evenodd" d="M2.58337 2.58279C4.5698 0.596612 7.69461 0 12.0006 0C16.3065 0 19.4311 0.596604 21.4173 2.58285C23.4034 4.56908 24 7.69379 24 12C24 16.3132 23.3775 19.4353 21.3795 21.4196C19.3832 23.4021 16.2629 24 12.0006 24C7.73821 24 4.61772 23.4021 2.62111 21.4196C0.622768 19.4354 0 16.3133 0 12C0 7.69371 0.596908 4.569 2.58337 2.58279Z" fill="#C2E978"/>
<path d="M11.2226 8.26V9.535H9.49764V8.02C9.49764 7.03 10.0426 6.535 11.1326 6.535H12.6476C13.7376 6.535 14.2826 7.03 14.2826 8.02V10.045C14.2826 10.665 14.0726 11.045 13.6526 11.185C14.0726 11.325 14.2826 11.685 14.2826 12.265V14.515C14.2826 15.505 13.7376 16 12.6476 16H11.1326C10.0426 16 9.49764 15.505 9.49764 14.515V13.015H11.2226V14.275C11.2226 14.435 11.2526 14.545 11.3126 14.605C11.3726 14.655 11.4826 14.68 11.6426 14.68H12.1526C12.3126 14.68 12.4226 14.655 12.4826 14.605C12.5426 14.545 12.5726 14.435 12.5726 14.275V12.25C12.5726 12.09 12.5426 11.98 12.4826 11.92C12.4326 11.86 12.3226 11.83 12.1526 11.83H10.9976V10.57H12.1526C12.3126 10.57 12.4226 10.545 12.4826 10.495C12.5426 10.435 12.5726 10.325 12.5726 10.165V8.26C12.5726 8.1 12.5426 7.995 12.4826 7.945C12.4226 7.885 12.3126 7.855 12.1526 7.855H11.6426C11.4826 7.855 11.3726 7.885 11.3126 7.945C11.2526 7.995 11.2226 8.1 11.2226 8.26Z" fill="#C2E978"/>
</svg>
